<svg width="48" height="48" viewBox="0 0 48 48" fill="none" xmlns="http://www.w3.org/2000/svg">
<path opacity="0.5" fill-rule="evenodd" clip-rule="evenodd" d="M45.0348 13.7871C44.6784 12.7652 44.1346 11.8185 43.4306 10.9955C43.2094 10.7356 42.9674 10.4941 42.707 10.2732C40.4456 8.49472 37.5964 7.63058 34.726 7.85258H13.2086C8.08354 7.85258 4.95374 9.5119 3.42798 12.772C2.9129 13.8283 2.55068 14.9522 2.3521 16.1102C2.3521 16.3786 2.2986 16.6471 2.24416 16.9203C2.2115 17.0841 2.1785 17.2498 2.1565 17.4181C2.05186 18.3776 1.99962 19.3421 2 20.3073V31.8639C1.99958 32.8383 2.07808 33.8111 2.23474 34.7727C2.48112 36.4721 3.06644 38.1051 3.95612 39.5749C4.3614 40.2843 4.85428 40.9403 5.42322 41.5271C8.03816 43.9187 11.5051 45.1633 15.0473 44.9825H32.9264C36.463 45.1647 39.9242 43.9195 42.5308 41.5271C43.1066 40.9413 43.6062 40.2855 44.0176 39.5749C44.9124 38.1041 45.5106 36.4727 45.778 34.7727C45.9184 33.8095 45.9904 32.8375 45.9932 31.8639V20.3073C46.06 18.0946 45.7356 15.8874 45.0348 13.7871Z" fill="url(#paint0_linear_728_80)"/>
<path d="M24.3788 32.3416C23.2762 32.7884 22.0956 33.012 20.906 32.9996C18.5354 32.9748 16.2704 32.0156 14.6029 30.3306C12.9353 28.6456 12 26.3706 12 24C12 21.6294 12.9353 19.3544 14.6029 17.6694C16.2704 15.9843 18.5354 15.0252 20.906 15.0005C22.0956 14.988 23.2762 15.2116 24.3788 15.6583C25.4816 16.105 26.485 16.7659 27.3306 17.6029C28.1764 18.4398 28.8476 19.436 29.3058 20.5342C29.764 21.6322 30 22.8102 30 24C30 25.1898 29.764 26.3678 29.3058 27.4658C28.8476 28.564 28.1764 29.5602 27.3306 30.3972C26.485 31.234 25.4816 31.895 24.3788 32.3416Z" fill="url(#paint1_linear_728_80)"/>
<path d="M28.5 31.5012C28.8214 31.1802 29.2572 31 29.7116 31C30.1662 31 30.6022 31.1804 30.9238 31.5018L35.4974 36.073C35.8192 36.3948 36 36.8312 36 37.2864C36 37.7416 35.8192 38.178 35.4974 38.4998C35.1756 38.8216 34.7392 39.0024 34.284 39.0024C33.829 39.0024 33.3924 38.8216 33.0706 38.4998L28.5018 33.9238C28.1804 33.6022 28 33.1662 28 32.7116C28 32.2578 28.1798 31.8226 28.5 31.5012Z" fill="url(#paint2_linear_728_80)"/>
<path d="M25.8999 8C25.8999 8 24.5 8 23.8756 7.33221L21.7655 4.72632C20.7709 3.61577 19.2553 2.9785 17.6614 3.00055H13.1314C7.3999 3.00055 2.00079 5.5 2.00014 14.5113L2.00079 18.7391C1.99069 19.6007 2.03123 13.6521 5 11C5 11 7.06043 8 13 8C17.4533 8 23 8 23 8C24.5 8 23.8999 8 25.8999 8Z" fill="url(#paint3_linear_728_80)"/>
<defs>
<linearGradient id="paint0_linear_728_80" x1="24.0008" y1="44.9999" x2="24.0008" y2="7.81836" gradientUnits="userSpaceOnUse">
<stop stop-color="#5570FF"/>
<stop offset="1" stop-color="#4DD3FF"/>
</linearGradient>
<linearGradient id="paint1_linear_728_80" x1="24.0008" y1="44.9999" x2="24.0008" y2="7.81836" gradientUnits="userSpaceOnUse">
<stop stop-color="#5570FF"/>
<stop offset="1" stop-color="#4DD3FF"/>
</linearGradient>
<linearGradient id="paint2_linear_728_80" x1="24.0008" y1="44.9999" x2="24.0008" y2="7.81836" gradientUnits="userSpaceOnUse">
<stop stop-color="#5570FF"/>
<stop offset="1" stop-color="#4DD3FF"/>
</linearGradient>
<linearGradient id="paint3_linear_728_80" x1="13.8999" y1="15.5" x2="13.8999" y2="4" gradientUnits="userSpaceOnUse">
<stop stop-color="#5570FF"/>
<stop offset="1" stop-color="#4CE1FF"/>
</linearGradient>
</defs>
</svg>
