<svg width="48" height="48" viewBox="0 0 48 48" fill="none" xmlns="http://www.w3.org/2000/svg">
<path opacity="0.5" fill-rule="evenodd" clip-rule="evenodd" d="M43.4306 11.1771C44.1346 12.0001 44.6784 12.9468 45.0348 13.9687C45.7356 16.069 46.06 18.2762 45.9932 20.4889V32.0455C45.9904 33.0191 45.9184 33.9911 45.778 34.9543C45.5106 36.6543 44.9124 38.2857 44.0176 39.7565C43.6062 40.4671 43.1066 41.1229 42.5308 41.7087C39.9242 44.1011 36.463 45.3463 32.9264 45.1641H15.0473C11.5051 45.3449 8.03816 44.1003 5.42322 41.7087C4.85428 41.1219 4.3614 40.4659 3.95612 39.7565C3.06644 38.2867 2.48112 36.6537 2.23474 34.9543C2.07808 33.9927 1.99958 33.0199 2 32.0455V20.4889C1.99962 19.5237 2.05186 18.5592 2.1565 17.5997C2.1785 17.4314 2.2115 17.2657 2.24416 17.1019C2.2986 16.8287 2.3521 16.5602 2.3521 16.2918C2.55068 15.1338 2.9129 14.0099 3.42798 12.9536C4.95374 9.69354 8.08354 8.03422 13.2086 8.03422H34.726C37.5964 7.81222 40.4456 8.67636 42.707 10.4548C42.9674 10.6757 43.2094 10.9172 43.4306 11.1771Z" fill="url(#paint0_linear_728_135)"/>
<path d="M32.6666 27.1938C32.6666 27.8256 32.4772 28.4598 32.0984 28.9678C32.0274 29.0674 31.696 29.478 31.4356 29.7454L31.2936 29.8912C29.305 32.105 24.357 35.4344 21.8476 36.5012C21.8476 36.5254 20.356 37.1598 19.6458 37.1816H19.5511C18.4621 37.1816 17.4441 36.5522 16.9233 35.5316C16.7104 35.1109 16.5108 34.091 16.4142 33.5971L16.414 33.5962C16.3818 33.4316 16.361 33.3256 16.3551 33.3202C16.142 31.8596 16 29.6238 16 27.1694C16 24.596 16.142 22.2606 16.4025 20.8268C16.4025 20.8024 16.6629 19.4902 16.8286 19.0528C17.089 18.4234 17.5625 17.8863 18.1544 17.5461C18.6278 17.3055 19.125 17.1816 19.6458 17.1816C20.1904 17.2083 21.2084 17.5704 21.6108 17.7405C24.2624 18.8098 29.3286 22.3092 31.2698 24.4476C31.4764 24.6598 31.6922 24.901 31.8484 25.0756L31.8595 25.088C31.9485 25.1876 32.0168 25.264 32.0512 25.2982C32.4536 25.8328 32.6666 26.489 32.6666 27.1938Z" fill="url(#paint1_linear_728_135)"/>
<path d="M25.8999 8C25.8999 8 24.5 8 23.8756 7.33221L21.7655 4.72632C20.7709 3.61577 19.2553 2.9785 17.6614 3.00055H13.1314C7.3999 3.00055 2.00079 5.5 2.00014 14.5113L2.00079 18.7391C1.99069 19.6007 2.03123 13.6521 5 11C5 11 7.06043 8 13 8C17.4533 8 23 8 23 8C24.5 8 23.8999 8 25.8999 8Z" fill="url(#paint2_linear_728_135)"/>
<defs>
<linearGradient id="paint0_linear_728_135" x1="24" y1="-2.37347e-07" x2="24" y2="50" gradientUnits="userSpaceOnUse">
<stop stop-color="#F9D423"/>
<stop offset="0.515624" stop-color="#FF4E50"/>
<stop offset="0.991304" stop-color="#8A2387"/>
</linearGradient>
<linearGradient id="paint1_linear_728_135" x1="1.36399" y1="8.36586" x2="38.9688" y2="54.2299" gradientUnits="userSpaceOnUse">
<stop stop-color="#F9D423"/>
<stop offset="0.515624" stop-color="#FF4E50"/>
<stop offset="0.991304" stop-color="#8A2387"/>
</linearGradient>
<linearGradient id="paint2_linear_728_135" x1="-18.988" y1="-3.97489" x2="3.79936" y2="46.398" gradientUnits="userSpaceOnUse">
<stop stop-color="#F9D423"/>
<stop offset="0.515624" stop-color="#FF4E50"/>
<stop offset="0.991304" stop-color="#8A2387"/>
</linearGradient>
</defs>
</svg>
