<svg width="48" height="48" viewBox="0 0 48 48" fill="none" xmlns="http://www.w3.org/2000/svg">
<path opacity="0.5" fill-rule="evenodd" clip-rule="evenodd" d="M43.4306 10.9955C44.1346 11.8185 44.6784 12.7652 45.0348 13.7871C45.7356 15.8874 46.06 18.0946 45.9932 20.3072V31.864C45.9904 32.8374 45.9184 33.8094 45.778 34.7726C45.5106 36.4726 44.9124 38.104 44.0176 39.575C43.6062 40.2854 43.1066 40.9414 42.5308 41.527C39.9242 43.9194 36.463 45.1646 32.9264 44.9824H15.0473C11.5051 45.1634 8.03816 43.9186 5.42322 41.527C4.85428 40.9402 4.3614 40.2844 3.95612 39.575C3.06644 38.1052 2.48112 36.4722 2.23474 34.7726C2.07808 33.811 1.99958 32.8382 2 31.864V20.3072C1.99962 19.342 2.05186 18.3776 2.1565 17.4181C2.1785 17.2497 2.2115 17.0841 2.24416 16.9203C2.2986 16.647 2.3521 16.3786 2.3521 16.1102C2.55068 14.9522 2.9129 13.8283 3.42798 12.772C4.95374 9.5119 8.08354 7.85258 13.2086 7.85258H34.726C37.5964 7.63058 40.4456 8.49472 42.707 10.2732C42.9674 10.4941 43.2094 10.7356 43.4306 10.9955Z" fill="url(#paint0_linear_729_229)"/>
<path fill-rule="evenodd" clip-rule="evenodd" d="M19.326 26.2014L18.9002 25.8396C18.7641 25.7238 18.6856 25.5542 18.6856 25.3756V22.6122V21.0898V19.5674C18.6856 18.7239 19.3646 18.0449 20.208 18.0449H21.1216C21.4578 18.0449 21.7306 17.7722 21.7306 17.4359V15.609C21.7306 15.2726 22.0032 15 22.3394 15H24.1664C24.5028 15 24.7754 15.2726 24.7754 15.609V17.4359C24.7754 17.7722 25.048 18.0449 25.3844 18.0449H26.2978C27.1414 18.0449 27.8204 18.7239 27.8204 19.5674V21.0898V22.6122V25.3756C27.8204 25.5542 27.742 25.7238 27.6058 25.8396L26.9064 26.4342L29.4752 30.7476C31.1898 29.1492 32.2984 26.9196 32.3828 24.4398C32.3884 24.2718 32.5242 24.1348 32.6924 24.1348H35.1284C35.2964 24.1348 35.4332 24.272 35.429 24.44C35.3382 28.0312 33.6504 31.2366 31.0602 33.4092L32.3104 35.5084C32.3358 35.551 32.3504 35.5994 32.3528 35.649L32.5052 38.6792C32.5184 38.942 32.2146 39.0966 32.0098 38.9312L29.7262 37.0878C29.6988 37.0656 29.6754 37.0388 29.6572 37.0086L28.4864 35.0768C26.8524 35.8694 25.0224 36.3142 23.101 36.3142C21.3936 36.3104 19.7071 35.9476 18.1508 35.2508C18.0041 35.185 17.8305 35.2402 17.7523 35.3806L16.8496 37.003C16.8306 37.0372 16.8052 37.0674 16.7748 37.092L14.4958 38.9316C14.291 39.097 13.9872 38.9424 14.0004 38.6796L14.153 35.6442C14.1553 35.598 14.1682 35.553 14.1905 35.5124L19.326 26.2014ZM23.253 24.1348C24.0938 24.1348 24.7754 23.453 24.7754 22.6122C24.7754 21.7714 24.0938 21.0898 23.253 21.0898C22.4122 21.0898 21.7306 21.7714 21.7306 22.6122C21.7306 23.453 22.4122 24.1348 23.253 24.1348ZM24.486 28.476C23.6884 28.9738 22.4456 28.8232 21.7306 28.2454L21.6898 28.2108L19.5321 32.1698C19.4473 32.3252 19.5125 32.5204 19.6763 32.5874C20.7624 33.0326 21.9252 33.2644 23.101 33.2694C24.4456 33.2694 25.7332 32.9788 26.8986 32.4572L24.486 28.476Z" fill="url(#paint1_linear_729_229)"/>
<path d="M25.8999 8C25.8999 8 24.5 8 23.8756 7.33221L21.7655 4.72632C20.7709 3.61577 19.2553 2.9785 17.6614 3.00055H13.1314C7.3999 3.00055 2.00079 5.5 2.00014 14.5113L2.00079 18.7391C1.99069 19.6007 2.03123 13.6521 5 11C5 11 7.06043 8 13 8C17.4533 8 23 8 23 8C24.5 8 23.8999 8 25.8999 8Z" fill="url(#paint2_linear_729_229)"/>
<defs>
<linearGradient id="paint0_linear_729_229" x1="21" y1="6.97332" x2="22.4272" y2="50.089" gradientUnits="userSpaceOnUse">
<stop stop-color="#F9D423"/>
<stop offset="0.515624" stop-color="#FF4E50"/>
<stop offset="0.991304" stop-color="#8A2387"/>
</linearGradient>
<linearGradient id="paint1_linear_729_229" x1="21" y1="6.97332" x2="22.4272" y2="50.089" gradientUnits="userSpaceOnUse">
<stop stop-color="#F9D423"/>
<stop offset="0.515624" stop-color="#FF4E50"/>
<stop offset="0.991304" stop-color="#8A2387"/>
</linearGradient>
<linearGradient id="paint2_linear_729_229" x1="12.32" y1="2.64038" x2="12.7961" y2="20.9972" gradientUnits="userSpaceOnUse">
<stop stop-color="#F9D423"/>
<stop offset="0.515624" stop-color="#FF4E50"/>
<stop offset="0.991304" stop-color="#8A2387"/>
</linearGradient>
</defs>
</svg>
