<svg width="48" height="48" viewBox="0 0 48 48" fill="none" xmlns="http://www.w3.org/2000/svg">
<path opacity="0.5" fill-rule="evenodd" clip-rule="evenodd" d="M45.0348 13.9687C44.6784 12.9468 44.1346 12.0001 43.4306 11.1771C43.2094 10.9172 42.9674 10.6757 42.707 10.4548C40.4456 8.67636 37.5964 7.81222 34.726 8.03422H13.2086C8.08354 8.03422 4.95374 9.69354 3.42798 12.9536C2.9129 14.0099 2.55068 15.1338 2.3521 16.2918C2.3521 16.5602 2.2986 16.8287 2.24416 17.1019C2.2115 17.2657 2.1785 17.4314 2.1565 17.5997C2.05186 18.5592 1.99962 19.5237 2 20.4889V32.0455C1.99958 33.0199 2.07808 33.9927 2.23474 34.9543C2.48112 36.6537 3.06644 38.2867 3.95612 39.7565C4.3614 40.4659 4.85428 41.1219 5.42322 41.7087C8.03816 44.1003 11.5051 45.3449 15.0473 45.1641H32.9264C36.463 45.3463 39.9242 44.1011 42.5308 41.7087C43.1066 41.1229 43.6062 40.4671 44.0176 39.7565C44.9124 38.2857 45.5106 36.6543 45.778 34.9543C45.9184 33.9911 45.9904 33.0191 45.9932 32.0455V20.4889C46.06 18.2762 45.7356 16.069 45.0348 13.9687Z" fill="url(#paint0_linear_729_250)"/>
<path d="M20.1902 19.9768C19.7582 20.752 19.5422 21.1396 19.2062 21.3952C18.8702 21.6508 18.4503 21.7456 17.6103 21.9352L16.8483 22.108L16.8432 22.1092L16.8428 22.1093C13.8945 22.7769 12.4201 23.1107 12.0687 24.2392C11.7183 25.3672 12.7239 26.5444 14.7363 28.8976L15.2571 29.506L15.2623 29.5122L15.2625 29.5125C15.83 30.1765 16.1155 30.5105 16.2435 30.922C16.3719 31.336 16.3287 31.7824 16.2423 32.674L16.1631 33.4864L16.1625 33.4926L16.1625 33.4927C15.8593 36.6289 15.7077 38.1968 16.6263 38.8936C17.5455 39.592 18.9278 38.956 21.6902 37.6828L22.4066 37.354C23.1914 36.9916 23.5838 36.8116 24.0002 36.8116C24.4166 36.8116 24.809 36.9916 25.595 37.354L26.309 37.6828C29.0726 38.9548 30.455 39.5908 31.373 38.8948C32.2928 38.1968 32.1412 36.6289 31.838 33.4927L31.838 33.4926L31.8374 33.4864L31.781 32.902L31.757 32.674L31.7562 32.6654C31.6714 31.7794 31.629 31.3346 31.757 30.922C31.8854 30.5092 32.171 30.1744 32.7434 29.506L33.2642 28.8976C35.2766 26.5456 36.282 25.3684 35.9304 24.2392C35.5802 23.11 34.1042 22.7752 31.1522 22.108L30.389 21.9352L30.387 21.9348L30.3849 21.9344C29.5489 21.7453 29.1295 21.6504 28.793 21.3952C28.457 21.1396 28.241 20.752 27.809 19.9768L27.4166 19.2712L27.4142 19.2668C25.8954 16.5433 25.136 15.1816 24.0002 15.1816C22.8644 15.1816 22.105 16.5433 20.5862 19.2668L20.5838 19.2712L20.1902 19.9768Z" fill="url(#paint1_linear_729_250)"/>
<path d="M25.8999 8C25.8999 8 24.5 8 23.8756 7.33221L21.7655 4.72632C20.7709 3.61577 19.2553 2.9785 17.6614 3.00055H13.1314C7.3999 3.00055 2.00079 5.5 2.00014 14.5113L2.00079 18.7391C1.99069 19.6007 2.03123 13.6521 5 11C5 11 7.06043 8 13 8C17.4533 8 23 8 23 8C24.5 8 23.8999 8 25.8999 8Z" fill="url(#paint2_linear_729_250)"/>
<defs>
<linearGradient id="paint0_linear_729_250" x1="24.0008" y1="45.1815" x2="24.0008" y2="8" gradientUnits="userSpaceOnUse">
<stop stop-color="#FD5900"/>
<stop offset="1" stop-color="#FFDE00"/>
</linearGradient>
<linearGradient id="paint1_linear_729_250" x1="24.0008" y1="45.1815" x2="24.0008" y2="8" gradientUnits="userSpaceOnUse">
<stop stop-color="#FD5900"/>
<stop offset="1" stop-color="#FFDE00"/>
</linearGradient>
<linearGradient id="paint2_linear_729_250" x1="13.95" y1="18.8236" x2="13.95" y2="3.00001" gradientUnits="userSpaceOnUse">
<stop stop-color="#FD5900"/>
<stop offset="1" stop-color="#FFDE00"/>
</linearGradient>
</defs>
</svg>
