<svg width="48" height="48" viewBox="0 0 48 48" fill="none" xmlns="http://www.w3.org/2000/svg">
<path opacity="0.5" fill-rule="evenodd" clip-rule="evenodd" d="M45.0348 13.9687C44.6784 12.9468 44.1346 12.0001 43.4306 11.1771C43.2094 10.9172 42.9674 10.6757 42.707 10.4548C40.4456 8.67636 37.5964 7.81222 34.726 8.03422H13.2086C8.08354 8.03422 4.95374 9.69354 3.42798 12.9536C2.9129 14.0099 2.55068 15.1338 2.3521 16.2918C2.3521 16.5602 2.2986 16.8286 2.24416 17.1019C2.2115 17.2657 2.1785 17.4313 2.1565 17.5997C2.05186 18.5592 1.99962 19.5236 2 20.4888V32.0456C1.99958 33.0198 2.07808 33.9926 2.23474 34.9542C2.48112 36.6538 3.06644 38.2868 3.95612 39.7566C4.3614 40.466 4.85428 41.1218 5.42322 41.7086C8.03816 44.1002 11.5051 45.345 15.0473 45.164H32.9264C36.463 45.3462 39.9242 44.101 42.5308 41.7086C43.1066 41.123 43.6062 40.467 44.0176 39.7566C44.9124 38.2856 45.5106 36.6542 45.778 34.9542C45.9184 33.991 45.9904 33.019 45.9932 32.0456V20.4888C46.06 18.2762 45.7356 16.069 45.0348 13.9687Z" fill="url(#paint0_linear_729_241)"/>
<path d="M23.1062 23.5902L16.697 16.7838C15.9637 16.005 14.7345 15.978 13.9677 16.7238L13.5797 17.1012C12.8298 17.8307 12.8041 19.027 13.522 19.788L17.25 23.7394C17.9737 24.5066 17.9774 25.7038 17.2583 26.4754L13.5519 30.4524C12.8418 31.2146 12.8709 32.4044 13.6176 33.1306L14.0057 33.5082C14.7756 34.257 16.0108 34.2262 16.7425 33.4402L23.1042 26.6056L23.1068 26.603L23.2902 26.4074C23.9794 25.6722 23.981 24.5286 23.2938 23.7914L23.1062 23.5902Z" fill="url(#paint1_linear_729_241)"/>
<path d="M21.7278 34.1382C20.7172 34.1382 19.8979 34.9574 19.8979 35.968V36.5168C19.8979 37.5274 20.7172 38.3466 21.7278 38.3466H34.1702C35.1808 38.3466 36 37.5274 36 36.5168V35.968C36 34.9574 35.1808 34.1382 34.1702 34.1382H21.7278Z" fill="url(#paint2_linear_729_241)"/>
<path d="M25.8999 8C25.8999 8 24.5 8 23.8756 7.33221L21.7655 4.72632C20.7709 3.61577 19.2553 2.9785 17.6614 3.00055H13.1314C7.3999 3.00055 2.00079 5.5 2.00014 14.5113L2.00079 18.7391C1.99069 19.6007 2.03123 13.6521 5 11C5 11 7.06043 8 13 8C17.4533 8 23 8 23 8C24.5 8 23.8999 8 25.8999 8Z" fill="url(#paint3_linear_729_241)"/>
<defs>
<linearGradient id="paint0_linear_729_241" x1="1.36399" y1="8.36586" x2="38.9688" y2="54.23" gradientUnits="userSpaceOnUse">
<stop stop-color="#F9D423"/>
<stop offset="0.515624" stop-color="#FF4E50"/>
<stop offset="0.991304" stop-color="#8A2387"/>
</linearGradient>
<linearGradient id="paint1_linear_729_241" x1="1.36399" y1="8.36586" x2="38.9688" y2="54.23" gradientUnits="userSpaceOnUse">
<stop stop-color="#F9D423"/>
<stop offset="0.515624" stop-color="#FF4E50"/>
<stop offset="0.991304" stop-color="#8A2387"/>
</linearGradient>
<linearGradient id="paint2_linear_729_241" x1="1.36399" y1="8.36586" x2="38.9688" y2="54.23" gradientUnits="userSpaceOnUse">
<stop stop-color="#F9D423"/>
<stop offset="0.515624" stop-color="#FF4E50"/>
<stop offset="0.991304" stop-color="#8A2387"/>
</linearGradient>
<linearGradient id="paint3_linear_729_241" x1="12.32" y1="2.64038" x2="12.7961" y2="20.9972" gradientUnits="userSpaceOnUse">
<stop stop-color="#F9D423"/>
<stop offset="0.515624" stop-color="#FF4E50"/>
<stop offset="0.991304" stop-color="#8A2387"/>
</linearGradient>
</defs>
</svg>
