<svg width="48" height="48" viewBox="0 0 48 48" fill="none" xmlns="http://www.w3.org/2000/svg">
<path opacity="0.5" fill-rule="evenodd" clip-rule="evenodd" d="M43.4306 11.1771C44.1346 12.0001 44.6784 12.9468 45.0348 13.9687C45.7356 16.069 46.06 18.2762 45.9932 20.4888V32.0456C45.9904 33.019 45.9184 33.991 45.778 34.9542C45.5106 36.6542 44.9124 38.2856 44.0176 39.7566C43.6062 40.467 43.1066 41.123 42.5308 41.7086C39.9242 44.101 36.463 45.3462 32.9264 45.164H15.0473C11.5051 45.345 8.03816 44.1002 5.42322 41.7086C4.85428 41.1218 4.3614 40.466 3.95612 39.7566C3.06644 38.2868 2.48112 36.6538 2.23474 34.9542C2.07808 33.9926 1.99958 33.0198 2 32.0456V20.4888C1.99962 19.5236 2.05186 18.5592 2.1565 17.5997C2.1785 17.4313 2.2115 17.2657 2.24416 17.1019C2.2986 16.8286 2.3521 16.5602 2.3521 16.2918C2.55068 15.1338 2.9129 14.0099 3.42798 12.9536C4.95374 9.69354 8.08354 8.03422 13.2086 8.03422H34.726C37.5964 7.81222 40.4456 8.67636 42.707 10.4548C42.9674 10.6757 43.2094 10.9172 43.4306 11.1771Z" fill="url(#paint0_linear_728_86)"/>
<path fill-rule="evenodd" clip-rule="evenodd" d="M32.3376 18.0357C32.237 17.7339 32.0208 17.4844 31.7364 17.3421C31.4518 17.2 31.1226 17.1766 30.8208 17.2772C30.519 17.3778 30.2696 17.5941 30.1272 17.8785L28.7664 20.5989C27.306 19.9653 25.6932 19.6149 24 19.6149C22.3606 19.6127 20.7382 19.9477 19.2336 20.5989L17.8728 17.8785C17.8054 17.7326 17.7094 17.6017 17.5905 17.4936C17.4715 17.3855 17.3321 17.3025 17.1804 17.2493C17.0288 17.1961 16.868 17.1739 16.7076 17.1841C16.5472 17.1943 16.3905 17.2365 16.2468 17.3084C16.103 17.3803 15.9752 17.4803 15.8708 17.6025C15.7665 17.7247 15.6877 17.8666 15.6393 18.0199C15.5908 18.1731 15.5736 18.3345 15.5887 18.4945C15.6038 18.6545 15.6509 18.8098 15.7272 18.9513L17.136 21.7701C15.5493 22.8751 14.2535 24.3475 13.3592 26.0619C12.4648 27.7761 11.9985 29.6813 12 31.6149V32.8149C12 33.4513 12.2529 34.0619 12.7029 34.5119C13.153 34.9621 13.7635 35.2149 14.4 35.2149H33.6C34.2366 35.2149 34.847 34.9621 35.297 34.5119C35.7472 34.0619 36 33.4513 36 32.8149V31.6149C36.0014 29.6815 35.5348 27.7765 34.6406 26.0625C33.7462 24.3485 32.4506 22.8761 30.864 21.7713L32.2728 18.9513C32.415 18.6667 32.4382 18.3374 32.3376 18.0357ZM17.3272 27.3421C17.6649 27.0045 18.1226 26.8149 18.6 26.8149C19.0774 26.8149 19.5352 27.0045 19.8729 27.3421C20.2105 27.6797 20.4 28.1375 20.4 28.6149C20.4 29.0923 20.2105 29.5501 19.8729 29.8877C19.5352 30.2253 19.0774 30.4149 18.6 30.4149C18.1226 30.4149 17.6649 30.2253 17.3272 29.8877C16.9896 29.5501 16.8 29.0923 16.8 28.6149C16.8 28.1375 16.9896 27.6797 17.3272 27.3421ZM28.1272 27.3421C28.4648 27.0045 28.9226 26.8149 29.4 26.8149C29.8774 26.8149 30.3353 27.0045 30.6728 27.3421C31.0104 27.6797 31.2001 28.1375 31.2001 28.6149C31.2001 29.0923 31.0104 29.5501 30.6728 29.8877C30.3353 30.2253 29.8774 30.4149 29.4 30.4149C28.9226 30.4149 28.4648 30.2253 28.1272 29.8877C27.7896 29.5501 27.6 29.0923 27.6 28.6149C27.6 28.1375 27.7896 27.6797 28.1272 27.3421Z" fill="url(#paint1_linear_728_86)"/>
<path d="M26 8C26 8 24.6001 8 23.9757 7.33221L21.8656 4.72632C20.871 3.61577 19.3554 2.9785 17.7615 3.00055H13.2315C7.5 3.00055 2.10089 5.5 2.10024 14.5113L2.10089 18.7391C2.09079 19.6007 2.13132 13.6521 5.1001 11C5.1001 11 7.16053 8 13.1001 8C17.5534 8 23.1001 8 23.1001 8C24.6001 8 24 8 26 8Z" fill="url(#paint2_linear_728_86)"/>
<defs>
<linearGradient id="paint0_linear_728_86" x1="24.0008" y1="45.1816" x2="24.0008" y2="8" gradientUnits="userSpaceOnUse">
<stop stop-color="#02AA93"/>
<stop offset="1" stop-color="#67FF80"/>
</linearGradient>
<linearGradient id="paint1_linear_728_86" x1="24.0008" y1="45.1816" x2="24.0008" y2="8" gradientUnits="userSpaceOnUse">
<stop stop-color="#02AA93"/>
<stop offset="1" stop-color="#67FF80"/>
</linearGradient>
<linearGradient id="paint2_linear_728_86" x1="14.1001" y1="14.5" x2="14.1001" y2="2.5" gradientUnits="userSpaceOnUse">
<stop stop-color="#02AA93"/>
<stop offset="1" stop-color="#67FF80"/>
</linearGradient>
</defs>
</svg>
