<svg width="48" height="48" viewBox="0 0 48 48" fill="none" xmlns="http://www.w3.org/2000/svg">
<path opacity="0.5" fill-rule="evenodd" clip-rule="evenodd" d="M45.0348 14.7871C44.6784 13.7652 44.1346 12.8185 43.4306 11.9955C43.2094 11.7356 42.9674 11.4941 42.707 11.2732C40.4456 9.49472 37.5964 8.63058 34.726 8.85258H13.2086C8.08354 8.85258 4.95374 10.5119 3.42798 13.772C2.9129 14.8283 2.55068 15.9522 2.3521 17.1102C2.3521 17.3786 2.2986 17.6471 2.24416 17.9203C2.2115 18.0841 2.1785 18.2498 2.1565 18.4181C2.05186 19.3776 1.99962 20.3421 2 21.3073V32.8639C1.99958 33.8383 2.07808 34.8111 2.23474 35.7727C2.48112 37.4721 3.06644 39.1051 3.95612 40.5749C4.3614 41.2843 4.85428 41.9403 5.42322 42.5271C8.03816 44.9187 11.5051 46.1633 15.0473 45.9825H32.9264C36.463 46.1647 39.9242 44.9195 42.5308 42.5271C43.1066 41.9413 43.6062 41.2855 44.0176 40.5749C44.9124 39.1041 45.5106 37.4727 45.778 35.7727C45.9184 34.8095 45.9904 33.8375 45.9932 32.8639V21.3073C46.06 19.0946 45.7356 16.8874 45.0348 14.7871Z" fill="url(#paint0_linear_728_101)"/>
<path d="M33.2298 25.211L24.838 28.5666V36.3734C24.8376 37.179 24.5692 37.9616 24.075 38.5976C23.5808 39.2338 22.8888 39.6874 22.1082 39.887C21.3278 40.0864 20.503 40.0204 19.7642 39.6994C19.0253 39.3784 18.4143 38.8206 18.0274 38.114C17.6406 37.4074 17.4999 36.592 17.6276 35.7966C17.7553 35.0012 18.1441 34.271 18.7327 33.721C19.3213 33.1708 20.0762 32.8324 20.8786 32.7588C21.191 32.7302 21.504 32.7424 21.8094 32.7936C22.4328 32.898 23.1634 32.4858 23.1634 31.854V24.4374V24.4374C23.1634 23.754 23.1634 23.1748 23.2148 22.6992C23.2696 22.1924 23.3902 21.7268 23.6782 21.2936C23.9662 20.8606 24.349 20.5702 24.7956 20.3246C25.2142 20.0936 25.7478 19.8692 26.3786 19.6057L28.7162 18.6278L28.719 18.6266C30.0619 18.0646 31.1572 17.6061 32.0408 17.3808C32.955 17.1475 33.8426 17.1107 34.6328 17.6354L34.6408 17.6409C34.917 17.8257 35.1526 18.065 35.3328 18.3442C35.6286 18.7986 35.7804 19.3411 35.8676 19.9239C35.8848 20.0408 35.8998 20.158 35.9122 20.2756C36.0016 21.1284 36.0016 22.198 36.0016 23.4737V23.4738V34.1418C36.0012 34.9474 35.7328 35.73 35.2384 36.366C34.7442 37.0022 34.0524 37.4558 33.2718 37.6554C32.4912 37.8548 31.6666 37.7888 30.9276 37.4678C30.1888 37.1468 29.5778 36.589 29.191 35.8824C28.804 35.1758 28.6634 34.3604 28.7912 33.565C28.9188 32.7696 29.3076 32.0394 29.8962 31.4894C30.4848 30.9392 31.2398 30.6008 32.042 30.5272C32.3546 30.4986 32.6674 30.5108 32.973 30.562C33.5962 30.6664 34.327 30.2542 34.327 29.6224V25.9538C34.327 25.3878 33.7554 25.0008 33.2298 25.211Z" fill="url(#paint1_linear_728_101)"/>
<path d="M19.2563 16.8372C19.2563 16.6152 19.1681 16.4022 19.0111 16.2452C18.854 16.0882 18.6411 16 18.419 16C18.197 16 17.984 16.0882 17.827 16.2452C17.67 16.4022 17.5818 16.6152 17.5818 16.8372V21.8068C17.5818 22.4388 16.851 22.8508 16.2278 22.7464C15.9222 22.6952 15.6093 22.683 15.2968 22.7118C14.4945 22.7854 13.7396 23.1238 13.151 23.6738C12.5624 24.2238 12.1736 24.9542 12.0459 25.7496C11.9182 26.545 12.0588 27.3602 12.4457 28.067C12.8325 28.7736 13.4436 29.3314 14.1825 29.6524C14.9213 29.9734 15.746 30.0394 16.5266 29.8398C17.3071 29.6404 17.999 29.1868 18.4932 28.5506C18.9875 27.9144 19.2559 27.1318 19.2563 26.3262V21.755C19.2563 21.1026 20.0302 20.6888 20.6582 20.8652C21.0368 20.9714 21.4144 21.0236 21.768 21.0236C21.9902 21.0236 22.203 20.9354 22.3602 20.7784C22.5172 20.6214 22.6054 20.4084 22.6054 20.1864C22.6054 19.9642 22.5172 19.7513 22.3602 19.5943C22.203 19.4372 21.9902 19.349 21.768 19.349C21.1612 19.3342 20.5766 19.1174 20.107 18.7328C19.6224 18.3343 19.2563 17.7281 19.2563 16.8372Z" fill="url(#paint2_linear_728_101)"/>
<path d="M25 9C25 9 24.5 9 23.8756 8.33221L21.7655 5.72632C20.7709 4.61577 19.2553 3.9785 17.6614 4.00055H13.1314C7.3999 4.00055 2.00079 6.5 2.00014 15.5113L2.00079 19.7391C1.99069 20.6007 2.03123 14.6521 5 12C5 12 7.06043 9 13 9C17.4533 9 23 9 23 9C24.5 9 23 9 25 9Z" fill="url(#paint3_linear_728_101)"/>
<defs>
<linearGradient id="paint0_linear_728_101" x1="24.0008" y1="45.9999" x2="24.0008" y2="8.81836" gradientUnits="userSpaceOnUse">
<stop stop-color="#A93AFF"/>
<stop offset="1" stop-color="#FF81FF"/>
</linearGradient>
<linearGradient id="paint1_linear_728_101" x1="24.0008" y1="45.9999" x2="24.0008" y2="8.81836" gradientUnits="userSpaceOnUse">
<stop stop-color="#A93AFF"/>
<stop offset="1" stop-color="#FF81FF"/>
</linearGradient>
<linearGradient id="paint2_linear_728_101" x1="24.0008" y1="45.9999" x2="24.0008" y2="8.81836" gradientUnits="userSpaceOnUse">
<stop stop-color="#A93AFF"/>
<stop offset="1" stop-color="#FF81FF"/>
</linearGradient>
<linearGradient id="paint3_linear_728_101" x1="13.5" y1="19.8236" x2="13.5" y2="4.00001" gradientUnits="userSpaceOnUse">
<stop stop-color="#A93AFF"/>
<stop offset="1" stop-color="#FF81FF"/>
</linearGradient>
</defs>
</svg>
