<svg width="48" height="48" viewBox="0 0 48 48" fill="none" xmlns="http://www.w3.org/2000/svg">
<path opacity="0.5" fill-rule="evenodd" clip-rule="evenodd" d="M43.4306 11.1771C44.1346 12.0001 44.6784 12.9468 45.0348 13.9687C45.7356 16.069 46.06 18.2762 45.9932 20.4889V32.0455C45.9904 33.0191 45.9184 33.9911 45.778 34.9543C45.5106 36.6543 44.9124 38.2857 44.0176 39.7565C43.6062 40.4671 43.1066 41.1229 42.5308 41.7087C39.9242 44.1011 36.463 45.3463 32.9264 45.1641H15.0473C11.5051 45.3449 8.03816 44.1003 5.42322 41.7087C4.85428 41.1219 4.3614 40.4659 3.95612 39.7565C3.06644 38.2867 2.48112 36.6537 2.23474 34.9543C2.07808 33.9927 1.99958 33.0199 2 32.0455V20.4889C1.99962 19.5237 2.05186 18.5592 2.1565 17.5997C2.1785 17.4314 2.2115 17.2657 2.24416 17.1019C2.2986 16.8287 2.3521 16.5602 2.3521 16.2918C2.55068 15.1338 2.9129 14.0099 3.42798 12.9536C4.95374 9.69354 8.08354 8.03422 13.2086 8.03422H34.726C37.5964 7.81222 40.4456 8.67636 42.707 10.4548C42.9674 10.6757 43.2094 10.9172 43.4306 11.1771Z" fill="url(#paint0_linear_729_253)"/>
<path d="M25.8999 8C25.8999 8 24.5 8 23.8756 7.33221L21.7655 4.72632C20.7709 3.61577 19.2553 2.9785 17.6614 3.00055H13.1314C7.3999 3.00055 2.00079 5.5 2.00014 14.5113L2.00079 18.7391C1.99069 19.6007 2.03123 13.6521 5 11C5 11 7.06043 8 13 8C17.4533 8 23 8 23 8C24.5 8 23.8999 8 25.8999 8Z" fill="url(#paint1_linear_729_253)"/>
<path fill-rule="evenodd" clip-rule="evenodd" d="M19.539 23.831C20.6312 24.2768 21.7904 24.556 22.9788 24.6582V25.9788H19.3006C19.3374 25.2588 19.4166 24.5418 19.539 23.831ZM28.4624 23.834C27.3682 24.2784 26.2086 24.5566 25.0212 24.6588V25.9788H28.6994C28.6626 25.2602 28.584 24.5438 28.4624 23.834ZM19.6193 30.646C20.688 30.2196 21.8196 29.9514 22.9788 29.8524V28.0212H19.3006C19.345 28.9022 19.4513 29.78 19.6193 30.646ZM28.3808 30.646C27.312 30.2196 26.1804 29.9514 25.0212 29.852V28.0212H28.6994C28.655 28.9022 28.5488 29.7794 28.3808 30.646ZM20.1436 32.6308C21.0434 32.2508 21.9984 32.0048 22.9788 31.9036V36.6966C22.7766 36.5938 22.5876 36.4724 22.412 36.3294C22.1106 36.0792 21.84 35.7932 21.6 35.4816C21.314 35.109 21.0638 34.7106 20.8494 34.297C20.5732 33.7578 20.3362 33.2016 20.1436 32.6308ZM27.8558 32.6328C26.9566 32.2524 26.0016 32.0052 25.0212 31.9036V36.6966C25.2234 36.5938 25.4124 36.4724 25.588 36.3294C25.8894 36.0792 26.16 35.7932 26.4 35.4816C26.686 35.109 26.9362 34.7106 27.1506 34.297C27.4268 33.7584 27.6632 33.2028 27.8558 32.6328ZM19.9961 21.814C20.9376 22.2306 21.9442 22.4998 22.9788 22.607V17.3034C22.7766 17.4061 22.5876 17.5277 22.412 17.6706C22.1106 17.9209 21.84 18.2068 21.6 18.5183C21.314 18.891 21.0638 19.2894 20.8494 19.703C20.5016 20.3816 20.2162 21.0872 19.9961 21.814ZM28.0054 21.819C27.0618 22.2332 26.0548 22.5002 25.0212 22.607V17.3034C25.2234 17.4061 25.4124 17.5277 25.588 17.6706C25.8894 17.9209 26.16 18.2068 26.4 18.5183C26.686 18.891 26.9362 19.2894 27.1506 19.703C27.4994 20.3836 27.7854 21.0914 28.0054 21.819ZM32.2484 21.4232C33.164 22.779 33.7358 24.3436 33.9048 25.9788H30.7446C30.6966 24.9334 30.5698 23.8918 30.364 22.8658C30.9294 22.5196 31.4646 22.1198 31.966 21.674L32.2484 21.4232ZM32.0298 32.8912C33.0726 31.465 33.7226 29.784 33.9048 28.0212H30.7446C30.6908 29.1856 30.5402 30.3452 30.291 31.4834C30.284 31.5176 30.2768 31.5518 30.2686 31.586C30.8936 31.9592 31.4824 32.398 32.0298 32.8912ZM15.9713 32.8928C14.928 31.466 14.2774 29.785 14.0951 28.0212H17.2554C17.3091 29.1856 17.4598 30.3452 17.709 31.4834C17.7161 31.5182 17.7233 31.5524 17.7319 31.587C17.1064 31.9604 16.5182 32.3994 15.9713 32.8928ZM17.3428 34.4084C17.9582 34.9592 18.6358 35.4286 19.3588 35.806C19.2414 35.618 19.1331 35.424 19.0314 35.2264C18.767 34.706 18.5321 34.172 18.3319 33.6256C17.9867 33.8634 17.6569 34.125 17.3428 34.4084ZM30.6582 34.4072C30.3442 34.125 30.0132 33.864 29.668 33.626C29.468 34.1724 29.233 34.7066 28.9686 35.2264C28.8668 35.424 28.7586 35.618 28.6412 35.806C29.3648 35.4286 30.0424 34.9588 30.6582 34.4072ZM17.0814 19.8588C17.7559 19.1994 18.5193 18.6429 19.3491 18.2104C19.2353 18.3932 19.13 18.5816 19.0314 18.7736C18.7006 19.4248 18.4157 20.0968 18.1854 20.787C17.7988 20.5042 17.4286 20.1952 17.0814 19.8588ZM30.6076 20.1472C30.3534 20.3734 30.0888 20.5858 29.811 20.7784C29.5818 20.0906 29.2978 19.4212 28.9686 18.7736C28.8684 18.579 28.7622 18.3881 28.6464 18.2027C29.4802 18.6347 30.2512 19.1912 30.937 19.8552L30.6076 20.1472ZM13.126 25.1106C13.6682 25.2628 14.2326 24.9472 14.3847 24.406L14.4409 24.1966C14.5961 23.6552 14.281 23.0916 13.7387 22.9378C13.1964 22.7842 12.6302 23.1012 12.4749 23.6452L12.4187 23.8494C12.2666 24.3932 12.5837 24.9584 13.126 25.1106ZM12 27C12 26.4362 12.915 25.9788 14.0426 25.9788H17.2554C17.3034 24.932 17.4302 23.8918 17.6354 22.8638C16.9639 22.4532 16.3348 21.9688 15.7553 21.4208C15.6878 21.5188 15.6225 21.6188 15.5591 21.72C15.2604 22.1964 14.6298 22.3404 14.1523 22.0416C13.6749 21.743 13.5294 21.1138 13.8281 20.6374C16.0187 17.1345 19.869 15.0051 24 15C27.1812 15 30.2348 16.2664 32.4868 18.5132C34.7336 20.7652 36 23.8188 36 27C36 30.1812 34.7336 33.2348 32.4868 35.4868C30.2348 37.7336 27.1812 39 24 39C20.8188 39 17.7651 37.7336 15.5132 35.4868C13.2664 33.2348 12 30.1812 12 27Z" fill="url(#paint2_linear_729_253)"/>
<defs>
<linearGradient id="paint0_linear_729_253" x1="22.3082" y1="55.4769" x2="22.3082" y2="-8.3239" gradientUnits="userSpaceOnUse">
<stop stop-color="#0075FF"/>
<stop offset="1" stop-color="#4DEAFF"/>
</linearGradient>
<linearGradient id="paint1_linear_729_253" x1="13.0306" y1="23.2051" x2="13.0306" y2="-3.94707" gradientUnits="userSpaceOnUse">
<stop stop-color="#0075FF"/>
<stop offset="1" stop-color="#4DEAFF"/>
</linearGradient>
<linearGradient id="paint2_linear_729_253" x1="23.0768" y1="45.6454" x2="23.0768" y2="4.46326" gradientUnits="userSpaceOnUse">
<stop stop-color="#0075FF"/>
<stop offset="1" stop-color="#4DEAFF"/>
</linearGradient>
</defs>
</svg>
