<svg width="48" height="48" viewBox="0 0 48 48" fill="none" xmlns="http://www.w3.org/2000/svg">
<path opacity="0.5" fill-rule="evenodd" clip-rule="evenodd" d="M43.4306 11.9955C44.1346 12.8185 44.6784 13.7652 45.0348 14.7871C45.7356 16.8874 46.06 19.0946 45.9932 21.3073V32.8639C45.9904 33.8375 45.9184 34.8095 45.778 35.7727C45.5106 37.4727 44.9124 39.1041 44.0176 40.5749C43.6062 41.2855 43.1066 41.9413 42.5308 42.5271C39.9242 44.9195 36.463 46.1647 32.9264 45.9825H15.0473C11.5051 46.1633 8.03816 44.9187 5.42322 42.5271C4.85428 41.9403 4.3614 41.2843 3.95612 40.5749C3.06644 39.1051 2.48112 37.4721 2.23474 35.7727C2.07808 34.8111 1.99958 33.8383 2 32.8639V21.3073C1.99962 20.3421 2.05186 19.3776 2.1565 18.4181C2.1785 18.2498 2.2115 18.0841 2.24416 17.9203C2.3521 17.1289 2.24416 17.9203 2.3521 17.1102C2.50728 15.9456 2.9129 14.8283 3.42798 13.772C4.95374 10.5119 8.08354 8.85258 13.2086 8.85258H34.726C37.5964 8.63058 40.4456 9.49472 42.707 11.2732C42.9674 11.4941 43.2094 11.7356 43.4306 11.9955Z" fill="url(#paint0_radial_728_95)"/>
<path fill-rule="evenodd" clip-rule="evenodd" d="M22.3999 19.3608L21.7976 18.9346C20.9377 18.3262 19.9106 18 18.8576 18H18.1233C17.8701 18 17.6157 18.0083 17.3655 18.0391C17.1357 18.0669 16.9094 18.1143 16.6906 18.1919C13.8313 19.207 11.8645 22.9136 12.0073 31.3228C12.0361 33.0171 12.4321 34.8892 13.9607 35.6196C14.4822 35.8706 15.0537 36 15.6323 35.999C16.2827 36.0098 16.9216 35.8271 17.4682 35.4746C17.9602 35.1528 18.3921 34.7354 18.8242 34.3179C19.3567 33.8018 19.8896 33.2861 20.5327 32.9526C21.2336 32.5889 22.0115 32.3994 22.8005 32.3994H25.1994C25.7365 32.3994 26.268 32.4873 26.7737 32.6572C27.0112 32.7373 27.2431 32.8354 27.4673 32.9512C28.1059 33.2832 28.6357 33.7954 29.167 34.3086L29.1706 34.3115L29.177 34.3179C29.6089 34.7354 30.041 35.1528 30.5305 35.4746C30.9985 35.7817 31.6045 35.999 32.3679 35.999C32.9463 36 33.5178 35.8706 34.0393 35.6196C35.5681 34.8892 35.9638 33.0161 35.9927 31.3228C36.1355 22.9136 34.1687 19.207 31.3093 18.1934C30.851 18.0298 30.3589 18 29.8755 18H29.1411C28.0879 18 27.0608 18.3271 26.2011 18.936L25.5989 19.3608C25.1311 19.6914 24.5725 19.8696 23.9995 19.8696C23.6977 19.8696 23.3999 19.8203 23.1172 19.7251C22.8633 19.6396 22.6213 19.5171 22.3999 19.3608ZM30.9704 22.4277C30.8545 22.3857 30.7309 22.3638 30.605 22.3638C30.3208 22.3638 30.0486 22.4766 29.8476 22.6777C29.6469 22.8784 29.5339 23.1509 29.5339 23.4351C29.5339 23.7188 29.6469 23.9912 29.8476 24.1924C30.0486 24.3931 30.3208 24.5059 30.605 24.5059C30.8891 24.5059 31.1614 24.3931 31.3625 24.1924C31.5632 23.9912 31.676 23.7188 31.676 23.4351C31.676 23.2935 31.6479 23.1548 31.5949 23.0264C31.5417 22.897 31.4631 22.7783 31.3625 22.6777C31.2505 22.5659 31.1164 22.481 30.9704 22.4277ZM18.1526 23.0347C17.9516 22.834 17.6792 22.7207 17.395 22.7207C17.1111 22.7207 16.8386 22.834 16.6377 23.0347C16.4367 23.2354 16.324 23.5078 16.324 23.792V24.8628H15.2529C15.1897 24.8628 15.1269 24.8682 15.0654 24.8794C14.9573 24.8984 14.853 24.9341 14.7561 24.9849C14.6609 25.0347 14.573 25.0991 14.4956 25.1768C14.2947 25.3774 14.1819 25.6499 14.1819 25.9341C14.1819 26.2183 14.2947 26.4907 14.4956 26.6914C14.6965 26.8926 14.969 27.0054 15.2529 27.0054H16.324V28.0762C16.324 28.3604 16.4367 28.6328 16.6377 28.8335C16.8386 29.0342 17.1111 29.1475 17.395 29.1475C17.5066 29.1475 17.6164 29.1299 17.7207 29.0967C17.8821 29.0449 18.0305 28.9556 18.1526 28.8335C18.3532 28.6328 18.466 28.3604 18.466 28.0762V27.0054H19.5373C19.6799 27.0054 19.8198 26.9771 19.949 26.9229C20.0769 26.8696 20.1946 26.7915 20.2947 26.6914C20.4956 26.4907 20.6084 26.2183 20.6084 25.9341C20.6084 25.6499 20.4956 25.3774 20.2947 25.1768C20.2099 25.0918 20.1123 25.0229 20.0066 24.9712C19.8618 24.9004 19.7014 24.8628 19.5373 24.8628H18.466V23.792C18.466 23.5078 18.3532 23.2354 18.1526 23.0347ZM33.8183 25.5771C33.8183 25.8613 33.7055 26.1338 33.5044 26.3345C33.4275 26.4111 33.3403 26.4751 33.2458 26.5249C33.2231 26.5371 33.1999 26.5483 33.1762 26.5586C33.1509 26.5693 33.125 26.5796 33.0989 26.5889C33.0447 26.6079 32.989 26.6221 32.9321 26.6318C32.8713 26.6426 32.8095 26.6479 32.747 26.6479C32.5652 26.6479 32.3882 26.6016 32.2317 26.5156C32.1438 26.4673 32.0622 26.4067 31.99 26.3345C31.7888 26.1338 31.676 25.8613 31.676 25.5771C31.676 25.293 31.7888 25.0205 31.99 24.8193C32.0984 24.7109 32.2278 24.6279 32.3684 24.5747C32.4883 24.5298 32.6164 24.5059 32.747 24.5059C33.0312 24.5059 33.3037 24.6187 33.5044 24.8193C33.7055 25.0205 33.8183 25.293 33.8183 25.5771ZM29.2202 26.3345C29.0193 26.5352 28.7468 26.6479 28.4629 26.6479C28.1789 26.6479 27.9062 26.5352 27.7055 26.3345C27.5046 26.1338 27.3918 25.8613 27.3918 25.5771C27.3918 25.4326 27.4209 25.291 27.476 25.1606C27.5293 25.0347 27.6067 24.9185 27.7055 24.8193C27.7348 24.79 27.7656 24.7627 27.7976 24.7373C27.8337 24.709 27.8718 24.6826 27.9111 24.6592C28.0263 24.5898 28.1538 24.5425 28.2868 24.5205C28.3171 24.5156 28.3476 24.5117 28.3781 24.5093C28.4062 24.5068 28.4345 24.5059 28.4629 24.5059C28.518 24.5059 28.5727 24.5103 28.6264 24.5186C28.708 24.5312 28.7876 24.5532 28.8637 24.584C28.9096 24.6025 28.9543 24.624 28.9973 24.6489C29.0781 24.6953 29.1531 24.7524 29.2202 24.8193C29.2536 24.853 29.2846 24.8882 29.313 24.9253C29.3403 24.9609 29.3655 24.9985 29.3879 25.0371C29.4829 25.1997 29.5339 25.3857 29.5339 25.5771C29.5339 25.8613 29.4211 26.1338 29.2202 26.3345ZM31.676 27.7192C31.676 27.4351 31.5632 27.1626 31.3625 26.9619C31.2739 26.873 31.1714 26.8018 31.06 26.7495C30.9189 26.6831 30.7639 26.6479 30.605 26.6479C30.3208 26.6479 30.0486 26.7607 29.8476 26.9619C29.6469 27.1626 29.5339 27.4351 29.5339 27.7192C29.5339 28.0029 29.6469 28.2759 29.8476 28.4766C29.9787 28.6074 30.1404 28.7012 30.3159 28.7505C30.4092 28.7764 30.5063 28.79 30.605 28.79C30.8891 28.79 31.1614 28.6772 31.3625 28.4766C31.5632 28.2759 31.676 28.0029 31.676 27.7192Z" fill="url(#paint1_radial_728_95)"/>
<path d="M25.8999 9C25.8999 9 24.5 9 23.8756 8.33221L21.7655 5.72632C20.7709 4.61577 19.2553 3.9785 17.6614 4.00055H13.1314C7.3999 4.00055 2.00079 6.5 2.00014 15.5113L2.00079 19.7391C1.99069 20.6007 2.03123 14.6521 5 12C5 12 7.06043 9 13 9C17.4533 9 23 9 23 9C24.5 9 23.8999 9 25.8999 9Z" fill="url(#paint2_radial_728_95)"/>
<defs>
<radialGradient id="paint0_radial_728_95" cx="0" cy="0" r="1" gradientUnits="userSpaceOnUse" gradientTransform="translate(24 -12) rotate(90) scale(86 68.6671)">
<stop stop-color="#FFF44F"/>
<stop offset="0.06" stop-color="#FFE847"/>
<stop offset="0.168" stop-color="#FFC830"/>
<stop offset="0.304" stop-color="#FF980E"/>
<stop offset="0.356" stop-color="#FF8B16"/>
<stop offset="0.455" stop-color="#FF672A"/>
<stop offset="0.57" stop-color="#FF3647"/>
<stop offset="0.737" stop-color="#E31587"/>
</radialGradient>
<radialGradient id="paint1_radial_728_95" cx="0" cy="0" r="1" gradientUnits="userSpaceOnUse" gradientTransform="translate(75 -7.00012) rotate(150.408) scale(93.1504 74.3764)">
<stop stop-color="#FFF44F"/>
<stop offset="0.06" stop-color="#FFE847"/>
<stop offset="0.168" stop-color="#FFC830"/>
<stop offset="0.304" stop-color="#FF980E"/>
<stop offset="0.356" stop-color="#FF8B16"/>
<stop offset="0.455" stop-color="#FF672A"/>
<stop offset="0.57" stop-color="#FF3647"/>
<stop offset="0.737" stop-color="#E31587"/>
</radialGradient>
<radialGradient id="paint2_radial_728_95" cx="0" cy="0" r="1" gradientUnits="userSpaceOnUse" gradientTransform="translate(20.7447 2.91705) rotate(78.2213) scale(17.5646 22.0727)">
<stop stop-color="#FFF44F"/>
<stop offset="0.06" stop-color="#FFE847"/>
<stop offset="0.168" stop-color="#FFC830"/>
<stop offset="0.304" stop-color="#FF980E"/>
<stop offset="0.356" stop-color="#FF8B16"/>
<stop offset="0.455" stop-color="#FF672A"/>
<stop offset="0.57" stop-color="#FF3647"/>
<stop offset="0.737" stop-color="#E31587"/>
</radialGradient>
</defs>
</svg>
