<svg width="48" height="48" viewBox="0 0 48 48" fill="none" xmlns="http://www.w3.org/2000/svg">
<path opacity="0.5" fill-rule="evenodd" clip-rule="evenodd" d="M43.4306 10.9955C44.1346 11.8185 44.6784 12.7652 45.0348 13.7871C45.7356 15.8874 46.06 18.0946 45.9932 20.3073V31.8639C45.9904 32.8375 45.9184 33.8095 45.778 34.7727C45.5106 36.4727 44.9126 38.1041 44.0176 39.5749C43.6062 40.2855 43.1066 40.9413 42.5308 41.5271C39.9242 43.9195 36.463 45.1647 32.9264 44.9825H15.0473C11.5051 45.1633 8.03816 43.9187 5.42322 41.5271C4.85428 40.9403 4.3614 40.2843 3.95612 39.5749C3.06646 38.1051 2.48112 36.4721 2.23474 34.7727C2.07808 33.8111 1.99958 32.8383 2 31.8639V20.3073C1.99962 19.3421 2.05186 18.3776 2.1565 17.4181C2.1785 17.2498 2.2115 17.0841 2.24416 16.9203C2.2986 16.6471 2.3521 16.3786 2.3521 16.1102C2.55068 14.9522 2.9129 13.8283 3.42798 12.772C4.95376 9.5119 8.08354 7.85258 13.2086 7.85258H34.726C37.5964 7.63058 40.4456 8.49472 42.707 10.2732C42.9674 10.4941 43.2094 10.7356 43.4306 10.9955Z" fill="url(#paint0_linear_728_113)"/>
<path fill-rule="evenodd" clip-rule="evenodd" d="M24 39C30.6276 39 36 33.6288 36 27C36 20.3736 30.6276 15 24 15C17.3724 15 12 20.3736 12 27C12 33.6288 17.3724 39 24 39ZM28.0785 32.8582C28.2419 32.9542 28.4201 33 28.5969 33C28.9413 33 29.2773 32.8232 29.4677 32.506C29.7539 32.0254 29.5959 31.4044 29.1167 31.1168L24.3107 28.2508V22.0124C24.3107 21.4536 23.8571 21 23.2983 21C22.7393 21 22.2859 21.4536 22.2859 22.0124V28.8258C22.2859 29.1822 22.4735 29.513 22.7785 29.6966L28.0785 32.8582Z" fill="url(#paint1_linear_728_113)"/>
<path d="M25.8999 8C25.8999 8 24.5 8 23.8756 7.33221L21.7655 4.72632C20.7709 3.61577 19.2553 2.9785 17.6614 3.00055H13.1314C7.3999 3.00055 2.00079 5.5 2.00014 14.5113L2.00079 18.7391C1.99069 19.6007 2.03123 13.6521 5 11C5 11 7.06043 8 13 8C17.4533 8 23 8 23 8C24.5 8 23.8999 8 25.8999 8Z" fill="url(#paint2_linear_728_113)"/>
<defs>
<linearGradient id="paint0_linear_728_113" x1="24.0008" y1="44.9999" x2="24.0008" y2="7.81836" gradientUnits="userSpaceOnUse">
<stop stop-color="#FD5900"/>
<stop offset="1" stop-color="#FFDE00"/>
</linearGradient>
<linearGradient id="paint1_linear_728_113" x1="24.0008" y1="44.9999" x2="24.0008" y2="7.81836" gradientUnits="userSpaceOnUse">
<stop stop-color="#FD5900"/>
<stop offset="1" stop-color="#FFDE00"/>
</linearGradient>
<linearGradient id="paint2_linear_728_113" x1="13.95" y1="18.8236" x2="13.95" y2="3.00001" gradientUnits="userSpaceOnUse">
<stop stop-color="#FD5900"/>
<stop offset="1" stop-color="#FFDE00"/>
</linearGradient>
</defs>
</svg>
