<svg width="48" height="48" viewBox="0 0 48 48" fill="none" xmlns="http://www.w3.org/2000/svg">
<path opacity="0.5" fill-rule="evenodd" clip-rule="evenodd" d="M45.0348 13.9687C44.6784 12.9468 44.1346 12.0001 43.4306 11.1771C43.2094 10.9172 42.9674 10.6757 42.707 10.4548C40.4456 8.67636 37.5964 7.81222 34.726 8.03422H13.2086C8.08354 8.03422 4.95376 9.69354 3.42798 12.9536C2.9129 14.0099 2.55068 15.1338 2.3521 16.2918C2.3521 16.5602 2.2986 16.8286 2.24416 17.1019C2.2115 17.2657 2.1785 17.4313 2.1565 17.5997C2.05186 18.5592 1.99962 19.5236 2 20.4888V32.0456C1.99958 33.0198 2.07808 33.9926 2.23474 34.9542C2.48112 36.6538 3.06646 38.2868 3.95612 39.7566C4.3614 40.466 4.85428 41.1218 5.42322 41.7086C8.03816 44.1002 11.5051 45.345 15.0473 45.164H32.9264C36.463 45.3462 39.9242 44.101 42.5308 41.7086C43.1066 41.123 43.6062 40.467 44.0176 39.7566C44.9126 38.2856 45.5106 36.6542 45.778 34.9542C45.9184 33.991 45.9904 33.019 45.9932 32.0456V20.4888C46.06 18.2762 45.7356 16.069 45.0348 13.9687Z" fill="url(#paint0_linear_728_107)"/>
<path d="M31.2 31.8C31.2 35.1936 31.2 36.8916 30.1452 37.9452C29.0916 39 27.3936 39 24 39H24H24C20.6064 39 18.9084 39 17.8548 37.9452C16.8 36.8916 16.8 35.1936 16.8 31.8V27.792C18.5724 27.1896 20.9496 26.7 24 26.7C27.0504 26.7 29.4276 27.1896 31.2 27.792V31.8Z" fill="url(#paint1_linear_728_107)"/>
<path d="M24 15C27.3948 15 29.0916 15 30.144 16.0548H30.1464C30.7368 16.6452 30.9972 17.4384 31.1112 18.618C30.4404 18.6 29.6988 18.6 28.8852 18.6H28.8852H19.116H19.116C18.3024 18.6 17.5608 18.6 16.8888 18.618C17.0028 17.4384 17.2632 16.6452 17.8536 16.0548C18.9084 15 20.6052 15 24 15Z" fill="url(#paint2_linear_728_107)"/>
<path d="M19.2 19.8C15.8064 19.8 14.1084 19.8 13.0548 20.8548C12 21.9084 12 23.6064 12 27C12 30.3936 12 32.0916 13.0548 33.1452C13.6452 33.7368 14.4384 33.9972 15.618 34.11C15.6 33.4392 15.6 32.6976 15.6 31.8852V31.8852V28.2504L15.3684 28.3524C15.1519 28.4428 14.9087 28.445 14.6906 28.3588C14.4725 28.2724 14.2967 28.1044 14.2007 27.8904C14.1046 27.6764 14.0959 27.4334 14.1764 27.213C14.2569 26.9926 14.4202 26.8124 14.6316 26.7108C16.698 25.7832 19.776 24.8988 24 24.8988C28.224 24.8988 31.302 25.7832 33.3684 26.7108C33.4794 26.757 33.5798 26.8252 33.664 26.911C33.7482 26.9966 33.8144 27.0984 33.8586 27.2102C33.9028 27.322 33.9242 27.4414 33.9216 27.5616C33.9188 27.6818 33.892 27.8002 33.8428 27.9098C33.7936 28.0196 33.723 28.1182 33.635 28.2002C33.547 28.282 33.4434 28.3454 33.3306 28.3868C33.2176 28.428 33.0976 28.4462 32.9776 28.4402C32.8576 28.4344 32.74 28.4046 32.6316 28.3524C32.5546 28.3178 32.4774 28.2838 32.4 28.2504V31.8852C32.4 32.6976 32.4 33.4392 32.382 34.11C33.5616 33.996 34.3548 33.7368 34.9452 33.1452C36 32.0916 36 30.3936 36 27V27V27C36 23.6064 36 21.9084 34.9452 20.8548C33.8916 19.8 32.1936 19.8 28.8 19.8H19.2Z" fill="url(#paint3_linear_728_107)"/>
<path d="M26 8C26 8 24.6001 8 23.9757 7.33221L21.8656 4.72632C20.871 3.61577 19.3554 2.9785 17.7615 3.00055H13.2315C7.5 3.00055 2.10089 5.5 2.10024 14.5113L2.10089 18.7391C2.09079 19.6007 2.13132 13.6521 5.1001 11C5.1001 11 7.16053 8 13.1001 8C17.5534 8 23.1001 8 23.1001 8C24.6001 8 24 8 26 8Z" fill="url(#paint4_linear_728_107)"/>
<defs>
<linearGradient id="paint0_linear_728_107" x1="24.0008" y1="45.1816" x2="24.0008" y2="8" gradientUnits="userSpaceOnUse">
<stop stop-color="#5570FF"/>
<stop offset="1" stop-color="#4DD3FF"/>
</linearGradient>
<linearGradient id="paint1_linear_728_107" x1="24.0008" y1="45" x2="24.0008" y2="7.81836" gradientUnits="userSpaceOnUse">
<stop stop-color="#5570FF"/>
<stop offset="1" stop-color="#4DD3FF"/>
</linearGradient>
<linearGradient id="paint2_linear_728_107" x1="24.0008" y1="45" x2="24.0008" y2="7.81836" gradientUnits="userSpaceOnUse">
<stop stop-color="#5570FF"/>
<stop offset="1" stop-color="#4DD3FF"/>
</linearGradient>
<linearGradient id="paint3_linear_728_107" x1="24.0008" y1="45" x2="24.0008" y2="7.81836" gradientUnits="userSpaceOnUse">
<stop stop-color="#5570FF"/>
<stop offset="1" stop-color="#4DD3FF"/>
</linearGradient>
<linearGradient id="paint4_linear_728_107" x1="14" y1="15.5" x2="14" y2="4" gradientUnits="userSpaceOnUse">
<stop stop-color="#5570FF"/>
<stop offset="1" stop-color="#4CE1FF"/>
</linearGradient>
</defs>
</svg>
