<svg width="48" height="48" viewBox="0 0 48 48" fill="none" xmlns="http://www.w3.org/2000/svg">
<path opacity="0.5" fill-rule="evenodd" clip-rule="evenodd" d="M45.0348 13.9687C44.6784 12.9468 44.1346 12.0001 43.4306 11.1771C43.2094 10.9172 42.9674 10.6757 42.707 10.4548C40.4456 8.67636 37.5964 7.81222 34.726 8.03422H13.2086C8.08354 8.03422 4.95374 9.69354 3.42798 12.9536C2.9129 14.0099 2.55068 15.1338 2.3521 16.2918C2.3521 16.5602 2.2986 16.8287 2.24416 17.1019C2.2115 17.2657 2.1785 17.4314 2.1565 17.5997C2.05186 18.5592 1.99962 19.5237 2 20.4889V32.0455C1.99958 33.0199 2.07808 33.9927 2.23474 34.9543C2.48112 36.6537 3.06644 38.2867 3.95612 39.7565C4.3614 40.4659 4.85428 41.1219 5.42322 41.7087C8.03816 44.1003 11.5051 45.3449 15.0473 45.1641H32.9264C36.463 45.3463 39.9242 44.1011 42.5308 41.7087C43.1066 41.1229 43.6062 40.4671 44.0176 39.7565C44.9124 38.2857 45.5106 36.6543 45.778 34.9543C45.9184 33.9911 45.9904 33.0191 45.9932 32.0455V20.4889C46.06 18.2762 45.7356 16.069 45.0348 13.9687Z" fill="url(#paint0_linear_729_238)"/>
<path d="M18.2506 20.2952C18.2373 20.5434 18.1268 20.7766 17.9431 20.9442C16.9672 21.8024 16.1858 22.8592 15.651 24.0438C15.1162 25.2284 14.8405 26.5134 14.8421 27.8132C14.8421 28.0644 14.7423 28.3054 14.5646 28.483C14.387 28.6608 14.146 28.7606 13.8947 28.7606C13.6435 28.7606 13.4025 28.6608 13.2248 28.483C13.0472 28.3054 12.9474 28.0644 12.9474 27.8132C12.9458 26.245 13.2787 24.6944 13.9239 23.265C14.569 21.8358 15.5117 20.5604 16.6888 19.5244C16.8778 19.3628 17.1227 19.2818 17.3707 19.2992C17.6187 19.3166 17.85 19.4306 18.0146 19.617C18.1792 19.8034 18.264 20.047 18.2506 20.2952Z" fill="url(#paint1_linear_729_238)"/>
<path d="M30.6292 19.2992C30.8774 19.2818 31.1222 19.3628 31.3112 19.5244C32.4884 20.5604 33.431 21.8358 34.0762 23.265C34.7214 24.6944 35.0542 26.245 35.0526 27.8132C35.0526 28.0644 34.9528 28.3054 34.7752 28.483C34.5974 28.6608 34.3566 28.7606 34.1052 28.7606C33.854 28.7606 33.613 28.6608 33.4354 28.483C33.2576 28.3054 33.1578 28.0644 33.1578 27.8132C33.1596 26.5134 32.8838 25.2284 32.349 24.0438C31.8142 22.8592 31.0328 21.8024 30.0568 20.9442C29.8732 20.7766 29.7628 20.5434 29.7494 20.2952C29.736 20.047 29.8208 19.8034 29.9854 19.617C30.15 19.4306 30.3812 19.3166 30.6292 19.2992Z" fill="url(#paint2_linear_729_238)"/>
<path d="M21.3348 36.6528C21.4606 36.6376 21.5882 36.648 21.7098 36.683C22.4582 36.8744 23.2276 36.9712 24 36.971C24.7724 36.9718 25.5418 36.875 26.29 36.683C26.4118 36.648 26.5394 36.6376 26.6652 36.6528C26.791 36.6678 26.9124 36.708 27.0224 36.7708C27.1324 36.8336 27.2286 36.918 27.3054 37.0186C27.3824 37.1194 27.4382 37.2344 27.4698 37.357C27.5014 37.4798 27.508 37.6076 27.4894 37.7328C27.4708 37.8582 27.4272 37.9784 27.3612 38.0866C27.2954 38.1948 27.2084 38.2886 27.1056 38.3626C27.0026 38.4364 26.886 38.489 26.7626 38.5172C24.9504 38.9836 23.0496 38.9836 21.2374 38.5172C21.114 38.489 20.9974 38.4364 20.8944 38.3626C20.7916 38.2886 20.7046 38.1948 20.6388 38.0866C20.5728 37.9784 20.5292 37.8582 20.5106 37.7328C20.4918 37.6076 20.4986 37.4798 20.5302 37.357C20.5618 37.2344 20.6176 37.1194 20.6944 37.0186C20.7714 36.918 20.8676 36.8336 20.9776 36.7708C21.0876 36.708 21.209 36.6678 21.3348 36.6528Z" fill="url(#paint3_linear_729_238)"/>
<path d="M20.2106 18.9711C20.2106 19.9762 20.6098 20.94 21.3204 21.6506C22.0312 22.3614 22.995 22.7606 24 22.7606C25.005 22.7606 25.9688 22.3614 26.6796 21.6506C27.3902 20.94 27.7894 19.9762 27.7894 18.9711C27.7894 17.966 27.3902 17.0022 26.6796 16.2915C25.9688 15.5808 25.005 15.1816 24 15.1816C22.995 15.1816 22.0312 15.5808 21.3204 16.2915C20.6098 17.0022 20.2106 17.966 20.2106 18.9711Z" fill="url(#paint4_linear_729_238)"/>
<path d="M12 34.129C12 34.6266 12.098 35.1194 12.2885 35.5792C12.4789 36.0388 12.758 36.4566 13.1099 36.8086C13.4618 37.1604 13.8795 37.4396 14.3393 37.63C14.7991 37.8204 15.2918 37.9184 15.7895 37.9184C16.2871 37.9184 16.7799 37.8204 17.2396 37.63C17.6994 37.4396 18.1172 37.1604 18.469 36.8086C18.8209 36.4566 19.1001 36.0388 19.2905 35.5792C19.4809 35.1194 19.5789 34.6266 19.5789 34.129C19.5789 33.124 19.1797 32.16 18.469 31.4494C17.7584 30.7388 16.7945 30.3394 15.7895 30.3394C14.7844 30.3394 13.8206 30.7388 13.1099 31.4494C12.3992 32.16 12 33.124 12 34.129Z" fill="url(#paint5_linear_729_238)"/>
<path d="M32.2106 37.9184C31.2054 37.9184 30.2416 37.5192 29.531 36.8086C28.8202 36.0978 28.421 35.134 28.421 34.129C28.421 33.124 28.8202 32.16 29.531 31.4494C30.2416 30.7388 31.2054 30.3394 32.2106 30.3394C33.2156 30.3394 34.1794 30.7388 34.89 31.4494C35.6008 32.16 36 33.124 36 34.129C36 35.134 35.6008 36.0978 34.89 36.8086C34.1794 37.5192 33.2156 37.9184 32.2106 37.9184Z" fill="url(#paint6_linear_729_238)"/>
<path d="M25.8999 8C25.8999 8 24.5 8 23.8756 7.33221L21.7655 4.72632C20.7709 3.61577 19.2553 2.9785 17.6614 3.00055H13.1314C7.3999 3.00055 2.00079 5.5 2.00014 14.5113L2.00079 18.7391C1.99069 19.6007 2.03123 13.6521 5 11C5 11 7.06043 8 13 8C17.4533 8 23 8 23 8C24.5 8 23.8999 8 25.8999 8Z" fill="url(#paint7_linear_729_238)"/>
<defs>
<linearGradient id="paint0_linear_729_238" x1="2" y1="45.1815" x2="51.9032" y2="19.4411" gradientUnits="userSpaceOnUse">
<stop stop-color="#0357D1"/>
<stop offset="1" stop-color="#27CDFC"/>
</linearGradient>
<linearGradient id="paint1_linear_729_238" x1="2" y1="45.1815" x2="51.9032" y2="19.4411" gradientUnits="userSpaceOnUse">
<stop stop-color="#0357D1"/>
<stop offset="1" stop-color="#27CDFC"/>
</linearGradient>
<linearGradient id="paint2_linear_729_238" x1="2" y1="45.1815" x2="51.9032" y2="19.4411" gradientUnits="userSpaceOnUse">
<stop stop-color="#0357D1"/>
<stop offset="1" stop-color="#27CDFC"/>
</linearGradient>
<linearGradient id="paint3_linear_729_238" x1="2" y1="45.1815" x2="51.9032" y2="19.4411" gradientUnits="userSpaceOnUse">
<stop stop-color="#0357D1"/>
<stop offset="1" stop-color="#27CDFC"/>
</linearGradient>
<linearGradient id="paint4_linear_729_238" x1="2" y1="45.1815" x2="51.9032" y2="19.4411" gradientUnits="userSpaceOnUse">
<stop stop-color="#0357D1"/>
<stop offset="1" stop-color="#27CDFC"/>
</linearGradient>
<linearGradient id="paint5_linear_729_238" x1="2" y1="45.1815" x2="51.9032" y2="19.4411" gradientUnits="userSpaceOnUse">
<stop stop-color="#0357D1"/>
<stop offset="1" stop-color="#27CDFC"/>
</linearGradient>
<linearGradient id="paint6_linear_729_238" x1="2" y1="45.1815" x2="51.9032" y2="19.4411" gradientUnits="userSpaceOnUse">
<stop stop-color="#0357D1"/>
<stop offset="1" stop-color="#27CDFC"/>
</linearGradient>
<linearGradient id="paint7_linear_729_238" x1="13.95" y1="18.8236" x2="13.95" y2="3.00001" gradientUnits="userSpaceOnUse">
<stop stop-color="#5570FF"/>
<stop offset="1" stop-color="#4DD3FF"/>
</linearGradient>
</defs>
</svg>
