<svg width="48" height="48" viewBox="0 0 48 48" fill="none" xmlns="http://www.w3.org/2000/svg">
<path opacity="0.5" fill-rule="evenodd" clip-rule="evenodd" d="M43.4306 11.1771C44.1346 12.0001 44.6784 12.9468 45.0348 13.9687C45.7356 16.069 46.06 18.2762 45.9932 20.4889V32.0455C45.9904 33.0191 45.9184 33.9911 45.778 34.9543C45.5106 36.6543 44.9124 38.2857 44.0176 39.7565C43.6062 40.4671 43.1066 41.1229 42.5308 41.7087C39.9242 44.1011 36.463 45.3463 32.9264 45.1641H15.0473C11.5051 45.3449 8.03816 44.1003 5.42322 41.7087C4.85428 41.1219 4.3614 40.4659 3.95612 39.7565C3.06644 38.2867 2.48112 36.6537 2.23474 34.9543C2.07808 33.9927 1.99958 33.0199 2 32.0455V20.4889C1.99962 19.5237 2.05186 18.5592 2.1565 17.5997C2.1785 17.4314 2.2115 17.2657 2.24416 17.1019C2.2986 16.8287 2.3521 16.5602 2.3521 16.2918C2.55068 15.1338 2.9129 14.0099 3.42798 12.9536C4.95374 9.69354 8.08354 8.03422 13.2086 8.03422H34.726C37.5964 7.81222 40.4456 8.67636 42.707 10.4548C42.9674 10.6757 43.2094 10.9172 43.4306 11.1771Z" fill="url(#paint0_linear_728_92)"/>
<path d="M21.2544 18.1414V28.1942C21.2544 28.636 20.8962 28.9942 20.4544 28.9942H17.9728C17.5826 28.9944 17.2012 29.11 16.8768 29.3268C16.5523 29.5438 16.2995 29.8518 16.1502 30.2124C16.0009 30.5728 15.9618 30.9696 16.0379 31.3522C16.114 31.735 16.3019 32.0866 16.5778 32.3626L22.819 38.6038C23.189 38.9738 23.691 39.1816 24.2142 39.1816C24.7374 39.1816 25.2392 38.9738 25.6092 38.6038L31.8506 32.3626C32.1264 32.0866 32.3142 31.735 32.3904 31.3522C32.4664 30.9696 32.4274 30.5728 32.278 30.2124C32.1288 29.8518 31.876 29.5438 31.5516 29.3268C31.2272 29.11 30.8456 28.9944 30.4554 28.9942H27.974C27.5322 28.9942 27.174 28.636 27.174 28.1942V18.1414C27.174 17.3564 26.8622 16.6035 26.307 16.0484C25.752 15.4933 24.9992 15.1816 24.2142 15.1816C23.4292 15.1816 22.6764 15.4933 22.1212 16.0484C21.5662 16.6035 21.2544 17.3564 21.2544 18.1414Z" fill="url(#paint1_linear_728_92)"/>
<path d="M26 8C26 8 24.6001 8 23.9757 7.33221L21.8656 4.72632C20.871 3.61577 19.3554 2.9785 17.7615 3.00055H13.2315C7.5 3.00055 2.10089 5.5 2.10024 14.5113L2.10089 18.7391C2.09079 19.6007 2.13132 13.6521 5.1001 11C5.1001 11 7.16053 8 13.1001 8C17.5534 8 23.1001 8 23.1001 8C24.6001 8 24 8 26 8Z" fill="url(#paint2_linear_728_92)"/>
<defs>
<linearGradient id="paint0_linear_728_92" x1="24" y1="45" x2="24" y2="10.5" gradientUnits="userSpaceOnUse">
<stop stop-color="#02AA93"/>
<stop offset="1" stop-color="#67FF80"/>
</linearGradient>
<linearGradient id="paint1_linear_728_92" x1="2" y1="26.5907" x2="46.0018" y2="26.5907" gradientUnits="userSpaceOnUse">
<stop stop-color="#02AA93"/>
<stop offset="1" stop-color="#67FF80"/>
</linearGradient>
<linearGradient id="paint2_linear_728_92" x1="14.1001" y1="14.5" x2="14.1001" y2="2.5" gradientUnits="userSpaceOnUse">
<stop stop-color="#02AA93"/>
<stop offset="1" stop-color="#67FF80"/>
</linearGradient>
</defs>
</svg>
