<svg width="48" height="48" viewBox="0 0 48 48" fill="none" xmlns="http://www.w3.org/2000/svg">
<path opacity="0.5" fill-rule="evenodd" clip-rule="evenodd" d="M43.4306 11.1771C44.1346 12.0001 44.6784 12.9468 45.0348 13.9687C45.7356 16.069 46.06 18.2762 45.9932 20.4889V32.0455C45.9904 33.0191 45.9184 33.9911 45.778 34.9543C45.5106 36.6543 44.9124 38.2857 44.0176 39.7565C43.6062 40.4671 43.1066 41.1229 42.5308 41.7087C39.9242 44.1011 36.463 45.3463 32.9264 45.1641H15.0473C11.5051 45.3449 8.03816 44.1003 5.42322 41.7087C4.85428 41.1219 4.3614 40.4659 3.95612 39.7565C3.06644 38.2867 2.48112 36.6537 2.23474 34.9543C2.07808 33.9927 1.99958 33.0199 2 32.0455V20.4889C1.99962 19.5237 2.05186 18.5592 2.1565 17.5997C2.1785 17.4314 2.2115 17.2657 2.24416 17.1019C2.2986 16.8287 2.3521 16.5602 2.3521 16.2918C2.55068 15.1338 2.9129 14.0099 3.42798 12.9536C4.95374 9.69354 8.08354 8.03422 13.2086 8.03422H34.726C37.5964 7.81222 40.4456 8.67636 42.707 10.4548C42.9674 10.6757 43.2094 10.9172 43.4306 11.1771Z" fill="url(#paint0_linear_728_104)"/>
<path d="M21.4 20.6664C21.4 23.238 19.307 25.331 16.7354 25.331C14.1619 25.331 12.0709 23.238 12.0709 20.6664C12.0709 18.0948 14.1619 16 16.7354 16C19.307 16 21.4 18.0948 21.4 20.6664Z" fill="url(#paint1_linear_728_104)"/>
<path d="M36.7082 30.8262C37.1456 31.2504 37.459 31.7348 37.6656 32.251C38.2906 33.8126 37.9658 35.6898 37.2976 37.2364C36.5054 39.0778 34.9888 40.4688 33.078 41.077C32.2296 41.3492 31.3398 41.4654 30.452 41.4654H14.7201C13.1547 41.4654 11.7694 41.1014 10.6337 40.418C9.92233 39.9902 9.79657 39.0046 10.324 38.3626C11.2039 37.2956 12.0726 36.2247 12.9487 35.1446L12.9557 35.136C14.63 33.0638 15.7582 32.463 17.012 32.9904C17.5207 33.2082 18.0313 33.5368 18.5569 33.8822C19.9572 34.8094 21.9038 36.082 24.4678 34.7006C26.2203 33.7423 27.2376 32.1025 28.1232 30.6752L28.1234 30.6748L28.1412 30.646C28.2008 30.5506 28.26 30.455 28.3188 30.3598L28.3191 30.3593C28.6202 29.8729 28.9167 29.3938 29.2524 28.953C29.6692 28.4066 31.2158 26.6986 33.215 27.9148C34.4896 28.6808 35.5614 29.7168 36.7082 30.8262Z" fill="url(#paint2_linear_728_104)"/>
<path d="M25.1001 8C25.1001 8 24.6001 8 23.9757 7.33221L21.8656 4.72632C20.871 3.61577 19.3554 2.9785 17.7615 3.00055H13.2315C7.5 3.00055 2.10089 5.5 2.10024 14.5113L2.10089 18.7391C2.09079 19.6007 2.13132 13.6521 5.1001 11C5.1001 11 7.16053 8 13.1001 8C17.5534 8 23.1001 8 23.1001 8C24.6001 8 23.1001 8 25.1001 8Z" fill="url(#paint3_linear_728_104)"/>
<defs>
<linearGradient id="paint0_linear_728_104" x1="24" y1="45" x2="24" y2="8" gradientUnits="userSpaceOnUse">
<stop stop-color="#FE0844"/>
<stop offset="1" stop-color="#FEB302"/>
</linearGradient>
<linearGradient id="paint1_linear_728_104" x1="9.97532" y1="41.6105" x2="43.7992" y2="6.68514" gradientUnits="userSpaceOnUse">
<stop stop-color="#FE0844"/>
<stop offset="1" stop-color="#FEB302"/>
</linearGradient>
<linearGradient id="paint2_linear_728_104" x1="9.97532" y1="41.6105" x2="43.7992" y2="6.68514" gradientUnits="userSpaceOnUse">
<stop stop-color="#FE0844"/>
<stop offset="1" stop-color="#FEB302"/>
</linearGradient>
<linearGradient id="paint3_linear_728_104" x1="6.81244" y1="16.9617" x2="20.3361" y2="-2.41746" gradientUnits="userSpaceOnUse">
<stop stop-color="#FE0844"/>
<stop offset="1" stop-color="#FEB302"/>
</linearGradient>
</defs>
</svg>
