<svg width="48" height="48" viewBox="0 0 48 48" fill="none" xmlns="http://www.w3.org/2000/svg">
<path opacity="0.5" d="M45.0348 13.7871C44.6784 12.7652 44.1346 11.8185 43.4306 10.9955C43.2094 10.7356 42.9674 10.4941 42.707 10.2732C40.4456 8.49472 37.5964 7.63058 34.726 7.85258H13.2086C8.08354 7.85258 4.95376 9.5119 3.42798 12.772C2.9129 13.8283 2.55068 14.9522 2.3521 16.1102C2.3521 16.5396 2.21518 16.9691 2.1565 17.4181C2.05186 18.3776 1.99962 19.342 2 20.3072V31.864C1.99958 32.8382 2.07808 33.811 2.23474 34.7726C2.48112 36.4722 3.06646 38.1052 3.95612 39.575C4.3614 40.2844 4.85428 40.9402 5.42322 41.527C8.03816 43.9186 11.5051 45.1634 15.0473 44.9824H32.9264C36.463 45.1646 39.9242 43.9194 42.5308 41.527C43.1066 40.9414 43.6062 40.2854 44.0176 39.575C44.9126 38.104 45.5106 36.4726 45.778 34.7726C45.9184 33.8094 45.9904 32.8374 45.9932 31.864V20.3072C46.06 18.0946 45.7356 15.8874 45.0348 13.7871Z" fill="url(#paint0_linear_728_121)"/>
<path d="M23.9985 17C21.2147 17.0056 18.5237 18.014 16.3828 19.8448C16.1882 20.0112 16.1738 20.3072 16.3517 20.4914L17.4414 21.6216C17.6024 21.7886 17.8651 21.8036 18.0444 21.6558C19.7341 20.2622 21.8321 19.4966 23.9993 19.4906C26.5473 19.4906 28.9905 20.5402 30.7923 22.4084C32.4967 24.1762 33.4947 26.5394 33.5973 29.0268C33.6069 29.2654 33.8033 29.4532 34.0417 29.4532H35.5553C35.8067 29.4532 36.0087 29.2444 35.9997 28.9926C35.8879 25.8574 34.6379 22.8742 32.4907 20.6476C30.2385 18.3121 27.1831 17.0001 23.9985 17Z" fill="url(#paint1_linear_728_121)"/>
<path d="M13.5997 24.6812C13.3744 24.4474 12.9829 24.526 12.8651 24.8284C12.3487 26.1536 12.056 27.5622 12.0003 28.9916C11.9905 29.2436 12.1924 29.4534 12.4448 29.4534H13.958C14.196 29.4534 14.3918 29.2664 14.4023 29.0284C14.4424 28.1162 14.6032 27.2136 14.8804 26.3466C14.9302 26.1904 14.8905 26.0202 14.777 25.9022L13.5997 24.6812Z" fill="url(#paint2_linear_728_121)"/>
<path d="M23.9985 17C21.2147 17.0056 18.5237 18.014 16.3828 19.8448C16.1882 20.0112 16.1738 20.3072 16.3517 20.4914L17.4414 21.6216C17.6024 21.7886 17.8651 21.8036 18.0444 21.6558C19.7341 20.2622 21.8321 19.4966 23.9993 19.4906C26.5473 19.4906 28.9905 20.5402 30.7923 22.4084C32.4967 24.1762 33.4947 26.5394 33.5973 29.0268C33.6069 29.2654 33.8033 29.4532 34.0417 29.4532H35.5553C35.8067 29.4532 36.0087 29.2444 35.9997 28.9926C35.8879 25.8574 34.6379 22.8742 32.4907 20.6476C30.2385 18.3121 27.1831 17.0001 23.9985 17Z" fill="url(#paint3_linear_728_121)"/>
<path d="M14.777 25.9022C14.8905 26.0202 14.9302 26.1904 14.8804 26.3466C14.6032 27.2136 14.4424 28.1162 14.4023 29.0284C14.3918 29.2664 14.196 29.4534 13.958 29.4534H12.4448C12.1924 29.4534 11.9905 29.2436 12.0003 28.9916C12.056 27.5622 12.3487 26.1536 12.8651 24.8284C12.9829 24.526 13.3744 24.4474 13.5997 24.6812L14.777 25.9022Z" fill="url(#paint4_linear_728_121)"/>
<path fill-rule="evenodd" clip-rule="evenodd" d="M26.618 24.254C26.0642 24.1112 25.4878 24.3894 25.256 24.9132L26.618 24.254ZM25.256 24.9132L21.081 34.324C20.702 34.7726 20.4382 35.3044 20.3134 35.8756L20.3128 35.878L20.3106 35.889C20.3084 35.8988 20.3066 35.9086 20.305 35.9186L20.2818 36.0576C20.0036 37.7474 20.965 39.3992 22.6038 39.8026C24.23 40.2012 25.859 39.2058 26.4444 37.6184C26.4604 37.5762 26.5338 37.3524 26.5408 37.315C26.5466 37.2976 26.5408 37.315 26.5558 37.2618L26.5408 37.315C26.6252 36.9658 26.678 36.5364 26.6572 36.1792C26.6522 36.0952 26.647 36.018 26.642 35.9456C26.6258 35.7074 26.6134 35.5232 26.6302 35.3304L27.4916 25.489C27.541 24.92 27.172 24.397 26.618 24.254" fill="url(#paint5_linear_728_121)"/>
<path d="M25.8999 8C25.8999 8 24.5 8 23.8756 7.33221L21.7655 4.72632C20.7709 3.61577 19.2553 2.9785 17.6614 3.00055H13.1314C7.3999 3.00055 2.00079 5.5 2.00014 14.5113L2.00079 18.7391C1.99069 19.6007 2.03123 13.6521 5 11C5 11 7.06043 8 13 8C17.4533 8 23 8 23 8C24.5 8 23.8999 8 25.8999 8Z" fill="url(#paint6_linear_728_121)"/>
<defs>
<linearGradient id="paint0_linear_728_121" x1="24" y1="8" x2="24" y2="45" gradientUnits="userSpaceOnUse">
<stop stop-color="#FE7970"/>
<stop offset="1" stop-color="#DC3282"/>
</linearGradient>
<linearGradient id="paint1_linear_728_121" x1="23.9999" y1="39.891" x2="23.9999" y2="17" gradientUnits="userSpaceOnUse">
<stop stop-color="#FFC2CC"/>
<stop offset="1" stop-color="#FFF2F4"/>
</linearGradient>
<linearGradient id="paint2_linear_728_121" x1="24" y1="39.8912" x2="24" y2="17.0002" gradientUnits="userSpaceOnUse">
<stop stop-color="#FFC2CC"/>
<stop offset="1" stop-color="#FFF2F4"/>
</linearGradient>
<linearGradient id="paint3_linear_728_121" x1="35.9414" y1="17.0789" x2="24.7586" y2="34.687" gradientUnits="userSpaceOnUse">
<stop stop-color="#FE7970"/>
<stop offset="1" stop-color="#DC3282"/>
</linearGradient>
<linearGradient id="paint4_linear_728_121" x1="14.893" y1="24.576" x2="10.6437" y2="27.067" gradientUnits="userSpaceOnUse">
<stop stop-color="#FE7970"/>
<stop offset="1" stop-color="#DC3282"/>
</linearGradient>
<linearGradient id="paint5_linear_728_121" x1="27.4745" y1="24.3162" x2="15.6758" y2="29.7371" gradientUnits="userSpaceOnUse">
<stop stop-color="#FE7970"/>
<stop offset="1" stop-color="#DC3282"/>
</linearGradient>
<linearGradient id="paint6_linear_728_121" x1="25.8293" y1="3.10032" x2="11.3299" y2="24.8181" gradientUnits="userSpaceOnUse">
<stop stop-color="#FE7970"/>
<stop offset="1" stop-color="#DC3282"/>
</linearGradient>
</defs>
</svg>
