<svg width="48" height="48" viewBox="0 0 48 48" fill="none" xmlns="http://www.w3.org/2000/svg">
<path opacity="0.5" fill-rule="evenodd" clip-rule="evenodd" d="M45.0348 13.9687C44.6784 12.9468 44.1346 12.0001 43.4306 11.1771C43.2094 10.9172 42.9674 10.6757 42.707 10.4548C40.4456 8.67636 37.5964 7.81222 34.726 8.03422H13.2086C8.08354 8.03422 4.95374 9.69354 3.42798 12.9536C2.9129 14.0099 2.55068 15.1338 2.3521 16.2918C2.3521 16.5602 2.2986 16.8287 2.24416 17.1019C2.2115 17.2657 2.1785 17.4314 2.1565 17.5997C2.05186 18.5592 1.99962 19.5237 2 20.4889V32.0455C1.99958 33.0199 2.07808 33.9927 2.23474 34.9543C2.48112 36.6537 3.06644 38.2867 3.95612 39.7565C4.3614 40.4659 4.85428 41.1219 5.42322 41.7087C8.03816 44.1003 11.5051 45.3449 15.0473 45.1641H32.9264C36.463 45.3463 39.9242 44.1011 42.5308 41.7087C43.1066 41.1229 43.6062 40.4671 44.0176 39.7565C44.9124 38.2857 45.5106 36.6543 45.778 34.9543C45.9184 33.9911 45.9904 33.0191 45.9932 32.0455V20.4889C46.06 18.2762 45.7356 16.069 45.0348 13.9687Z" fill="url(#paint0_linear_729_310)"/>
<path d="M23 34.8958H17C15.8478 34.8944 14.7313 34.4958 13.8388 33.7672C12.9462 33.0386 12.3321 32.0244 12.1 30.8958H35.9C35.668 32.0244 35.0538 33.0386 34.1612 33.7672C33.2688 34.4958 32.1522 34.8944 31 34.8958H25V36.8958H29C29.2652 36.8958 29.5196 37.0012 29.7072 37.1888C29.8946 37.3764 30 37.6306 30 37.8958C30 38.161 29.8946 38.4154 29.7072 38.603C29.5196 38.7906 29.2652 38.8958 29 38.8958H19C18.7348 38.8958 18.4805 38.7906 18.2929 38.603C18.1054 38.4154 18 38.161 18 37.8958C18 37.6306 18.1054 37.3764 18.2929 37.1888C18.4805 37.0012 18.7348 36.8958 19 36.8958H23V34.8958Z" fill="url(#paint1_linear_729_310)"/>
<path d="M31 17.1816H17C15.6744 17.1832 14.4036 17.7105 13.4662 18.6478C12.5289 19.5852 12.0016 20.856 12 22.1816V29.1816H36V22.1816C35.9984 20.856 35.4712 19.5852 34.5338 18.6478C33.5964 17.7105 32.3256 17.1832 31 17.1816Z" fill="url(#paint2_linear_729_310)"/>
<path d="M25.8999 8C25.8999 8 24.5 8 23.8756 7.33221L21.7655 4.72632C20.7709 3.61577 19.2553 2.9785 17.6614 3.00055H13.1314C7.3999 3.00055 2.00079 5.5 2.00014 14.5113L2.00079 18.7391C1.99069 19.6007 2.03123 13.6521 5 11C5 11 7.06043 8 13 8C17.4533 8 23 8 23 8C24.5 8 23.8999 8 25.8999 8Z" fill="url(#paint3_linear_729_310)"/>
<defs>
<linearGradient id="paint0_linear_729_310" x1="1.36399" y1="8.36586" x2="38.9688" y2="54.2299" gradientUnits="userSpaceOnUse">
<stop stop-color="#F9D423"/>
<stop offset="0.515624" stop-color="#FF4E50"/>
<stop offset="0.991304" stop-color="#8A2387"/>
</linearGradient>
<linearGradient id="paint1_linear_729_310" x1="1.36399" y1="8.36586" x2="38.9688" y2="54.2299" gradientUnits="userSpaceOnUse">
<stop stop-color="#F9D423"/>
<stop offset="0.515624" stop-color="#FF4E50"/>
<stop offset="0.991304" stop-color="#8A2387"/>
</linearGradient>
<linearGradient id="paint2_linear_729_310" x1="1.36399" y1="8.36586" x2="38.9688" y2="54.2299" gradientUnits="userSpaceOnUse">
<stop stop-color="#F9D423"/>
<stop offset="0.515624" stop-color="#FF4E50"/>
<stop offset="0.991304" stop-color="#8A2387"/>
</linearGradient>
<linearGradient id="paint3_linear_729_310" x1="12.32" y1="2.64038" x2="12.7961" y2="20.9972" gradientUnits="userSpaceOnUse">
<stop stop-color="#F9D423"/>
<stop offset="0.515624" stop-color="#FF4E50"/>
<stop offset="0.991304" stop-color="#8A2387"/>
</linearGradient>
</defs>
</svg>
