<svg width="16" height="16" viewBox="0 0 16 16" fill="none" xmlns="http://www.w3.org/2000/svg">
<path opacity="0.5" fill-rule="evenodd" clip-rule="evenodd" d="M6.42714 1.26757C5.75957 1.73445 8.92203 2.35019 8.60003 4.17632L9.25174 8.19201L8.6001 11.3295C8.27812 13.1555 3.88247 12.38 4.3501 13.0471C4.81697 13.7146 5.73068 13.8758 7.55683 14.1978L8.84829 14.4255C10.6744 14.7475 11.5881 14.9086 12.2552 14.441C12.9228 13.9741 13.0839 13.0603 13.4059 11.2342L14.3168 6.06834C14.6388 4.24221 14.7999 3.3285 14.3322 2.66146C13.8653 1.99389 12.9516 1.83277 11.1255 1.51078L9.83404 1.28306C8.00789 0.961059 7.09418 0.799948 6.42714 1.26757ZM9.93663 7.7931C9.80818 7.77045 9.67601 7.79974 9.56917 7.87455C9.46232 7.94941 9.38958 8.06356 9.36693 8.19201C9.34428 8.32045 9.3736 8.4526 9.4484 8.55949C9.52321 8.66632 9.63739 8.73905 9.76584 8.7617L11.0791 9.32586C11.2075 9.34852 11.3397 9.31923 11.4466 9.24443C11.5534 9.16957 11.6261 9.0554 11.6488 8.92696C11.6714 8.79851 11.6422 8.66637 11.5674 8.55949C11.4925 8.45265 11.3783 8.37992 11.2499 8.35726L9.93663 7.7931ZM9.0495 5.49008C9.07214 5.36163 9.14489 5.24745 9.25174 5.17264C9.35857 5.09782 9.49075 5.06853 9.61919 5.09117L11.7053 5.77433C11.8338 5.79698 11.948 5.86972 12.0228 5.97658C12.0976 6.08341 12.1269 6.21558 12.1042 6.34403C12.0816 6.47246 12.0089 6.58666 11.9021 6.66147C11.7952 6.73628 11.663 6.76559 11.5345 6.74293L9.4484 6.05977C9.31996 6.03713 9.20577 5.96438 9.13097 5.85754C9.05615 5.7507 9.02685 5.61852 9.0495 5.49008Z" fill="url(#paint0_linear_729_330)"/>
<path fill-rule="evenodd" clip-rule="evenodd" d="M1.66768 2.66136C1.20005 3.3284 1.36117 4.24212 1.68316 6.06825L2.59405 11.2341C2.91604 13.0602 3.07715 13.974 3.74473 14.4409C4.41177 14.9085 5.32548 14.7474 7.15162 14.4254L8.44308 14.1977C10.2692 13.8757 11.1829 13.7146 11.6498 13.047C12.1175 12.3799 11.9563 11.4662 11.6344 9.6401L10.7235 4.4742C10.4015 2.64807 10.2404 1.73435 9.57278 1.26748C8.90572 0.799856 7.99198 0.960974 6.16587 1.28296L4.87441 1.51068C3.04826 1.83268 2.13456 1.99379 1.66768 2.66136ZM4.80654 11.5098C4.78388 11.3813 4.8132 11.2492 4.88801 11.1423C4.96281 11.0355 5.077 10.9628 5.20544 10.9401L7.14265 10.5985C7.2711 10.5759 7.40324 10.6051 7.51013 10.68C7.61698 10.7549 7.68969 10.869 7.71235 10.9974C7.735 11.1259 7.7057 11.258 7.6309 11.3649C7.55605 11.4718 7.44189 11.5445 7.31344 11.5671L5.37623 11.9087C5.24779 11.9314 5.11562 11.9021 5.00877 11.8272C4.90192 11.7524 4.82919 11.6383 4.80654 11.5098ZM4.75 8.35718C4.62156 8.37983 4.50737 8.45256 4.43256 8.55939C4.35776 8.66628 4.32845 8.79843 4.3511 8.92687C4.37374 9.05532 4.44649 9.16947 4.55334 9.24433C4.66017 9.31914 4.79235 9.34843 4.92079 9.32578L8.79517 8.64262C8.92364 8.61997 9.03783 8.54724 9.11269 8.44039C9.18745 8.33351 9.21672 8.20137 9.19407 8.07293C9.17142 7.94448 9.09872 7.83032 8.99192 7.75545C8.88503 7.68066 8.75285 7.65137 8.62438 7.67402L4.75 8.35718ZM3.89565 6.34394C3.87301 6.2155 3.90231 6.08332 3.97713 5.97648C4.05193 5.86963 4.16611 5.79689 4.29456 5.77425L8.16894 5.09109C8.29741 5.06844 8.42959 5.09773 8.53648 5.17254C8.64328 5.24736 8.71598 5.36155 8.73863 5.48999C8.76128 5.61843 8.73202 5.75061 8.65725 5.85744C8.58239 5.96429 8.4682 6.03704 8.33973 6.05969L4.46535 6.74285C4.3369 6.76549 4.20473 6.73619 4.09789 6.66137C3.99105 6.58657 3.9183 6.47238 3.89565 6.34394Z" fill="url(#paint1_linear_729_330)"/>
<defs>
<linearGradient id="paint0_linear_729_330" x1="8.45237" y1="14.3557" x2="10.7296" y2="1.44097" gradientUnits="userSpaceOnUse">
<stop stop-color="#5570FF"/>
<stop offset="1" stop-color="#4DD3FF"/>
</linearGradient>
<linearGradient id="paint1_linear_729_330" x1="7.79736" y1="14.3115" x2="5.52015" y2="1.39682" gradientUnits="userSpaceOnUse">
<stop stop-color="#5570FF"/>
<stop offset="1" stop-color="#4DD3FF"/>
</linearGradient>
</defs>
</svg>
