<svg width="48" height="48" viewBox="0 0 48 48" fill="none" xmlns="http://www.w3.org/2000/svg">
<path opacity="0.5" fill-rule="evenodd" clip-rule="evenodd" d="M43.4306 10.9955C44.1346 11.8185 44.6784 12.7652 45.0348 13.7871C45.7356 15.8874 46.06 18.0946 45.9932 20.3073V31.8639C45.9904 32.8375 45.9184 33.8095 45.778 34.7727C45.5106 36.4727 44.9126 38.1041 44.0176 39.5749C43.6062 40.2855 43.1066 40.9413 42.5308 41.5271C39.9242 43.9195 36.463 45.1647 32.9264 44.9825H15.0473C11.5051 45.1633 8.03816 43.9187 5.42322 41.5271C4.85428 40.9403 4.3614 40.2843 3.95612 39.5749C3.06644 38.1051 2.48112 36.4721 2.23474 34.7727C2.07808 33.8111 1.99958 32.8383 2 31.8639V20.3073C1.99962 19.3421 2.05186 18.3776 2.1565 17.4181C2.1785 17.2498 2.2115 17.0842 2.24416 16.9203C2.2986 16.6471 2.3521 16.3786 2.3521 16.1102C2.55068 14.9522 2.9129 13.8283 3.42798 12.772C4.95374 9.5119 8.08354 7.85258 13.2086 7.85258H34.726C37.5964 7.63058 40.4456 8.49472 42.707 10.2732C42.9674 10.4941 43.2094 10.7356 43.4306 10.9955Z" fill="url(#paint0_linear_728_118)"/>
<path d="M38.9624 18.631H23.8191C22.8144 18.631 22 17.8182 22 16.8154C22 15.8128 22.8144 15 23.8191 15H39.1386C39.6804 15.006 40.1876 15.2664 40.5078 15.7028C40.7862 16.0274 40.9266 16.4476 40.899 16.874C40.8838 17.3592 40.6746 17.818 40.318 18.148C39.9616 18.4782 39.4874 18.652 39.0016 18.631H38.9624Z" fill="url(#paint1_linear_728_118)"/>
<path d="M25.8999 8C25.8999 8 24.5 8 23.8756 7.33221L21.7655 4.72632C20.7709 3.61577 19.2553 2.9785 17.6614 3.00055H13.1314C7.3999 3.00055 2.00079 5.5 2.00014 14.5113L2.00079 18.7391C1.99069 19.6007 2.03123 13.6521 5 11C5 11 7.06043 8 13 8C17.4533 8 23 8 23 8C24.5 8 23.8999 8 25.8999 8Z" fill="url(#paint2_linear_728_118)"/>
<defs>
<linearGradient id="paint0_linear_728_118" x1="24.0008" y1="44.9999" x2="24.0008" y2="7.81836" gradientUnits="userSpaceOnUse">
<stop stop-color="#FD2E00"/>
<stop offset="1" stop-color="#FFBB55"/>
</linearGradient>
<linearGradient id="paint1_linear_728_118" x1="26" y1="17" x2="41" y2="17" gradientUnits="userSpaceOnUse">
<stop stop-color="#FD2E00"/>
<stop offset="1" stop-color="#FFBB55"/>
</linearGradient>
<linearGradient id="paint2_linear_728_118" x1="13.9499" y1="18.8236" x2="13.9499" y2="3" gradientUnits="userSpaceOnUse">
<stop stop-color="#FD2E00"/>
<stop offset="1" stop-color="#FFBB55"/>
</linearGradient>
</defs>
</svg>
