<svg width="48" height="48" viewBox="0 0 48 48" fill="none" xmlns="http://www.w3.org/2000/svg">
<path opacity="0.5" fill-rule="evenodd" clip-rule="evenodd" d="M43.4306 11.9955C44.1346 12.8185 44.6784 13.7652 45.0348 14.7871C45.7356 16.8874 46.06 19.0946 45.9932 21.3073V32.8639C45.9904 33.8375 45.9184 34.8095 45.778 35.7727C45.5106 37.4727 44.9126 39.1041 44.0176 40.5749C43.6062 41.2855 43.1066 41.9413 42.5308 42.5271C39.9242 44.9195 36.463 46.1647 32.9264 45.9825H15.0473C11.5051 46.1633 8.03816 44.9187 5.42322 42.5271C4.85428 41.9403 4.3614 41.2843 3.95612 40.5749C3.06644 39.1051 2.48112 37.4721 2.23474 35.7727C2.07808 34.8111 1.99958 33.8383 2 32.8639V21.3073C1.99962 20.3421 2.05186 19.3776 2.1565 18.4181C2.1785 18.2498 2.2115 18.0842 2.24416 17.9203C2.2986 17.6471 2.3521 17.3786 2.3521 17.1102C2.55068 15.9522 2.9129 14.8283 3.42798 13.772C4.95374 10.5119 8.08354 8.85258 13.2086 8.85258H34.726C37.5964 8.63058 40.4456 9.49472 42.707 11.2732C42.9674 11.4941 43.2094 11.7356 43.4306 11.9955Z" fill="url(#paint0_linear_728_98)"/>
<path d="M25 9C25 9 24.5 9 23.8756 8.33221L21.7655 5.72632C20.7709 4.61577 19.2553 3.9785 17.6614 4.00055H13.1314C7.3999 4.00055 2.00079 6.5 2.00014 15.5113L2.00079 19.7391C1.99069 20.6007 2.03123 14.6521 5 12C5 12 7.06043 9 13 9C17.4533 9 23 9 23 9C24.5 9 23 9 25 9Z" fill="url(#paint1_linear_728_98)"/>
<path d="M25 9C25 9 24.5 9 23.8756 8.33221L21.7655 5.72632C20.7709 4.61577 19.2553 3.9785 17.6614 4.00055H13.1314C7.3999 4.00055 2.00079 6.5 2.00014 15.5113L2.00079 19.7391C1.99069 20.6007 2.03123 14.6521 5 12C5 12 7.06043 9 13 9C17.4533 9 23 9 23 9C24.5 9 23 9 25 9Z" fill="url(#paint2_linear_728_98)"/>
<path d="M38.9624 18.631H23.8191C22.8144 18.631 22 17.8182 22 16.8154C22 15.8128 22.8144 15 23.8191 15H39.1386C39.6804 15.006 40.1876 15.2664 40.5078 15.7028C40.7862 16.0274 40.9266 16.4476 40.899 16.874C40.8838 17.3592 40.6746 17.818 40.318 18.148C39.9616 18.4782 39.4874 18.652 39.0016 18.631H38.9624Z" fill="url(#paint3_linear_728_98)"/>
<defs>
<linearGradient id="paint0_linear_728_98" x1="24.0008" y1="45.9999" x2="24.0008" y2="8.81836" gradientUnits="userSpaceOnUse">
<stop stop-color="#A93AFF"/>
<stop offset="1" stop-color="#FF81FF"/>
</linearGradient>
<linearGradient id="paint1_linear_728_98" x1="13" y1="16" x2="14.4534" y2="4.1787" gradientUnits="userSpaceOnUse">
<stop stop-color="#8D01A2"/>
<stop offset="1" stop-color="#FF00D2"/>
</linearGradient>
<linearGradient id="paint2_linear_728_98" x1="13.5" y1="19.8236" x2="13.5" y2="4" gradientUnits="userSpaceOnUse">
<stop stop-color="#A93AFF"/>
<stop offset="1" stop-color="#FF81FF"/>
</linearGradient>
<linearGradient id="paint3_linear_728_98" x1="31.4512" y1="18.6327" x2="31.4512" y2="15" gradientUnits="userSpaceOnUse">
<stop stop-color="#A93AFF"/>
<stop offset="1" stop-color="#FF81FF"/>
</linearGradient>
</defs>
</svg>
