<svg width="24" height="24" viewBox="0 0 24 24" fill="none" xmlns="http://www.w3.org/2000/svg">
<circle opacity="0.4" cx="12" cy="12" r="11" fill="url(#paint0_linear_69_74)"/>
<path fill-rule="evenodd" clip-rule="evenodd" d="M12 1C5.906 1 1 5.906 1 12C1 5.92487 5.92487 1 12 1ZM1 12C1 16.5093 3.68744 20.3632 7.55373 22.0644C3.69347 20.3564 1 16.4928 1 12ZM18.7085 20.7182C16.8518 22.149 14.5253 23 12 23C10.4176 23 8.91331 22.6659 7.55373 22.0644C7.8997 22.2166 8.25512 22.3516 8.6189 22.4683V20.1829C5.83445 20.7973 5.24854 18.9583 5.24854 18.9583C4.79315 17.7832 4.13672 17.4705 4.13672 17.4705C3.2278 16.8399 4.20386 16.8501 4.20386 16.8501C5.2086 16.9219 5.73731 17.9001 5.73731 17.9001C6.63023 19.4543 8.08084 19.0065 8.65113 18.7461C8.74208 18.0892 9.00185 17.6387 9.2876 17.3845C7.06491 17.1278 5.13843 15.7065 5.13843 11.8089C5.13843 10.6987 5.94492 9.24074 6.58525 8.53027C6.48199 8.27301 6.13688 6.68871 6.68193 5.28882C6.68193 5.28882 6.73444 5.27229 6.84306 5.26733C7.07858 5.25629 7.52687 5.57631 8.29905 6.12754C8.59484 6.33869 8.93816 6.58378 9.33525 6.85717C10.2009 6.60849 11.3084 6.4922 12 6.48657C12.7798 6.4801 13.6828 6.61429 14.4965 6.85717C15.9306 5.87006 16.8468 5.24952 17.1713 5.26464H17.174C17.2825 5.26973 17.3352 5.28613 17.3352 5.28613C17.8815 6.68597 17.5372 8.27301 17.4345 8.53027C18.076 9.24087 18.875 10.6987 18.875 11.8089C18.875 15.7164 16.5363 17.1248 14.3069 17.3765C14.6658 17.6905 14.7554 18.3132 14.7554 19.2617C14.7554 20.4073 14.7525 21.1518 14.75 21.625V22.6428C16.2096 22.2693 17.5507 21.6064 18.7085 20.7182ZM18.7085 20.7182C21.3209 18.7142 23 15.5632 23 12C23 15.5498 21.3185 18.7069 18.7085 20.7182ZM12 1C18.0751 1 23 5.92487 23 12C23 5.906 18.094 1 12 1Z" fill="url(#paint1_linear_69_74)"/>
<defs>
<linearGradient id="paint0_linear_69_74" x1="20.8" y1="-0.100001" x2="1.66" y2="21.46" gradientUnits="userSpaceOnUse">
<stop stop-color="#FB457A"/>
<stop offset="1" stop-color="#A500FF"/>
</linearGradient>
<linearGradient id="paint1_linear_69_74" x1="20.8" y1="-0.100001" x2="1.66" y2="21.46" gradientUnits="userSpaceOnUse">
<stop stop-color="#FB457A"/>
<stop offset="1" stop-color="#A500FF"/>
</linearGradient>
</defs>
</svg>
