<svg width="32" height="32" viewBox="0 0 32 32" fill="none" xmlns="http://www.w3.org/2000/svg">
<path opacity="0.4" d="M8.43203 1.6001C8.29079 1.6001 8.16984 1.68956 8.12511 1.81524C8.10068 1.88387 8.09868 1.95863 8.0829 2.02975L7.61884 4.12135C7.56693 4.35534 7.3948 4.54206 7.17285 4.63256V4.63256C6.95311 4.72215 6.7022 4.71069 6.50203 4.58324L4.60391 3.37471C4.4529 3.27861 4.27383 3.24815 4.14727 3.37471L2.77461 4.74736C2.67479 4.84718 2.6537 4.99487 2.71133 5.11492C2.74291 5.18069 2.79437 5.23506 2.83354 5.29662L3.98551 7.10685C4.11307 7.3073 4.12372 7.55873 4.03284 7.77826V7.77826C3.94223 7.99716 3.75727 8.16657 3.52598 8.21789L1.42966 8.683C1.35854 8.69878 1.28378 8.70078 1.21514 8.72521C1.08946 8.76994 1 8.89089 1 9.03213V10.9681C1 11.1471 1.14793 11.2546 1.32266 11.2935L3.52665 11.7825C3.75729 11.8336 3.94134 12.0033 4.03027 12.2222V12.2222C4.11807 12.4382 4.10659 12.6848 3.98142 12.8816L2.76367 14.7962C2.66758 14.9472 2.63711 15.1263 2.76367 15.2528L4.13359 16.6255C4.23356 16.7255 4.38324 16.7465 4.5041 16.6885C4.5697 16.6571 4.62392 16.6058 4.68527 16.5667L6.49774 15.4117C6.70031 15.2826 6.95454 15.2721 7.17603 15.365V15.365C7.39612 15.4574 7.5667 15.6438 7.6184 15.8769L8.0829 17.9704C8.09868 18.0416 8.10068 18.1163 8.12511 18.185C8.16984 18.3106 8.29079 18.4001 8.43203 18.4001H10.368C10.547 18.4001 10.6545 18.2522 10.6934 18.0774L11.1812 15.8789C11.2331 15.6449 11.4052 15.4581 11.6271 15.3676V15.3676C11.8469 15.278 12.0978 15.2895 12.298 15.417L14.1036 16.5666C14.1651 16.6057 14.2194 16.6571 14.2851 16.6887C14.4051 16.7464 14.5529 16.7253 14.6527 16.6255L16.0254 15.2528C16.152 15.1263 16.1215 14.9472 16.0254 14.7962L14.8145 12.8933C14.6869 12.6929 14.6763 12.4415 14.7672 12.2219V12.2219C14.8578 12.003 15.0427 11.8336 15.274 11.7823L17.4773 11.2935C17.6521 11.2546 17.8 11.1471 17.8 10.9681V9.03213C17.8 8.89089 17.7105 8.76994 17.5849 8.72521C17.5162 8.70078 17.4415 8.69878 17.3703 8.683L15.2834 8.21998C15.0466 8.16742 14.8575 7.99311 14.7651 7.76877V7.76877C14.6736 7.54659 14.6849 7.2925 14.814 7.08978L15.9555 5.29654C15.9947 5.23503 16.0461 5.18071 16.0777 5.11499C16.1354 4.99493 16.1143 4.8472 16.0145 4.74736L14.6445 3.37471C14.518 3.24815 14.3389 3.27861 14.1879 3.37471L12.2852 4.58463C12.0863 4.71112 11.8369 4.72174 11.619 4.63179V4.63179C11.4018 4.54209 11.2338 4.35852 11.1829 4.12905L10.6934 1.92275C10.6545 1.74803 10.547 1.6001 10.368 1.6001H8.43203ZM9.4 7.2001C10.1426 7.2001 10.8548 7.4951 11.3799 8.0202C11.905 8.5453 12.2 9.25749 12.2 10.0001C12.2 10.7427 11.905 11.4549 11.3799 11.98C10.8548 12.5051 10.1426 12.8001 9.4 12.8001C8.65739 12.8001 7.9452 12.5051 7.4201 11.98C6.895 11.4549 6.6 10.7427 6.6 10.0001C6.6 9.25749 6.895 8.5453 7.4201 8.0202C7.9452 7.4951 8.65739 7.2001 9.4 7.2001Z" fill="url(#paint0_linear_96_116)"/>
<path d="M17.6172 6.3999C17.3989 6.3999 17.2146 6.54944 17.1653 6.75224C17.1481 6.82302 17.1444 6.89672 17.1286 6.96784L16.4555 10.0017C16.3813 10.336 16.1354 10.6027 15.8184 10.732V10.732C15.5044 10.86 15.146 10.8436 14.86 10.6615L12.1484 8.93506C11.9327 8.79778 11.6769 8.75426 11.4961 8.93506L9.53516 10.896C9.38088 11.0503 9.35825 11.2846 9.46726 11.4624C9.5054 11.5246 9.55492 11.5794 9.59409 11.641L11.265 14.2667C11.4472 14.5531 11.4625 14.9122 11.3326 15.2258V15.2258C11.2032 15.5386 10.939 15.7806 10.6085 15.8539L7.56794 16.5285C7.49682 16.5443 7.42312 16.548 7.35234 16.5652C7.14953 16.6145 7 16.7988 7 17.0171V19.7827C7 20.0384 7.21133 20.1921 7.46094 20.2476L10.6095 20.9461C10.939 21.0192 11.2019 21.2616 11.329 21.5743V21.5743C11.4544 21.883 11.438 22.2352 11.2592 22.5163L9.51953 25.2515C9.38225 25.4672 9.33873 25.723 9.51953 25.9038L11.4766 27.8647C11.631 28.0191 11.8684 28.0417 12.047 27.9324C12.1091 27.8944 12.1638 27.845 12.2251 27.8059L14.8539 26.1307C15.1433 25.9463 15.5065 25.9313 15.8229 26.0641V26.0641C16.1373 26.1961 16.381 26.4624 16.4549 26.7953L17.1286 29.832C17.1444 29.9031 17.1481 29.9768 17.1653 30.0476C17.2146 30.2504 17.3989 30.3999 17.6172 30.3999H20.3828C20.6385 30.3999 20.7922 30.1886 20.8477 29.939L21.5445 26.7981C21.6187 26.4638 21.8646 26.1971 22.1816 26.0678V26.0678C22.4956 25.9398 22.854 25.9562 23.14 26.1383L25.7591 27.8059C25.8205 27.845 25.8753 27.8945 25.9374 27.9326C26.1152 28.0417 26.3496 28.0191 26.5039 27.8647L28.4648 25.9038C28.6456 25.723 28.6021 25.4672 28.4648 25.2515L26.735 22.5331C26.5528 22.2467 26.5375 21.8876 26.6674 21.574V21.574C26.7968 21.2612 27.061 21.0192 27.3915 20.9459L30.5391 20.2476C30.7887 20.1921 31 20.0384 31 19.7827V17.0171C31 16.7988 30.8505 16.6145 30.6477 16.5652C30.5769 16.548 30.5032 16.5443 30.4321 16.5285L27.4049 15.8569C27.0665 15.7818 26.7965 15.5328 26.6645 15.2123V15.2123C26.5337 14.8949 26.5499 14.5319 26.7343 14.2423L28.3903 11.6409C28.4295 11.5794 28.4789 11.5246 28.5171 11.4624C28.6261 11.2847 28.6035 11.0503 28.4492 10.896L26.4922 8.93506C26.3114 8.75426 26.0556 8.79778 25.8398 8.93506L23.1218 10.6635C22.8376 10.8442 22.4813 10.8594 22.1701 10.7309V10.7309C21.8597 10.6027 21.6197 10.3405 21.547 10.0127L20.8477 6.86084C20.7922 6.61124 20.6385 6.3999 20.3828 6.3999H17.6172ZM19 14.3999C20.0609 14.3999 21.0783 14.8213 21.8284 15.5715C22.5786 16.3216 23 17.339 23 18.3999C23 19.4608 22.5786 20.4782 21.8284 21.2283C21.0783 21.9785 20.0609 22.3999 19 22.3999C17.9391 22.3999 16.9217 21.9785 16.1716 21.2283C15.4214 20.4782 15 19.4608 15 18.3999C15 17.339 15.4214 16.3216 16.1716 15.5715C16.9217 14.8213 17.9391 14.3999 19 14.3999Z" fill="url(#paint1_linear_96_116)"/>
<defs>
<linearGradient id="paint0_linear_96_116" x1="9.39999" y1="18.4001" x2="9.39999" y2="1.6001" gradientUnits="userSpaceOnUse">
<stop stop-color="#02AA93"/>
<stop offset="1" stop-color="#67FF80"/>
</linearGradient>
<linearGradient id="paint1_linear_96_116" x1="19" y1="30.3999" x2="19" y2="6.3999" gradientUnits="userSpaceOnUse">
<stop stop-color="#02AA93"/>
<stop offset="1" stop-color="#67FF80"/>
</linearGradient>
</defs>
</svg>
