<svg width="24" height="24" viewBox="0 0 24 24" fill="none" xmlns="http://www.w3.org/2000/svg">
<path opacity="0.5" d="M13.7342 6.7077C16.7851 6.7077 18.31 6.7077 19.4828 7.4455C19.7796 7.63175 20.056 7.85045 20.3047 8.09678C21.29 9.07009 21.6373 10.5565 22.3318 13.5281L23.5599 18.7828C23.7513 19.6042 23.6338 20.4672 23.2297 21.2075C22.8257 21.9478 22.1634 22.5135 21.3691 22.7969C20.5747 23.0802 19.7039 23.0614 18.9226 22.7439C18.1412 22.4265 17.504 21.8326 17.1324 21.0755L16.9882 20.7799C16.6714 20.1331 16.1794 19.5882 15.5683 19.2071C14.9572 18.826 14.2514 18.6241 13.5311 18.6242H11.1231C10.4026 18.6235 9.69636 18.8251 9.08477 19.206C8.47318 19.5869 7.98078 20.1318 7.66361 20.7787L7.51941 21.0743C7.14857 21.8327 6.51136 22.428 5.72947 22.7464C4.94759 23.0648 4.07582 23.084 3.28064 22.8004C2.48547 22.5168 1.82261 21.9503 1.41866 21.209C1.01471 20.4677 0.897963 19.6035 1.09072 18.7816L2.31878 13.5257C3.01332 10.5553 3.36059 9.07009 4.34592 8.09558C4.59532 7.84916 4.87093 7.63076 5.16783 7.4443C6.34182 6.7077 7.86668 6.7077 10.9176 6.7077H13.7342Z" fill="url(#paint0_linear_8_476)"/>
<path d="M9.02144 11.5142C9.02144 11.2752 8.92649 11.046 8.75748 10.877C8.58846 10.7079 8.35924 10.613 8.12022 10.613C7.8812 10.613 7.65197 10.7079 7.48296 10.877C7.31395 11.046 7.219 11.2752 7.219 11.5142V12.4154H6.31778C6.07876 12.4154 5.84954 12.5104 5.68053 12.6794C5.51151 12.8484 5.41656 13.0776 5.41656 13.3166C5.41656 13.5557 5.51151 13.7849 5.68053 13.9539C5.84954 14.1229 6.07876 14.2179 6.31778 14.2179H7.219V15.1191C7.219 15.3581 7.31395 15.5873 7.48296 15.7563C7.65197 15.9253 7.8812 16.0203 8.12022 16.0203C8.35924 16.0203 8.58846 15.9253 8.75748 15.7563C8.92649 15.5873 9.02144 15.3581 9.02144 15.1191V14.2179H9.92265C10.1617 14.2179 10.3909 14.1229 10.5599 13.9539C10.7289 13.7849 10.8239 13.5557 10.8239 13.3166C10.8239 13.0776 10.7289 12.8484 10.5599 12.6794C10.3909 12.5104 10.1617 12.4154 9.92265 12.4154H9.02144V11.5142ZM15.9308 12.7158C16.2495 12.7158 16.5551 12.5892 16.7804 12.3639C17.0058 12.1385 17.1324 11.8329 17.1324 11.5142C17.1324 11.1955 17.0058 10.8899 16.7804 10.6645C16.5551 10.4392 16.2495 10.3126 15.9308 10.3126C15.6121 10.3126 15.3064 10.4392 15.0811 10.6645C14.8557 10.8899 14.7291 11.1955 14.7291 11.5142C14.7291 11.8329 14.8557 12.1385 15.0811 12.3639C15.3064 12.5892 15.6121 12.7158 15.9308 12.7158ZM19.5356 14.5183C19.5356 14.837 19.409 15.1426 19.1837 15.3679C18.9583 15.5933 18.6527 15.7199 18.334 15.7199C18.0153 15.7199 17.7097 15.5933 17.4843 15.3679C17.259 15.1426 17.1324 14.837 17.1324 14.5183C17.1324 14.1996 17.259 13.8939 17.4843 13.6686C17.7097 13.4432 18.0153 13.3166 18.334 13.3166C18.6527 13.3166 18.9583 13.4432 19.1837 13.6686C19.409 13.8939 19.5356 14.1996 19.5356 14.5183ZM16.832 1.90122C16.832 1.6622 16.737 1.43297 16.568 1.26396C16.399 1.09495 16.1698 1 15.9308 1C15.6918 1 15.4625 1.09495 15.2935 1.26396C15.1245 1.43297 15.0296 1.6622 15.0296 1.90122V3.10284C15.0296 3.18251 14.9979 3.25892 14.9416 3.31526C14.8852 3.3716 14.8088 3.40325 14.7291 3.40325H13.5275C12.9698 3.40325 12.435 3.6248 12.0406 4.01916C11.6462 4.41352 11.4247 4.94838 11.4247 5.50609V6.70771H13.2271V5.50609C13.2271 5.42642 13.2588 5.35001 13.3151 5.29367C13.3714 5.23733 13.4479 5.20568 13.5275 5.20568H14.7291C15.2869 5.20568 15.8217 4.98413 16.2161 4.58978C16.6104 4.19542 16.832 3.66055 16.832 3.10284V1.90122Z" fill="url(#paint1_linear_8_476)"/>
<defs>
<linearGradient id="paint0_linear_8_476" x1="0.672617" y1="6.86802" x2="16.4455" y2="29.4663" gradientUnits="userSpaceOnUse">
<stop stop-color="#F9D423"/>
<stop offset="0.515624" stop-color="#FF4E50"/>
<stop offset="0.991304" stop-color="#8A2387"/>
</linearGradient>
<linearGradient id="paint1_linear_8_476" x1="5.21248" y1="1.1478" x2="20.6964" y2="16.1479" gradientUnits="userSpaceOnUse">
<stop stop-color="#F9D423"/>
<stop offset="0.515624" stop-color="#FF4E50"/>
<stop offset="0.991304" stop-color="#8A2387"/>
</linearGradient>
</defs>
</svg>
