<svg width="24" height="25" viewBox="0 0 24 25" fill="none" xmlns="http://www.w3.org/2000/svg">
<path d="M17.94 10.0547H16.8823C16.3301 10.0547 15.8823 9.60703 15.8823 9.05475V3.58416C15.8823 2.87239 15.3 2.29004 14.5882 2.29004H9.41176C8.69999 2.29004 8.11764 2.87239 8.11764 3.58416V9.05474C8.11764 9.60703 7.66992 10.0547 7.11764 10.0547H6.05999C4.90823 10.0547 4.32587 11.4524 5.14117 12.2677L11.0812 18.2077C11.5859 18.7124 12.4012 18.7124 12.9059 18.2077L18.8459 12.2677C19.6612 11.4524 19.0918 10.0547 17.94 10.0547Z" fill="url(#paint0_linear_310_453)"/>
<path opacity="0.4" d="M4.23528 22.7098C3.52352 22.7098 2.94116 22.1275 2.94116 21.4157C2.94116 20.7039 3.52352 20.1216 4.23528 20.1216H19.7647C20.4765 20.1216 21.0588 20.7039 21.0588 21.4157C21.0588 22.1275 20.4765 22.7098 19.7647 22.7098H4.23528Z" fill="url(#paint1_linear_310_453)"/>
<defs>
<linearGradient id="paint0_linear_310_453" x1="11.9951" y1="18.5862" x2="11.9951" y2="2.29004" gradientUnits="userSpaceOnUse">
<stop stop-color="#02AA93"/>
<stop offset="1" stop-color="#67FF80"/>
</linearGradient>
<linearGradient id="paint1_linear_310_453" x1="12" y1="22.7098" x2="12" y2="20.1216" gradientUnits="userSpaceOnUse">
<stop stop-color="#02AA93"/>
<stop offset="1" stop-color="#67FF80"/>
</linearGradient>
</defs>
</svg>
