<svg width="16" height="16" viewBox="0 0 16 16" fill="none" xmlns="http://www.w3.org/2000/svg">
<path d="M7.54375 3.6001C7.43329 3.6001 7.34375 3.68964 7.34375 3.8001V4.16572C7.34375 4.27618 7.43329 4.36572 7.54375 4.36572H13.4405C13.6187 4.36572 13.7079 4.58115 13.582 4.70714L9.01642 9.27264C8.93832 9.35075 8.81168 9.35075 8.73358 9.27264L7.68517 8.22423C7.55918 8.09824 7.34375 8.18747 7.34375 8.36566V8.87663C7.34375 8.92967 7.36482 8.98054 7.40233 9.01805L8.73454 10.3503C8.81227 10.428 8.93816 10.4284 9.01641 10.3512L10.5041 8.88364C10.5823 8.80645 10.7082 8.80687 10.786 8.8846L13.582 11.6805C13.7079 11.8065 13.6187 12.022 13.4405 12.022H7.54375C7.43329 12.022 7.34375 12.1115 7.34375 12.222V12.5876C7.34375 12.6981 7.43329 12.7876 7.54375 12.7876H14.8C14.9105 12.7876 15 12.6981 15 12.5876V3.8001C15 3.68964 14.9105 3.6001 14.8 3.6001H7.54375ZM13.893 5.47277C14.0189 5.34678 14.2344 5.43601 14.2344 5.61419V10.7735C14.2344 10.9517 14.0189 11.0409 13.893 10.9149L11.3133 8.33527C11.2352 8.25716 11.2352 8.13053 11.3133 8.05243L13.893 5.47277Z" fill="url(#paint0_linear_90_211)" stroke="url(#paint1_linear_90_211)" stroke-width="0.4"/>
<g opacity="0.4">
<path d="M1 7.0751V6.4251C1 6.31464 1.08954 6.2251 1.2 6.2251H6.05C6.16046 6.2251 6.25 6.31464 6.25 6.4251V7.0751C6.25 7.18555 6.16046 7.2751 6.05 7.2751H1.2C1.08954 7.2751 1 7.18555 1 7.0751Z" fill="url(#paint2_linear_90_211)"/>
<path d="M3.1 9.0251V8.3751C3.1 8.26464 3.18954 8.1751 3.3 8.1751H6.05C6.16046 8.1751 6.25 8.26464 6.25 8.3751V9.0251C6.25 9.13555 6.16046 9.2251 6.05 9.2251H3.3C3.18954 9.2251 3.1 9.13555 3.1 9.0251Z" fill="url(#paint3_linear_90_211)"/>
<path d="M4.15 10.9751V10.3251C4.15 10.2146 4.23954 10.1251 4.35 10.1251H6.05C6.16046 10.1251 6.25 10.2146 6.25 10.3251V10.9751C6.25 11.0856 6.16046 11.1751 6.05 11.1751H4.35C4.23954 11.1751 4.15 11.0856 4.15 10.9751Z" fill="url(#paint4_linear_90_211)"/>
</g>
<defs>
<linearGradient id="paint0_linear_90_211" x1="8.875" y1="12.7876" x2="8.875" y2="3.6001" gradientUnits="userSpaceOnUse">
<stop stop-color="#FD2E00"/>
<stop offset="1" stop-color="#FF9900"/>
</linearGradient>
<linearGradient id="paint1_linear_90_211" x1="8.875" y1="12.7876" x2="8.875" y2="3.6001" gradientUnits="userSpaceOnUse">
<stop stop-color="#FD2E00"/>
<stop offset="1" stop-color="#FF9900"/>
</linearGradient>
<linearGradient id="paint2_linear_90_211" x1="9.4" y1="15.6751" x2="9.4" y2="3.0751" gradientUnits="userSpaceOnUse">
<stop stop-color="#FD2E00"/>
<stop offset="1" stop-color="#FF9900"/>
</linearGradient>
<linearGradient id="paint3_linear_90_211" x1="9.4" y1="15.6751" x2="9.4" y2="3.0751" gradientUnits="userSpaceOnUse">
<stop stop-color="#FD2E00"/>
<stop offset="1" stop-color="#FF9900"/>
</linearGradient>
<linearGradient id="paint4_linear_90_211" x1="9.4" y1="15.6751" x2="9.4" y2="3.0751" gradientUnits="userSpaceOnUse">
<stop stop-color="#FD2E00"/>
<stop offset="1" stop-color="#FF9900"/>
</linearGradient>
</defs>
</svg>
