<svg width="32" height="32" viewBox="0 0 32 32" fill="none" xmlns="http://www.w3.org/2000/svg">
<path opacity="0.4" d="M7.83337 22.6667H14.8334V25H10.1667C9.85728 25 9.56053 25.1229 9.34174 25.3417C9.12295 25.5605 9.00003 25.8572 9.00003 26.1667C9.00003 26.4761 9.12295 26.7728 9.34174 26.9916C9.56053 27.2104 9.85728 27.3333 10.1667 27.3333H21.8334C22.1428 27.3333 22.4395 27.2104 22.6583 26.9916C22.8771 26.7728 23 26.4761 23 26.1667C23 25.8572 22.8771 25.5605 22.6583 25.3417C22.4395 25.1229 22.1428 25 21.8334 25H17.1667V22.6667H24.1667C25.5109 22.665 26.8135 22.1999 27.8548 21.3498C28.8962 20.4998 29.6126 19.3167 29.8834 18H2.1167C2.38748 19.3167 3.10391 20.4998 4.14524 21.3498C5.18657 22.1999 6.48913 22.665 7.83337 22.6667V22.6667Z" fill="url(#paint0_linear_11_181)"/>
<path d="M24.1667 4H7.83333C6.28681 4.00185 4.80415 4.61703 3.71059 5.71059C2.61703 6.80415 2.00185 8.28681 2 9.83333L2 18H30V9.83333C29.9981 8.28681 29.383 6.80415 28.2894 5.71059C27.1958 4.61703 25.7132 4.00185 24.1667 4V4Z" fill="url(#paint1_linear_11_181)"/>
<defs>
<linearGradient id="paint0_linear_11_181" x1="1.71535" y1="18.0918" x2="7.39089" y2="35.4932" gradientUnits="userSpaceOnUse">
<stop stop-color="#F9D423"/>
<stop offset="0.515624" stop-color="#FF4E50"/>
<stop offset="0.991304" stop-color="#8A2387"/>
</linearGradient>
<linearGradient id="paint1_linear_11_181" x1="1.59528" y1="4.13776" x2="12.9365" y2="27.5142" gradientUnits="userSpaceOnUse">
<stop stop-color="#F9D423"/>
<stop offset="0.515624" stop-color="#FF4E50"/>
<stop offset="0.991304" stop-color="#8A2387"/>
</linearGradient>
</defs>
</svg>
