<svg width="128" height="128" viewBox="0 0 128 128" fill="none" xmlns="http://www.w3.org/2000/svg">
<path opacity="0.4" d="M98 8H30C16.7452 8 6 18.7452 6 32V95C6 108.255 16.7452 119 30 119H98C111.255 119 122 108.255 122 95V32C122 18.7452 111.255 8 98 8Z" fill="url(#paint0_linear_81_250)"/>
<path d="M50.6633 25.1291C50.7734 25.1438 50.8852 25.1384 50.9933 25.1127C55.4158 24.0632 59.6373 21.8212 64.292 22.0114C68.7036 22.0589 72.7247 24.0848 76.9306 25.0893C77.0435 25.1163 77.1606 25.1212 77.2757 25.1042C80.8203 24.5818 84.2999 23.6985 87.8468 23.1881C90.5638 22.8244 93.3401 24.0813 95.0299 26.2101C99.5069 31.5959 103.845 37.1423 107.406 43.1861C109.888 47.3205 109.455 52.9417 106.224 56.5466C102.412 60.6009 98.6003 64.6552 94.7541 68.6761C94.4881 68.9543 94.4201 69.3663 94.5742 69.719C95.6739 72.2367 96.4658 74.9782 96.0137 77.7427C95.1774 83.1106 91.435 87.6357 86.8076 90.2998C86.6001 90.4192 86.4433 90.6103 86.3663 90.837C85.7482 92.6589 84.8418 94.4483 83.2043 95.5588C78.6421 98.6444 74.3686 102.137 70.2395 105.774C68.3408 107.491 65.827 108.678 63.217 108.385C60.8636 108.186 58.8152 106.832 57.1357 105.261C53.4346 101.945 49.5248 98.8639 45.3905 96.1097C43.5322 94.9077 42.3035 92.9958 41.6722 90.9091C41.6004 90.6715 41.4455 90.467 41.2329 90.339C37.3076 87.9743 33.9012 84.4523 32.5487 79.9944C30.8533 75.0578 32.645 69.3724 36.3408 65.8369C38.2128 64.2699 40.748 66.6286 40.5447 68.677C40.2345 71.3031 38.0577 73.4211 38.2341 76.1542C38.3628 79.4182 40.5536 82.0603 43.0395 83.9875C43.3912 84.2601 43.8845 84.2243 44.2325 83.9467C45.8842 82.6286 47.8653 81.8059 49.7227 80.8128C53.0601 79.0691 56.4993 77.5288 60.0292 76.2184C61.1311 75.8494 62.2917 75.1326 62.5859 73.9292C62.7409 72.9879 62.1527 72.1535 61.3985 71.6668C57.8899 69.2654 54.3011 66.9762 50.7978 64.564C49.942 64.0292 49.1879 62.9809 49.6693 61.9487C51.0332 58.8518 52.9533 56.0278 54.3439 52.9417C55.2424 50.9521 54.178 48.5132 52.1938 47.6841C48.0855 45.9551 43.7982 44.6392 39.6884 42.9141C38.8587 42.566 39.008 41.4568 39.9028 41.3613C41.6223 41.1778 43.3538 41.0818 45.0695 40.8595C48.514 40.33 51.8247 41.7045 55.1033 42.5283C56.4725 42.9561 58.7723 43.1808 58.5905 45.133C57.8418 50.5135 56.5955 55.8193 55.7772 61.1891C55.6008 62.1786 55.3974 63.7403 56.6704 64.0773C60.2379 65.1631 64.0674 66.1044 67.7686 65.0668C69.1871 64.5905 71.0326 64.6231 72.1144 63.496C72.2342 63.3712 72.3006 63.2056 72.3124 63.0332C72.3814 62.0307 72.1842 61.0335 72.0366 60.0499C71.1969 55.4075 70.309 50.7756 69.4854 46.1331C69.3302 45.2292 69.1698 44.0312 70.1005 43.4749C71.5125 42.7154 73.1385 42.4854 74.6574 42.0201C77.0374 41.4264 79.4282 40.421 81.9313 40.7793C84.182 41.0253 86.4422 41.1739 88.6926 41.4201C89.4938 41.5078 89.6983 42.3884 88.9471 42.6809C88.3396 42.9175 87.7105 43.1136 87.1141 43.3626C83.3701 44.8013 79.5781 46.1331 75.8501 47.6254C73.9834 48.3688 72.7106 50.5724 73.4968 52.5299C74.4648 54.9796 75.9143 57.2045 77.1123 59.5471C77.6526 60.6998 78.609 61.8427 78.3994 63.1852C78.3829 63.2912 78.3411 63.3918 78.2793 63.4793C77.8511 64.086 77.2294 64.5141 76.631 64.9331C73.4165 67.0618 70.2235 69.228 67.0144 71.3619C66.3084 71.8807 65.3831 72.4584 65.4366 73.4639C65.3617 74.7048 66.4849 75.6247 67.5492 76.0258C72.4912 77.9139 77.2942 80.1603 81.9581 82.6633C82.6207 83.0151 83.2208 83.4701 83.8014 83.947C84.1194 84.2082 84.5709 84.2414 84.9058 84.002C87.227 82.3429 89.0942 79.9527 89.7028 77.1276C90.2857 74.2234 88.2212 71.7952 87.5206 69.1263C87.1515 67.8748 87.9217 66.6927 88.74 65.8209C92.8901 61.4084 97.1054 57.0547 101.239 52.6315C102.924 50.9414 103.139 48.1762 101.849 46.1919C98.5759 40.6776 94.607 35.618 90.5425 30.6759C90.061 30.232 89.7028 29.4565 88.9593 29.4405C84.8598 29.8599 80.8765 31.2232 76.7525 31.4468C76.693 31.45 76.6333 31.4474 76.5744 31.4387C71.8753 30.7468 67.5507 27.8817 62.6661 28.3548C58.6889 28.9487 55.0376 30.9412 51.0556 31.4963C50.9874 31.5058 50.9183 31.5073 50.8498 31.501C46.8613 31.1344 42.9757 29.8616 38.996 29.515C38.7834 29.4966 38.5697 29.5522 38.402 29.6841C37.3691 30.4963 36.6662 31.6572 35.822 32.6496C32.185 37.1262 28.7085 41.7527 25.815 46.7481C25.0234 48.5507 25.1196 50.9414 26.5423 52.4123C28.457 54.5838 30.559 56.5895 32.431 58.793C33.977 60.5879 32.5199 63.7558 30.1609 63.7366C30.113 63.7362 30.0638 63.7382 30.0162 63.7426C28.1567 63.9145 27.0838 62.1638 25.9379 61.0127C24.2906 59.1192 22.4027 57.4398 20.8997 55.4287C18.6105 52.07 18.3912 47.4381 20.2365 43.8333C23.6862 37.6718 28.1255 32.1522 32.5327 26.6592C34.1585 24.4129 36.9023 22.926 39.7157 23.1935C43.3934 23.6518 46.988 24.6397 50.6633 25.1291ZM62.0403 83.5245C58.7341 86.5753 54.6332 88.4507 50.5549 90.2418C49.8708 90.5423 49.7947 91.4847 50.4135 91.9037C54.3687 94.5818 58.0672 97.6302 61.6338 100.811C62.3933 101.42 63.2277 102.255 64.2974 102.062C65.1531 101.886 65.7789 101.217 66.4422 100.698C69.9978 97.5559 73.6916 94.5602 77.5429 91.7811C78.126 91.3605 78.0471 90.4688 77.3903 90.1762C74.4097 88.8485 71.3562 87.6421 68.7205 85.6906C67.2196 84.6542 65.9524 83.3253 64.4866 82.2483C64.3496 82.1478 64.1853 82.0816 64.0166 82.1014C63.1877 82.1995 62.6869 83.0674 62.0403 83.5245Z" fill="url(#paint1_linear_81_250)" stroke="url(#paint2_linear_81_250)" stroke-width="2"/>
<defs>
<linearGradient id="paint0_linear_81_250" x1="64" y1="119" x2="64" y2="8" gradientUnits="userSpaceOnUse">
<stop stop-color="#FD5900"/>
<stop offset="1" stop-color="#FFDE00"/>
</linearGradient>
<linearGradient id="paint1_linear_81_250" x1="64.0001" y1="108.429" x2="64.0001" y2="22" gradientUnits="userSpaceOnUse">
<stop stop-color="#FD4C00"/>
<stop offset="1" stop-color="#FFB800"/>
</linearGradient>
<linearGradient id="paint2_linear_81_250" x1="64.0001" y1="108.429" x2="64.0001" y2="22" gradientUnits="userSpaceOnUse">
<stop stop-color="#FD4C00"/>
<stop offset="1" stop-color="#FFB800"/>
</linearGradient>
</defs>
</svg>
