<svg width="48" height="48" viewBox="0 0 48 48" fill="none" xmlns="http://www.w3.org/2000/svg">
<path opacity="0.5" d="M40.9691 41.2631L11.3215 44.7773C10.2838 44.9003 9.34332 44.1555 9.22083 43.1137L5.2277 9.15329C5.1052 8.11149 5.84711 7.16723 6.88481 7.04424L36.5323 3.53009C37.57 3.40709 38.5105 4.15192 38.633 5.19372L42.6262 39.1541C42.7487 40.1959 42.0067 41.1401 40.9691 41.2631Z" fill="url(#paint0_linear_712_154)"/>
<path d="M40.9631 6.73686L11.3156 3.22271C10.2779 3.09971 9.33734 3.84454 9.21485 4.88634L5.22172 38.8467C5.09922 39.8885 5.84113 40.8328 6.87882 40.9558L36.5263 44.4699C37.564 44.5929 38.5046 43.8481 38.6271 42.8063L42.6202 8.84591C42.7427 7.80411 42.0008 6.85986 40.9631 6.73686Z" fill="url(#paint1_linear_712_154)"/>
<path d="M29.4211 15.4668C29.7685 15.0169 30.4206 14.9467 30.8558 15.3123L32.5587 16.7427C32.9638 17.083 33.0337 17.6799 32.7183 18.1046L23.557 30.4414C23.2188 30.8968 22.5698 30.98 22.1277 30.6246L15.3161 25.1494C14.8977 24.8131 14.8195 24.2065 15.1389 23.775L16.5924 21.8114C16.9313 21.3537 17.5833 21.2709 18.0258 21.6294L21.3128 24.2929C21.749 24.6464 22.3907 24.5715 22.7338 24.1271L29.4211 15.4668Z" fill="white"/>
<defs>
<linearGradient id="paint0_linear_712_154" x1="7.22426" y1="26.1335" x2="40.6333" y2="22.2052" gradientUnits="userSpaceOnUse">
<stop stop-color="#FFC152"/>
<stop offset="1" stop-color="#FF5F5F"/>
</linearGradient>
<linearGradient id="paint1_linear_712_154" x1="7.21828" y1="21.8665" x2="40.6273" y2="25.7948" gradientUnits="userSpaceOnUse">
<stop stop-color="#FFC152"/>
<stop offset="1" stop-color="#FF5F5F"/>
</linearGradient>
</defs>
</svg>
