<svg width="64" height="65" viewBox="0 0 64 65" fill="none" xmlns="http://www.w3.org/2000/svg">
<g opacity="0.5">
<path d="M2.00488 16.1929C2.00488 13.9837 3.79574 12.1929 6.00488 12.1929H57.9999C60.2091 12.1929 61.9999 13.9837 61.9999 16.1929V52.1948C61.9999 57.7177 57.5228 62.1948 51.9999 62.1948H12.0049C6.48204 62.1948 2.00488 57.7177 2.00488 52.1948V16.1929Z" fill="url(#paint0_linear_334_151)"/>
</g>
<g opacity="0.9">
<path d="M10.6935 2.80566C6.10136 2.80566 2 6.90701 2 10.4992V16.8862C2 14.294 4.10136 12.1927 6.69351 12.1927H57.3015C59.8937 12.1927 61.995 14.294 61.995 16.8862V11.4992C61.995 7.90702 58.8937 2.80566 54.3015 2.80566H10.6935Z" fill="url(#paint1_linear_334_151)"/>
<path d="M10.6935 2.80566C6.10136 2.80566 2 6.90701 2 10.4992V16.8862C2 14.294 4.10136 12.1927 6.69351 12.1927H57.3015C59.8937 12.1927 61.995 14.294 61.995 16.8862V11.4992C61.995 7.90702 58.8937 2.80566 54.3015 2.80566H10.6935Z" fill="url(#paint2_linear_334_151)"/>
</g>
<path d="M43.203 17.7396C44.809 17.7396 45.909 18.7259 45.909 20.9317C45.4072 24.5062 44.572 26.9531 42.3977 29.5496C39.6445 32.8374 35.9104 34.6844 32.0167 34.6844C28.1231 34.6844 24.389 32.8374 21.6357 29.5496C19.4615 26.9531 18.6263 24.5062 18.1245 20.9317C17.8355 18.8735 19.2244 17.7396 20.8305 17.7396C22.7629 17.5039 23.5768 18.8196 24.0734 20.9151C24.4821 22.6399 24.8293 23.9842 25.7483 25.5185C27.4108 27.5038 29.6656 28.6192 32.0167 28.6192C34.3679 28.6192 36.6227 27.5038 38.2852 25.5185C39.3654 24.2285 39.5514 22.6399 39.9601 20.9151C40.242 18.5037 41.5969 17.7396 43.203 17.7396Z" fill="url(#paint3_linear_334_151)"/>
<defs>
<linearGradient id="paint0_linear_334_151" x1="46.4677" y1="46.5094" x2="17.5606" y2="15.024" gradientUnits="userSpaceOnUse">
<stop stop-color="#731FFF"/>
<stop offset="0.905415" stop-color="#EB1AFF"/>
</linearGradient>
<linearGradient id="paint1_linear_334_151" x1="45.7425" y1="9.1726" x2="41.5516" y2="-3.14901" gradientUnits="userSpaceOnUse">
<stop stop-color="#7DE87E"/>
<stop offset="1" stop-color="#B8FF65"/>
</linearGradient>
<linearGradient id="paint2_linear_334_151" x1="54.641" y1="7.92785" x2="41.1523" y2="-20.7981" gradientUnits="userSpaceOnUse">
<stop offset="0.118093" stop-color="#731FFF"/>
<stop offset="0.905415" stop-color="#EB1AFF"/>
</linearGradient>
<linearGradient id="paint3_linear_334_151" x1="42.4985" y1="23.8865" x2="21.7813" y2="6.91167" gradientUnits="userSpaceOnUse">
<stop offset="0.118093" stop-color="#731FFF"/>
<stop offset="0.905415" stop-color="#EB1AFF"/>
</linearGradient>
</defs>
</svg>
