<svg width="64" height="64" viewBox="0 0 64 64" fill="none" xmlns="http://www.w3.org/2000/svg">
<path fill-rule="evenodd" clip-rule="evenodd" d="M59.508 11.1521C58.8985 9.00606 56.6085 7.51191 54.5525 8.14766C53.8845 8.36996 53.2755 8.74536 52.6715 9.11771C52.5605 9.18621 52.4495 9.25461 52.3385 9.32191C50.089 10.7283 47.8347 12.1252 45.5809 13.5221L45.5802 13.5225C42.7143 15.2986 39.8483 17.0748 36.992 18.8699C35.1599 20.0077 35.0842 23.1539 36.8747 24.3727C39.8496 26.2773 42.8516 28.133 45.854 29.9889L45.8545 29.9892C48.105 31.3804 50.356 32.7718 52.5955 34.1838C53.47 34.7369 54.4745 35.3724 55.5295 35.3095C57.369 35.3905 59.031 33.9287 59.542 32.0783C61.5065 25.3121 61.4765 17.9102 59.508 11.1521ZM32.043 22.435C32.8326 19.3007 29.3995 16.3228 26.6915 17.768C24.1474 18.8065 23.5684 22.7728 25.6155 24.6559C27.6449 26.8705 31.6161 25.5005 32.043 22.435Z" fill="url(#paint0_linear_710_119)"/>
<path opacity="0.4" d="M26.0865 31.3936C26.1924 29.1869 23.8189 27.3769 21.9225 28.2879C18.6241 30.2334 15.3696 32.2685 12.1149 34.3039C9.8824 35.7 7.64975 37.0961 5.40275 38.4635C4.18381 39.1195 3.24124 40.3707 3.06332 41.8405C2.74913 43.5776 3.64628 45.2216 4.82355 46.3392C9.30555 51.2268 15.1313 54.7613 21.4152 56.1223C23.8454 56.6563 26.2151 54.2188 26.094 51.6353C26.094 49.7846 26.0952 47.9333 26.0963 46.082L26.0965 45.8529C26.0996 41.033 26.1027 36.2123 26.0865 31.3936Z" fill="url(#paint1_linear_710_119)"/>
<path opacity="0.7" d="M32.2148 28.3205C33.2218 27.8224 34.3953 28.0695 35.3 28.6971C37.8146 30.2676 40.3342 31.83 42.8538 33.3923C45.6936 35.1533 48.5332 36.9141 51.3655 38.6864C53.576 39.9497 54.1175 43.432 52.437 45.4121C47.8866 50.7769 41.739 54.6159 35.1069 56.1179C32.8016 56.6324 30.4092 54.5104 30.3637 52.0119C30.3259 45.1408 30.3297 38.2653 30.3562 31.3898C30.3221 30.0819 31.1095 28.8469 32.2148 28.3205Z" fill="url(#paint2_linear_710_119)"/>
<defs>
<linearGradient id="paint0_linear_710_119" x1="24.3763" y1="21.6569" x2="61" y2="21.6569" gradientUnits="userSpaceOnUse">
<stop stop-color="#CDF97D"/>
<stop offset="1" stop-color="#A2EA99"/>
</linearGradient>
<linearGradient id="paint1_linear_710_119" x1="3" y1="42.1217" x2="26.0989" y2="42.1217" gradientUnits="userSpaceOnUse">
<stop stop-color="#CDF97D"/>
<stop offset="1" stop-color="#A2EA99"/>
</linearGradient>
<linearGradient id="paint2_linear_710_119" x1="30.3358" y1="42.1253" x2="53.4224" y2="42.1253" gradientUnits="userSpaceOnUse">
<stop stop-color="#CDF97D"/>
<stop offset="1" stop-color="#A2EA99"/>
</linearGradient>
</defs>
</svg>
