<svg width="128" height="128" viewBox="0 0 128 128" fill="none" xmlns="http://www.w3.org/2000/svg">
<path opacity="0.4" d="M62 7C31.0721 7 6 31.8482 6 62.5C6 93.1518 31.0721 118 62 118C92.9279 118 118 93.1518 118 62.5C118 31.8482 92.9279 7 62 7Z" fill="url(#paint0_linear_729_361)"/>
<path fill-rule="evenodd" clip-rule="evenodd" d="M120.613 14.4266C118.638 8.94427 112.15 5.75374 106.551 7.46135C104.26 8.08298 102.255 9.47602 100.703 11.2435C92.3593 20.3532 84.0091 29.4562 75.6584 38.5598L75.6499 38.569C68.7827 46.0555 61.915 53.5423 55.0503 61.0337C50.4836 65.6247 50.9433 73.9531 56.0828 77.9375C60.544 81.7871 67.9442 81.3527 71.9232 77.0237C87.3868 60.2098 102.821 43.3735 118.254 26.5371C121.291 23.3765 122.188 18.4859 120.613 14.4266ZM57.2254 87.921C54.3393 79.7724 45.0781 74.5597 36.5629 76.4546C29.3966 77.8102 23.4209 83.8617 22.2981 91.0366C21.6425 95.7325 20.3916 100.646 17.0986 104.233C14.4762 107.049 10.7235 108.307 7.12908 109.356C6.20974 109.521 5.96861 110.944 6.48856 111.573C9.36714 115.422 14.0768 117.692 18.8393 118.014C30.3612 118.658 42.4482 115.849 51.4456 108.39C57.5419 103.739 60.006 95.0435 57.2254 87.921Z" fill="url(#paint1_linear_729_361)" stroke="url(#paint2_linear_729_361)" stroke-width="3"/>
<defs>
<linearGradient id="paint0_linear_729_361" x1="36.5" y1="94.5" x2="157.064" y2="-19.7675" gradientUnits="userSpaceOnUse">
<stop stop-color="#FFC700"/>
<stop offset="0.1987" stop-color="#FF49AB"/>
<stop offset="0.37955" stop-color="#BA49FF"/>
<stop offset="0.53125" stop-color="#5849FF"/>
<stop offset="0.84375" stop-color="#1EFFD6"/>
<stop offset="0.9999" stop-color="#00FFFF"/>
</linearGradient>
<linearGradient id="paint1_linear_729_361" x1="112.5" y1="9" x2="11.5" y2="117.5" gradientUnits="userSpaceOnUse">
<stop stop-color="#FFC700"/>
<stop offset="0.1987" stop-color="#FF49AB"/>
<stop offset="0.37955" stop-color="#BA49FF"/>
<stop offset="0.53125" stop-color="#5849FF"/>
<stop offset="0.84375" stop-color="#1EFFD6"/>
<stop offset="0.9999" stop-color="#00FFFF"/>
</linearGradient>
<linearGradient id="paint2_linear_729_361" x1="112.5" y1="9" x2="11.5" y2="117.5" gradientUnits="userSpaceOnUse">
<stop stop-color="#FFC700"/>
<stop offset="0.1987" stop-color="#FF49AB"/>
<stop offset="0.37955" stop-color="#BA49FF"/>
<stop offset="0.53125" stop-color="#5849FF"/>
<stop offset="0.84375" stop-color="#1EFFD6"/>
<stop offset="0.9999" stop-color="#00FFFF"/>
</linearGradient>
</defs>
</svg>
