<svg width="24" height="24" viewBox="0 0 24 24" fill="none" xmlns="http://www.w3.org/2000/svg">
<path opacity="0.5" fill-rule="evenodd" clip-rule="evenodd" d="M21.7153 5.99777C22.0673 6.40926 22.3392 6.8826 22.5174 7.39355C22.8678 8.4437 23.03 9.54728 22.9966 10.6536V16.4319C22.9952 16.9187 22.9592 17.4047 22.889 17.8863C22.7553 18.7363 22.4563 19.552 22.0088 20.2874C21.8031 20.6427 21.5533 20.9706 21.2654 21.2635C19.9621 22.4597 18.2315 23.0823 16.4632 22.9912H7.52367C5.75254 23.0816 4.01908 22.4593 2.71161 21.2635C2.42714 20.9701 2.1807 20.6421 1.97806 20.2874C1.53323 19.5525 1.24056 18.736 1.11737 17.8863C1.03904 17.4055 0.999789 16.9191 1 16.4319V10.6536C0.999811 10.171 1.02593 9.6888 1.07825 9.20905C1.08925 9.12488 1.10575 9.04207 1.12208 8.96013C1.1493 8.82353 1.17605 8.6893 1.17605 8.55508C1.27534 7.97612 1.45645 7.41416 1.71399 6.88599C2.47688 5.25595 4.04177 4.42629 6.6043 4.42629H17.363C18.7982 4.31529 20.2228 4.74736 21.3535 5.63662C21.4837 5.74704 21.6047 5.86782 21.7153 5.99777Z" fill="url(#paint0_linear_729_364)"/>
<path d="M13.7465 19.4196L16.9385 11.0888C16.9991 10.945 17.0154 10.7865 16.9853 10.6334C16.9553 10.4804 16.8804 10.3397 16.77 10.2295C16.6597 10.1192 16.519 10.0444 16.3659 10.0145C16.2128 9.98465 16.0543 10.0011 15.9106 10.0618L7.57976 13.2528C6.82539 13.5428 6.80085 14.6007 7.5434 14.8261L10.7036 15.7868C10.949 15.8613 11.138 16.0504 11.2126 16.2958L12.1732 19.456C12.3987 20.1985 13.4575 20.174 13.7465 19.4196Z" fill="url(#paint1_linear_729_364)"/>
<path d="M13 4.51047C13 4.51047 12.2971 4.51047 11.9836 4.17518L10.9241 2.86678C10.4248 2.30917 9.6638 1.9892 8.86352 2.00028H6.58903C3.71126 2.00028 1.0004 3.25524 1.00007 7.77976L1.0004 9.90253C0.995326 10.3351 1.01568 7.34835 2.50628 6.01675C2.50628 6.01675 3.54081 4.51047 6.52303 4.51047C8.75902 4.51047 11.544 4.51047 11.544 4.51047C12.2971 4.51047 11.9958 4.51047 13 4.51047Z" fill="url(#paint2_linear_729_364)"/>
<defs>
<linearGradient id="paint0_linear_729_364" x1="12.0004" y1="22.9999" x2="12.0004" y2="4.40918" gradientUnits="userSpaceOnUse">
<stop stop-color="#5570FF"/>
<stop offset="1" stop-color="#4DD3FF"/>
</linearGradient>
<linearGradient id="paint1_linear_729_364" x1="12.0004" y1="22.9999" x2="12.0004" y2="4.40918" gradientUnits="userSpaceOnUse">
<stop stop-color="#5570FF"/>
<stop offset="1" stop-color="#4DD3FF"/>
</linearGradient>
<linearGradient id="paint2_linear_729_364" x1="7.00001" y1="9.94496" x2="7.00001" y2="2" gradientUnits="userSpaceOnUse">
<stop stop-color="#5570FF"/>
<stop offset="1" stop-color="#4DD3FF"/>
</linearGradient>
</defs>
</svg>
