<svg width="64" height="64" viewBox="0 0 64 64" fill="none" xmlns="http://www.w3.org/2000/svg">
<path opacity="0.5" d="M32 3C48.0163 3 61 15.9837 61 32C61 48.0163 48.0163 61 32 61C15.9837 61 3 48.0163 3 32C3 15.9837 15.9837 3 32 3Z" fill="#5856D6"/>
<path d="M31 9.03516C25.6011 9.2756 20.4592 11.4095 16.4766 15.0625L31 29.5859V9.03516ZM33 9.05078V29.5859L47.5195 15.0664C43.5362 11.4185 38.3961 9.2889 33 9.05078ZM48.9375 16.4766L34.4141 31H54.9648C54.7244 25.6011 52.5905 20.4592 48.9375 16.4766ZM15.0664 16.4805C11.4185 20.4638 9.2889 25.6039 9.05078 31H29.5859L15.0664 16.4805ZM9.03516 33C9.2756 38.3989 11.4095 43.5408 15.0625 47.5234L29.5859 33H9.03516ZM34.4141 33L48.9336 47.5195C52.5815 43.5362 54.7111 38.3961 54.9492 33H34.4141ZM31 34.4141L16.4805 48.9336C20.4638 52.5815 25.6039 54.7111 31 54.9492V34.4141ZM33 34.4141V54.9648C38.3989 54.7244 43.5408 52.5905 47.5234 48.9375L33 34.4141Z" fill="#5856D6"/>
</svg>
