<svg width="48" height="48" viewBox="0 0 48 48" fill="none" xmlns="http://www.w3.org/2000/svg">
<g opacity="0.5">
<path opacity="0.5" fill-rule="evenodd" clip-rule="evenodd" d="M4.30176 9.09473C4.30176 5.78102 6.98805 3.09473 10.3018 3.09473H37.6981C41.0118 3.09473 43.6981 5.78102 43.6981 9.09473V15.1006H4.30176V9.09473Z" fill="url(#paint0_linear_345_587)"/>
</g>
<path fill-rule="evenodd" clip-rule="evenodd" d="M2.34503 19.1911L2.33203 39.44C2.33203 42.878 5.12203 45.668 8.56003 45.668H39.44C42.878 45.668 45.668 42.878 45.668 39.44L45.655 18.6849C45.655 16.0268 43.6282 14 40.9701 14H7.53614C4.59086 14 2.34503 16.2458 2.34503 19.1911ZM19.7658 20.8707C22.2423 19.1386 25.3204 19.0869 27.3177 19.8146L27.3216 19.816C28.9034 20.4072 29.7631 21.2985 30.0832 21.6488C30.1409 21.7119 30.2839 21.873 30.3393 21.9372C30.6481 22.2951 31.4285 23.2488 31.8327 24.8795C32.1366 25.9051 32.1265 27.3002 31.682 28.6204C31.2328 29.9546 30.326 31.2503 28.801 32.0065C27.3878 32.7404 25.6705 32.9057 24.1191 32.333L24.1082 32.3288C22.5569 31.7144 21.446 30.3519 21.0773 28.9161C20.7022 27.4962 21.0213 26.0185 21.7713 25.0475C22.4858 24.0986 23.3986 23.6719 24.012 23.5015C26.3371 22.797 28.52 24.4903 28.6186 26.3614C28.7657 27.2115 28.4703 28.0336 27.9596 28.6238C27.4447 29.2188 26.6718 29.622 25.83 29.5592C25.6928 29.5489 25.5447 29.4911 25.4335 29.3651C25.3255 29.2428 25.2858 29.0939 25.291 28.9621C25.3013 28.6997 25.4841 28.4741 25.7434 28.4053C26.2706 28.2653 26.5481 27.9868 26.6798 27.6928C26.8176 27.385 26.8207 27.0027 26.6858 26.6339C26.4178 25.9014 25.6682 25.3494 24.6604 25.6822C24.6342 25.6908 24.6064 25.6981 24.577 25.7033C24.3835 25.738 23.9382 25.9636 23.5999 26.4258C23.282 26.8602 23.069 27.4915 23.2891 28.3454C23.4894 29.1118 24.0989 29.8594 24.9357 30.1994C25.7852 30.5163 26.8957 30.4372 27.7454 29.9814L27.7531 29.9773L27.761 29.9734C28.6767 29.5228 29.2381 28.7461 29.5247 27.8897C29.8142 27.0245 29.8115 26.1083 29.6231 25.4414L29.6206 25.4325L29.6184 25.4236C29.3538 24.3357 28.846 23.6939 28.6287 23.438C28.5809 23.3818 28.4406 23.2238 28.3903 23.1696C28.1623 22.9241 27.5862 22.3454 26.5382 21.9561C25.1788 21.4585 22.8488 21.4771 21.0584 22.753L21.05 22.759L21.0413 22.7646C19.1909 23.9711 18.1825 26.2553 18.2473 28.2339L18.2477 28.2456L18.2475 28.2572C18.2198 30.2616 18.9616 31.8041 19.3705 32.5002C20.9357 34.8656 22.3458 36.0017 24.5704 36.894C24.8773 37.0171 24.9904 37.3274 24.9346 37.5805C24.8775 37.8394 24.6324 38.0798 24.2897 38.0436C22.9641 37.9035 21.7292 37.5594 20.5782 36.8668C19.4276 36.1744 18.3881 35.15 17.4289 33.6874L17.4231 33.6786L17.4177 33.6695C16.8923 32.7896 15.9323 30.8213 15.9631 28.2438C15.8687 25.6724 17.2266 22.5033 19.7658 20.8707Z" fill="url(#paint1_linear_345_587)"/>
<path opacity="0.7" fill-rule="evenodd" clip-rule="evenodd" d="M15.3521 15.436C15.8196 15.7962 16.1208 16.3616 16.1208 16.9974C16.1208 18.0853 15.2389 18.9672 14.151 18.9672C13.0631 18.9672 12.1812 18.0853 12.1812 16.9974C12.1812 16.3456 12.4977 15.7678 12.9855 15.4092C13.3026 9.6296 18.1463 4.98145 24 4.98145C29.8535 4.98145 34.6972 9.6295 35.0144 15.409C35.5023 15.7676 35.819 16.3455 35.819 16.9974C35.819 18.0853 34.9371 18.9672 33.8492 18.9672C32.7613 18.9672 31.8794 18.0853 31.8794 16.9974C31.8794 16.3617 32.1805 15.7964 32.6479 15.4362C32.3467 10.9493 28.5569 7.34523 24 7.34523C19.4431 7.34523 15.6534 10.9492 15.3521 15.436Z" fill="url(#paint2_linear_345_587)"/>
<defs>
<linearGradient id="paint0_linear_345_587" x1="23.9999" y1="15.1006" x2="23.9999" y2="3.09473" gradientUnits="userSpaceOnUse">
<stop stop-color="#EC396C"/>
<stop offset="1" stop-color="#FF709A"/>
</linearGradient>
<linearGradient id="paint1_linear_345_587" x1="24" y1="45.668" x2="24" y2="14" gradientUnits="userSpaceOnUse">
<stop stop-color="#EC396C"/>
<stop offset="1" stop-color="#FF709A"/>
</linearGradient>
<linearGradient id="paint2_linear_345_587" x1="24.0001" y1="18.9672" x2="24.0001" y2="4.98145" gradientUnits="userSpaceOnUse">
<stop stop-color="#EC396C"/>
<stop offset="1" stop-color="#FF709A"/>
</linearGradient>
</defs>
</svg>
