<svg width="64" height="64" viewBox="0 0 64 64" fill="none" xmlns="http://www.w3.org/2000/svg">
<path opacity="0.5" fill-rule="evenodd" clip-rule="evenodd" d="M32 3C18.7653 3 8 13.7513 8 26.9688C8 34.8689 11.8538 41.869 17.7706 46.2312C19.4886 47.4979 20.3062 49.7685 19.4175 51.7092L18.4178 53.8924C17.9081 55.0053 16.7964 55.719 15.5723 55.719V55.719C14.1114 55.719 12.9283 56.9 12.9283 58.3595C12.9283 59.818 14.1112 61 15.5723 61H48.4277C49.8888 61 51.0715 59.818 51.0715 58.3595C51.0715 56.9 49.8886 55.719 48.4277 55.719V55.719C47.4214 55.719 46.5031 55.1456 46.0615 54.2414L44.8103 51.6799C43.8599 49.7342 44.6564 47.4108 46.3887 46.1116C52.2151 41.7419 56 34.7977 56 26.9688C56 13.7513 45.2347 3 32 3ZM32 50.9375C33.3981 50.9375 34.7679 50.8155 36.1003 50.5835C37.31 50.3729 38.5524 50.9265 39.0896 52.0307V52.0307C39.9188 53.7349 38.6776 55.719 36.7824 55.719H27.3782C25.5209 55.719 24.2857 53.7981 25.0565 52.1083V52.1083C25.5715 50.9793 26.8221 50.3995 28.0457 50.6059C29.3315 50.8228 30.6521 50.9375 32 50.9375Z" fill="url(#paint0_linear_365_103)"/>
<path fill-rule="evenodd" clip-rule="evenodd" d="M32 21.0469C28.7314 21.0469 26.0718 23.7012 26.0718 26.9687C26.0718 30.2363 28.7314 32.8906 32 32.8906C35.2687 32.8906 37.9283 30.2363 37.9283 26.9687C37.9283 23.7012 35.2687 21.0469 32 21.0469ZM31.3573 26.9687C31.3573 26.617 31.6448 26.3281 32 26.3281C32.3554 26.3281 32.6428 26.617 32.6428 26.9687C32.6428 27.3204 32.3554 27.6094 32 27.6094C31.6448 27.6094 31.3573 27.3204 31.3573 26.9687Z" fill="url(#paint1_linear_365_103)"/>
<path fill-rule="evenodd" clip-rule="evenodd" d="M32 14C39.1672 14 45 19.8233 45 26.9844C45 34.1455 39.1672 39.9688 32 39.9688C24.8328 39.9688 19 34.1455 19 26.9844C19 19.8233 24.8328 14 32 14ZM32 19.424C27.825 19.424 24.4286 22.818 24.4286 26.9844C24.4286 31.1508 27.825 34.5447 32 34.5447C36.175 34.5447 39.5715 31.1508 39.5715 26.9844C39.5715 22.818 36.175 19.424 32 19.424Z" fill="url(#paint2_linear_365_103)"/>
<defs>
<linearGradient id="paint0_linear_365_103" x1="10.6182" y1="61" x2="64.5372" y2="12.489" gradientUnits="userSpaceOnUse">
<stop offset="0.106984" stop-color="#E02767"/>
<stop offset="0.871403" stop-color="#FA5D51"/>
</linearGradient>
<linearGradient id="paint1_linear_365_103" x1="26.7185" y1="32.8906" x2="37.7509" y2="20.8839" gradientUnits="userSpaceOnUse">
<stop offset="0.106984" stop-color="#E02767"/>
<stop offset="0.871403" stop-color="#FA5D51"/>
</linearGradient>
<linearGradient id="paint2_linear_365_103" x1="20.4182" y1="39.9687" x2="44.6078" y2="13.6396" gradientUnits="userSpaceOnUse">
<stop offset="0.106984" stop-color="#E02767"/>
<stop offset="0.871403" stop-color="#FA5D51"/>
</linearGradient>
</defs>
</svg>
