<svg width="32" height="32" viewBox="0 0 32 32" fill="none" xmlns="http://www.w3.org/2000/svg">
<path d="M7.25 9.5013C7.25 8.94901 7.69772 8.5013 8.25 8.5013H27.25C27.8023 8.5013 28.25 8.05358 28.25 7.5013V6.00124C28.25 5.44897 27.8023 5.00127 27.2501 5.00124L7.25227 5C5.5 4.99932 3.75 6.75177 3.75 8.50175V21.6268C3.75 22.11 3.35825 22.5018 2.875 22.5018V22.5018C2.39175 22.5018 2 22.8935 2 23.3768V25.0018C2 25.5541 2.44772 26.0018 3 26.0018H16.75C17.3023 26.0018 17.75 25.5541 17.75 25.0018V23.5018C17.75 22.9495 17.3023 22.5018 16.75 22.5018H8.25C7.69772 22.5018 7.25 22.0541 7.25 21.5018V9.5013ZM28.25 12.0013H23C22.125 12.0013 21.25 12.8763 21.25 13.7513V24.2513C21.25 25.1263 22.125 26.0013 23 26.0013H28.25C29.125 26.0013 30 25.1263 30 24.2513V13.7513C30 12.8763 29.125 12.0013 28.25 12.0013ZM28.25 21.5013C28.25 22.0536 27.8023 22.5013 27.25 22.5013H24C23.4477 22.5013 23 22.0536 23 21.5013V14.7513C23 14.199 23.4477 13.7513 24 13.7513H27.25C27.8023 13.7513 28.25 14.199 28.25 14.7513V21.5013Z" fill="url(#paint0_linear_726_82)"/>
<defs>
<linearGradient id="paint0_linear_726_82" x1="27.8417" y1="5.37806" x2="9.65971" y2="30.5018" gradientUnits="userSpaceOnUse">
<stop stop-color="#15A6F0"/>
<stop offset="1" stop-color="#5AAFFF"/>
</linearGradient>
</defs>
</svg>
