<svg width="64" height="64" viewBox="0 0 64 64" fill="none" xmlns="http://www.w3.org/2000/svg">
<rect opacity="0.4" x="2" y="2.30322" width="60" height="59.3939" rx="10" fill="url(#paint0_linear_700_74)"/>
<path opacity="0.4" d="M33.2962 43.3315C45.75 48.274 49.9167 46.9662 62 43.7309V51.6969C62 57.2198 57.5228 61.6969 52 61.6969H12C6.47715 61.6969 2 57.2198 2 51.6969V41.3905C13.875 37.4669 21.8841 37.6353 33.2962 43.3315Z" fill="url(#paint1_linear_700_74)"/>
<path d="M30.7038 42.925C18.25 47.977 14.0833 46.6402 2 43.3333V51.6972C2 57.22 6.47715 61.6972 12 61.6972H52C57.5228 61.6972 62 57.22 62 51.6972V40.9411C50.125 36.9305 42.1159 37.1027 30.7038 42.925Z" fill="url(#paint2_linear_700_74)"/>
<path d="M22.9608 18.8063H24.5689C25.4087 18.8063 26.0894 18.1255 26.0894 17.2858V8.96771C26.0894 7.88547 26.9749 7 28.0572 7H35.928C37.0103 7 37.8957 7.88547 37.8957 8.96771V17.2858C37.8957 18.1255 38.5765 18.8063 39.4162 18.8063H41.0244C42.7757 18.8063 43.6611 20.9314 42.4215 22.1711L33.3897 31.2029C32.6223 31.9703 31.3826 31.9703 30.6152 31.2029L21.5834 22.1711C20.3437 20.9314 21.2095 18.8063 22.9608 18.8063Z" fill="url(#paint3_linear_700_74)"/>
<defs>
<linearGradient id="paint0_linear_700_74" x1="46.4665" y1="43.0654" x2="12.1332" y2="11.5806" gradientUnits="userSpaceOnUse">
<stop stop-color="#731FFF"/>
<stop offset="0.905415" stop-color="#EB1AFF"/>
</linearGradient>
<linearGradient id="paint1_linear_700_74" x1="2" y1="61.6969" x2="14.6751" y2="28.2421" gradientUnits="userSpaceOnUse">
<stop stop-color="#731FFF"/>
<stop offset="0.905415" stop-color="#EB1AFF"/>
</linearGradient>
<linearGradient id="paint2_linear_700_74" x1="54.6454" y1="46.7485" x2="26.2431" y2="10.4978" gradientUnits="userSpaceOnUse">
<stop offset="0.118093" stop-color="#731FFF"/>
<stop offset="0.905415" stop-color="#EB1AFF"/>
</linearGradient>
<linearGradient id="paint3_linear_700_74" x1="37.3044" y1="24.0055" x2="23.2552" y2="12.6822" gradientUnits="userSpaceOnUse">
<stop stop-color="#731FFF"/>
<stop offset="0.905415" stop-color="#EB1AFF"/>
</linearGradient>
</defs>
</svg>
