<svg width="128" height="128" viewBox="0 0 128 128" fill="none" xmlns="http://www.w3.org/2000/svg">
<path opacity="0.3" fill-rule="evenodd" clip-rule="evenodd" d="M8.04132 36.1157H11.0661V91.5703H8.04132C5.25708 91.5703 3 89.3132 3 86.5289V41.157C3 38.3728 5.25708 36.1157 8.04132 36.1157ZM115.926 36.1157H119.959C122.742 36.1157 125 38.3728 125 41.157V86.5289C125 89.3132 122.742 91.5703 119.959 91.5703H115.926V36.1157Z" fill="url(#paint0_linear_365_77)"/>
<path opacity="0.4" fill-rule="evenodd" clip-rule="evenodd" d="M16.1072 29.0576H21.1486L20.1403 33.5948V90.5618L21.1486 98.6279H16.1072C13.323 98.6279 11.0659 96.3708 11.0659 93.5866V34.099C11.0659 31.3147 13.323 29.0576 16.1072 29.0576ZM105.843 29.0577H110.884C113.668 29.0577 115.926 31.3148 115.926 34.099V93.5866C115.926 96.3708 113.668 98.6279 110.884 98.6279H105.843L106.851 93.5866V34.099L105.843 29.0577Z" fill="url(#paint1_linear_365_77)"/>
<path opacity="0.5" d="M33.2476 22C26.0085 22 20.1401 27.8684 20.1401 35.1074V92.5785C20.1401 99.8176 26.0085 105.686 33.2476 105.686H93.7434C100.983 105.686 106.851 99.8176 106.851 92.5785V35.1074C106.851 27.8684 100.983 22 93.7434 22H33.2476Z" fill="url(#paint2_linear_365_77)"/>
<path fill-rule="evenodd" clip-rule="evenodd" d="M94 81.9489C94 82.594 93.7437 83.2127 93.2876 83.6689C92.8314 84.1251 92.2127 84.3813 91.5676 84.3813H36.4324C35.7873 84.3813 35.1686 84.1251 34.7124 83.6689C34.2563 83.2127 34 82.594 34 81.9489C34 81.3038 34.2563 80.6851 34.7124 80.2289C35.1686 79.7728 35.7873 79.5165 36.4324 79.5165H91.5676C92.2127 79.5165 92.8314 79.7728 93.2876 80.2289C93.7437 80.6851 94 81.3038 94 81.9489ZM94 65.7327C94 66.3778 93.7437 66.9965 93.2876 67.4527C92.8314 67.9089 92.2127 68.1651 91.5676 68.1651H68.8649C68.2197 68.1651 67.601 67.9089 67.1449 67.4527C66.6887 66.9965 66.4324 66.3778 66.4324 65.7327C66.4324 65.0876 66.6887 64.4689 67.1449 64.0127C67.601 63.5565 68.2197 63.3003 68.8649 63.3003H91.5676C92.2127 63.3003 92.8314 63.5565 93.2876 64.0127C93.7437 64.4689 94 65.0876 94 65.7327ZM94 49.5165C94 50.1616 93.7437 50.7803 93.2876 51.2365C92.8314 51.6926 92.2127 51.9489 91.5676 51.9489H68.8649C68.2197 51.9489 67.601 51.6926 67.1449 51.2365C66.6887 50.7803 66.4324 50.1616 66.4324 49.5165C66.4324 48.8714 66.6887 48.2527 67.1449 47.7965C67.601 47.3403 68.2197 47.084 68.8649 47.084H91.5676C92.2127 47.084 92.8314 47.3403 93.2876 47.7965C93.7437 48.2527 94 48.8714 94 49.5165Z" fill="url(#paint3_linear_365_77)"/>
<path d="M51.5789 47.9768C56.9043 51.0513 59.567 52.5886 60.4102 54.6254C61.0686 56.2146 61.0686 57.9984 60.4102 59.5876C59.567 61.6243 56.9043 63.1616 51.5789 66.2362C46.2535 69.3108 43.5908 70.8481 41.4081 70.5595C40.5634 70.4486 39.7489 70.1724 39.011 69.7467C38.2731 69.321 37.6263 68.7541 37.1075 68.0784C35.7681 66.3303 35.7681 63.2557 35.7681 57.1065C35.7681 50.9573 35.7681 47.8827 37.1075 46.1346C37.6263 45.4589 38.2731 44.892 39.011 44.4663C39.7489 44.0406 40.5634 43.7644 41.4081 43.6535C43.5908 43.3649 46.2535 44.9022 51.5789 47.9768Z" fill="url(#paint4_linear_365_77)"/>
<defs>
<linearGradient id="paint0_linear_365_77" x1="1.23664" y1="36.6614" x2="43.4723" y2="132.422" gradientUnits="userSpaceOnUse">
<stop stop-color="#F9D423"/>
<stop offset="0.515624" stop-color="#FF4E50"/>
<stop offset="0.991304" stop-color="#8A2387"/>
</linearGradient>
<linearGradient id="paint1_linear_365_77" x1="9.55029" y1="29.7422" x2="74.8657" y2="131.201" gradientUnits="userSpaceOnUse">
<stop stop-color="#F9D423"/>
<stop offset="0.515624" stop-color="#FF4E50"/>
<stop offset="0.991304" stop-color="#8A2387"/>
</linearGradient>
<linearGradient id="paint2_linear_365_77" x1="18.8868" y1="22.8235" x2="105.013" y2="114.793" gradientUnits="userSpaceOnUse">
<stop stop-color="#F9D423"/>
<stop offset="0.515624" stop-color="#FF4E50"/>
<stop offset="0.991304" stop-color="#8A2387"/>
</linearGradient>
<linearGradient id="paint3_linear_365_77" x1="94.8672" y1="84.0143" x2="60.8414" y2="27.6025" gradientUnits="userSpaceOnUse">
<stop stop-color="#F9D423"/>
<stop offset="0.515624" stop-color="#FF4E50"/>
<stop offset="0.991304" stop-color="#8A2387"/>
</linearGradient>
<linearGradient id="paint4_linear_365_77" x1="35.4048" y1="43.8846" x2="63.2031" y2="70.5805" gradientUnits="userSpaceOnUse">
<stop stop-color="#F9D423"/>
<stop offset="0.515624" stop-color="#FF4E50"/>
<stop offset="0.991304" stop-color="#8A2387"/>
</linearGradient>
</defs>
</svg>
