<svg width="64" height="65" viewBox="0 0 64 65" fill="none" xmlns="http://www.w3.org/2000/svg">
<rect opacity="0.4" x="2" y="2.80322" width="60" height="59.3939" rx="10" fill="url(#paint0_linear_332_117)"/>
<path opacity="0.4" d="M33.2962 43.8315C45.3066 48.5981 49.6095 47.5514 60.7389 44.5689C61.3739 44.3987 62 44.8764 62 45.5339V52.1969C62 57.7198 57.5228 62.1969 52 62.1969H12C6.47715 62.1969 2 57.7198 2 52.1969V42.6133C2 42.1819 2.27961 41.7975 2.69038 41.6657C14.1887 37.9755 22.1067 38.2464 33.2962 43.8315Z" fill="url(#paint1_linear_332_117)"/>
<path d="M30.7038 43.425C18.6953 48.2964 14.3919 47.2276 3.2665 44.1803C2.6302 44.006 2 44.484 2 45.1438V52.1972C2 57.72 6.47715 62.1972 12 62.1972H52C57.5228 62.1972 62 57.72 62 52.1972V42.1589C62 41.7299 61.7234 41.347 61.3158 41.2133C49.8142 37.4393 41.8953 37.7152 30.7038 43.425Z" fill="url(#paint2_linear_332_117)"/>
<path d="M42.2426 10.9379C43.8487 10.9379 45.5355 11.9242 45.5355 14.1302C45.0337 17.705 43.6117 21.0322 41.4372 23.6289C38.6838 26.917 34.9493 28.7642 31.0554 28.7642C27.1614 28.7642 23.427 26.917 20.6735 23.6289C18.4991 21.0322 17.0771 17.705 16.5753 14.1303C16.2863 12.0718 18.262 10.9379 19.8682 10.9379C21.8008 10.7021 22.6147 12.0179 23.1114 14.1137C23.4578 15.5758 23.7601 16.7645 24.4039 18.0273C24.6425 18.4952 24.9482 18.9275 25.317 19.3015C26.9133 20.9203 28.9456 21.8183 31.0554 21.8183C33.4067 21.8183 35.6617 20.7029 37.3244 18.7174C38.4047 17.4273 38.5907 15.8386 38.9994 14.1136C39.2813 11.702 40.6364 10.9379 42.2426 10.9379Z" fill="url(#paint3_linear_332_117)"/>
<path d="M42.2161 50.624H43.3856C43.9964 50.624 44.4915 50.1289 44.4915 49.5182V43.4687C44.4915 42.6816 45.1354 42.0376 45.9225 42.0376H51.6468C52.4339 42.0376 53.0778 42.6816 53.0778 43.4687V49.5182C53.0778 50.1289 53.5729 50.624 54.1837 50.624H55.3532C56.6269 50.624 57.2709 52.1695 56.3693 53.0711L49.8007 59.6397C49.2426 60.1978 48.341 60.1978 47.7829 59.6397L41.2143 53.0711C40.3127 52.1695 40.9424 50.624 42.2161 50.624Z" fill="url(#paint4_linear_332_117)"/>
<defs>
<linearGradient id="paint0_linear_332_117" x1="5.27271" y1="62.1971" x2="60.5534" y2="1.48603" gradientUnits="userSpaceOnUse">
<stop offset="0.106984" stop-color="#E02767"/>
<stop offset="0.871403" stop-color="#FA5D51"/>
</linearGradient>
<linearGradient id="paint1_linear_332_117" x1="58.7273" y1="62.1969" x2="45.2547" y2="23.9667" gradientUnits="userSpaceOnUse">
<stop offset="0.106984" stop-color="#E02767"/>
<stop offset="0.871403" stop-color="#FA5D51"/>
</linearGradient>
<linearGradient id="paint2_linear_332_117" x1="5.27271" y1="62.1972" x2="19.2793" y2="23.3127" gradientUnits="userSpaceOnUse">
<stop offset="0.106984" stop-color="#E02767"/>
<stop offset="0.871403" stop-color="#FA5D51"/>
</linearGradient>
<linearGradient id="paint3_linear_332_117" x1="18.1281" y1="28.7642" x2="32.444" y2="3.49408" gradientUnits="userSpaceOnUse">
<stop offset="0.106984" stop-color="#E02767"/>
<stop offset="0.871403" stop-color="#FA5D51"/>
</linearGradient>
<linearGradient id="paint4_linear_332_117" x1="49.4931" y1="53.2838" x2="51.5012" y2="34.1843" gradientUnits="userSpaceOnUse">
<stop offset="0.106984" stop-color="#FF7AA8"/>
<stop offset="0.871403" stop-color="#FFB9B3"/>
</linearGradient>
</defs>
</svg>
