<svg width="64" height="65" viewBox="0 0 64 65" fill="none" xmlns="http://www.w3.org/2000/svg">
<rect opacity="0.4" x="2" y="2.93799" width="60" height="59.3939" rx="10" fill="url(#paint0_linear_332_73)"/>
<path opacity="0.4" d="M33.2962 43.9662C45.75 48.9088 49.9167 47.6009 62 44.3657V52.3317C62 57.8545 57.5228 62.3317 52 62.3317H12C6.47715 62.3317 2 57.8545 2 52.3317V42.0253C13.875 38.1016 21.8841 38.2701 33.2962 43.9662Z" fill="url(#paint1_linear_332_73)"/>
<path d="M30.7038 43.5598C18.25 48.6118 14.0833 47.275 2 43.9681V52.3319C2 57.8548 6.47715 62.3319 12 62.3319H52C57.5228 62.3319 62 57.8548 62 52.3319V41.5759C50.125 37.5653 42.1159 37.7375 30.7038 43.5598Z" fill="url(#paint2_linear_332_73)"/>
<path d="M42.6957 11.0272C44.3019 11.0272 45.9886 12.0136 45.9886 14.2196C45.4868 17.7943 44.0648 21.1216 41.8904 23.7183C39.1369 27.0063 35.4025 28.8535 31.5085 28.8535C27.6146 28.8535 23.8801 27.0063 21.1267 23.7183C18.9522 21.1216 17.5302 17.7943 17.0284 14.2196C16.7394 12.1612 18.7152 11.0272 20.3213 11.0272C22.2539 10.7915 23.0679 12.1073 23.5645 14.203C23.9732 15.9279 24.3205 17.2724 25.2395 18.8068C26.9022 20.7922 29.1572 21.9077 31.5085 21.9077C33.8598 21.9077 36.1148 20.7922 37.7775 18.8068C38.8578 17.5167 39.0438 15.9279 39.4525 14.203C39.7344 11.7913 41.0895 11.0272 42.6957 11.0272Z" fill="url(#paint3_linear_332_73)"/>
<path d="M40.4781 50.3365H41.8626C42.5855 50.3365 43.1716 49.7504 43.1716 49.0274V41.8664C43.1716 40.9347 43.9339 40.1724 44.8656 40.1724H51.6417C52.5734 40.1724 53.3357 40.9347 53.3357 41.8664V49.0274C53.3357 49.7504 53.9217 50.3365 54.6447 50.3365H56.0292C57.5368 50.3365 58.2991 52.166 57.2319 53.2332L49.4564 61.0088C48.7957 61.6694 47.7285 61.6694 47.0678 61.0088L39.2923 53.2332C38.225 52.166 38.9704 50.3365 40.4781 50.3365Z" fill="url(#paint4_linear_332_73)"/>
<defs>
<linearGradient id="paint0_linear_332_73" x1="46.4665" y1="43.7002" x2="12.1332" y2="12.2154" gradientUnits="userSpaceOnUse">
<stop stop-color="#731FFF"/>
<stop offset="0.905415" stop-color="#EB1AFF"/>
</linearGradient>
<linearGradient id="paint1_linear_332_73" x1="2" y1="62.3317" x2="14.6751" y2="28.8769" gradientUnits="userSpaceOnUse">
<stop stop-color="#731FFF"/>
<stop offset="0.905415" stop-color="#EB1AFF"/>
</linearGradient>
<linearGradient id="paint2_linear_332_73" x1="54.6454" y1="47.3833" x2="26.2431" y2="11.1325" gradientUnits="userSpaceOnUse">
<stop offset="0.118093" stop-color="#731FFF"/>
<stop offset="0.905415" stop-color="#EB1AFF"/>
</linearGradient>
<linearGradient id="paint3_linear_332_73" x1="71.3741" y1="32.7947" x2="36.864" y2="-5.45493" gradientUnits="userSpaceOnUse">
<stop stop-color="#731FFF"/>
<stop offset="0.905415" stop-color="#EB1AFF"/>
</linearGradient>
<linearGradient id="paint4_linear_332_73" x1="71.5422" y1="82.7752" x2="38.0407" y2="47.3035" gradientUnits="userSpaceOnUse">
<stop stop-color="#731FFF"/>
<stop offset="0.905415" stop-color="#EB1AFF"/>
</linearGradient>
</defs>
</svg>
