<svg width="24" height="24" viewBox="0 0 24 24" fill="none" xmlns="http://www.w3.org/2000/svg">
<path opacity="0.4" d="M17.3729 4.42633H14.1355C13.329 4.43166 12.5633 4.07291 12.0522 3.45026L10.9861 1.97639C10.4836 1.34827 9.7179 0.987839 8.9126 1.00031H6.62392C2.51602 1.00031 1.00001 3.41121 1.00001 7.51072L1 10C0.994891 10.4873 9.49859 6.98671 9.5 6.5L11.9968 5.65368C13 6 19.5 5 17.3729 4.42633Z" fill="url(#paint0_linear_11_173)"/>
<path fill-rule="evenodd" clip-rule="evenodd" d="M22.5174 7.39361C22.3392 6.88266 22.0673 6.40932 21.7153 5.99783C21.6047 5.86788 21.4837 5.7471 21.3535 5.63668C20.2228 4.74742 18.7982 4.31535 17.363 4.42635H6.60429C4.04177 4.42635 2.47687 5.25601 1.71399 6.88605C1.45645 7.41422 1.27534 7.97618 1.17605 8.55514C1.17605 8.68936 1.1493 8.82359 1.12208 8.96019C1.10575 9.04213 1.08925 9.12494 1.07825 9.20911C1.02593 9.68886 0.999809 10.1711 1 10.6537V16.432C0.999787 16.9192 1.03904 17.4056 1.11737 17.8864C1.24056 18.7361 1.53322 19.5526 1.97806 20.2875C2.1807 20.6422 2.42714 20.9702 2.71161 21.2636C4.01908 22.4594 5.75254 23.0817 7.52367 22.9913H16.4632C18.2315 23.0824 19.9621 22.4598 21.2654 21.2636C21.5533 20.9707 21.8031 20.6428 22.0088 20.2875C22.4562 19.5521 22.7553 18.7364 22.889 17.8864C22.9592 17.4048 22.9952 16.9188 22.9966 16.432V10.6537C23.03 9.54734 22.8678 8.44376 22.5174 7.39361ZM10.453 16.9998C11.0478 17.006 11.6381 16.8942 12.1894 16.6708C12.7408 16.4475 13.2425 16.117 13.6653 15.6986C14.0882 15.2801 14.4238 14.782 14.6529 14.2329C14.882 13.6839 15 13.0949 15 12.5C15 11.9051 14.882 11.3161 14.6529 10.7671C14.4238 10.218 14.0882 9.71989 13.6653 9.30144C13.2425 8.88298 12.7408 8.55252 12.1894 8.32917C11.6381 8.10583 11.0478 7.99403 10.453 8.00025C9.26771 8.01263 8.1352 8.49217 7.30144 9.33469C6.46767 10.1772 6 11.3147 6 12.5C6 13.6853 6.46767 14.8228 7.30144 15.6653C8.1352 16.5078 9.26771 16.9874 10.453 16.9998ZM14.8558 16C14.6286 16 14.4107 16.0901 14.25 16.2506C14.2501 16.2505 14.2503 16.2503 14.2505 16.2501L14.2497 16.2509C14.2498 16.2508 14.2499 16.2507 14.25 16.2506C14.0899 16.4113 14 16.6289 14 16.8558C14 17.0831 14.0902 17.3011 14.2509 17.4619L16.5353 19.7499C16.6962 19.9108 16.9145 20.0012 17.142 20.0012C17.3696 20.0012 17.5878 19.9108 17.7487 19.7499C17.9096 19.589 18 19.3708 18 19.1432C18 18.9156 17.9096 18.6974 17.7487 18.5365L15.4619 16.2509C15.3011 16.0902 15.0831 16 14.8558 16Z" fill="url(#paint1_linear_11_173)"/>
<defs>
<linearGradient id="paint0_linear_11_173" x1="9.3989" y1="10.0464" x2="9.3989" y2="1" gradientUnits="userSpaceOnUse">
<stop stop-color="#5570FF"/>
<stop offset="1" stop-color="#4DD3FF"/>
</linearGradient>
<linearGradient id="paint1_linear_11_173" x1="12.0004" y1="23" x2="12.0004" y2="4.40924" gradientUnits="userSpaceOnUse">
<stop stop-color="#5570FF"/>
<stop offset="1" stop-color="#4DD3FF"/>
</linearGradient>
</defs>
</svg>
