<svg width="24" height="24" viewBox="0 0 24 24" fill="none" xmlns="http://www.w3.org/2000/svg">
<path opacity="0.4" d="M17.3729 4.42633H14.1355C13.329 4.43166 12.5633 4.07291 12.0522 3.45026L10.9861 1.97639C10.4836 1.34827 9.7179 0.987839 8.9126 1.00031H6.62392C2.51602 1.00031 1.00001 3.41121 1.00001 7.51072L1 10C0.994891 10.4873 9.49859 6.98671 9.5 6.5L11.9968 5.65368C13 6 19.5 5 17.3729 4.42633Z" fill="url(#paint0_linear_97_121)"/>
<path fill-rule="evenodd" clip-rule="evenodd" d="M22.5174 7.39355C22.3392 6.8826 22.0673 6.40925 21.7153 5.99777C21.6047 5.86782 21.4837 5.74704 21.3535 5.63662C20.2228 4.74736 18.7982 4.31529 17.363 4.42629H6.60429C4.04177 4.42629 2.47687 5.25595 1.71399 6.88599C1.45645 7.41416 1.27534 7.97612 1.17605 8.55508C1.17605 8.6893 1.1493 8.82352 1.12208 8.96013C1.10575 9.04207 1.08925 9.12487 1.07825 9.20905C1.02593 9.6888 0.999809 10.171 1 10.6536V16.432C0.999787 16.9191 1.03904 17.4055 1.11737 17.8863C1.24056 18.7361 1.53322 19.5526 1.97806 20.2875C2.1807 20.6422 2.42714 20.9701 2.71161 21.2635C4.01908 22.4593 5.75254 23.0817 7.52367 22.9912H16.4632C18.2315 23.0823 19.9621 22.4597 21.2654 21.2635C21.5533 20.9707 21.8031 20.6427 22.0088 20.2875C22.4562 19.552 22.7553 18.7363 22.889 17.8863C22.9592 17.4047 22.9952 16.9187 22.9966 16.432V10.6536C23.03 9.54728 22.8678 8.4437 22.5174 7.39355ZM8.34849 8.80109L11.5531 12.2043L11.6469 12.3049C11.9905 12.6735 11.9897 13.2453 11.6451 13.6129L11.5534 13.7107L11.5521 13.712L8.37124 17.1293C8.00538 17.5223 7.38781 17.5377 7.00284 17.1633L6.80881 16.9745C6.43547 16.6114 6.42088 16.0165 6.77593 15.6354L8.62916 13.6469C8.98868 13.2611 8.98685 12.6625 8.62498 12.2789L6.76102 10.3032C6.40206 9.92269 6.4149 9.32454 6.78986 8.95981L6.98386 8.77111C7.36726 8.3982 7.98183 8.41169 8.34849 8.80109ZM9.94895 18.3932C9.94895 17.8879 10.3586 17.4783 10.8639 17.4783H17.0851C17.5904 17.4783 18 17.8879 18 18.3932V18.6676C18 19.1729 17.5904 19.5825 17.0851 19.5825H10.8639C10.3586 19.5825 9.94895 19.1729 9.94895 18.6676V18.3932Z" fill="url(#paint1_linear_97_121)"/>
<defs>
<linearGradient id="paint0_linear_97_121" x1="0.7572" y1="1.08902" x2="8.41687" y2="15.747" gradientUnits="userSpaceOnUse">
<stop stop-color="#F9D423"/>
<stop offset="0.515624" stop-color="#FF4E50"/>
<stop offset="0.991304" stop-color="#8A2387"/>
</linearGradient>
<linearGradient id="paint1_linear_97_121" x1="0.681993" y1="4.59211" x2="19.4844" y2="27.5242" gradientUnits="userSpaceOnUse">
<stop stop-color="#F9D423"/>
<stop offset="0.515624" stop-color="#FF4E50"/>
<stop offset="0.991304" stop-color="#8A2387"/>
</linearGradient>
</defs>
</svg>
