<svg width="24" height="24" viewBox="0 0 24 24" fill="none" xmlns="http://www.w3.org/2000/svg">
<path opacity="0.4" d="M17.3729 4.42633H14.1355C13.329 4.43166 12.5633 4.07291 12.0522 3.45026L10.9861 1.97639C10.4836 1.34827 9.71789 0.987839 8.91259 1.00031H6.62391C2.51601 1.00031 1 3.41121 1 7.51072V9.94209C0.99489 10.4294 11.9954 7.4288 11.9968 6.94209V5.65368C13 6 19.5 5 17.3729 4.42633Z" fill="url(#paint0_linear_11_173)"/>
<path fill-rule="evenodd" clip-rule="evenodd" d="M22.5174 7.39361C22.3392 6.88266 22.0673 6.40932 21.7153 5.99783C21.6047 5.86788 21.4837 5.7471 21.3535 5.63668C20.2228 4.74742 18.7982 4.31535 17.363 4.42635H6.60429C4.04177 4.42635 2.47687 5.25601 1.71399 6.88605C1.45645 7.41422 1.27534 7.97618 1.17605 8.55514C1.17605 8.68936 1.1493 8.82359 1.12208 8.96019C1.10575 9.04213 1.08925 9.12494 1.07825 9.20911C1.02593 9.68886 0.999809 10.1711 1 10.6537V16.432C0.999787 16.9192 1.03904 17.4056 1.11737 17.8864C1.24056 18.7361 1.53322 19.5526 1.97806 20.2875C2.1807 20.6422 2.42714 20.9702 2.71161 21.2636C4.01908 22.4594 5.75254 23.0817 7.52367 22.9913H16.4632C18.2315 23.0824 19.9621 22.4598 21.2654 21.2636C21.5533 20.9707 21.8031 20.6428 22.0088 20.2875C22.4562 19.5521 22.7553 18.7364 22.889 17.8864C22.9592 17.4048 22.9952 16.9188 22.9966 16.432V10.6537C23.03 9.54734 22.8678 8.44376 22.5174 7.39361ZM11.7707 15.905C9.18322 15.905 7 16.3278 7 17.9596C7 19.5921 9.19732 20 11.7707 20C14.3582 20 16.5414 19.5772 16.5414 17.9454C16.5414 16.3129 14.3441 15.905 11.7707 15.905ZM14.9277 11.1751C14.9277 12.9373 13.5228 14.3503 11.7707 14.3503C10.0186 14.3503 8.61376 12.9373 8.61376 11.1751C8.61376 9.4123 10.0186 8 11.7707 8C13.5228 8 14.9277 9.4123 14.9277 11.1751Z" fill="url(#paint1_linear_11_173)"/>
<defs>
<linearGradient id="paint0_linear_11_173" x1="14.7579" y1="1" x2="9.22941" y2="13.6049" gradientUnits="userSpaceOnUse">
<stop stop-color="#DE00C0"/>
<stop offset="1" stop-color="#8720FF"/>
</linearGradient>
<linearGradient id="paint1_linear_11_173" x1="19.0194" y1="4.40924" x2="4.4842" y2="25.4115" gradientUnits="userSpaceOnUse">
<stop stop-color="#DE00C0"/>
<stop offset="1" stop-color="#8720FF"/>
</linearGradient>
</defs>
</svg>
