<svg width="24" height="24" viewBox="0 0 24 24" fill="none" xmlns="http://www.w3.org/2000/svg">
<path opacity="0.4" d="M17.3729 4.42633H14.1355C13.329 4.43166 12.5633 4.07291 12.0522 3.45026L10.9861 1.97639C10.4836 1.34827 9.7179 0.987839 8.9126 1.00031H6.62392C2.51602 1.00031 1.00001 3.41121 1.00001 7.51072L1 10C0.994891 10.4873 9.49859 6.98671 9.5 6.5L11.9968 5.65368C13 6 19.5 5 17.3729 4.42633Z" fill="url(#paint0_linear_97_121)"/>
<path fill-rule="evenodd" clip-rule="evenodd" d="M21.7153 5.99777C22.0673 6.40925 22.3392 6.8826 22.5174 7.39355C22.8678 8.4437 23.03 9.54728 22.9966 10.6536V16.432C22.9952 16.9187 22.9592 17.4047 22.889 17.8863C22.7553 18.7363 22.4562 19.552 22.0088 20.2875C21.8031 20.6427 21.5533 20.9707 21.2654 21.2635C19.9621 22.4597 18.2315 23.0823 16.4632 22.9912H7.52367C5.75254 23.0817 4.01908 22.4593 2.71161 21.2635C2.42714 20.9701 2.1807 20.6422 1.97806 20.2875C1.53322 19.5526 1.24056 18.7361 1.11737 17.8863C1.03904 17.4055 0.999787 16.9191 1 16.432V10.6536C0.999809 10.171 1.02593 9.6888 1.07825 9.20905C1.08925 9.12487 1.10575 9.04207 1.12208 8.96013C1.1493 8.82352 1.17605 8.6893 1.17605 8.55508C1.27534 7.97612 1.45645 7.41416 1.71399 6.88599C2.47687 5.25595 4.04177 4.42629 6.60429 4.42629H17.363C18.7982 4.31529 20.2228 4.74736 21.3535 5.63662C21.4837 5.74704 21.6047 5.86782 21.7153 5.99777ZM14.4172 9.28284C14.5734 9.12663 14.8266 9.12663 14.9828 9.28284L17.7172 12.0172C17.8734 12.1734 17.8734 12.4266 17.7172 12.5828L14.9828 15.3172C14.8266 15.4734 14.5734 15.4734 14.4172 15.3172L13.8828 14.7828C13.7266 14.6266 13.7266 14.3734 13.8828 14.2172L15.5172 12.5828C15.6734 12.4266 15.6734 12.1734 15.5172 12.0172L13.8828 10.3828C13.7266 10.2266 13.7266 9.97337 13.8828 9.81716L14.4172 9.28284ZM9.52218 10.4222C9.72847 10.2159 10.0083 10.1 10.3 10.1C10.5917 10.1 10.8715 10.2159 11.0778 10.4222C11.2841 10.6285 11.4 10.9083 11.4 11.2C11.4 11.4917 11.2841 11.7715 11.0778 11.9778C10.8715 12.1841 10.5917 12.3 10.3 12.3C10.0083 12.3 9.72847 12.1841 9.52218 11.9778C9.31589 11.7715 9.2 11.4917 9.2 11.2C9.2 10.9083 9.31589 10.6285 9.52218 10.4222ZM7.32218 13.7222C7.52847 13.5159 7.80826 13.4 8.1 13.4C8.39174 13.4 8.67153 13.5159 8.87782 13.7222C9.08411 13.9285 9.2 14.2083 9.2 14.5C9.2 14.7917 9.08411 15.0715 8.87782 15.2778C8.67153 15.4841 8.39174 15.6 8.1 15.6C7.80826 15.6 7.52847 15.4841 7.32218 15.2778C7.11589 15.0715 7 14.7917 7 14.5C7 14.2083 7.11589 13.9285 7.32218 13.7222ZM9.71842 17.0698C10.0366 16.7618 10.4622 16.5898 10.905 16.59C11.3285 16.6172 11.7267 16.8013 12.0217 17.1065C12.3166 17.4116 12.4872 17.8158 12.5 18.24C12.5152 18.6832 12.3572 19.1148 12.0594 19.4434C11.7616 19.772 11.3475 19.9717 10.905 20C10.6764 20.0001 10.4501 19.9543 10.2396 19.8652C10.029 19.7761 9.83858 19.6455 9.67951 19.4813C9.52045 19.3171 9.39603 19.1226 9.31365 18.9094C9.23128 18.6961 9.19263 18.4685 9.2 18.24C9.21428 17.7974 9.40021 17.3777 9.71842 17.0698Z" fill="url(#paint1_linear_97_121)"/>
<defs>
<linearGradient id="paint0_linear_97_121" x1="9.3989" y1="10.0464" x2="9.3989" y2="1" gradientUnits="userSpaceOnUse">
<stop stop-color="#0075FF"/>
<stop offset="1" stop-color="#4DEAFF"/>
</linearGradient>
<linearGradient id="paint1_linear_97_121" x1="12.0004" y1="23" x2="12.0004" y2="4.40918" gradientUnits="userSpaceOnUse">
<stop stop-color="#0075FF"/>
<stop offset="1" stop-color="#4DEAFF"/>
</linearGradient>
</defs>
</svg>
