<svg width="24" height="24" viewBox="0 0 24 24" fill="none" xmlns="http://www.w3.org/2000/svg">
<path opacity="0.4" d="M17.3729 4.42633H14.1355C13.329 4.43166 12.5633 4.07291 12.0522 3.45026L10.9861 1.97639C10.4836 1.34827 9.7179 0.987839 8.9126 1.00031H6.62392C2.51602 1.00031 1.00001 3.41121 1.00001 7.51072L1 10C0.994891 10.4873 9.49859 6.98671 9.5 6.5L11.9968 5.65368C13 6 19.5 5 17.3729 4.42633Z" fill="url(#paint0_linear_11_173)"/>
<path fill-rule="evenodd" clip-rule="evenodd" d="M21.7153 5.99783C22.0673 6.40932 22.3392 6.88266 22.5174 7.39361C22.8678 8.44376 23.03 9.54734 22.9966 10.6537V16.432C22.9952 16.9188 22.9592 17.4048 22.889 17.8864C22.7553 18.7364 22.4563 19.5521 22.0088 20.2875C21.8031 20.6428 21.5533 20.9707 21.2654 21.2636C19.9621 22.4598 18.2315 23.0824 16.4632 22.9913H7.52367C5.75254 23.0817 4.01908 22.4594 2.71161 21.2636C2.42714 20.9702 2.1807 20.6422 1.97806 20.2875C1.53323 19.5526 1.24056 18.7361 1.11737 17.8864C1.03904 17.4056 0.999788 16.9192 1 16.432V10.6537C0.99981 10.1711 1.02593 9.68886 1.07825 9.20911C1.08925 9.12494 1.10575 9.04213 1.12208 8.96019C1.1493 8.82359 1.17605 8.68936 1.17605 8.55514C1.27534 7.97618 1.45645 7.41422 1.71399 6.88605C2.47688 5.25601 4.04177 4.42635 6.6043 4.42635H17.363C18.7982 4.31535 20.2228 4.74742 21.3535 5.63668C21.4837 5.7471 21.6047 5.86788 21.7153 5.99783ZM12 20C15.3138 20 18 17.3144 18 14C18 10.6868 15.3138 8 12 8C8.6862 8 6 10.6868 6 14C6 17.3144 8.6862 20 12 20Z" fill="url(#paint1_linear_11_173)"/>
<path d="M14.2984 17C14.21 17 14.1209 16.9771 14.0392 16.9291L11.3892 15.3483C11.2367 15.2565 11.1429 15.0911 11.1429 14.9129V11.5062C11.1429 11.2268 11.3696 11 11.6491 11C11.9285 11 12.1553 11.2268 12.1553 11.5062V14.6254L14.5583 16.0584C14.7979 16.2022 14.8769 16.5127 14.7338 16.753C14.6386 16.9116 14.4706 17 14.2984 17" fill="url(#paint2_linear_11_173)"/>
<path d="M14.2984 17C14.21 17 14.1209 16.9771 14.0392 16.9291L11.3892 15.3483C11.2367 15.2565 11.1429 15.0911 11.1429 14.9129V11.5062C11.1429 11.2268 11.3696 11 11.6491 11C11.9285 11 12.1553 11.2268 12.1553 11.5062V14.6254L14.5583 16.0584C14.7979 16.2022 14.8769 16.5127 14.7338 16.753C14.6386 16.9116 14.4706 17 14.2984 17" stroke="url(#paint3_linear_11_173)"/>
<defs>
<linearGradient id="paint0_linear_11_173" x1="9.3989" y1="10.0464" x2="9.3989" y2="1" gradientUnits="userSpaceOnUse">
<stop stop-color="#FD5900"/>
<stop offset="1" stop-color="#FFDE00"/>
</linearGradient>
<linearGradient id="paint1_linear_11_173" x1="12.0004" y1="23" x2="12.0004" y2="4.40924" gradientUnits="userSpaceOnUse">
<stop stop-color="#FD5900"/>
<stop offset="1" stop-color="#FFDE00"/>
</linearGradient>
<linearGradient id="paint2_linear_11_173" x1="12.974" y1="17" x2="12.974" y2="11" gradientUnits="userSpaceOnUse">
<stop stop-color="#FD5900"/>
<stop offset="1" stop-color="#FFDE00"/>
</linearGradient>
<linearGradient id="paint3_linear_11_173" x1="12.974" y1="17" x2="12.974" y2="11" gradientUnits="userSpaceOnUse">
<stop stop-color="#FD5900"/>
<stop offset="1" stop-color="#FFDE00"/>
</linearGradient>
</defs>
</svg>
