<svg width="24" height="24" viewBox="0 0 24 24" fill="none" xmlns="http://www.w3.org/2000/svg">
<path opacity="0.4" d="M17.3729 4.42633H14.1355C13.329 4.43166 12.5633 4.07291 12.0522 3.45026L10.9861 1.97639C10.4836 1.34827 9.7179 0.987839 8.9126 1.00031H6.62392C2.51602 1.00031 1.00001 3.41121 1.00001 7.51072L1 10C0.994891 10.4873 9.49859 6.98671 9.5 6.5L11.9968 5.65368C13 6 19.5 5 17.3729 4.42633Z" fill="url(#paint0_linear_11_173)"/>
<path fill-rule="evenodd" clip-rule="evenodd" d="M21.7153 5.99783C22.0673 6.40932 22.3392 6.88266 22.5174 7.39361C22.8678 8.44376 23.03 9.54734 22.9966 10.6537V16.432C22.9952 16.9188 22.9592 17.4048 22.889 17.8864C22.7553 18.7364 22.4562 19.5521 22.0088 20.2875C21.8031 20.6428 21.5533 20.9707 21.2654 21.2636C19.9621 22.4598 18.2315 23.0824 16.4632 22.9913H7.52367C5.75254 23.0817 4.01908 22.4594 2.71161 21.2636C2.42714 20.9702 2.1807 20.6422 1.97806 20.2875C1.53322 19.5526 1.24056 18.7361 1.11737 17.8864C1.03904 17.4056 0.999787 16.9192 1 16.432V10.6537C0.999809 10.1711 1.02593 9.68886 1.07825 9.20911C1.08925 9.12494 1.10575 9.04213 1.12208 8.96019C1.1493 8.82359 1.17605 8.68936 1.17605 8.55514C1.27534 7.97618 1.45645 7.41422 1.71399 6.88605C2.47687 5.25601 4.04177 4.42635 6.60429 4.42635H17.363C18.7982 4.31535 20.2228 4.74742 21.3535 5.63668C21.4837 5.7471 21.6047 5.86788 21.7153 5.99783ZM8.3677 12.6655C9.6535 12.6655 10.7 11.619 10.7 10.3332C10.7 9.04741 9.6535 8 8.3677 8C7.08096 8 6.03543 9.04741 6.03543 10.3332C6.03543 11.619 7.08096 12.6655 8.3677 12.6655ZM18.8328 16.1255C18.7295 15.8674 18.5728 15.6252 18.3541 15.4131C17.7807 14.8584 17.2448 14.3404 16.6075 13.9574C15.6079 13.3493 14.8346 14.2033 14.6262 14.4765C14.4583 14.697 14.31 14.9366 14.1594 15.1799C14.13 15.2275 14.1004 15.2753 14.0706 15.323L14.0617 15.3374C13.6189 16.0511 13.1102 16.8711 12.2339 17.3503C10.9519 18.041 9.97859 17.4047 9.27844 16.9411C9.01565 16.7684 8.76037 16.6041 8.50602 16.4952C7.87908 16.2315 7.31502 16.5319 6.47784 17.568C6.03861 18.1095 5.60312 18.6464 5.16201 19.1813C4.89828 19.5023 4.96116 19.9951 5.31687 20.209C5.88469 20.5507 6.57733 20.7327 7.36007 20.7327H15.226C15.6699 20.7327 16.1148 20.6746 16.539 20.5385C17.4944 20.2344 18.2527 19.5389 18.6488 18.6182C18.9829 17.8449 19.1453 16.9063 18.8328 16.1255Z" fill="url(#paint1_linear_11_173)"/>
<defs>
<linearGradient id="paint0_linear_11_173" x1="4.0446" y1="8.97843" x2="11.4047" y2="-2.946" gradientUnits="userSpaceOnUse">
<stop stop-color="#FE0844"/>
<stop offset="1" stop-color="#FEB302"/>
</linearGradient>
<linearGradient id="paint1_linear_11_173" x1="4.98766" y1="20.8053" x2="21.8996" y2="3.34263" gradientUnits="userSpaceOnUse">
<stop stop-color="#FE0844"/>
<stop offset="1" stop-color="#FEB302"/>
</linearGradient>
</defs>
</svg>
