<svg width="24" height="24" viewBox="0 0 24 24" fill="none" xmlns="http://www.w3.org/2000/svg">
<path opacity="0.4" d="M17.3729 4.42633H14.1355C13.329 4.43166 12.5633 4.07291 12.0522 3.45026L10.9861 1.97639C10.4836 1.34827 9.7179 0.987839 8.9126 1.00031H6.62392C2.51602 1.00031 1.00001 3.41121 1.00001 7.51072L1 10C0.994891 10.4873 9.49859 6.98671 9.5 6.5L11.9968 5.65368C13 6 19.5 5 17.3729 4.42633Z" fill="url(#paint0_linear_97_121)"/>
<path fill-rule="evenodd" clip-rule="evenodd" d="M21.7153 5.99777C22.0673 6.40925 22.3392 6.8826 22.5174 7.39355C22.8678 8.4437 23.03 9.54728 22.9966 10.6536V16.432C22.9952 16.9187 22.9592 17.4047 22.889 17.8863C22.7553 18.7363 22.4562 19.552 22.0088 20.2875C21.8031 20.6427 21.5533 20.9707 21.2654 21.2635C19.9621 22.4597 18.2315 23.0823 16.4632 22.9912H7.52367C5.75254 23.0817 4.01908 22.4593 2.71161 21.2635C2.42714 20.9701 2.1807 20.6422 1.97806 20.2875C1.53322 19.5526 1.24056 18.7361 1.11737 17.8863C1.03904 17.4055 0.999787 16.9191 1 16.432V10.6536C0.999809 10.171 1.02593 9.6888 1.07825 9.20905C1.08925 9.12487 1.10575 9.04207 1.12208 8.96013C1.1493 8.82352 1.17605 8.6893 1.17605 8.55508C1.27534 7.97612 1.45645 7.41416 1.71399 6.88599C2.47687 5.25595 4.04177 4.42629 6.60429 4.42629H17.363C18.7982 4.31529 20.2228 4.74736 21.3535 5.63662C21.4837 5.74704 21.6047 5.86782 21.7153 5.99777ZM12.243 14.738C11.8442 14.9869 11.2228 14.9116 10.8653 14.6227L10.8449 14.6054L9.76603 16.5849C9.72366 16.6626 9.75623 16.7602 9.83815 16.7937C10.3812 17.0163 10.9626 17.1322 11.5505 17.1347C12.2228 17.1347 12.8666 16.9894 13.4493 16.7286L12.243 14.738ZM9.66301 13.6007L9.4501 13.4198C9.38203 13.3619 9.34281 13.2771 9.34281 13.1878V11.8061V11.0449V10.2837C9.34281 9.86196 9.68231 9.52245 10.104 9.52245H10.5608C10.7289 9.52245 10.8653 9.38612 10.8653 9.21796V8.30449C10.8653 8.13632 11.0016 8 11.1697 8H12.0832C12.2514 8 12.3877 8.13632 12.3877 8.30449V9.21796C12.3877 9.38612 12.524 9.52245 12.6922 9.52245H13.1489C13.5707 9.52245 13.9102 9.86196 13.9102 10.2837V11.0449V11.8061V13.1878C13.9102 13.2771 13.871 13.3619 13.8029 13.4198L13.4532 13.7171L14.7376 15.8738C15.5949 15.0746 16.1492 13.9598 16.1914 12.7199C16.1942 12.6359 16.2621 12.5674 16.3462 12.5674H17.5642C17.6482 12.5674 17.7166 12.636 17.7145 12.72C17.6691 14.5156 16.8252 16.1183 15.5301 17.2046L16.1552 18.2542C16.1679 18.2755 16.1752 18.2997 16.1764 18.3245L16.2526 19.8396C16.2592 19.971 16.1073 20.0483 16.0049 19.9656L14.8631 19.0439C14.8494 19.0328 14.8377 19.0194 14.8286 19.0043L14.2432 18.0384C13.4262 18.4347 12.5112 18.6571 11.5505 18.6571C10.6968 18.6552 9.85356 18.4738 9.07539 18.1254C9.00206 18.0925 8.91524 18.1201 8.87617 18.1903L8.4248 19.0015C8.4153 19.0186 8.4026 19.0337 8.3874 19.046L7.24789 19.9658C7.14552 20.0485 6.9936 19.9712 7.00021 19.8398L7.07651 18.3221C7.07767 18.299 7.08408 18.2765 7.09525 18.2562L9.66301 13.6007ZM11.6265 12.5674C12.0469 12.5674 12.3877 12.2265 12.3877 11.8061C12.3877 11.3857 12.0469 11.0449 11.6265 11.0449C11.2061 11.0449 10.8653 11.3857 10.8653 11.8061C10.8653 12.2265 11.2061 12.5674 11.6265 12.5674Z" fill="url(#paint1_linear_97_121)"/>
<defs>
<linearGradient id="paint0_linear_97_121" x1="8.25329" y1="0.7944" x2="8.47475" y2="11.2914" gradientUnits="userSpaceOnUse">
<stop stop-color="#F9D423"/>
<stop offset="0.515624" stop-color="#FF4E50"/>
<stop offset="0.991304" stop-color="#8A2387"/>
</linearGradient>
<linearGradient id="paint1_linear_97_121" x1="10.5" y1="3.98666" x2="11.2136" y2="25.5445" gradientUnits="userSpaceOnUse">
<stop stop-color="#F9D423"/>
<stop offset="0.515624" stop-color="#FF4E50"/>
<stop offset="0.991304" stop-color="#8A2387"/>
</linearGradient>
</defs>
</svg>
