<svg width="24" height="24" viewBox="0 0 24 24" fill="none" xmlns="http://www.w3.org/2000/svg">
<path opacity="0.4" d="M17.3729 4.42633H14.1355C13.329 4.43166 12.5633 4.07291 12.0522 3.45026L10.9861 1.97639C10.4836 1.34827 9.7179 0.987839 8.9126 1.00031H6.62392C2.51602 1.00031 1.00001 3.41121 1.00001 7.51072L1 10C0.994891 10.4873 9.49859 6.98671 9.5 6.5L11.9968 5.65368C13 6 19.5 5 17.3729 4.42633Z" fill="url(#paint0_linear_97_121)"/>
<path fill-rule="evenodd" clip-rule="evenodd" d="M22.5174 7.39355C22.3392 6.8826 22.0673 6.40925 21.7153 5.99777C21.6047 5.86782 21.4837 5.74704 21.3535 5.63662C20.2228 4.74736 18.7982 4.31529 17.363 4.42629H6.6043C4.04177 4.42629 2.47688 5.25595 1.71399 6.88599C1.45645 7.41416 1.27534 7.97612 1.17605 8.55508C1.17605 8.6893 1.1493 8.82352 1.12208 8.96013C1.10575 9.04207 1.08925 9.12487 1.07825 9.20905C1.02593 9.6888 0.99981 10.171 1 10.6536V16.432C0.999788 16.9191 1.03904 17.4055 1.11737 17.8863C1.24056 18.7361 1.53323 19.5526 1.97806 20.2875C2.1807 20.6422 2.42714 20.9701 2.71161 21.2635C4.01908 22.4593 5.75254 23.0817 7.52367 22.9912H16.4632C18.2315 23.0823 19.9621 22.4597 21.2654 21.2635C21.5533 20.9707 21.8031 20.6427 22.0088 20.2875C22.4563 19.552 22.7553 18.7363 22.889 17.8863C22.9592 17.4047 22.9952 16.9187 22.9966 16.432V10.6536C23.03 9.54728 22.8678 8.4437 22.5174 7.39355ZM15.0726 19.4726C15.6 18.9458 15.6 18.0968 15.6 16.4V14.396C14.7138 14.0948 13.5252 13.85 12 13.85C10.4748 13.85 9.2862 14.0948 8.4 14.396V16.4C8.4 18.0968 8.4 18.9458 8.9274 19.4726C9.4542 20 10.3032 20 12 20C13.6968 20 14.5458 20 15.0726 19.4726ZM15.072 8.5274C14.5458 8 13.6974 8 12 8C10.3026 8 9.4542 8 8.9268 8.5274C8.6316 8.8226 8.5014 9.2192 8.4444 9.809C8.7804 9.8 9.1512 9.8 9.558 9.8H14.4426C14.8494 9.8 15.2202 9.8 15.5556 9.809C15.4986 9.2192 15.3684 8.8226 15.0732 8.5274H15.072ZM6.5274 10.9274C7.0542 10.4 7.9032 10.4 9.6 10.4H14.4C16.0968 10.4 16.9458 10.4 17.4726 10.9274C18 11.4542 18 12.3032 18 14C18 15.6968 18 16.5458 17.4726 17.0726C17.1774 17.3684 16.7808 17.498 16.191 17.555C16.2 17.2196 16.2 16.8488 16.2 16.4426V14.6252C16.2387 14.6419 16.2773 14.6589 16.3158 14.6762C16.37 14.7023 16.4288 14.7172 16.4888 14.7201C16.5488 14.7231 16.6088 14.714 16.6653 14.6934C16.7217 14.6727 16.7735 14.641 16.8175 14.6001C16.8615 14.5591 16.8968 14.5098 16.9214 14.4549C16.946 14.4001 16.9594 14.3409 16.9608 14.2808C16.9621 14.2207 16.9514 14.161 16.9293 14.1051C16.9072 14.0492 16.8741 13.9983 16.832 13.9555C16.7899 13.9126 16.7397 13.8785 16.6842 13.8554C15.651 13.3916 14.112 12.9494 12 12.9494C9.888 12.9494 8.349 13.3916 7.3158 13.8554C7.21011 13.9062 7.12845 13.9963 7.0882 14.1065C7.04796 14.2167 7.05231 14.3382 7.10034 14.4452C7.14836 14.5522 7.23626 14.6362 7.34532 14.6794C7.45437 14.7225 7.57597 14.7214 7.6842 14.6762L7.8 14.6252V16.4426C7.8 16.8488 7.8 17.2196 7.809 17.555C7.2192 17.4986 6.8226 17.3684 6.5274 17.0726C6 16.5458 6 15.6968 6 14C6 12.3032 6 11.4542 6.5274 10.9274Z" fill="url(#paint1_linear_97_121)"/>
<defs>
<linearGradient id="paint0_linear_97_121" x1="9.3989" y1="10.0464" x2="9.3989" y2="1" gradientUnits="userSpaceOnUse">
<stop stop-color="#5570FF"/>
<stop offset="1" stop-color="#4DD3FF"/>
</linearGradient>
<linearGradient id="paint1_linear_97_121" x1="12.0004" y1="23" x2="12.0004" y2="4.40918" gradientUnits="userSpaceOnUse">
<stop stop-color="#5570FF"/>
<stop offset="1" stop-color="#4DD3FF"/>
</linearGradient>
</defs>
</svg>
