<svg width="24" height="24" viewBox="0 0 24 24" fill="none" xmlns="http://www.w3.org/2000/svg">
<path opacity="0.4" d="M17.3729 4.42633H14.1355C13.329 4.43166 12.5633 4.07291 12.0522 3.45026L10.9861 1.97639C10.4836 1.34827 9.7179 0.987839 8.9126 1.00031H6.62392C2.51602 1.00031 1.00001 3.41121 1.00001 7.51072L1 10C0.994891 10.4873 9.49859 6.98671 9.5 6.5L11.9968 5.65368C13 6 19.5 5 17.3729 4.42633Z" fill="url(#paint0_linear_11_173)"/>
<path fill-rule="evenodd" clip-rule="evenodd" d="M22.5174 7.39361C22.3392 6.88266 22.0673 6.40932 21.7153 5.99783C21.6047 5.86788 21.4837 5.7471 21.3535 5.63668C20.2228 4.74742 18.7982 4.31535 17.363 4.42635H6.60429C4.04177 4.42635 2.47687 5.25601 1.71399 6.88605C1.45645 7.41422 1.27534 7.97618 1.17605 8.55514C1.17605 8.68936 1.1493 8.82359 1.12208 8.96019C1.10575 9.04213 1.08925 9.12494 1.07825 9.20911C1.02593 9.68886 0.999809 10.1711 1 10.6537V16.432C0.999787 16.9192 1.03904 17.4056 1.11737 17.8864C1.24056 18.7361 1.53322 19.5526 1.97806 20.2875C2.1807 20.6422 2.42714 20.9702 2.71161 21.2636C4.01908 22.4594 5.75254 23.0817 7.52367 22.9913H16.4632C18.2315 23.0824 19.9621 22.4598 21.2654 21.2636C21.5533 20.9707 21.8031 20.6428 22.0088 20.2875C22.4562 19.5521 22.7553 18.7364 22.889 17.8864C22.9592 17.4048 22.9952 16.9188 22.9966 16.432V10.6537C23.03 9.54734 22.8678 8.44376 22.5174 7.39361ZM9.67088 11.0487C9.67089 11.0486 9.67089 11.0486 9.6709 11.0486C9.66774 11.0516 9.66458 11.0547 9.66139 11.0577C9.66458 11.0547 9.66774 11.0517 9.67088 11.0487ZM9.60882 11.1024C9.60692 11.1039 9.60501 11.1053 9.6031 11.1068C9.77109 10.979 9.87909 10.7852 10.0951 10.3976L10.0951 10.3976L10.2919 10.0448L10.2931 10.0426C11.0525 8.68088 11.4322 8 12.0001 8C12.568 8 12.9477 8.68088 13.7071 10.0426L13.7083 10.0448L13.9045 10.3976C14.1205 10.7852 14.2285 10.979 14.3965 11.1068C14.5649 11.2345 14.7748 11.2819 15.1935 11.3766L15.1945 11.3768L15.5761 11.4632C17.0521 11.7968 17.7901 11.9642 17.9652 12.5288C18.141 13.0934 17.6383 13.682 16.6321 14.858L16.3717 15.1622C16.0855 15.4964 15.9427 15.6638 15.8785 15.8702C15.8145 16.0765 15.8357 16.2989 15.8781 16.7419L15.8785 16.7462L15.8905 16.8602C15.8903 16.8602 15.8901 16.8602 15.8899 16.8603L15.9187 17.1524L15.919 17.1555C16.0706 18.7236 16.1464 19.5076 15.6865 19.8566C15.2275 20.2046 14.5363 19.8866 13.1545 19.2506L12.7975 19.0862C12.4045 18.905 12.2083 18.815 12.0001 18.815C11.7919 18.815 11.5957 18.905 11.2033 19.0862L10.8451 19.2506C9.46392 19.8872 8.77273 20.2052 8.31313 19.856C7.85384 19.5076 7.92963 18.7236 8.08123 17.1555L8.08153 17.1524L8.12113 16.7462C8.16433 16.3004 8.18593 16.0772 8.12173 15.8702C8.05773 15.6644 7.91501 15.4974 7.63114 15.1653L7.62853 15.1622L7.36813 14.858C6.36194 13.6814 5.85914 13.0928 6.03434 12.5288C6.21004 11.9645 6.94729 11.7976 8.4216 11.4638L8.42413 11.4632L8.80513 11.3768L8.80513 11.3768C9.22513 11.282 9.43512 11.2346 9.60312 11.1068C9.60503 11.1054 9.60693 11.1039 9.60882 11.1024Z" fill="url(#paint1_linear_11_173)"/>
<defs>
<linearGradient id="paint0_linear_11_173" x1="9.3989" y1="10.0464" x2="9.3989" y2="1" gradientUnits="userSpaceOnUse">
<stop stop-color="#FD5900"/>
<stop offset="1" stop-color="#FFDE00"/>
</linearGradient>
<linearGradient id="paint1_linear_11_173" x1="12.0004" y1="23" x2="12.0004" y2="4.40924" gradientUnits="userSpaceOnUse">
<stop stop-color="#FD5900"/>
<stop offset="1" stop-color="#FFDE00"/>
</linearGradient>
</defs>
</svg>
