<svg width="24" height="24" viewBox="0 0 24 24" fill="none" xmlns="http://www.w3.org/2000/svg">
<path opacity="0.4" d="M17.3729 4.42633H14.1355C13.329 4.43166 12.5633 4.07291 12.0522 3.45026L10.9861 1.97639C10.4836 1.34827 9.71789 0.987839 8.91259 1.00031H6.62391C2.51601 1.00031 1 3.41121 1 7.51072V9.94209C0.99489 10.4294 11.9954 7.4288 11.9968 6.94209V5.65368C13 6 19.5 5 17.3729 4.42633Z" fill="url(#paint0_linear_11_173)"/>
<path fill-rule="evenodd" clip-rule="evenodd" d="M21.7153 5.99783C22.0673 6.40932 22.3392 6.88266 22.5174 7.39361C22.8678 8.44376 23.03 9.54734 22.9966 10.6537V16.432C22.9952 16.9188 22.9592 17.4048 22.889 17.8864C22.7553 18.7364 22.4562 19.5521 22.0088 20.2875C21.8031 20.6428 21.5533 20.9707 21.2654 21.2636C19.9621 22.4598 18.2315 23.0824 16.4632 22.9913H7.52367C5.75254 23.0817 4.01908 22.4594 2.71161 21.2636C2.42714 20.9702 2.1807 20.6422 1.97806 20.2875C1.53322 19.5526 1.24056 18.7361 1.11737 17.8864C1.03904 17.4056 0.999787 16.9192 1 16.432V10.6537C0.999809 10.1711 1.02593 9.68886 1.07825 9.20911C1.08925 9.12494 1.10575 9.04213 1.12208 8.96019C1.1493 8.82359 1.17605 8.68936 1.17605 8.55514C1.27534 7.97618 1.45645 7.41422 1.71399 6.88605C2.47687 5.25601 4.04177 4.42635 6.60429 4.42635H17.363C18.7982 4.31535 20.2228 4.74742 21.3535 5.63668C21.4837 5.7471 21.6047 5.86788 21.7153 5.99783ZM10.6272 14.5063V9.47992C10.6272 9.0874 10.7831 8.71096 11.0606 8.43342C11.3382 8.15588 11.7146 8 12.1071 8C12.4996 8 12.876 8.15588 13.1535 8.43342C13.4311 8.71096 13.587 9.0874 13.587 9.47992V14.5063C13.587 14.7272 13.7661 14.9063 13.987 14.9063H15.2277C15.4228 14.9064 15.6136 14.9642 15.7758 15.0726C15.938 15.1811 16.0644 15.3351 16.139 15.5154C16.2137 15.6956 16.2332 15.894 16.1952 16.0853C16.1571 16.2767 16.0632 16.4525 15.9253 16.5905L12.8046 19.7111C12.6196 19.8961 12.3687 20 12.1071 20C11.8455 20 11.5945 19.8961 11.4095 19.7111L8.2889 16.5905C8.15095 16.4525 8.057 16.2767 8.01897 16.0853C7.9809 15.894 8.00044 15.6956 8.0751 15.5154C8.14977 15.3351 8.27616 15.1811 8.43839 15.0726C8.60062 14.9642 8.79131 14.9064 8.98641 14.9063H10.2272C10.4481 14.9063 10.6272 14.7272 10.6272 14.5063Z" fill="url(#paint1_linear_11_173)"/>
<defs>
<linearGradient id="paint0_linear_11_173" x1="1" y1="5.49771" x2="17.7978" y2="5.49771" gradientUnits="userSpaceOnUse">
<stop stop-color="#02AA93"/>
<stop offset="1" stop-color="#67FF80"/>
</linearGradient>
<linearGradient id="paint1_linear_11_173" x1="1" y1="13.7046" x2="23.0009" y2="13.7046" gradientUnits="userSpaceOnUse">
<stop stop-color="#02AA93"/>
<stop offset="1" stop-color="#67FF80"/>
</linearGradient>
</defs>
</svg>
