<svg width="24" height="24" viewBox="0 0 24 24" fill="none" xmlns="http://www.w3.org/2000/svg">
<path opacity="0.4" d="M17.3729 4.42633H14.1355C13.329 4.43166 12.5633 4.07291 12.0522 3.45026L10.9861 1.97639C10.4836 1.34827 9.7179 0.987839 8.9126 1.00031H6.62392C2.51602 1.00031 1.00001 3.41121 1.00001 7.51072L1 10C0.994891 10.4873 9.49859 6.98671 9.5 6.5L11.9968 5.65368C13 6 19.5 5 17.3729 4.42633Z" fill="url(#paint0_linear_11_173)"/>
<path fill-rule="evenodd" clip-rule="evenodd" d="M21.7153 5.99783C22.0673 6.40932 22.3392 6.88266 22.5174 7.39361C22.8678 8.44376 23.03 9.54734 22.9966 10.6537V16.432C22.9952 16.9188 22.9592 17.4048 22.889 17.8864C22.7553 18.7364 22.4562 19.5521 22.0088 20.2875C21.8031 20.6428 21.5533 20.9707 21.2654 21.2636C19.9621 22.4598 18.2315 23.0824 16.4632 22.9913H7.52367C5.75254 23.0817 4.01908 22.4594 2.71161 21.2636C2.42714 20.9702 2.1807 20.6422 1.97806 20.2875C1.53322 19.5526 1.24056 18.7361 1.11737 17.8864C1.03904 17.4056 0.999787 16.9192 1 16.432V10.6537C0.999809 10.1711 1.02593 9.68886 1.07825 9.20911C1.08925 9.12494 1.10575 9.04213 1.12208 8.96019C1.1493 8.82359 1.17605 8.68936 1.17605 8.55514C1.27534 7.97618 1.45645 7.41422 1.71399 6.88605C2.47687 5.25601 4.04177 4.42635 6.60429 4.42635H17.363C18.7982 4.31535 20.2228 4.74742 21.3535 5.63668C21.4837 5.7471 21.6047 5.86788 21.7153 5.99783ZM11.9999 10C11.2303 10 10.6052 10.25 9.55766 10.6692L7.90067 11.3316L7.87674 11.3412C7.35477 11.5505 6.93184 11.7201 6.64049 11.873C6.48981 11.9517 6.3447 12.0404 6.23309 12.1481C6.11756 12.2586 6.00036 12.426 6.00036 12.651C6.00036 12.8759 6.11812 13.0433 6.23309 13.1538C6.35543 13.2638 6.49233 13.3563 6.63994 13.4289C6.93112 13.5819 7.35268 13.7505 7.87287 13.9586L7.90067 13.9697L9.55766 14.6327L9.55925 14.6334C10.6058 15.0521 11.2301 15.3019 11.9999 15.3019C12.7701 15.3019 13.3951 15.0519 14.4415 14.6327L16.0991 13.9703L16.123 13.9607C16.645 13.7514 17.0679 13.5818 17.3593 13.4289C17.51 13.3502 17.6551 13.2615 17.7667 13.1538C17.8822 13.0433 17.9994 12.8759 17.9994 12.651C17.9994 12.426 17.8816 12.2586 17.7667 12.1481C17.6545 12.0404 17.5094 11.9511 17.3598 11.873C17.07 11.7207 16.651 11.5529 16.1347 11.3462L16.0996 11.3322L14.4421 10.6692L14.4405 10.6685C13.3939 10.2498 12.7697 10 11.9999 10ZM6.69894 14.5725L6.69782 14.5708C6.65681 14.5342 6.60899 14.506 6.55708 14.4878C6.50518 14.4696 6.4502 14.4619 6.39529 14.465C6.34038 14.468 6.28662 14.4819 6.23707 14.5058C6.18753 14.5296 6.14316 14.563 6.10652 14.604C6.06987 14.645 6.04166 14.6929 6.0235 14.7448C6.00534 14.7967 5.99758 14.8516 6.00066 14.9066C6.00689 15.0174 6.05691 15.1213 6.13972 15.1953L6.14084 15.1964L6.14363 15.1987L6.15144 15.2054C6.15594 15.2099 6.16261 15.2155 6.17058 15.2221L6.17656 15.2271C6.31427 15.3384 6.45771 15.4423 6.60629 15.5386C6.90431 15.7317 7.34353 15.9795 7.92563 16.2122L9.49332 16.8395L9.5575 16.8651C10.605 17.2843 11.2301 17.5343 11.9997 17.5343C12.7698 17.5343 13.3943 17.2843 14.4411 16.8653L14.4411 16.8652L14.4414 16.8651L14.5061 16.8395L16.0738 16.2116C16.5341 16.0302 16.9758 15.8046 17.3926 15.538C17.5414 15.4418 17.685 15.3378 17.8229 15.2266L17.848 15.2048L17.8558 15.1981L17.8586 15.1959L17.8592 15.1948H17.8603C17.9431 15.1208 17.9931 15.0169 17.9993 14.906C18.0056 14.7951 17.9675 14.6863 17.8935 14.6035C17.8195 14.5207 17.7156 14.4706 17.6047 14.4644C17.4938 14.4582 17.385 14.4963 17.3022 14.5703L17.3011 14.5714L17.2999 14.5719L17.2866 14.5837L17.2207 14.6361C17.129 14.7064 17.0344 14.7728 16.9372 14.8354C16.6805 15.0022 16.2892 15.2244 15.7624 15.4348L14.1953 16.0615C13.0651 16.5136 12.5913 16.6966 11.9997 16.6966C11.4081 16.6966 10.9338 16.5136 9.80418 16.0615L8.23649 15.4359C7.82664 15.2744 7.4334 15.0737 7.06226 14.8365C6.93676 14.7552 6.81567 14.6672 6.69949 14.5731L6.69894 14.5725ZM6.39554 16.7324C6.50594 16.7259 6.61442 16.7634 6.69727 16.8366V16.8355L6.69895 16.8378L6.7129 16.8489C6.82499 16.9389 6.94159 17.0231 7.06226 17.1012C7.43344 17.3382 7.82668 17.5388 8.2365 17.7L9.80418 18.3268C10.9338 18.7788 11.4081 18.9619 11.9997 18.9619C12.5913 18.9619 13.0651 18.7788 14.1953 18.3268L15.7624 17.7C16.2892 17.4896 16.6805 17.2675 16.9372 17.1006C17.0344 17.0381 17.129 16.9716 17.2207 16.9014L17.2866 16.8489L17.3 16.8372L17.3011 16.8366L17.3022 16.8355C17.385 16.7623 17.4935 16.7248 17.6039 16.7313C17.7143 16.7377 17.8177 16.7876 17.8914 16.8701C17.9651 16.9525 18.0032 17.0608 17.9974 17.1712C17.9916 17.2816 17.9423 17.3853 17.8603 17.4595L17.8592 17.4606L17.8586 17.4612L17.8558 17.4634L17.848 17.4701C17.8397 17.4774 17.8313 17.4847 17.8229 17.4919C17.685 17.6031 17.5414 17.707 17.3926 17.8033C16.9758 18.0701 16.5342 18.2959 16.0738 18.4774L14.5061 19.1047L14.4414 19.1304L14.4355 19.1328C13.3921 19.5505 12.7685 19.8001 11.9997 19.8001C11.2313 19.8001 10.607 19.5503 9.5625 19.1324L9.55751 19.1304L9.49333 19.1047L7.92564 18.4774C7.34354 18.2447 6.90432 17.9969 6.60686 17.8038C6.45785 17.7073 6.34455 17.6247 6.26642 17.565L6.17657 17.4924C6.17451 17.4907 6.17251 17.489 6.17058 17.4874C6.16262 17.4807 6.15595 17.4751 6.15145 17.4706L6.14364 17.4639L6.14085 17.4617L6.13973 17.4606H6.13918C6.05718 17.3864 6.00788 17.2828 6.00205 17.1723C5.99622 17.0619 6.03433 16.9536 6.10806 16.8712C6.18178 16.7888 6.28514 16.7389 6.39554 16.7324Z" fill="url(#paint1_linear_11_173)"/>
<defs>
<linearGradient id="paint0_linear_11_173" x1="1.58872" y1="5.52321" x2="16.1978" y2="2.48559" gradientUnits="userSpaceOnUse">
<stop stop-color="#8D01A2"/>
<stop offset="1" stop-color="#FF00D2"/>
</linearGradient>
<linearGradient id="paint1_linear_11_173" x1="1.77108" y1="13.7046" x2="21.3881" y2="11.105" gradientUnits="userSpaceOnUse">
<stop stop-color="#8D01A2"/>
<stop offset="1" stop-color="#FF00D2"/>
</linearGradient>
</defs>
</svg>
