<svg width="24" height="24" viewBox="0 0 24 24" fill="none" xmlns="http://www.w3.org/2000/svg">
<path opacity="0.4" d="M17.3729 4.42633H14.1355C13.329 4.43166 12.5633 4.07291 12.0522 3.45026L10.9861 1.97639C10.4836 1.34827 9.7179 0.987839 8.9126 1.00031H6.62392C2.51602 1.00031 1.00001 3.41121 1.00001 7.51072L1 10C0.994891 10.4873 9.49859 6.98671 9.5 6.5L11.9968 5.65368C13 6 19.5 5 17.3729 4.42633Z" fill="url(#paint0_linear_11_173)"/>
<path fill-rule="evenodd" clip-rule="evenodd" d="M21.7153 5.99783C22.0673 6.40932 22.3392 6.88266 22.5174 7.39361C22.8678 8.44376 23.03 9.54734 22.9966 10.6537V16.432C22.9952 16.9188 22.9592 17.4048 22.889 17.8864C22.7553 18.7364 22.4562 19.5521 22.0088 20.2875C21.8031 20.6428 21.5533 20.9707 21.2654 21.2636C19.9621 22.4598 18.2315 23.0824 16.4632 22.9913H7.52367C5.75254 23.0817 4.01908 22.4594 2.71161 21.2636C2.42714 20.9702 2.1807 20.6422 1.97806 20.2875C1.53322 19.5526 1.24056 18.7361 1.11737 17.8864C1.03904 17.4056 0.999787 16.9192 1 16.432V10.6537C0.999809 10.1711 1.02593 9.68886 1.07825 9.20911C1.08925 9.12494 1.10575 9.04213 1.12208 8.96019C1.1493 8.82359 1.17605 8.68936 1.17605 8.55514C1.27534 7.97618 1.45645 7.41422 1.71399 6.88605C2.47687 5.25601 4.04177 4.42635 6.60429 4.42635H17.363C18.7982 4.31535 20.2228 4.74742 21.3535 5.63668C21.4837 5.7471 21.6047 5.86788 21.7153 5.99783ZM9.21427 11.5C9.21427 9.82567 10.5984 8.5 12.2857 8.5C13.7968 8.5 15.0625 9.56102 15.3127 10.987C15.4177 11.5856 14.9124 12 14.4286 12C13.8965 12 13.5419 11.5755 13.475 11.1506C13.4218 10.8123 13.2935 10.6356 13.1399 10.5294C12.9695 10.4116 12.699 10.3333 12.2857 10.3333C11.8103 10.3333 11.5266 10.4363 11.3622 10.5841C11.2083 10.7224 11.0714 10.9796 11.0714 11.5V13.2308C11.0714 13.3795 11.1919 13.5 11.3407 13.5H15.8022C16.5031 13.5 17.0714 14.0682 17.0714 14.7692V18.2308C17.0714 18.9316 16.5035 19.5 15.8024 19.5H8.76919C8.06817 19.5 7.5 18.9317 7.5 18.2308V14.625C7.5 14.0037 8.00367 13.5 8.625 13.5H8.94504C9.09374 13.5 9.21427 13.3795 9.21427 13.2308V11.5Z" fill="url(#paint1_linear_11_173)"/>
<defs>
<linearGradient id="paint0_linear_11_173" x1="9.3989" y1="10.0464" x2="9.3989" y2="1" gradientUnits="userSpaceOnUse">
<stop stop-color="#02AA93"/>
<stop offset="1" stop-color="#67FF80"/>
</linearGradient>
<linearGradient id="paint1_linear_11_173" x1="12.0004" y1="23" x2="12.0004" y2="4.40924" gradientUnits="userSpaceOnUse">
<stop stop-color="#02AA93"/>
<stop offset="1" stop-color="#67FF80"/>
</linearGradient>
</defs>
</svg>
