<svg width="24" height="24" viewBox="0 0 24 24" fill="none" xmlns="http://www.w3.org/2000/svg">
<path opacity="0.4" d="M17.3729 4.42633H14.1355C13.329 4.43166 12.5633 4.07291 12.0522 3.45026L10.9861 1.97639C10.4836 1.34827 9.7179 0.987839 8.9126 1.00031H6.62392C2.51602 1.00031 1.00001 3.41121 1.00001 7.51072L1 10C0.994891 10.4873 9.49859 6.98671 9.5 6.5L11.9968 5.65368C13 6 19.5 5 17.3729 4.42633Z" fill="url(#paint0_linear_11_173)"/>
<path fill-rule="evenodd" clip-rule="evenodd" d="M21.7153 5.99783C22.0673 6.40932 22.3392 6.88266 22.5174 7.39361C22.8678 8.44376 23.03 9.54734 22.9966 10.6537V16.432C22.9952 16.9188 22.9592 17.4048 22.889 17.8864C22.7553 18.7364 22.4562 19.5521 22.0088 20.2875C21.8031 20.6428 21.5533 20.9707 21.2654 21.2636C19.9621 22.4598 18.2315 23.0824 16.4632 22.9913H7.52367C5.75254 23.0817 4.01908 22.4594 2.71161 21.2636C2.42714 20.9702 2.1807 20.6422 1.97806 20.2875C1.53322 19.5526 1.24056 18.7361 1.11737 17.8864C1.03904 17.4056 0.999787 16.9192 1 16.432V10.6537C0.999809 10.1711 1.02593 9.68886 1.07825 9.20911C1.08925 9.12494 1.10575 9.04213 1.12208 8.96019C1.1493 8.82359 1.17605 8.68936 1.17605 8.55514C1.27534 7.97618 1.45645 7.41422 1.71399 6.88605C2.47687 5.25601 4.04177 4.42635 6.60429 4.42635H17.363C18.7982 4.31535 20.2228 4.74742 21.3535 5.63668C21.4837 5.7471 21.6047 5.86788 21.7153 5.99783ZM8.89888 11.2308C8.89888 9.42954 10.3883 8 12.2088 8C14.0293 8 15.5187 9.42954 15.5187 11.2308V13.1479C15.5187 13.3636 15.6935 13.5385 15.9092 13.5385H16.1032C16.8286 13.5385 17.4176 14.1266 17.4176 14.8521V18.6864C17.4176 19.4117 16.8298 20 16.1042 20H8.31357C7.58804 20 7 19.4119 7 18.6864V14.6923C7 14.055 7.51658 13.5385 8.15385 13.5385H8.50835C8.72405 13.5385 8.89888 13.3636 8.89888 13.1479V11.2308ZM11.1241 10.1476C10.9276 10.3242 10.7714 10.6386 10.7714 11.2308V13.1479C10.7714 13.3636 10.9463 13.5385 11.162 13.5385H13.2556C13.4713 13.5385 13.6462 13.3636 13.6462 13.1479V11.2308C13.6462 10.6385 13.49 10.3242 13.2935 10.1476C13.0873 9.96218 12.7463 9.84617 12.2088 9.84617C11.6713 9.84617 11.3303 9.96218 11.1241 10.1476Z" fill="url(#paint1_linear_11_173)"/>
<defs>
<linearGradient id="paint0_linear_11_173" x1="17.2303" y1="1.25857" x2="15.1255" y2="11.0724" gradientUnits="userSpaceOnUse">
<stop stop-color="#FE0F7C"/>
<stop offset="1" stop-color="#DF0066"/>
</linearGradient>
<linearGradient id="paint1_linear_11_173" x1="22.2576" y1="4.94062" x2="15.8807" y2="23.8902" gradientUnits="userSpaceOnUse">
<stop stop-color="#FE0F7C"/>
<stop offset="1" stop-color="#DF0066"/>
</linearGradient>
</defs>
</svg>
