<svg width="24" height="24" viewBox="0 0 24 24" fill="none" xmlns="http://www.w3.org/2000/svg">
<path opacity="0.4" d="M17.3729 4.42633H14.1355C13.329 4.43166 12.5633 4.07291 12.0522 3.45026L10.9861 1.97639C10.4836 1.34827 9.71789 0.987839 8.91259 1.00031H6.62391C2.51601 1.00031 1 3.41121 1 7.51072V9.94209C0.99489 10.4294 11.9954 7.4288 11.9968 6.94209V5.65368C13 6 19.5 5 17.3729 4.42633Z" fill="url(#paint0_linear_11_173)"/>
<path fill-rule="evenodd" clip-rule="evenodd" d="M21.7153 5.99783C22.0673 6.40932 22.3392 6.88266 22.5174 7.39361C22.8678 8.44376 23.03 9.54734 22.9966 10.6537V16.432C22.9952 16.9188 22.9592 17.4048 22.889 17.8864C22.7553 18.7364 22.4562 19.5521 22.0088 20.2875C21.8031 20.6428 21.5533 20.9707 21.2654 21.2636C19.9621 22.4598 18.2315 23.0824 16.4632 22.9913H7.52367C5.75254 23.0817 4.01908 22.4594 2.71161 21.2636C2.42714 20.9702 2.1807 20.6422 1.97806 20.2875C1.53322 19.5526 1.24056 18.7361 1.11737 17.8864C1.03904 17.4056 0.999787 16.9192 1 16.432V10.6537C0.999809 10.1711 1.02593 9.68886 1.07825 9.20911C1.08925 9.12494 1.10575 9.04213 1.12208 8.96019C1.1493 8.82359 1.17605 8.68936 1.17605 8.55514C1.27534 7.97618 1.45645 7.41422 1.71399 6.88605C2.47687 5.25601 4.04177 4.42635 6.60429 4.42635H17.363C18.7982 4.31535 20.2228 4.74742 21.3535 5.63668C21.4837 5.7471 21.6047 5.86788 21.7153 5.99783ZM16.0492 14.8931C16.2386 14.6391 16.3333 14.322 16.3333 14.0061C16.3333 13.6537 16.2268 13.3256 16.0256 13.0583C16.0077 13.0405 15.9714 12.9998 15.9242 12.947C15.8461 12.8597 15.7382 12.7391 15.6349 12.633C14.6643 11.5638 12.1312 9.8141 10.8054 9.27947C10.6042 9.19441 10.0952 9.01337 9.82292 9C9.5625 9 9.31392 9.06197 9.07718 9.18226C8.78125 9.35237 8.54451 9.6209 8.4143 9.9356C8.33144 10.1543 8.20123 10.8104 8.20123 10.8226C8.07102 11.5395 8 12.7072 8 13.9939C8 15.2211 8.07102 16.339 8.17756 17.0693C8.18052 17.072 8.19089 17.125 8.207 17.2073C8.25528 17.4541 8.35514 17.9645 8.46165 18.175C8.72206 18.6853 9.23106 19 9.77557 19H9.82292C10.178 18.9891 10.9238 18.6719 10.9238 18.6598C12.1785 18.1264 14.6525 16.4617 15.6468 15.3548L15.7178 15.2819C15.848 15.1482 16.0137 14.9429 16.0492 14.8931Z" fill="url(#paint1_linear_11_173)"/>
<defs>
<linearGradient id="paint0_linear_11_173" x1="0.7572" y1="1.08851" x2="8.34907" y2="15.6991" gradientUnits="userSpaceOnUse">
<stop stop-color="#F9D423"/>
<stop offset="0.515624" stop-color="#FF4E50"/>
<stop offset="0.991304" stop-color="#8A2387"/>
</linearGradient>
<linearGradient id="paint1_linear_11_173" x1="0.681993" y1="4.59217" x2="19.4844" y2="27.5242" gradientUnits="userSpaceOnUse">
<stop stop-color="#F9D423"/>
<stop offset="0.515624" stop-color="#FF4E50"/>
<stop offset="0.991304" stop-color="#8A2387"/>
</linearGradient>
</defs>
</svg>
