<svg width="24" height="24" viewBox="0 0 24 24" fill="none" xmlns="http://www.w3.org/2000/svg">
<path opacity="0.4" d="M17.3729 4.42633H14.1355C13.329 4.43166 12.5633 4.07291 12.0522 3.45026L10.9861 1.97639C10.4836 1.34827 9.7179 0.987839 8.9126 1.00031H6.62392C2.51602 1.00031 1.00001 3.41121 1.00001 7.51072L1 10C0.994891 10.4873 9.49859 6.98671 9.5 6.5L11.9968 5.65368C13 6 19.5 5 17.3729 4.42633Z" fill="url(#paint0_linear_11_173)"/>
<path fill-rule="evenodd" clip-rule="evenodd" d="M22.5174 7.39361C22.3392 6.88266 22.0673 6.40932 21.7153 5.99783C21.6047 5.86788 21.4837 5.7471 21.3535 5.63668C20.2228 4.74742 18.7982 4.31535 17.363 4.42635H6.60429C4.04177 4.42635 2.47687 5.25601 1.71399 6.88605C1.45645 7.41422 1.27534 7.97618 1.17605 8.55514C1.17605 8.68936 1.1493 8.82359 1.12208 8.96019C1.10575 9.04213 1.08925 9.12494 1.07825 9.20911C1.02593 9.68886 0.999809 10.1711 1 10.6537V16.432C0.999787 16.9192 1.03904 17.4056 1.11737 17.8864C1.24056 18.7361 1.53322 19.5526 1.97806 20.2875C2.1807 20.6422 2.42714 20.9702 2.71161 21.2636C4.01908 22.4594 5.75254 23.0817 7.52367 22.9913H16.4632C18.2315 23.0824 19.9621 22.4598 21.2654 21.2636C21.5533 20.9707 21.8031 20.6428 22.0088 20.2875C22.4562 19.5521 22.7553 18.7364 22.889 17.8864C22.9592 17.4048 22.9952 16.9188 22.9966 16.432V10.6537C23.03 9.54734 22.8678 8.44376 22.5174 7.39361ZM12.419 14.2833C12.419 14.2836 12.4193 14.2838 12.4195 14.2837L16.6149 12.6055C16.8777 12.5004 17.1635 12.6939 17.1635 12.9769V14.8112C17.1635 15.1271 16.7981 15.3332 16.4865 15.281C16.3337 15.2554 16.1773 15.2493 16.021 15.2636C15.6199 15.3004 15.2424 15.4696 14.9481 15.7447C14.6538 16.0197 14.4594 16.3848 14.3956 16.7825C14.3317 17.1802 14.402 17.5879 14.5955 17.9412C14.7889 18.2945 15.0944 18.5734 15.4638 18.7339C15.8333 18.8944 16.2456 18.9274 16.6359 18.8277C17.0262 18.7279 17.3721 18.5011 17.6192 18.183C17.8664 17.865 18.0006 17.4737 18.0008 17.0709V11.7369C18.0008 11.099 18.0008 10.5642 17.9561 10.1378C17.9499 10.079 17.9424 10.0204 17.9338 9.96195C17.8902 9.67058 17.8143 9.39931 17.6664 9.17213C17.5763 9.03251 17.4585 8.91284 17.3204 8.82048L17.3164 8.81769C16.9213 8.55535 16.4775 8.57377 16.0204 8.69043C15.5783 8.80318 15.0302 9.03259 14.3581 9.31391L13.1893 9.80287C12.8739 9.9346 12.6071 10.0468 12.3978 10.1623C12.1745 10.2851 11.9831 10.4303 11.8391 10.6468C11.6951 10.8634 11.6348 11.0962 11.6074 11.3496C11.5817 11.5874 11.5817 11.877 11.5817 12.2187V15.927C11.5817 16.2429 11.2164 16.449 10.9047 16.3968C10.752 16.3712 10.5955 16.3651 10.4393 16.3794C10.0381 16.4162 9.66067 16.5854 9.36637 16.8605C9.07206 17.1355 8.87766 17.5006 8.81381 17.8983C8.74996 18.296 8.82029 18.7037 9.01371 19.057C9.20713 19.4103 9.51265 19.6892 9.88209 19.8497C10.2515 20.0102 10.6639 20.0432 11.0541 19.9435C11.4444 19.8437 11.7904 19.6169 12.0375 19.2988C12.2846 18.9808 12.4188 18.5895 12.419 18.1867V14.2833ZM9.50553 8.12261C9.58404 8.20112 9.62814 8.3076 9.62814 8.41863C9.62814 8.86406 9.81122 9.16714 10.0535 9.36641C10.2883 9.55869 10.5806 9.66712 10.884 9.67453C10.9951 9.67453 11.1015 9.71863 11.1801 9.79714C11.2586 9.87565 11.3027 9.98213 11.3027 10.0932C11.3027 10.2042 11.2586 10.3107 11.1801 10.3892C11.1015 10.4677 10.9951 10.5118 10.884 10.5118C10.7072 10.5118 10.5184 10.4857 10.3291 10.4326C10.0151 10.3444 9.62814 10.5513 9.62814 10.8775V13.1631C9.62797 13.5659 9.49374 13.9572 9.24662 14.2753C8.9995 14.5934 8.65354 14.8202 8.26328 14.9199C7.87302 15.0197 7.46067 14.9867 7.09123 14.8262C6.72178 14.6657 6.41627 14.3868 6.22284 14.0335C6.02942 13.6801 5.95909 13.2725 6.02294 12.8748C6.08679 12.4771 6.28119 12.1119 6.5755 11.8369C6.8698 11.5619 7.24727 11.3927 7.64839 11.3559C7.80467 11.3415 7.96109 11.3476 8.11388 11.3732C8.42551 11.4254 8.79088 11.2194 8.79088 10.9034V8.41863C8.79088 8.3076 8.83499 8.20112 8.91349 8.12261C8.992 8.04411 9.09848 8 9.20951 8C9.32054 8 9.42702 8.04411 9.50553 8.12261Z" fill="url(#paint1_linear_11_173)"/>
<defs>
<linearGradient id="paint0_linear_11_173" x1="9.39889" y1="10.0464" x2="9.39889" y2="1" gradientUnits="userSpaceOnUse">
<stop stop-color="#A93AFF"/>
<stop offset="1" stop-color="#FF81FF"/>
</linearGradient>
<linearGradient id="paint1_linear_11_173" x1="12.0004" y1="23" x2="12.0004" y2="4.40924" gradientUnits="userSpaceOnUse">
<stop stop-color="#A93AFF"/>
<stop offset="1" stop-color="#FF81FF"/>
</linearGradient>
</defs>
</svg>
