<svg width="24" height="24" viewBox="0 0 24 24" fill="none" xmlns="http://www.w3.org/2000/svg">
<path opacity="0.4" d="M17.3729 4.42633H14.1355C13.329 4.43166 12.5633 4.07291 12.0522 3.45026L10.9861 1.97639C10.4836 1.34827 9.7179 0.987839 8.9126 1.00031H6.62392C2.51602 1.00031 1.00001 3.41121 1.00001 7.51072L1 10C0.994891 10.4873 9.49859 6.98671 9.5 6.5L11.9968 5.65368C13 6 19.5 5 17.3729 4.42633Z" fill="url(#paint0_linear_11_173)"/>
<path fill-rule="evenodd" clip-rule="evenodd" d="M22.5174 7.39361C22.3392 6.88266 22.0673 6.40932 21.7153 5.99783C21.6047 5.86788 21.4837 5.7471 21.3535 5.63668C20.2228 4.74742 18.7982 4.31535 17.363 4.42635H6.60429C4.04177 4.42635 2.47687 5.25601 1.71399 6.88605C1.45645 7.41422 1.27534 7.97618 1.17605 8.55514C1.17605 8.68936 1.1493 8.82359 1.12208 8.96019C1.10575 9.04213 1.08925 9.12494 1.07825 9.20911C1.02593 9.68886 0.999809 10.1711 1 10.6537V16.432C0.999787 16.9192 1.03904 17.4056 1.11737 17.8864C1.24056 18.7361 1.53322 19.5526 1.97806 20.2875C2.1807 20.6422 2.42714 20.9702 2.71161 21.2636C4.01908 22.4594 5.75254 23.0817 7.52367 22.9913H16.4632C18.2315 23.0824 19.9621 22.4598 21.2654 21.2636C21.5533 20.9707 21.8031 20.6428 22.0088 20.2875C22.4562 19.5521 22.7553 18.7364 22.889 17.8864C22.9592 17.4048 22.9952 16.9188 22.9966 16.432V10.6537C23.03 9.54734 22.8678 8.44376 22.5174 7.39361ZM8.97157 10.8813C9.06341 10.7975 9.11863 10.6809 9.12532 10.5568C9.13201 10.4327 9.08962 10.3109 9.00731 10.2177C8.925 10.1245 8.80937 10.0675 8.68535 10.0588C8.56134 10.0501 8.43889 10.0906 8.34442 10.1714C7.75583 10.6894 7.28452 11.3271 6.96193 12.0417C6.63933 12.7564 6.47288 13.5317 6.47368 14.3158C6.47368 14.4414 6.52359 14.5619 6.61242 14.6507C6.70125 14.7396 6.82174 14.7895 6.94736 14.7895C7.07299 14.7895 7.19348 14.7396 7.28231 14.6507C7.37114 14.5619 7.42105 14.4414 7.42105 14.3158C7.42023 13.6659 7.55812 13.0234 7.8255 12.4311C8.09289 11.8388 8.48362 11.3104 8.97157 10.8813ZM15.6556 10.1714C15.5611 10.0906 15.4387 10.0501 15.3146 10.0588C15.1906 10.0675 15.075 10.1245 14.9927 10.2177C14.9104 10.3109 14.868 10.4327 14.8747 10.5568C14.8814 10.6809 14.9366 10.7975 15.0284 10.8813C15.5164 11.3104 15.9071 11.8388 16.1745 12.4311C16.4419 13.0234 16.5798 13.6659 16.5789 14.3158C16.5789 14.4414 16.6288 14.5619 16.7177 14.6507C16.8065 14.7396 16.927 14.7895 17.0526 14.7895C17.1783 14.7895 17.2987 14.7396 17.3876 14.6507C17.4764 14.5619 17.5263 14.4414 17.5263 14.3158C17.5271 13.5317 17.3607 12.7564 17.0381 12.0417C16.7155 11.3271 16.2442 10.6894 15.6556 10.1714ZM10.8549 18.7507C10.7941 18.7332 10.7303 18.728 10.6674 18.7356C10.6045 18.7431 10.5438 18.7632 10.4888 18.7946C10.4338 18.826 10.3857 18.8682 10.3472 18.9185C10.3088 18.9689 10.2809 19.0264 10.2651 19.0877C10.2493 19.1491 10.2459 19.213 10.2553 19.2756C10.2646 19.3383 10.2864 19.3984 10.3194 19.4525C10.3523 19.5066 10.3958 19.5535 10.4472 19.5905C10.4987 19.6274 10.557 19.6537 10.6187 19.6678C11.5248 19.901 12.4752 19.901 13.3813 19.6678C13.443 19.6537 13.5013 19.6274 13.5528 19.5905C13.6042 19.5535 13.6477 19.5066 13.6806 19.4525C13.7136 19.3984 13.7354 19.3383 13.7447 19.2756C13.754 19.213 13.7507 19.1491 13.7349 19.0877C13.7191 19.0264 13.6912 18.9689 13.6527 18.9185C13.6143 18.8682 13.5662 18.826 13.5112 18.7946C13.4562 18.7632 13.3955 18.7431 13.3326 18.7356C13.2697 18.728 13.2059 18.7332 13.145 18.7507C12.7709 18.8467 12.3862 18.8951 12 18.8947C11.6138 18.8948 11.2291 18.8464 10.8549 18.7507ZM10.6602 11.2345C10.3049 10.8792 10.1053 10.3973 10.1053 9.89474C10.1053 9.39222 10.3049 8.91029 10.6602 8.55496C11.0156 8.19962 11.4975 8 12 8C12.5025 8 12.9844 8.19962 13.3398 8.55496C13.6951 8.91029 13.8947 9.39222 13.8947 9.89474C13.8947 10.3973 13.6951 10.8792 13.3398 11.2345C12.9844 11.5899 12.5025 11.7895 12 11.7895C11.4975 11.7895 11.0156 11.5899 10.6602 11.2345ZM6.14423 18.1988C6.04901 17.9689 6 17.7225 6 17.4737C6 16.9712 6.19962 16.4892 6.55496 16.1339C6.91029 15.7786 7.39222 15.5789 7.89474 15.5789C8.39725 15.5789 8.87919 15.7786 9.23452 16.1339C9.58985 16.4892 9.78947 16.9712 9.78947 17.4737C9.78947 17.7225 9.74047 17.9689 9.64525 18.1988C9.55003 18.4286 9.41046 18.6375 9.23452 18.8135C9.05858 18.9894 8.8497 19.129 8.61982 19.2242C8.38994 19.3194 8.14356 19.3684 7.89474 19.3684C7.64592 19.3684 7.39953 19.3194 7.16965 19.2242C6.93977 19.129 6.7309 18.9894 6.55496 18.8135C6.37901 18.6375 6.23945 18.4286 6.14423 18.1988ZM14.7655 18.8135C15.1208 19.1688 15.6027 19.3684 16.1053 19.3684C16.6078 19.3684 17.0897 19.1688 17.445 18.8135C17.8004 18.4581 18 17.9762 18 17.4737C18 16.9712 17.8004 16.4892 17.445 16.1339C17.0897 15.7786 16.6078 15.5789 16.1053 15.5789C15.6027 15.5789 15.1208 15.7786 14.7655 16.1339C14.4101 16.4892 14.2105 16.9712 14.2105 17.4737C14.2105 17.9762 14.4101 18.4581 14.7655 18.8135Z" fill="url(#paint1_linear_11_173)"/>
<defs>
<linearGradient id="paint0_linear_11_173" x1="1" y1="10.0464" x2="15.5736" y2="-1.74826" gradientUnits="userSpaceOnUse">
<stop stop-color="#0357D1"/>
<stop offset="1" stop-color="#27CDFC"/>
</linearGradient>
<linearGradient id="paint1_linear_11_173" x1="1" y1="23" x2="25.9516" y2="10.1298" gradientUnits="userSpaceOnUse">
<stop stop-color="#0357D1"/>
<stop offset="1" stop-color="#27CDFC"/>
</linearGradient>
</defs>
</svg>
