<svg width="24" height="24" viewBox="0 0 24 24" fill="none" xmlns="http://www.w3.org/2000/svg">
<path opacity="0.4" d="M17.3729 4.42633H14.1355C13.329 4.43166 12.5633 4.07291 12.0522 3.45026L10.9861 1.97639C10.4836 1.34827 9.7179 0.987839 8.9126 1.00031H6.62392C2.51602 1.00031 1.00001 3.41121 1.00001 7.51072L1 10C0.994891 10.4873 9.49859 6.98671 9.5 6.5L11.9968 5.65368C13 6 19.5 5 17.3729 4.42633Z" fill="url(#paint0_linear_97_121)"/>
<path fill-rule="evenodd" clip-rule="evenodd" d="M21.7153 5.99777C22.0673 6.40925 22.3392 6.8826 22.5174 7.39355C22.8678 8.4437 23.03 9.54728 22.9966 10.6536V16.432C22.9952 16.9187 22.9592 17.4047 22.889 17.8863C22.7553 18.7363 22.4563 19.552 22.0088 20.2875C21.8031 20.6427 21.5533 20.9707 21.2654 21.2635C19.9621 22.4597 18.2315 23.0823 16.4632 22.9912H7.52367C5.75254 23.0817 4.01908 22.4593 2.71161 21.2635C2.42714 20.9701 2.1807 20.6422 1.97806 20.2875C1.53323 19.5526 1.24056 18.7361 1.11737 17.8863C1.03904 17.4055 0.999788 16.9191 1 16.432V10.6536C0.99981 10.171 1.02593 9.6888 1.07825 9.20905C1.08925 9.12487 1.10575 9.04207 1.12208 8.96013C1.1493 8.82352 1.17605 8.6893 1.17605 8.55508C1.27534 7.97612 1.45645 7.41416 1.71399 6.88599C2.47688 5.25595 4.04177 4.42629 6.6043 4.42629H17.363C18.7982 4.31529 20.2228 4.74736 21.3535 5.63662C21.4837 5.74704 21.6047 5.86782 21.7153 5.99777ZM12.1926 13.2222H13.7481C14.2355 13.2222 14.4813 13.2222 14.6337 13.3736C14.7851 13.5261 14.7851 13.7708 14.7851 14.2593C14.7851 14.7477 14.7851 14.9925 14.6337 15.1449C14.4813 15.2963 14.2366 15.2963 13.7481 15.2963H13.2296C12.7411 15.2963 12.4964 15.2963 12.344 15.1449C12.1926 14.9925 12.1926 14.7477 12.1926 14.2593V13.2222ZM12.1926 11.1481H10.637C10.1486 11.1481 9.90384 11.1481 9.75137 11.2996C9.59998 11.452 9.59998 11.6978 9.59998 12.1852C9.59998 12.6726 9.59998 12.9184 9.75137 13.0708C9.90384 13.2222 10.1496 13.2222 10.637 13.2222H12.1926V11.1481ZM12.1926 9.07407V11.1481H13.7481C14.2366 11.1481 14.4813 11.1481 14.6337 10.9967C14.7851 10.8443 14.7851 10.5996 14.7851 10.1111C14.7851 9.62266 14.7851 9.37793 14.6337 9.22548C14.4813 9.07407 14.2355 9.07407 13.7481 9.07407H12.1926ZM12.1926 9.07407H10.637C10.1496 9.07407 9.90384 9.07407 9.75137 8.92266C9.59998 8.77022 9.59998 8.52548 9.59998 8.03704V7.00311L12.1926 7V9.07407ZM9.59998 18.2778V18.4074C9.59998 19.095 9.8731 19.7544 10.3593 20.2406C10.8455 20.7269 11.505 21 12.1926 21C12.8802 21 13.5396 20.7269 14.0258 20.2406C14.512 19.7544 14.7851 19.095 14.7851 18.4074V18.2778C14.7851 17.7769 14.3786 17.3704 13.8777 17.3704H10.5074C10.0065 17.3704 9.59998 17.7769 9.59998 18.2778Z" fill="url(#paint1_linear_97_121)"/>
<defs>
<linearGradient id="paint0_linear_97_121" x1="1" y1="5.5232" x2="17.7978" y2="5.5232" gradientUnits="userSpaceOnUse">
<stop stop-color="#02AA93"/>
<stop offset="1" stop-color="#67FF80"/>
</linearGradient>
<linearGradient id="paint1_linear_97_121" x1="1" y1="13.7046" x2="23.0009" y2="13.7046" gradientUnits="userSpaceOnUse">
<stop stop-color="#02AA93"/>
<stop offset="1" stop-color="#67FF80"/>
</linearGradient>
</defs>
</svg>
