<svg width="24" height="24" viewBox="0 0 24 24" fill="none" xmlns="http://www.w3.org/2000/svg">
<path opacity="0.4" d="M17.3729 4.42633H14.1355C13.329 4.43166 12.5633 4.07291 12.0522 3.45026L10.9861 1.97639C10.4836 1.34827 9.7179 0.987839 8.9126 1.00031H6.62392C2.51602 1.00031 1.00001 3.41121 1.00001 7.51072L1 10C0.994891 10.4873 9.49859 6.98671 9.5 6.5L11.9968 5.65368C13 6 19.5 5 17.3729 4.42633Z" fill="url(#paint0_linear_97_121)"/>
<path fill-rule="evenodd" clip-rule="evenodd" d="M21.7153 5.99777C22.0673 6.40925 22.3392 6.8826 22.5174 7.39355C22.8678 8.4437 23.03 9.54728 22.9966 10.6536V16.432C22.9952 16.9187 22.9592 17.4047 22.889 17.8863C22.7553 18.7363 22.4562 19.552 22.0088 20.2875C21.8031 20.6427 21.5533 20.9707 21.2654 21.2635C19.9621 22.4597 18.2315 23.0823 16.4632 22.9912H7.52367C5.75254 23.0817 4.01908 22.4593 2.71161 21.2635C2.42714 20.9701 2.1807 20.6422 1.97806 20.2875C1.53322 19.5526 1.24056 18.7361 1.11737 17.8863C1.03904 17.4055 0.999787 16.9191 1 16.432V10.6536C0.999809 10.171 1.02593 9.6888 1.07825 9.20905C1.08925 9.12487 1.10575 9.04207 1.12208 8.96013C1.1493 8.82352 1.17605 8.6893 1.17605 8.55508C1.27534 7.97612 1.45645 7.41416 1.71399 6.88599C2.47687 5.25595 4.04177 4.42629 6.60429 4.42629H17.363C18.7982 4.31529 20.2228 4.74736 21.3535 5.63662C21.4837 5.74704 21.6047 5.86782 21.7153 5.99777ZM16.1688 9.42698C16.1185 9.27611 16.0104 9.15137 15.8682 9.08018C15.7259 9.00913 15.5613 8.99747 15.4104 9.04776C15.2595 9.09805 15.1348 9.20618 15.0636 9.34838L14.3832 10.7086C13.653 10.3918 12.8466 10.2166 12 10.2166C11.1803 10.2155 10.3691 10.383 9.6168 10.7086L8.9364 9.34838C8.9027 9.27544 8.8547 9.21 8.79523 9.15596C8.73576 9.10192 8.66605 9.06038 8.59022 9.03379C8.51439 9.00721 8.43399 8.99612 8.3538 9.0012C8.27361 9.00628 8.19525 9.02741 8.12338 9.06334C8.05151 9.09928 7.98759 9.14928 7.93541 9.21039C7.88324 9.2715 7.84386 9.34247 7.81964 9.41908C7.79541 9.4957 7.78681 9.5764 7.79437 9.65639C7.80192 9.73639 7.82546 9.81406 7.8636 9.88478L8.568 11.2942C7.77465 11.8467 7.12675 12.5829 6.67958 13.4401C6.23241 14.2972 5.99925 15.2498 6 16.2166V16.8166C6 17.1348 6.12643 17.4401 6.35147 17.6651C6.57652 17.8902 6.88174 18.0166 7.2 18.0166H16.8C17.1183 18.0166 17.4235 17.8902 17.6485 17.6651C17.8736 17.4401 18 17.1348 18 16.8166V16.2166C18.0007 15.2499 17.7674 14.2974 17.3203 13.4404C16.8731 12.5834 16.2253 11.8472 15.432 11.2948L16.1364 9.88478C16.2075 9.74251 16.2191 9.57785 16.1688 9.42698ZM8.6636 14.0802C8.83239 13.9114 9.06131 13.8166 9.3 13.8166C9.5387 13.8166 9.76761 13.9114 9.9364 14.0802C10.1052 14.249 10.2 14.4779 10.2 14.7166C10.2 14.9553 10.1052 15.1842 9.9364 15.353C9.76761 15.5218 9.5387 15.6166 9.3 15.6166C9.06131 15.6166 8.83239 15.5218 8.6636 15.353C8.49482 15.1842 8.4 14.9553 8.4 14.7166C8.4 14.4779 8.49482 14.249 8.6636 14.0802ZM14.0636 14.0802C14.2324 13.9114 14.4613 13.8166 14.7 13.8166C14.9387 13.8166 15.1676 13.9114 15.3364 14.0802C15.5052 14.249 15.6 14.4779 15.6 14.7166C15.6 14.9553 15.5052 15.1842 15.3364 15.353C15.1676 15.5218 14.9387 15.6166 14.7 15.6166C14.4613 15.6166 14.2324 15.5218 14.0636 15.353C13.8948 15.1842 13.8 14.9553 13.8 14.7166C13.8 14.4779 13.8948 14.249 14.0636 14.0802Z" fill="url(#paint1_linear_97_121)"/>
<defs>
<linearGradient id="paint0_linear_97_121" x1="9.39889" y1="10.0464" x2="9.39889" y2="0.999999" gradientUnits="userSpaceOnUse">
<stop stop-color="#02AA93"/>
<stop offset="1" stop-color="#67FF80"/>
</linearGradient>
<linearGradient id="paint1_linear_97_121" x1="12.0004" y1="23" x2="12.0004" y2="4.40918" gradientUnits="userSpaceOnUse">
<stop stop-color="#02AA93"/>
<stop offset="1" stop-color="#67FF80"/>
</linearGradient>
</defs>
</svg>
