<svg width="24" height="24" viewBox="0 0 24 24" fill="none" xmlns="http://www.w3.org/2000/svg">
<path opacity="0.4" d="M17.3729 4.42633H14.1355C13.329 4.43166 12.5633 4.07291 12.0522 3.45026L10.9861 1.97639C10.4836 1.34827 9.7179 0.987839 8.9126 1.00031H6.62392C2.51602 1.00031 1.00001 3.41121 1.00001 7.51072L1 10C0.994891 10.4873 9.49859 6.98671 9.5 6.5L11.9968 5.65368C13 6 19.5 5 17.3729 4.42633Z" fill="url(#paint0_linear_97_121)"/>
<path fill-rule="evenodd" clip-rule="evenodd" d="M21.7153 5.99777C22.0673 6.40925 22.3392 6.8826 22.5174 7.39355C22.8678 8.4437 23.03 9.54728 22.9966 10.6536V16.432C22.9952 16.9187 22.9592 17.4047 22.889 17.8863C22.7553 18.7363 22.4562 19.552 22.0088 20.2875C21.8031 20.6427 21.5533 20.9707 21.2654 21.2635C19.9621 22.4597 18.2315 23.0823 16.4632 22.9912H7.52367C5.75254 23.0817 4.01908 22.4593 2.71161 21.2635C2.42714 20.9701 2.1807 20.6422 1.97806 20.2875C1.53322 19.5526 1.24056 18.7361 1.11737 17.8863C1.03904 17.4055 0.999787 16.9191 1 16.432V10.6536C0.999809 10.171 1.02593 9.6888 1.07825 9.20905C1.08925 9.12487 1.10575 9.04207 1.12208 8.96013C1.1493 8.82352 1.17605 8.6893 1.17605 8.55508C1.27534 7.97612 1.45645 7.41416 1.71399 6.88599C2.47687 5.25595 4.04177 4.42629 6.60429 4.42629H17.363C18.7982 4.31529 20.2228 4.74736 21.3535 5.63662C21.4837 5.74704 21.6047 5.86782 21.7153 5.99777ZM16.8427 17.1595C17.1288 16.6586 16.8325 16.0411 16.4165 15.6414C15.4897 14.751 15.3183 13.2598 16.0718 12.206C16.4337 11.6999 16.6045 10.9637 16.0748 10.6373C15.6246 10.3599 15.1326 10.2092 14.6565 10.2092C14.0652 10.2092 13.6603 10.3629 13.2922 10.5026C12.9857 10.619 12.7048 10.7256 12.3632 10.7256C11.9942 10.7256 11.6673 10.6088 11.3249 10.4864C10.9484 10.3519 10.5531 10.2106 10.0623 10.2106C9.14227 10.2106 8.16232 10.7709 7.54313 11.7249C6.66788 13.0703 6.81737 15.5989 8.23353 17.7564C8.74001 18.5256 9.41626 19.3919 10.2995 19.3999C10.6663 19.4036 10.9103 19.2951 11.1744 19.1777C11.4768 19.0433 11.8054 18.8971 12.3745 18.8944C12.9481 18.8898 13.2718 19.038 13.5708 19.1748C13.8276 19.2924 14.0662 19.4015 14.4292 19.3985C15.3125 19.3919 16.0269 18.4303 16.5329 17.6598C16.6582 17.4689 16.7563 17.3107 16.8427 17.1595ZM14.3579 8.3147C14.253 8.70288 14.059 9.05936 13.8341 9.34811C13.5714 9.68632 13.1904 9.9762 12.7708 10.1412C12.3333 10.3132 11.905 9.94459 12.0172 9.48817C12.1196 9.07205 12.3389 8.68471 12.5839 8.38655C12.8287 8.09021 13.1706 7.83148 13.5367 7.65284C14.0052 7.42417 14.4939 7.81138 14.3579 8.3147Z" fill="url(#paint1_linear_97_121)"/>
<defs>
<linearGradient id="paint0_linear_97_121" x1="9.39855" y1="1.2056" x2="9.02656" y2="14.7755" gradientUnits="userSpaceOnUse">
<stop stop-color="#FFC700"/>
<stop offset="0.1987" stop-color="#FF49AB"/>
<stop offset="0.37955" stop-color="#BA49FF"/>
<stop offset="0.53125" stop-color="#5849FF"/>
<stop offset="0.84375" stop-color="#1EFFD6"/>
<stop offset="0.9999" stop-color="#00FFFF"/>
</linearGradient>
<linearGradient id="paint1_linear_97_121" x1="12" y1="4.8317" x2="10.8018" y2="32.6878" gradientUnits="userSpaceOnUse">
<stop stop-color="#FFC700"/>
<stop offset="0.1987" stop-color="#FF49AB"/>
<stop offset="0.37955" stop-color="#BA49FF"/>
<stop offset="0.53125" stop-color="#5849FF"/>
<stop offset="0.84375" stop-color="#1EFFD6"/>
<stop offset="0.9999" stop-color="#00FFFF"/>
</linearGradient>
</defs>
</svg>
