<svg width="24" height="24" viewBox="0 0 24 24" fill="none" xmlns="http://www.w3.org/2000/svg">
<path opacity="0.4" d="M17.3729 4.42633H14.1355C13.329 4.43166 12.5633 4.07291 12.0522 3.45026L10.9861 1.97639C10.4836 1.34827 9.7179 0.987839 8.9126 1.00031H6.62392C2.51602 1.00031 1.00001 3.41121 1.00001 7.51072L1 10C0.994891 10.4873 9.49859 6.98671 9.5 6.5L11.9968 5.65368C13 6 19.5 5 17.3729 4.42633Z" fill="url(#paint0_linear_97_121)"/>
<path fill-rule="evenodd" clip-rule="evenodd" d="M21.7153 5.99777C22.0673 6.40925 22.3392 6.8826 22.5174 7.39355C22.8678 8.4437 23.03 9.54728 22.9966 10.6536V16.432C22.9952 16.9187 22.9592 17.4047 22.889 17.8863C22.7553 18.7363 22.4562 19.552 22.0088 20.2875C21.8031 20.6427 21.5533 20.9707 21.2654 21.2635C19.9621 22.4597 18.2315 23.0823 16.4632 22.9912H7.52367C5.75254 23.0817 4.01908 22.4593 2.71161 21.2635C2.42714 20.9701 2.1807 20.6422 1.97806 20.2875C1.53322 19.5526 1.24056 18.7361 1.11737 17.8863C1.03904 17.4055 0.999787 16.9191 1 16.432V10.6536C0.999809 10.171 1.02593 9.6888 1.07825 9.20905C1.08925 9.12487 1.10575 9.04207 1.12208 8.96013C1.1493 8.82352 1.17605 8.6893 1.17605 8.55508C1.27534 7.97612 1.45645 7.41416 1.71399 6.88599C2.47687 5.25595 4.04177 4.42629 6.60429 4.42629H17.363C18.7982 4.31529 20.2228 4.74736 21.3535 5.63662C21.4837 5.74704 21.6047 5.86782 21.7153 5.99777ZM11 10V9H12V10H11ZM13 10V9H14V10H13ZM15.668 11.8945C15.5046 11.2807 15.7456 10.6306 16.2695 10.2715C16.9021 10.3216 17.4347 10.7642 17.5996 11.377C17.678 11.6699 17.6657 11.9798 17.5645 12.2656C17.8137 12.0935 18.1092 12.0009 18.4121 12C19.047 12.0009 19.6126 12.4014 19.8242 13C19.6126 13.5986 19.047 13.9991 18.4121 14C17.7772 13.9991 17.2116 13.5986 17 13C16.3667 12.9507 15.8331 12.5079 15.668 11.8945ZM17 13C17 16.3137 14.3137 18 11 18C7.68629 18 5 16.3137 5 13H17ZM8 12V11H9V12H8ZM10 12V11H11V12H10ZM12 12V11H13V12H12ZM14 12V11H15V12H14ZM8 14.5C8 14.2239 7.77614 14 7.5 14C7.22386 14 7 14.2239 7 14.5C7 14.7761 7.22386 15 7.5 15C7.77614 15 8 14.7761 8 14.5Z" fill="url(#paint1_linear_97_121)"/>
<defs>
<linearGradient id="paint0_linear_97_121" x1="1.04307" y1="4.00369" x2="7.85885" y2="13.5384" gradientUnits="userSpaceOnUse">
<stop stop-color="#0084C8"/>
<stop offset="1" stop-color="#23B4FF"/>
</linearGradient>
<linearGradient id="paint1_linear_97_121" x1="1.05641" y1="10.5819" x2="15.7628" y2="23.6937" gradientUnits="userSpaceOnUse">
<stop stop-color="#0084C8"/>
<stop offset="1" stop-color="#23B4FF"/>
</linearGradient>
</defs>
</svg>
