<svg width="24" height="24" viewBox="0 0 24 24" fill="none" xmlns="http://www.w3.org/2000/svg">
<path opacity="0.4" d="M17.3729 4.42633H14.1355C13.329 4.43166 12.5633 4.07291 12.0522 3.45026L10.9861 1.97639C10.4836 1.34827 9.7179 0.987839 8.9126 1.00031H6.62392C2.51602 1.00031 1.00001 3.41121 1.00001 7.51072L1 10C0.994891 10.4873 9.49859 6.98671 9.5 6.5L11.9968 5.65368C13 6 19.5 5 17.3729 4.42633Z" fill="url(#paint0_linear_11_173)"/>
<path fill-rule="evenodd" clip-rule="evenodd" d="M21.7153 5.99783C22.0673 6.40932 22.3392 6.88266 22.5174 7.39361C22.8678 8.44376 23.03 9.54734 22.9966 10.6537V16.432C22.9952 16.9188 22.9592 17.4048 22.889 17.8864C22.7553 18.7364 22.4563 19.5521 22.0088 20.2875C21.8031 20.6428 21.5533 20.9707 21.2654 21.2636C19.9621 22.4598 18.2315 23.0824 16.4632 22.9913H7.52367C5.75254 23.0817 4.01908 22.4594 2.71161 21.2636C2.42714 20.9702 2.1807 20.6422 1.97806 20.2875C1.53323 19.5526 1.24056 18.7361 1.11737 17.8864C1.03904 17.4056 0.999788 16.9192 1 16.432V10.6537C0.99981 10.1711 1.02593 9.68886 1.07825 9.20911C1.08925 9.12494 1.10575 9.04213 1.12208 8.96019C1.1493 8.82359 1.17605 8.68936 1.17605 8.55514C1.27534 7.97618 1.45645 7.41422 1.71399 6.88605C2.47688 5.25601 4.04177 4.42635 6.6043 4.42635H17.363C18.7982 4.31535 20.2228 4.74742 21.3535 5.63668C21.4837 5.7471 21.6047 5.86788 21.7153 5.99783ZM16.4924 14.9708L16.4983 13.5705L16.4983 13.5691C16.5048 11.9357 16.5081 11.1192 16.1837 10.4993C15.9278 10.0096 15.5342 9.60765 15.0526 9.34441C14.4435 9.01197 13.6365 9.00859 12.0244 9.00186L12.0218 9.00184C10.4064 8.99478 9.59882 8.99158 8.98629 9.32006C8.50305 9.57896 8.10643 9.97701 7.84653 10.4639C7.56448 10.9931 7.52146 11.6685 7.5108 12.8775L7.50713 13.5337L7.50189 14.9338C7.49474 16.5683 7.4914 17.3851 7.8159 18.0051C8.07181 18.4946 8.46536 18.8963 8.94677 19.1593C9.55558 19.4922 10.3619 19.4958 11.9724 19.503L11.9786 19.5031C13.4334 19.5088 14.2332 19.5119 14.8252 19.2722C14.8899 19.2462 14.9525 19.2172 15.0133 19.1844C15.4965 18.9253 15.8931 18.527 16.1529 18.0398C16.4817 17.4235 16.4853 16.6074 16.4924 14.9771L16.4924 14.9708ZM9.83918 14.4981C9.81282 14.5617 9.7991 14.63 9.7988 14.6989C9.79832 14.8381 9.8526 14.9724 9.94939 15.0712C10.0462 15.17 10.1778 15.2258 10.3152 15.2265L13.7734 15.2408C13.8428 15.2432 13.9119 15.2315 13.9767 15.2064C14.0416 15.1812 14.1007 15.1432 14.1508 15.0945C14.2008 15.0458 14.2407 14.9874 14.268 14.9228C14.2953 14.8583 14.3096 14.7888 14.3099 14.7185C14.3103 14.6483 14.2967 14.5786 14.2699 14.5138C14.2432 14.449 14.2039 14.3902 14.1543 14.341C14.1047 14.2919 14.0459 14.2532 13.9813 14.2275C13.9168 14.2017 13.8477 14.1894 13.7783 14.1911L10.32 14.1762C10.2519 14.1759 10.1843 14.1891 10.1213 14.2152C10.0582 14.2413 10.0008 14.2797 9.95241 14.3283C9.90401 14.3768 9.86553 14.4345 9.83918 14.4981ZM9.94405 16.4289C9.84645 16.5269 9.79127 16.6601 9.79062 16.7992C9.79029 16.8682 9.80339 16.9365 9.82917 17.0004C9.85495 17.0642 9.8929 17.1223 9.94085 17.1713C9.98881 17.2203 10.0458 17.2592 10.1087 17.2859C10.1715 17.3126 10.2389 17.3265 10.307 17.3268L12.3819 17.3351C12.4515 17.3378 12.5209 17.3264 12.586 17.3014C12.6511 17.2764 12.7106 17.2384 12.7609 17.1896C12.8112 17.1409 12.8513 17.0823 12.8788 17.0176C12.9062 16.9528 12.9206 16.8831 12.9208 16.8126C12.9211 16.7421 12.9074 16.6722 12.8804 16.6072C12.8535 16.5422 12.8139 16.4834 12.764 16.4342C12.7141 16.385 12.6549 16.3465 12.59 16.321C12.5251 16.2955 12.4558 16.2834 12.3861 16.2856L10.3111 16.2766C10.1737 16.2761 10.0416 16.3309 9.94405 16.4289Z" fill="url(#paint1_linear_11_173)"/>
<defs>
<linearGradient id="paint0_linear_11_173" x1="9.3989" y1="10.0464" x2="9.3989" y2="1" gradientUnits="userSpaceOnUse">
<stop stop-color="#5570FF"/>
<stop offset="1" stop-color="#4DD3FF"/>
</linearGradient>
<linearGradient id="paint1_linear_11_173" x1="12.0004" y1="23" x2="12.0004" y2="4.40924" gradientUnits="userSpaceOnUse">
<stop stop-color="#5570FF"/>
<stop offset="1" stop-color="#4DD3FF"/>
</linearGradient>
</defs>
</svg>
