<svg width="24" height="24" viewBox="0 0 24 24" fill="none" xmlns="http://www.w3.org/2000/svg">
<path opacity="0.4" d="M17.3729 4.42633H14.1355C13.329 4.43166 12.5633 4.07291 12.0522 3.45026L10.9861 1.97639C10.4836 1.34827 9.7179 0.987839 8.9126 1.00031H6.62392C2.51602 1.00031 1.00001 3.41121 1.00001 7.51072L1 10C0.994891 10.4873 9.49859 6.98671 9.5 6.5L11.9968 5.65368C13 6 19.5 5 17.3729 4.42633Z" fill="url(#paint0_linear_97_121)"/>
<path d="M22.5174 7.39355C22.3392 6.8826 22.0673 6.40925 21.7153 5.99777C21.6047 5.86782 21.4837 5.74704 21.3535 5.63662C20.2228 4.74736 18.7982 4.31529 17.363 4.42629H6.6043C4.04177 4.42629 2.47688 5.25595 1.71399 6.88599C1.45645 7.41416 1.27534 7.97612 1.17605 8.55508C1.17605 8.76981 1.10759 8.98455 1.07825 9.20905C1.02593 9.6888 0.99981 10.171 1 10.6536V16.432C0.999788 16.9191 1.03904 17.4055 1.11737 17.8863C1.24056 18.7361 1.53323 19.5526 1.97806 20.2875C2.1807 20.6422 2.42714 20.9701 2.71161 21.2635C4.01908 22.4593 5.75254 23.0817 7.52367 22.9912H16.4632C18.2315 23.0823 19.9621 22.4597 21.2654 21.2635C21.5533 20.9707 21.8031 20.6427 22.0088 20.2875C22.4563 19.552 22.7553 18.7363 22.889 17.8863C22.9592 17.4047 22.9952 16.9187 22.9966 16.432V10.6536C23.03 9.54728 22.8678 8.4437 22.5174 7.39355Z" fill="url(#paint1_linear_97_121)"/>
<path d="M11.9993 9C10.6074 9.00279 9.26191 9.50702 8.19145 10.4224C8.09418 10.5056 8.08695 10.6536 8.17592 10.7457L8.72075 11.3108C8.80124 11.3943 8.93262 11.4018 9.02225 11.3279C9.86713 10.6311 10.9161 10.2483 11.9997 10.2453C13.2737 10.2453 14.4953 10.7701 15.3962 11.7042C16.2484 12.5881 16.7474 13.7697 16.7987 15.0134C16.8035 15.1327 16.9017 15.2266 17.0209 15.2266H17.7777C17.9034 15.2266 18.0044 15.1222 17.9999 14.9963C17.944 13.4287 17.319 11.9371 16.2454 10.8238C15.1193 9.65606 13.5916 9.00005 11.9993 9Z" fill="url(#paint2_linear_97_121)"/>
<path d="M6.79985 12.8405C6.68722 12.7236 6.49146 12.7629 6.43255 12.9141C6.17433 13.5767 6.02799 14.281 6.00017 14.9957C5.99527 15.1217 6.09618 15.2266 6.22239 15.2266H6.97898C7.098 15.2266 7.19592 15.1331 7.20114 15.0141C7.22118 14.558 7.30161 14.1067 7.44022 13.6732C7.46512 13.5951 7.44525 13.51 7.38849 13.451L6.79985 12.8405Z" fill="url(#paint3_linear_97_121)"/>
<path d="M11.9993 9C10.6074 9.00279 9.26191 9.50702 8.19145 10.4224C8.09418 10.5056 8.08695 10.6536 8.17592 10.7457L8.72075 11.3108C8.80124 11.3943 8.93262 11.4018 9.02225 11.3279C9.86713 10.6311 10.9161 10.2483 11.9997 10.2453C13.2737 10.2453 14.4953 10.7701 15.3962 11.7042C16.2484 12.5881 16.7474 13.7697 16.7987 15.0134C16.8035 15.1327 16.9017 15.2266 17.0209 15.2266H17.7777C17.9034 15.2266 18.0044 15.1222 17.9999 14.9963C17.944 13.4287 17.319 11.9371 16.2454 10.8238C15.1193 9.65606 13.5916 9.00005 11.9993 9Z" fill="url(#paint4_linear_97_121)"/>
<path d="M7.38849 13.451C7.44525 13.51 7.46512 13.5951 7.44022 13.6732C7.30161 14.1067 7.22118 14.558 7.20114 15.0141C7.19592 15.1331 7.098 15.2266 6.97898 15.2266H6.22239C6.09618 15.2266 5.99527 15.1217 6.00017 14.9957C6.02799 14.281 6.17433 13.5767 6.43255 12.9141C6.49146 12.7629 6.68722 12.7236 6.79985 12.8405L7.38849 13.451Z" fill="url(#paint5_linear_97_121)"/>
<path fill-rule="evenodd" clip-rule="evenodd" d="M13.309 12.6272C13.0321 12.5558 12.7439 12.6949 12.628 12.9568ZM12.628 12.9568L10.5405 17.6622C10.351 17.8865 10.2191 18.1524 10.1567 18.438L10.1564 18.4392L10.1553 18.4447C10.1542 18.4496 10.1533 18.4545 10.1525 18.4595L10.1409 18.529C10.0018 19.3739 10.4825 20.1998 11.3019 20.4015C12.115 20.6008 12.9295 20.1031 13.2222 19.3094C13.2302 19.2883 13.2669 19.1764 13.2704 19.1577C13.2733 19.149 13.2704 19.1577 13.2779 19.1311L13.2704 19.1577C13.3126 18.9831 13.339 18.7684 13.3286 18.5898C13.3261 18.5478 13.3235 18.5092 13.321 18.473C13.3129 18.3539 13.3067 18.2618 13.3151 18.1654L13.7458 13.2447C13.7705 12.9602 13.586 12.6987 13.309 12.6272" fill="url(#paint6_linear_97_121)"/>
<defs>
<linearGradient id="paint0_linear_97_121" x1="17.748" y1="1.05735" x2="10.22" y2="14.9194" gradientUnits="userSpaceOnUse">
<stop stop-color="#FE7970"/>
<stop offset="1" stop-color="#DC3282"/>
</linearGradient>
<linearGradient id="paint1_linear_97_121" x1="22.9357" y1="4.52704" x2="4.72511" y2="25.8986" gradientUnits="userSpaceOnUse">
<stop stop-color="#FE7970"/>
<stop offset="1" stop-color="#DC3282"/>
</linearGradient>
<linearGradient id="paint2_linear_97_121" x1="12" y1="20.4455" x2="12" y2="9" gradientUnits="userSpaceOnUse">
<stop stop-color="#FFC2CC"/>
<stop offset="1" stop-color="#FFF2F4"/>
</linearGradient>
<linearGradient id="paint3_linear_97_121" x1="12" y1="20.4455" x2="12" y2="9" gradientUnits="userSpaceOnUse">
<stop stop-color="#FFC2CC"/>
<stop offset="1" stop-color="#FFF2F4"/>
</linearGradient>
<linearGradient id="paint4_linear_97_121" x1="12" y1="20.4455" x2="12" y2="9" gradientUnits="userSpaceOnUse">
<stop stop-color="#FFC2CC"/>
<stop offset="1" stop-color="#FFF2F4"/>
</linearGradient>
<linearGradient id="paint5_linear_97_121" x1="12" y1="20.4455" x2="12" y2="9" gradientUnits="userSpaceOnUse">
<stop stop-color="#FFC2CC"/>
<stop offset="1" stop-color="#FFF2F4"/>
</linearGradient>
<linearGradient id="paint6_linear_97_121" x1="12" y1="20.4455" x2="12" y2="9" gradientUnits="userSpaceOnUse">
<stop stop-color="#FFC2CC"/>
<stop offset="1" stop-color="#FFF2F4"/>
</linearGradient>
</defs>
</svg>
