<svg width="24" height="24" viewBox="0 0 24 24" fill="none" xmlns="http://www.w3.org/2000/svg">
<path opacity="0.4" d="M17.3729 4.42633H14.1355C13.329 4.43166 12.5633 4.07291 12.0522 3.45026L10.9861 1.97639C10.4836 1.34827 9.7179 0.987839 8.9126 1.00031H6.62392C2.51602 1.00031 1.00001 3.41121 1.00001 7.51072L1 10C0.994891 10.4873 9.49859 6.98671 9.5 6.5L11.9968 5.65368C13 6 19.5 5 17.3729 4.42633Z" fill="url(#paint0_radial_11_173)"/>
<path fill-rule="evenodd" clip-rule="evenodd" d="M21.7153 5.99783C22.0673 6.40932 22.3392 6.88266 22.5174 7.39361C22.8678 8.44376 23.03 9.54734 22.9966 10.6537V16.432C22.9952 16.9188 22.9592 17.4048 22.889 17.8864C22.7553 18.7364 22.4562 19.5521 22.0088 20.2875C21.8031 20.6428 21.5533 20.9707 21.2654 21.2636C19.9621 22.4598 18.2315 23.0824 16.4632 22.9913H7.52367C5.75254 23.0817 4.01908 22.4594 2.71161 21.2636C2.42714 20.9702 2.1807 20.6422 1.97806 20.2875C1.53322 19.5526 1.24056 18.7361 1.11737 17.8864C1.03904 17.4056 0.999787 16.9192 1 16.432V10.6537C0.999809 10.1711 1.02593 9.68886 1.07825 9.20911C1.08925 9.12494 1.10575 9.04213 1.12208 8.96019C1.1493 8.82359 1.17605 8.68936 1.17605 8.55514C1.27534 7.97618 1.45645 7.41422 1.71399 6.88605C2.47687 5.25601 4.04177 4.42635 6.60429 4.42635H17.363C18.7982 4.31535 20.2228 4.74742 21.3535 5.63668C21.4837 5.7471 21.6047 5.86788 21.7153 5.99783ZM11.1999 10.6804L10.8988 10.4674C10.4689 10.1632 9.95537 9.99995 9.42885 10H9.06167C8.81868 10 8.5739 10.015 8.34531 10.096C6.9156 10.6036 5.93225 12.4569 6.00365 16.6614C6.01805 17.5086 6.21604 18.4445 6.98039 18.8099C7.24113 18.9352 7.52683 19.0001 7.81614 18.9995C8.14132 19.0048 8.46078 18.9136 8.73409 18.7373C8.98007 18.5765 9.19606 18.3677 9.41204 18.1589L9.41205 18.1589C9.67843 17.9009 9.94482 17.643 10.2664 17.4762C10.6168 17.2945 11.0057 17.1996 11.4003 17.1996H12.5997C12.9944 17.1996 13.3832 17.2944 13.7336 17.4756C14.0539 17.6423 14.3194 17.8989 14.5853 18.1558L14.5885 18.1589L14.5886 18.1589C14.8045 18.3677 15.0205 18.5765 15.2653 18.7373C15.4993 18.8909 15.8023 18.9995 16.1839 18.9995C16.4732 19.0001 16.7589 18.9352 17.0196 18.8099C17.784 18.4445 17.9819 17.508 17.9963 16.6614C18.0677 12.4569 17.0844 10.6036 15.6547 10.0966C15.4255 10.015 15.1795 10 14.9377 10H14.5705C14.0439 10.0001 13.5304 10.1636 13.1006 10.468L12.7994 10.6804C12.5656 10.8458 12.2862 10.9347 11.9997 10.9347C11.7132 10.9347 11.4338 10.8458 11.1999 10.6804ZM15.3025 12.1818C15.4445 12.1818 15.5807 12.2382 15.6812 12.3387C15.7816 12.4391 15.838 12.5753 15.838 12.7174C15.838 12.8594 15.7816 12.9956 15.6812 13.096C15.5807 13.1965 15.4445 13.2529 15.3025 13.2529C15.1604 13.2529 15.0242 13.1965 14.9238 13.096C14.8234 12.9956 14.7669 12.8594 14.7669 12.7174C14.7669 12.5753 14.8234 12.4391 14.9238 12.3387C15.0242 12.2382 15.1604 12.1818 15.3025 12.1818ZM8.69751 12.3603C8.83955 12.3603 8.97576 12.4168 9.0762 12.5172C9.17663 12.6176 9.23305 12.7538 9.23305 12.8959V13.4314H9.76859C9.91062 13.4314 10.0468 13.4878 10.1473 13.5883C10.2477 13.6887 10.3041 13.8249 10.3041 13.9669C10.3041 14.109 10.2477 14.2452 10.1473 14.3456C10.0468 14.4461 9.91062 14.5025 9.76859 14.5025H9.23305V15.038C9.23305 15.18 9.17663 15.3163 9.0762 15.4167C8.97576 15.5171 8.83955 15.5736 8.69751 15.5736C8.55548 15.5736 8.41926 15.5171 8.31883 15.4167C8.2184 15.3163 8.16198 15.18 8.16198 15.038V14.5025H7.62644C7.48441 14.5025 7.34819 14.4461 7.24776 14.3456C7.14733 14.2452 7.0909 14.109 7.0909 13.9669C7.0909 13.8249 7.14733 13.6887 7.24776 13.5883C7.34819 13.4878 7.48441 13.4314 7.62644 13.4314H8.16198V12.8959C8.16198 12.7538 8.2184 12.6176 8.31883 12.5172C8.41926 12.4168 8.55548 12.3603 8.69751 12.3603ZM16.9091 13.7884C16.9091 13.9305 16.8527 14.0667 16.7522 14.1671C16.6518 14.2675 16.5156 14.324 16.3735 14.324C16.2315 14.324 16.0953 14.2675 15.9949 14.1671C15.8944 14.0667 15.838 13.9305 15.838 13.7884C15.838 13.6464 15.8944 13.5102 15.9949 13.4097C16.0953 13.3093 16.2315 13.2529 16.3735 13.2529C16.5156 13.2529 16.6518 13.3093 16.7522 13.4097C16.8527 13.5102 16.9091 13.6464 16.9091 13.7884ZM14.2314 14.324C14.3734 14.324 14.5096 14.2675 14.6101 14.1671C14.7105 14.0667 14.7669 13.9305 14.7669 13.7884C14.7669 13.6464 14.7105 13.5102 14.6101 13.4097C14.5096 13.3093 14.3734 13.2529 14.2314 13.2529C14.0894 13.2529 13.9531 13.3093 13.8527 13.4097C13.7523 13.5102 13.6959 13.6464 13.6959 13.7884C13.6959 13.9305 13.7523 14.0667 13.8527 14.1671C13.9531 14.2675 14.0894 14.324 14.2314 14.324ZM15.838 14.8595C15.838 14.7175 15.7816 14.5813 15.6812 14.4808C15.5807 14.3804 15.4445 14.324 15.3025 14.324C15.1604 14.324 15.0242 14.3804 14.9238 14.4808C14.8234 14.5813 14.7669 14.7175 14.7669 14.8595C14.7669 15.0015 14.8234 15.1378 14.9238 15.2382C15.0242 15.3386 15.1604 15.395 15.3025 15.395C15.4445 15.395 15.5807 15.3386 15.6812 15.2382C15.7816 15.1378 15.838 15.0015 15.838 14.8595Z" fill="url(#paint1_radial_11_173)"/>
<defs>
<radialGradient id="paint0_radial_11_173" cx="0" cy="0" r="1" gradientUnits="userSpaceOnUse" gradientTransform="translate(11.3694 0.387229) rotate(78.5501) scale(9.92698 12.1456)">
<stop stop-color="#FFF44F"/>
<stop offset="0.06" stop-color="#FFE847"/>
<stop offset="0.168" stop-color="#FFC830"/>
<stop offset="0.304" stop-color="#FF980E"/>
<stop offset="0.356" stop-color="#FF8B16"/>
<stop offset="0.455" stop-color="#FF672A"/>
<stop offset="0.57" stop-color="#FF3647"/>
<stop offset="0.737" stop-color="#E31587"/>
</radialGradient>
<radialGradient id="paint1_radial_11_173" cx="0" cy="0" r="1" gradientUnits="userSpaceOnUse" gradientTransform="translate(37.5 -2.5) rotate(150.408) scale(46.5752 37.1882)">
<stop stop-color="#FFF44F"/>
<stop offset="0.06" stop-color="#FFE847"/>
<stop offset="0.168" stop-color="#FFC830"/>
<stop offset="0.304" stop-color="#FF980E"/>
<stop offset="0.356" stop-color="#FF8B16"/>
<stop offset="0.455" stop-color="#FF672A"/>
<stop offset="0.57" stop-color="#FF3647"/>
<stop offset="0.737" stop-color="#E31587"/>
</radialGradient>
</defs>
</svg>
