<svg width="24" height="24" viewBox="0 0 24 24" fill="none" xmlns="http://www.w3.org/2000/svg">
<path opacity="0.4" d="M17.3729 4.42633H14.1355C13.329 4.43166 12.5633 4.07291 12.0522 3.45026L10.9861 1.97639C10.4836 1.34827 9.7179 0.987839 8.9126 1.00031H6.62392C2.51602 1.00031 1.00001 3.41121 1.00001 7.51072L1 10C0.994891 10.4873 9.49859 6.98671 9.5 6.5L11.9968 5.65368C13 6 19.5 5 17.3729 4.42633Z" fill="url(#paint0_linear_11_173)"/>
<path fill-rule="evenodd" clip-rule="evenodd" d="M22.5174 7.39361C22.3392 6.88266 22.0673 6.40932 21.7153 5.99783C21.6047 5.86788 21.4837 5.7471 21.3535 5.63668C20.2228 4.74742 18.7982 4.31535 17.363 4.42635H6.60429C4.04177 4.42635 2.47687 5.25601 1.71399 6.88605C1.45645 7.41422 1.27534 7.97618 1.17605 8.55514C1.17605 8.68936 1.1493 8.82359 1.12208 8.96019C1.10575 9.04213 1.08925 9.12494 1.07825 9.20911C1.02593 9.68886 0.999809 10.1711 1 10.6537V16.432C0.999787 16.9192 1.03904 17.4056 1.11737 17.8864C1.24056 18.7361 1.53322 19.5526 1.97806 20.2875C2.1807 20.6422 2.42714 20.9702 2.71161 21.2636C4.01908 22.4594 5.75254 23.0817 7.52367 22.9913H16.4632C18.2315 23.0824 19.9621 22.4598 21.2654 21.2636C21.5533 20.9707 21.8031 20.6428 22.0088 20.2875C22.4562 19.5521 22.7553 18.7364 22.889 17.8864C22.9592 17.4048 22.9952 16.9188 22.9966 16.432V10.6537C23.03 9.54734 22.8678 8.44376 22.5174 7.39361ZM8.50001 17.8571H11.5V18.8571H9.50001C9.36741 18.8571 9.24023 18.9098 9.14646 19.0036C9.05269 19.0974 9.00001 19.2245 9.00001 19.3571C9.00001 19.4897 9.05269 19.6169 9.14646 19.7107C9.24023 19.8045 9.36741 19.8571 9.50001 19.8571H14.5C14.6326 19.8571 14.7598 19.8045 14.8536 19.7107C14.9473 19.6169 15 19.4897 15 19.3571C15 19.2245 14.9473 19.0974 14.8536 19.0036C14.7598 18.9098 14.6326 18.8571 14.5 18.8571H12.5V17.8571H15.5C16.0761 17.8564 16.6344 17.6571 17.0806 17.2928C17.5269 16.9285 17.834 16.4214 17.95 15.8571H6.05001C6.16606 16.4214 6.4731 16.9285 6.91939 17.2928C7.36567 17.6571 7.92391 17.8564 8.50001 17.8571ZM8.5 9H15.5C16.1628 9.00079 16.7982 9.26444 17.2669 9.73311C17.7356 10.2018 17.9992 10.8372 18 11.5V15H6V11.5C6.00079 10.8372 6.26444 10.2018 6.73311 9.73311C7.20178 9.26444 7.8372 9.00079 8.5 9Z" fill="url(#paint1_linear_11_173)"/>
<defs>
<linearGradient id="paint0_linear_11_173" x1="0.7572" y1="1.08902" x2="8.41687" y2="15.747" gradientUnits="userSpaceOnUse">
<stop stop-color="#F9D423"/>
<stop offset="0.515624" stop-color="#FF4E50"/>
<stop offset="0.991304" stop-color="#8A2387"/>
</linearGradient>
<linearGradient id="paint1_linear_11_173" x1="0.681993" y1="4.59217" x2="19.4844" y2="27.5242" gradientUnits="userSpaceOnUse">
<stop stop-color="#F9D423"/>
<stop offset="0.515624" stop-color="#FF4E50"/>
<stop offset="0.991304" stop-color="#8A2387"/>
</linearGradient>
</defs>
</svg>
