<svg width="32" height="32" viewBox="0 0 32 32" fill="none" xmlns="http://www.w3.org/2000/svg">
<path d="M16 22C19.3137 22 22 19.3137 22 16C22 12.6863 19.3137 10 16 10C12.6863 10 10 12.6863 10 16C10 19.3137 12.6863 22 16 22Z" fill="url(#paint0_linear_711_129)"/>
<g opacity="0.4">
<path d="M5.5 1C3.02878 1 1 3.02878 1 5.5V8.2C1 9.1941 1.80589 10 2.8 10H3.53334C4.52744 10 5.33334 9.19411 5.33334 8.2V5.51779C5.33392 5.51101 5.33524 5.49846 5.33796 5.48211C5.34528 5.43823 5.35804 5.395 5.3736 5.36388C5.37922 5.35264 5.38954 5.34463 5.40182 5.34193C5.42149 5.33761 5.45297 5.33334 5.5 5.33334H8.2C9.19411 5.33334 10 4.52744 10 3.53334V2.8C10 1.80589 9.1941 1 8.2 1H5.5Z" fill="url(#paint1_linear_711_129)"/>
<path d="M14.4667 1C13.4726 1 12.6667 1.8059 12.6667 2.8V3.53334C12.6667 4.52744 13.4726 5.33334 14.4667 5.33334H17.5333C18.5274 5.33334 19.3333 4.52744 19.3333 3.53334V2.8C19.3333 1.8059 18.5274 1 17.5333 1H14.4667Z" fill="url(#paint2_linear_711_129)"/>
<path d="M23.8 1C22.8059 1 22 1.80588 22 2.8V3.53334C22 4.52746 22.8059 5.33334 23.8 5.33334H26.4822C26.489 5.33392 26.5015 5.33524 26.5179 5.33796C26.5617 5.34527 26.605 5.35804 26.6361 5.37359C26.6473 5.37921 26.6553 5.38952 26.658 5.40179C26.6623 5.42145 26.6666 5.45295 26.6666 5.5V8.2C26.6666 9.19412 27.4725 10 28.4666 10H29.2C30.1941 10 31 9.19412 31 8.2V5.5C31 3.0286 28.9701 1 26.5 1H23.8Z" fill="url(#paint3_linear_711_129)"/>
<path d="M2.8 12.6665C1.8059 12.6665 1 13.4724 1 14.4665V17.5331C1 18.5272 1.8059 19.3331 2.8 19.3331H3.53334C4.52744 19.3331 5.33334 18.5272 5.33334 17.5331V14.4665C5.33334 13.4724 4.52744 12.6665 3.53334 12.6665H2.8Z" fill="url(#paint4_linear_711_129)"/>
<path d="M28.4666 12.6665C27.4725 12.6665 26.6666 13.4723 26.6666 14.4665V17.5331C26.6666 18.5273 27.4725 19.3331 28.4666 19.3331H29.2C30.1941 19.3331 31 18.5273 31 17.5331V14.4665C31 13.4723 30.1941 12.6665 29.2 12.6665H28.4666Z" fill="url(#paint5_linear_711_129)"/>
<path d="M2.8 22C1.80588 22 1 22.8059 1 23.8V26.5C1 28.9701 3.0286 31 5.5 31H8.2C9.19412 31 10 30.1941 10 29.2V28.4666C10 27.4725 9.19412 26.6666 8.2 26.6666H5.51778C5.51099 26.666 5.49845 26.6647 5.4821 26.662C5.43821 26.6547 5.39499 26.6419 5.36386 26.6263C5.35262 26.6207 5.34462 26.6104 5.34192 26.5981C5.33761 26.5785 5.33334 26.547 5.33334 26.5V23.8C5.33334 22.8059 4.52746 22 3.53334 22H2.8Z" fill="url(#paint6_linear_711_129)"/>
<path d="M28.4666 22C27.4725 22 26.6666 22.8059 26.6666 23.8V26.4822C26.666 26.489 26.6647 26.5015 26.662 26.5179C26.6547 26.5618 26.6419 26.605 26.6263 26.6361C26.6207 26.6473 26.6104 26.6553 26.5982 26.658C26.5785 26.6623 26.547 26.6666 26.5 26.6666H23.8C22.8059 26.6666 22 27.4725 22 28.4666V29.2C22 30.1941 22.8059 31 23.8 31H26.5C28.9703 31 31 28.9703 31 26.5V23.8C31 22.8059 30.1941 22 29.2 22H28.4666Z" fill="url(#paint7_linear_711_129)"/>
<path d="M14.4667 26.6665C13.4725 26.6665 12.6667 27.4724 12.6667 28.4665V29.1999C12.6667 30.194 13.4725 30.9999 14.4667 30.9999H17.5333C18.5275 30.9999 19.3333 30.194 19.3333 29.1999V28.4665C19.3333 27.4724 18.5275 26.6665 17.5333 26.6665H14.4667Z" fill="url(#paint8_linear_711_129)"/>
</g>
<defs>
<linearGradient id="paint0_linear_711_129" x1="10" y1="16" x2="22" y2="16" gradientUnits="userSpaceOnUse">
<stop stop-color="#CDF97D"/>
<stop offset="1" stop-color="#A2EA99"/>
</linearGradient>
<linearGradient id="paint1_linear_711_129" x1="1" y1="5.5" x2="10" y2="5.5" gradientUnits="userSpaceOnUse">
<stop stop-color="#CDF97D"/>
<stop offset="1" stop-color="#A2EA99"/>
</linearGradient>
<linearGradient id="paint2_linear_711_129" x1="12.6667" y1="3.16667" x2="19.3334" y2="3.16667" gradientUnits="userSpaceOnUse">
<stop stop-color="#CDF97D"/>
<stop offset="1" stop-color="#A2EA99"/>
</linearGradient>
<linearGradient id="paint3_linear_711_129" x1="22" y1="5.5" x2="31" y2="5.5" gradientUnits="userSpaceOnUse">
<stop stop-color="#CDF97D"/>
<stop offset="1" stop-color="#A2EA99"/>
</linearGradient>
<linearGradient id="paint4_linear_711_129" x1="1" y1="15.9998" x2="5.33334" y2="15.9998" gradientUnits="userSpaceOnUse">
<stop stop-color="#CDF97D"/>
<stop offset="1" stop-color="#A2EA99"/>
</linearGradient>
<linearGradient id="paint5_linear_711_129" x1="26.6666" y1="15.9998" x2="31" y2="15.9998" gradientUnits="userSpaceOnUse">
<stop stop-color="#CDF97D"/>
<stop offset="1" stop-color="#A2EA99"/>
</linearGradient>
<linearGradient id="paint6_linear_711_129" x1="1" y1="26.5" x2="10" y2="26.5" gradientUnits="userSpaceOnUse">
<stop stop-color="#CDF97D"/>
<stop offset="1" stop-color="#A2EA99"/>
</linearGradient>
<linearGradient id="paint7_linear_711_129" x1="22" y1="26.5" x2="31" y2="26.5" gradientUnits="userSpaceOnUse">
<stop stop-color="#CDF97D"/>
<stop offset="1" stop-color="#A2EA99"/>
</linearGradient>
<linearGradient id="paint8_linear_711_129" x1="12.6667" y1="28.8332" x2="19.3334" y2="28.8332" gradientUnits="userSpaceOnUse">
<stop stop-color="#CDF97D"/>
<stop offset="1" stop-color="#A2EA99"/>
</linearGradient>
</defs>
</svg>
