<svg width="64" height="64" viewBox="0 0 64 64" fill="none" xmlns="http://www.w3.org/2000/svg">
<rect opacity="0.4" x="2" y="2.30322" width="60" height="59.3939" rx="10" fill="url(#paint0_linear_726_74)"/>
<path opacity="0.4" d="M33.2962 43.3315C45.75 48.274 49.9167 46.9662 62 43.7309V51.6969C62 57.2198 57.5228 61.6969 52 61.6969H12C6.47715 61.6969 2 57.2198 2 51.6969V41.3905C13.875 37.4669 21.8841 37.6353 33.2962 43.3315Z" fill="url(#paint1_linear_726_74)"/>
<path d="M18.875 22.2519C18.875 21.6997 19.3227 21.2519 19.875 21.2519H49.375C49.9273 21.2519 50.375 20.8042 50.375 20.2519V17.0019C50.375 16.4496 49.9273 16.0019 49.3751 16.0019L18.8784 16C16.25 15.999 13.625 18.6277 13.625 21.2526V41.2526C13.625 41.8049 13.1773 42.2527 12.625 42.2527H12C11.4477 42.2527 11 42.7004 11 43.2527V46.5027C11 47.0549 11.4477 47.5027 12 47.5027H33.625C34.1773 47.5027 34.625 47.0549 34.625 46.5027V43.2527C34.625 42.7004 34.1773 42.2527 33.625 42.2527H19.875C19.3227 42.2527 18.875 41.8049 18.875 41.2527V22.2519ZM50.375 26.5019H42.5C41.1875 26.5019 39.875 27.8144 39.875 29.1269V44.877C39.875 46.1894 41.1875 47.5019 42.5 47.5019H50.375C51.6875 47.5019 53 46.1894 53 44.877V29.1269C53 27.8144 51.6875 26.5019 50.375 26.5019ZM50.375 41.252C50.375 41.8043 49.9273 42.252 49.375 42.252H43.5C42.9477 42.252 42.5 41.8043 42.5 41.252V30.1269C42.5 29.5747 42.9477 29.1269 43.5 29.1269H49.375C49.9273 29.1269 50.375 29.5747 50.375 30.1269V41.252Z" fill="url(#paint2_linear_726_74)"/>
<defs>
<linearGradient id="paint0_linear_726_74" x1="32" y1="61.6971" x2="32" y2="5.79698" gradientUnits="userSpaceOnUse">
<stop stop-color="#18AEFA"/>
<stop offset="1" stop-color="#83E1FF"/>
</linearGradient>
<linearGradient id="paint1_linear_726_74" x1="32" y1="61.6969" x2="32" y2="40.0621" gradientUnits="userSpaceOnUse">
<stop stop-color="#18AEFA"/>
<stop offset="1" stop-color="#83E1FF"/>
</linearGradient>
<linearGradient id="paint2_linear_726_74" x1="49.7625" y1="16.5671" x2="22.4896" y2="54.2527" gradientUnits="userSpaceOnUse">
<stop stop-color="#15A6F0"/>
<stop offset="1" stop-color="#5AAFFF"/>
</linearGradient>
</defs>
</svg>
