<svg width="64" height="64" viewBox="0 0 64 64" fill="none" xmlns="http://www.w3.org/2000/svg">
<rect opacity="0.4" x="2" y="2.30322" width="60" height="59.3939" rx="10" fill="url(#paint0_linear_700_74)"/>
<path opacity="0.4" d="M33.2962 43.3315C45.75 48.274 49.9167 46.9662 62 43.7309V51.6969C62 57.2198 57.5228 61.6969 52 61.6969H12C6.47715 61.6969 2 57.2198 2 51.6969V41.3905C13.875 37.4669 21.8841 37.6353 33.2962 43.3315Z" fill="url(#paint1_linear_700_74)"/>
<path d="M30.7038 42.925C18.25 47.977 14.0833 46.6402 2 43.3333V51.6972C2 57.22 6.47715 61.6972 12 61.6972H52C57.5228 61.6972 62 57.22 62 51.6972V40.9411C50.125 36.9305 42.1159 37.1027 30.7038 42.925Z" fill="url(#paint2_linear_700_74)"/>
<path d="M42.6957 10.3924C44.3019 10.3924 45.9886 11.3788 45.9886 13.5848C45.4868 17.1596 44.0648 20.4868 41.8904 23.0835C39.1369 26.3716 35.4025 28.2188 31.5085 28.2188C27.6146 28.2188 23.8801 26.3716 21.1267 23.0835C18.9522 20.4868 17.5302 17.1596 17.0284 13.5848C16.7394 11.5264 18.7152 10.3924 20.3213 10.3924C22.2539 10.1567 23.0679 11.4725 23.5645 13.5682C23.9732 15.2932 24.3205 16.6376 25.2395 18.172C26.9022 20.1575 29.1572 21.2729 31.5085 21.2729C33.8598 21.2729 36.1148 20.1575 37.7775 18.172C38.8578 16.8819 39.0438 15.2932 39.4525 13.5682C39.7344 11.1566 41.0895 10.3924 42.6957 10.3924Z" fill="url(#paint3_linear_700_74)"/>
<defs>
<linearGradient id="paint0_linear_700_74" x1="46.4665" y1="43.0654" x2="12.1332" y2="11.5806" gradientUnits="userSpaceOnUse">
<stop stop-color="#731FFF"/>
<stop offset="0.905415" stop-color="#EB1AFF"/>
</linearGradient>
<linearGradient id="paint1_linear_700_74" x1="2" y1="61.6969" x2="14.6751" y2="28.2421" gradientUnits="userSpaceOnUse">
<stop stop-color="#731FFF"/>
<stop offset="0.905415" stop-color="#EB1AFF"/>
</linearGradient>
<linearGradient id="paint2_linear_700_74" x1="54.6454" y1="46.7485" x2="26.2431" y2="10.4978" gradientUnits="userSpaceOnUse">
<stop offset="0.118093" stop-color="#731FFF"/>
<stop offset="0.905415" stop-color="#EB1AFF"/>
</linearGradient>
<linearGradient id="paint3_linear_700_74" x1="71.3741" y1="32.1599" x2="36.864" y2="-6.08969" gradientUnits="userSpaceOnUse">
<stop stop-color="#731FFF"/>
<stop offset="0.905415" stop-color="#EB1AFF"/>
</linearGradient>
</defs>
</svg>
