<svg width="64" height="65" viewBox="0 0 64 65" fill="none" xmlns="http://www.w3.org/2000/svg">
<rect opacity="0.4" x="2" y="2.80322" width="60" height="59.3939" rx="10" fill="url(#paint0_linear_332_77)"/>
<path opacity="0.4" d="M33.2962 43.8315C45.75 48.774 49.9167 47.4662 62 44.2309V52.1969C62 57.7198 57.5228 62.1969 52 62.1969H12C6.47715 62.1969 2 57.7198 2 52.1969V41.8905C13.875 37.9669 21.8841 38.1353 33.2962 43.8315Z" fill="url(#paint1_linear_332_77)"/>
<path d="M30.7038 43.425C18.25 48.477 14.0833 47.1402 2 43.8333V52.1972C2 57.72 6.47715 62.1972 12 62.1972H52C57.5228 62.1972 62 57.72 62 52.1972V41.4411C50.125 37.4305 42.1159 37.6027 30.7038 43.425Z" fill="url(#paint2_linear_332_77)"/>
<path d="M42.2426 10.9379C43.8487 10.9379 45.5355 11.9242 45.5355 14.1302C45.0337 17.705 43.6117 21.0322 41.4372 23.6289C38.6838 26.917 34.9493 28.7642 31.0554 28.7642C27.1614 28.7642 23.427 26.917 20.6735 23.6289C18.4991 21.0322 17.0771 17.705 16.5753 14.1303C16.2863 12.0718 18.262 10.9379 19.8682 10.9379C21.8008 10.7021 22.6147 12.0179 23.1114 14.1137C23.5201 15.8386 23.8674 17.183 24.7864 18.7174C26.4491 20.7029 28.7041 21.8183 31.0554 21.8183C33.4067 21.8183 35.6617 20.7029 37.3244 18.7174C38.4047 17.4273 38.5907 15.8386 38.9994 14.1136C39.2813 11.702 40.6364 10.9379 42.2426 10.9379Z" fill="url(#paint3_linear_332_77)"/>
<defs>
<linearGradient id="paint0_linear_332_77" x1="54.752" y1="44.8507" x2="3.00694" y2="2.56559" gradientUnits="userSpaceOnUse">
<stop offset="0.133091" stop-color="#D2268F"/>
<stop offset="1" stop-color="#FBB62B"/>
</linearGradient>
<linearGradient id="paint1_linear_332_77" x1="3.40725" y1="62.1969" x2="15.9344" y2="26.364" gradientUnits="userSpaceOnUse">
<stop offset="0.133091" stop-color="#D2268F"/>
<stop offset="1" stop-color="#FBB62B"/>
</linearGradient>
<linearGradient id="paint2_linear_332_77" x1="57.2601" y1="56.863" x2="38.053" y2="17.6116" gradientUnits="userSpaceOnUse">
<stop offset="0.140012" stop-color="#D2268F"/>
<stop offset="1" stop-color="#FBB62B"/>
</linearGradient>
<linearGradient id="paint3_linear_332_77" x1="44.8556" y1="28.7642" x2="31.5163" y2="5.02872" gradientUnits="userSpaceOnUse">
<stop offset="0.133091" stop-color="#D2268F"/>
<stop offset="1" stop-color="#FBB62B"/>
</linearGradient>
</defs>
</svg>
