<svg width="64" height="64" viewBox="0 0 64 64" fill="none" xmlns="http://www.w3.org/2000/svg">
<path opacity="0.5" d="M48.3125 2H15.6875C8.1281 2 2 8.1281 2 15.6875V48.3125C2 55.8719 8.1281 62 15.6875 62H48.3125C55.8719 62 62 55.8719 62 48.3125V15.6875C62 8.1281 55.8719 2 48.3125 2Z" fill="url(#paint0_linear_706_74)"/>
<path fill-rule="evenodd" clip-rule="evenodd" d="M16.1448 50.392C16.7315 50.6349 17.3388 50.75 17.9367 50.75C19.7758 50.75 21.5213 49.6601 22.2689 47.8552C24.4455 42.6001 28.5385 38.5072 33.7938 36.3303C37.6171 34.7466 41.0177 32.4596 43.9012 29.5328C46.6847 26.7077 48.8685 23.4102 50.3921 19.732C51.3827 17.3405 50.247 14.5986 47.8553 13.608C45.4638 12.6175 42.7218 13.753 41.7312 16.1448C39.5546 21.3998 35.4616 25.4928 30.2063 27.6696C26.383 29.2533 22.9824 31.5403 20.0989 34.4671C17.3154 37.2922 15.1316 40.5897 13.608 44.2679C12.6174 46.6594 13.7531 49.4013 16.1448 50.392ZM37.3368 13.25C38.0882 13.25 38.5983 14.0138 38.3103 14.7078L38.3038 14.7236C37.0332 17.7913 34.9715 20.3798 32.339 22.2682C32.0115 22.5031 31.6164 22.625 31.2134 22.625H18.0147C15.4441 22.625 13.2935 20.5877 13.2507 18.0175C13.2069 15.392 15.322 13.25 17.9375 13.25H37.3368ZM50.7494 46.1425C50.7065 48.7127 48.5559 50.75 45.9854 50.75H26.6632C25.9118 50.75 25.4018 49.9861 25.6897 49.2921L25.6962 49.2764C26.9668 46.2087 29.0285 43.6201 31.6611 41.7317C31.9885 41.4968 32.3836 41.375 32.7866 41.375H46.0625C48.678 41.375 50.7932 43.517 50.7494 46.1425Z" fill="url(#paint1_linear_706_74)"/>
<defs>
<linearGradient id="paint0_linear_706_74" x1="56" y1="-1" x2="3.8" y2="57.8" gradientUnits="userSpaceOnUse">
<stop stop-color="#E7824D"/>
<stop offset="1" stop-color="#A500FF"/>
</linearGradient>
<linearGradient id="paint1_linear_706_74" x1="47.0001" y1="11.375" x2="14.3751" y2="48.1251" gradientUnits="userSpaceOnUse">
<stop stop-color="#E7824D"/>
<stop offset="1" stop-color="#A500FF"/>
</linearGradient>
</defs>
</svg>
