<svg width="24" height="24" viewBox="0 0 24 24" fill="none" xmlns="http://www.w3.org/2000/svg">
<path opacity="0.5" fill-rule="evenodd" clip-rule="evenodd" d="M2.545 8.73C2 9.8 2 11.2 2 14C2 16.8 2 18.2 2.545 19.27C3.02436 20.2108 3.78923 20.9756 4.73 21.455C5.8 22 7.2 22 10 22H14C16.8 22 18.2 22 19.27 21.455C20.2108 20.9756 20.9756 20.2108 21.455 19.27C22 18.2 22 16.8 22 14C22 11.2 22 9.8 21.455 8.73C20.9756 7.78923 20.2108 7.02436 19.27 6.545C18.2 6 16.8 6 14 6H10C7.2 6 5.8 6 4.73 6.545C3.78923 7.02436 3.02436 7.78923 2.545 8.73Z" fill="url(#paint0_linear_729_353)"/>
<path fill-rule="evenodd" clip-rule="evenodd" d="M20.5351 3.464C19.0701 2 16.7131 2 12.0001 2H11.9991C7.28506 2 4.92806 2 3.46306 3.464C2.70506 4.222 2.34006 5.218 2.16406 6.656V9.93472C2.2448 9.47167 2.36526 9.08289 2.545 8.73C3.02436 7.78923 3.78923 7.02436 4.73 6.545C5.8 6 7.2 6 10 6H14C16.8 6 18.2 6 19.27 6.545C20.2108 7.02436 20.9756 7.78923 21.455 8.73C21.6341 9.08161 21.7543 9.46886 21.8351 9.92971V6.656C21.6581 5.218 21.2921 4.222 20.5351 3.464Z" fill="url(#paint1_linear_729_353)"/>
<path d="M13.1616 14.8524C13.1616 15.4762 12.5639 15.9848 11.8308 15.9848C11.0977 15.9848 10.5 15.4762 10.5 14.8524V9.13236C10.5 8.50859 11.0977 8 11.8308 8C12.5639 8 13.1616 8.50859 13.1616 9.13236V14.8524Z" fill="url(#paint2_linear_729_353)"/>
<path d="M10.5 18.6578C10.5 17.9184 11.0913 17.3156 11.8157 17.3156C12.5612 17.3156 13.154 17.9184 13.154 18.6578C13.154 19.3972 12.5612 20 11.8308 20C11.0973 20 10.5 19.3972 10.5 18.6578Z" fill="url(#paint3_linear_729_353)"/>
<defs>
<linearGradient id="paint0_linear_729_353" x1="12" y1="22" x2="12" y2="6" gradientUnits="userSpaceOnUse">
<stop stop-color="#00B59C"/>
<stop offset="1" stop-color="#9CFFAC"/>
</linearGradient>
<linearGradient id="paint1_linear_729_353" x1="11.9996" y1="10" x2="11.9996" y2="2" gradientUnits="userSpaceOnUse">
<stop stop-color="#00B59C"/>
<stop offset="1" stop-color="#9CFFAC"/>
</linearGradient>
<linearGradient id="paint2_linear_729_353" x1="12" y1="22" x2="12" y2="6" gradientUnits="userSpaceOnUse">
<stop stop-color="#00B59C"/>
<stop offset="1" stop-color="#9CFFAC"/>
</linearGradient>
<linearGradient id="paint3_linear_729_353" x1="12" y1="22" x2="12" y2="6" gradientUnits="userSpaceOnUse">
<stop stop-color="#00B59C"/>
<stop offset="1" stop-color="#9CFFAC"/>
</linearGradient>
</defs>
</svg>
