<svg width="64" height="64" viewBox="0 0 64 64" fill="none" xmlns="http://www.w3.org/2000/svg">
<path opacity="0.4" d="M57 22.3925V48.25C56.996 51.8955 55.5461 55.3906 52.9683 57.9683C50.3905 60.5461 46.8955 61.996 43.25 62H20.75C17.1045 61.996 13.6094 60.5461 11.0317 57.9683C8.4539 55.3906 7.00397 51.8955 7 48.25V15.75C7.00397 12.1045 8.4539 8.60948 11.0317 6.03171C13.6094 3.45395 17.1045 2.00402 20.75 2.00005H36.6075C38.4139 1.99517 40.2033 2.34863 41.8721 3.03995C43.541 3.73127 45.0562 4.74673 46.33 6.02755L52.9725 12.67C54.2533 13.9438 55.2687 15.459 55.9601 17.1279C56.6514 18.7967 57.0048 20.5862 57 22.3925ZM49.5 48.25V24.5H39.5C38.1739 24.5 36.9021 23.9732 35.9644 23.0356C35.0268 22.0979 34.5 20.8261 34.5 19.5V9.50004H20.75C19.0924 9.50004 17.5027 10.1585 16.3306 11.3306C15.1585 12.5027 14.5 14.0924 14.5 15.75V48.25C14.5 49.9076 15.1585 51.4973 16.3306 52.6694C17.5027 53.8415 19.0924 54.5 20.75 54.5H43.25C44.9076 54.5 46.4973 53.8415 47.6694 52.6694C48.8415 51.4973 49.5 49.9076 49.5 48.25Z" fill="url(#paint0_linear_36_161)"/>
<path d="M31.2929 33.4898L28.4028 30.5976C28.0545 30.2493 27.6409 29.973 27.1858 29.7845C26.7306 29.5959 26.2429 29.4989 25.7503 29.4989C25.2576 29.4989 24.7698 29.5959 24.3147 29.7844C23.8596 29.9729 23.4461 30.2493 23.0978 30.5976C22.7495 30.9459 22.4732 31.3594 22.2846 31.8146C22.0961 32.2697 21.999 32.7574 21.9991 33.2501C21.999 33.7427 22.0961 34.2305 22.2846 34.6856C22.4732 35.1407 22.7495 35.5543 23.0978 35.9026L25.9899 38.7927C26.3808 39.1833 26.3808 39.8168 25.9899 40.2074L23.0977 43.0976C22.3943 43.801 21.999 44.7552 21.999 45.7501C21.9991 46.7449 22.3942 47.6991 23.0977 48.4026C23.8012 49.1061 24.7554 49.5012 25.7502 49.5013C26.7451 49.5013 27.6993 49.106 28.4027 48.4026L31.2929 45.5105C31.6835 45.1196 32.3171 45.1196 32.7076 45.5104L35.5978 48.4025C36.3013 49.106 37.2554 49.5012 38.2503 49.5012C39.2452 49.5012 40.1993 49.106 40.9028 48.4025C41.6062 47.6991 42.0015 46.7449 42.0015 45.75C42.0015 44.7551 41.6063 43.801 40.9028 43.0975L38.0106 40.2074C37.6198 39.8168 37.6197 39.1833 38.0106 38.7927L40.9028 35.9026C41.6063 35.1991 42.0015 34.245 42.0015 33.2501C42.0015 32.2552 41.6063 31.3011 40.9028 30.5976C40.1993 29.8941 39.2452 29.4989 38.2503 29.4989C37.2554 29.4989 36.3013 29.8941 35.5978 30.5976L32.7076 33.4897C32.317 33.8806 31.6835 33.8805 31.2929 33.4898Z" fill="url(#paint1_linear_36_161)"/>
<defs>
<linearGradient id="paint0_linear_36_161" x1="56.8519" y1="2.38037" x2="-1.60953" y2="50.6927" gradientUnits="userSpaceOnUse">
<stop stop-color="#FE7970"/>
<stop offset="1" stop-color="#DC3282"/>
</linearGradient>
<linearGradient id="paint1_linear_36_161" x1="32.0604" y1="21.8607" x2="31.9134" y2="57.042" gradientUnits="userSpaceOnUse">
<stop stop-color="#FE7970"/>
<stop offset="1" stop-color="#DC3282"/>
</linearGradient>
</defs>
</svg>
