<?xml version="1.0" encoding="UTF-8"?>
<svg xmlns="http://www.w3.org/2000/svg" xmlns:xlink="http://www.w3.org/1999/xlink" width="160px" height="160px" viewBox="0 0 160 160" version="1.1">
<g id="surface1">
<path style=" stroke:none;fill-rule:evenodd;fill:rgb(95.294118%,50.196078%,12.54902%);fill-opacity:1;" d="M 110.058594 112.214844 C 111.042969 108.839844 110.667969 105.742188 109.027344 103.445312 C 107.527344 101.335938 104.992188 100.113281 101.945312 99.972656 L 44.222656 99.226562 C 43.84375 99.226562 43.515625 99.035156 43.328125 98.753906 C 43.140625 98.472656 43.09375 98.097656 43.1875 97.722656 C 43.375 97.160156 43.9375 96.738281 44.546875 96.691406 L 102.789062 95.941406 C 109.683594 95.613281 117.1875 90.035156 119.8125 83.1875 L 123.140625 74.511719 C 123.28125 74.136719 123.328125 73.761719 123.234375 73.386719 C 119.484375 56.410156 104.335938 43.75 86.238281 43.75 C 69.542969 43.75 55.378906 54.535156 50.316406 69.492188 C 47.035156 67.054688 42.859375 65.742188 38.359375 66.164062 C 30.339844 66.960938 23.914062 73.386719 23.117188 81.40625 C 22.929688 83.46875 23.070312 85.484375 23.539062 87.359375 C 10.457031 87.734375 0 98.425781 0 111.605469 C 0 112.777344 0.09375 113.949219 0.234375 115.121094 C 0.328125 115.683594 0.796875 116.105469 1.359375 116.105469 L 107.902344 116.105469 C 108.511719 116.105469 109.074219 115.683594 109.261719 115.074219 Z M 110.058594 112.214844 "/>
<path style=" stroke:none;fill-rule:evenodd;fill:rgb(98.431373%,68.235294%,25.098039%);fill-opacity:1;" d="M 128.441406 75.121094 C 127.925781 75.121094 127.363281 75.121094 126.847656 75.167969 C 126.472656 75.167969 126.144531 75.449219 126.003906 75.824219 L 123.75 83.65625 C 122.765625 87.03125 123.140625 90.128906 124.78125 92.425781 C 126.285156 94.535156 128.816406 95.753906 131.863281 95.894531 L 144.148438 96.644531 C 144.523438 96.644531 144.855469 96.832031 145.042969 97.113281 C 145.230469 97.394531 145.277344 97.816406 145.183594 98.144531 C 144.996094 98.707031 144.429688 99.128906 143.820312 99.175781 L 131.019531 99.929688 C 124.078125 100.257812 116.625 105.835938 113.996094 112.683594 L 113.058594 115.074219 C 112.871094 115.542969 113.199219 116.011719 113.714844 116.011719 L 157.703125 116.011719 C 158.21875 116.011719 158.6875 115.683594 158.828125 115.167969 C 159.578125 112.449219 160 109.589844 160 106.632812 C 160 89.28125 145.839844 75.121094 128.441406 75.121094 Z M 128.441406 75.121094 "/>
</g>
</svg>
