<?xml version="1.0" encoding="UTF-8" standalone="no"?>
<svg
   version="1.1"
   width="128pt"
   height="128pt"
   viewBox="0 0 128 128"
   id="svg103"
   sodipodi:docname="icon-gray.svg"
   inkscape:version="1.1.2 (b8e25be833, 2022-02-05)"
   xmlns:inkscape="http://www.inkscape.org/namespaces/inkscape"
   xmlns:sodipodi="http://sodipodi.sourceforge.net/DTD/sodipodi-0.dtd"
   xmlns="http://www.w3.org/2000/svg"
   xmlns:svg="http://www.w3.org/2000/svg">
  <defs
     id="defs107" />
  <sodipodi:namedview
     id="namedview105"
     pagecolor="#ffffff"
     bordercolor="#666666"
     borderopacity="1.0"
     inkscape:pageshadow="2"
     inkscape:pageopacity="0.0"
     inkscape:pagecheckerboard="0"
     inkscape:document-units="pt"
     showgrid="false"
     inkscape:zoom="4.7285156"
     inkscape:cx="42.93102"
     inkscape:cy="85.333333"
     inkscape:window-width="1848"
     inkscape:window-height="1016"
     inkscape:window-x="72"
     inkscape:window-y="27"
     inkscape:window-maximized="1"
     inkscape:current-layer="g101" />
  <g
     enable-background="new"
     id="g101">
    <path
       d="M 88.04678 3.113716 C 88.83497 5.81477 88.53448 8.291107 87.221469 10.128948 C 86.02137 11.817104 83.99522 12.792858 81.55676 12.905403 L 35.37665 13.50526 C 35.07616 13.50526 34.813936 13.655697 34.663499 13.880409 C 34.51344 14.105499 34.475927 14.405991 34.550954 14.70573 C 34.70101 15.156281 35.151189 15.493538 35.638879 15.531425 L 82.23202 16.131287 C 87.746669 16.393887 93.749 20.858124 95.84982 26.335259 L 98.51337 33.27546 C 98.625919 33.575578 98.66342 33.875696 98.58877 34.17581 C 95.58759 47.756097 83.47 57.88504 68.989368 57.88504 C 55.63454 57.88504 44.304754 49.256685 40.25355 37.289899 C 37.62753 39.24028 34.288354 40.291067 30.687325 39.953058 C 24.271952 39.315309 19.132452 34.17581 18.495078 27.760813 C 18.344645 26.110169 18.457188 24.49704 18.832335 22.996457 C 8.366134 22.696339 0 14.143009 0 3.60178 C 0 2.663914 .075029 1.726051 .187573 .788189 C .262602 .338013 .637748 .000004 1.087924 .000004 L 86.32112 .000004 C 86.80881 .000004 87.25898 .338009 87.409038 .825325 L 88.04678 3.113716 Z "
       fill-rule="evenodd"
       id="path97"
       transform="matrix(1,0,0,-1,0,92.88504)"
       style="fill:#808080" />
    <path
       transform="matrix(1,0,0,-1,90.40521,92.80983)"
       d="M 12.347448 32.712739 C 11.934788 32.712739 11.484613 32.712739 11.071953 32.675226 C 10.771836 32.675226 10.509233 32.450136 10.396689 32.15002 L 8.595989 25.885079 C 7.808182 23.184025 8.108299 20.708062 9.42131 18.869847 C 10.621778 17.181689 12.647566 16.206309 15.086016 16.093764 L 24.914843 15.49353 C 25.21496 15.49353 25.477562 15.343472 25.62762 15.118385 C 25.77768 14.893297 25.815194 14.555666 25.740164 14.293062 C 25.590107 13.842888 25.13993 13.505257 24.65224 13.467741 L 14.410752 12.867508 C 8.858591 12.60453 2.893769 8.140667 .792951 2.663158 L .042659 .750288 C -.1074 .375141 .155203 -.000004 .567863 -.000004 L 35.75656 -.000004 C 36.169225 -.000004 36.54437 .262596 36.656915 .675259 C 37.25715 2.850731 37.59478 5.139498 37.59478 7.502918 C 37.59478 21.383326 26.265368 32.712739 12.347448 32.712739 "
       fill-rule="evenodd"
       id="path99"
       style="fill:#808080" />
  </g>
</svg>
