<svg width="16" height="16" viewBox="0 0 16 16" fill="none" xmlns="http://www.w3.org/2000/svg">
<path opacity="0.5" d="M4 0C3.446 0 3 0.446 3 1V5.6C3 5.82091 3.17909 6 3.4 6H4.6C4.82091 6 5 5.82091 5 5.6V2.4C5 2.17909 5.17909 2 5.4 2H10.6C10.8209 2 11 2.17909 11 2.4V12.6C11 12.8209 10.8209 13 10.6 13H7H5H3.4C3.17909 13 3 13.1791 3 13.4V15C3 15.554 3.446 16 4 16H12C12.554 16 13 15.554 13 15V1C13 0.446 12.554 0 12 0H4Z" fill="url(#paint0_linear_726_94)"/>
<path d="M1 7.2C1 7.08954 1.08954 7 1.2 7H2.2938C2.34587 7 2.39589 7.02031 2.43322 7.0566L3.35861 7.95628C3.43702 8.03252 3.56212 8.03163 3.63944 7.95431L4.53517 7.05858C4.57268 7.02107 4.62355 7 4.67659 7H5.8C5.91046 7 6 7.08954 6 7.2V8.3842C6 8.43825 5.97812 8.49 5.93936 8.52766L5.05393 9.38779C4.97307 9.46634 4.97307 9.59616 5.05393 9.67471L5.93936 10.5348C5.97812 10.5725 6 10.6242 6 10.6783V11.8C6 11.9105 5.91046 12 5.8 12H4.64534C4.5923 12 4.54143 11.9789 4.50392 11.9414L3.64142 11.0789C3.56332 11.0008 3.43668 11.0008 3.35858 11.0789L2.49608 11.9414C2.45857 11.9789 2.4077 12 2.35466 12H1.2C1.08954 12 1 11.9105 1 11.8V10.6766C1 10.6235 1.02107 10.5727 1.05858 10.5352L1.92108 9.67267C1.99918 9.59457 1.99918 9.46793 1.92108 9.38983L1.05858 8.52733C1.02107 8.48982 1 8.43895 1 8.38591V7.2Z" fill="url(#paint1_linear_726_94)"/>
<defs>
<linearGradient id="paint0_linear_726_94" x1="8" y1="16" x2="8" y2="0" gradientUnits="userSpaceOnUse">
<stop stop-color="#EC396C"/>
<stop offset="1" stop-color="#FF709A"/>
</linearGradient>
<linearGradient id="paint1_linear_726_94" x1="3.5" y1="12" x2="3.5" y2="7" gradientUnits="userSpaceOnUse">
<stop stop-color="#EC396C"/>
<stop offset="1" stop-color="#FF709A"/>
</linearGradient>
</defs>
</svg>
