<svg width="16" height="16" viewBox="0 0 16 16" fill="none" xmlns="http://www.w3.org/2000/svg">
<g clip-path="url(#clip0_726_87)">
<path d="M5.96205 1.99824C5.60565 1.99817 5.42711 2.42907 5.67912 2.68108L6.88089 3.88284C6.9559 3.95786 7.05765 4 7.16373 4H14.6C14.8209 4 15 3.82091 15 3.6V2.39992C15 2.17904 14.821 1.99997 14.6001 1.99992L5.96205 1.99824ZM3.01654 2.14154C2.93413 2.05913 2.81931 2.01416 2.70479 2.03586C1.81192 2.20502 1 3.09928 1 4V11.6C1 11.8209 0.820914 12 0.6 12H0.4C0.179086 12 0 12.1791 0 12.4V13.6C0 13.8209 0.179086 14 0.4 14H8.6C8.82091 14 9 13.8209 9 13.6V12.4C9 12.1791 8.82091 12 8.6 12H3.4C3.17909 12 3 11.8209 3 11.6V4.4C3 4.17909 3.17909 4 3.4 4H3.90931C4.26568 4 4.44414 3.56914 4.19216 3.31716L3.01654 2.14154Z" fill="url(#paint0_linear_726_87)"/>
<path d="M2.02951 1.03142C1.7365 0.738457 1.26149 0.738475 0.968507 1.03146V1.03146C0.67551 1.32446 0.67551 1.7995 0.968507 2.0925L13.907 15.031C14.2003 15.3242 14.6757 15.3242 14.969 15.031V15.031C15.2622 14.7377 15.2622 14.2622 14.9689 13.969L2.02951 1.03142Z" fill="url(#paint1_linear_726_87)"/>
<path opacity="0.5" d="M12 6C11.5 6 11 6.5 11 7V7.83627C11 7.94235 11.0421 8.0441 11.1172 8.11911L11.3172 8.31911C11.5691 8.5711 12 8.39263 12 8.03627V7.4C12 7.17909 12.1791 7 12.4 7H14.6C14.8209 7 15 7.17909 15 7.4V11.8343C15 11.9404 15.0421 12.0421 15.1172 12.1172L15.3172 12.3172C15.5691 12.5691 16 12.3907 16 12.0343V7C16 6.5 15.5 6 15 6H12ZM11.6828 10.8078C11.4309 10.5559 11 10.7343 11 11.0907V13C11 13.5 11.5 14 12 14H13.9093C14.2657 14 14.4441 13.5691 14.1922 13.3172L12.9922 12.1172C12.9171 12.0421 12.8154 12 12.7093 12H12.4C12.1791 12 12 11.8209 12 11.6V11.2907C12 11.1846 11.9579 11.0829 11.8828 11.0078L11.6828 10.8078Z" fill="url(#paint2_linear_726_87)"/>
</g>
<defs>
<linearGradient id="paint0_linear_726_87" x1="7.5" y1="14" x2="7.5" y2="1.99805" gradientUnits="userSpaceOnUse">
<stop stop-color="#EC396C"/>
<stop offset="1" stop-color="#FF709A"/>
</linearGradient>
<linearGradient id="paint1_linear_726_87" x1="7.96899" y1="15.562" x2="7.96899" y2="0.500977" gradientUnits="userSpaceOnUse">
<stop stop-color="#EC396C"/>
<stop offset="1" stop-color="#FF709A"/>
</linearGradient>
<linearGradient id="paint2_linear_726_87" x1="10.9993" y1="9.88147" x2="15.9989" y2="9.88147" gradientUnits="userSpaceOnUse">
<stop stop-color="#FD3A84"/>
<stop offset="1" stop-color="#FFA68D"/>
</linearGradient>
<clipPath id="clip0_726_87">
<rect width="16" height="16" fill="white"/>
</clipPath>
</defs>
</svg>
