<svg width="16" height="16" viewBox="0 0 16 16" fill="none" xmlns="http://www.w3.org/2000/svg">
<path opacity="0.5" d="M4 0C3.446 0 3 0.446 3 1V5H5V2H11V13H7H5H3V15C3 15.554 3.446 16 4 16H12C12.554 16 13 15.554 13 15V1C13 0.446 12.554 0 12 0H4Z" fill="url(#paint0_linear_727_97)"/>
<path d="M2.78125 5.43802C2.55111 5.48512 2.33734 5.56898 2.125 5.65677C2.1083 6.2811 2.2119 7.09854 1.96875 7.31302C1.72978 7.52379 0.93039 7.34732 0.3125 7.28172C0.18111 7.51821 0.07724 7.76695 0 8.03172C0.47809 8.42758 1.14051 8.87073 1.15625 9.18797C1.17215 9.50916 0.52983 9.99286 0.09375 10.438C0.19714 10.6958 0.34389 10.9315 0.5 11.1567C1.10832 11.0303 1.86639 10.7832 2.125 10.9692C2.38831 11.1586 2.39021 11.9746 2.46875 12.5942C2.7183 12.6692 2.98126 12.6987 3.25 12.7192C3.53135 12.1646 3.81741 11.3994 4.125 11.313C4.44075 11.2243 5.08855 11.7711 5.625 12.0942C5.84371 11.9426 6.03793 11.7572 6.21875 11.563C5.96491 10.9906 5.49767 10.271 5.625 9.96922C5.75245 9.66711 6.6004 9.49959 7.1875 9.28172C7.1915 9.20822 7.2187 9.13758 7.2187 9.06297C7.2187 8.8716 7.1843 8.68398 7.1562 8.50047C6.5501 8.33965 5.68899 8.25917 5.5312 7.96922C5.37446 7.68121 5.77299 6.90782 5.9687 6.31297C5.76754 6.13439 5.54929 5.97581 5.31245 5.84422C4.81156 6.21935 4.22812 6.83858 3.9062 6.78172C3.58931 6.72572 3.24331 5.96217 2.9062 5.43797C2.866 5.44497 2.82095 5.43002 2.78125 5.43802ZM3.40625 7.31302C4.33823 7.31302 5.09375 8.06854 5.09375 9.00052C5.09375 9.9325 4.33823 10.688 3.40625 10.688C2.47427 10.688 1.71875 9.9325 1.71875 9.00052C1.71875 8.06854 2.47427 7.31302 3.40625 7.31302Z" fill="url(#paint1_linear_727_97)"/>
<defs>
<linearGradient id="paint0_linear_727_97" x1="3.00146" y1="7.76293" x2="13.0017" y2="7.76293" gradientUnits="userSpaceOnUse">
<stop stop-color="#A93AFF"/>
<stop offset="1" stop-color="#FF81FF"/>
</linearGradient>
<linearGradient id="paint1_linear_727_97" x1="0.00105745" y1="8.96946" x2="7.2199" y2="8.96946" gradientUnits="userSpaceOnUse">
<stop stop-color="#A93AFF"/>
<stop offset="1" stop-color="#FF81FF"/>
</linearGradient>
</defs>
</svg>
