<svg width="48" height="48" viewBox="0 0 48 48" fill="none" xmlns="http://www.w3.org/2000/svg">
<path opacity="0.5" fill-rule="evenodd" clip-rule="evenodd" d="M43.4306 10.9955C44.1346 11.8185 44.6784 12.7652 45.0348 13.7871C45.7356 15.8874 46.06 18.0946 45.9932 20.3073V31.8639C45.9904 32.8375 45.9184 33.8095 45.778 34.7727C45.5106 36.4727 44.9124 38.1041 44.0176 39.5749C43.6062 40.2855 43.1066 40.9413 42.5308 41.5271C39.9242 43.9195 36.463 45.1647 32.9264 44.9825H15.0473C11.5051 45.1633 8.03816 43.9187 5.42322 41.5271C4.85428 40.9403 4.3614 40.2843 3.95612 39.5749C3.06644 38.1051 2.48112 36.4721 2.23474 34.7727C2.07808 33.8111 1.99958 32.8383 2 31.8639V20.3073C1.99962 19.3421 2.05186 18.3776 2.1565 17.4181C2.1785 17.2498 2.2115 17.0841 2.24416 16.9203C2.2986 16.6471 2.3521 16.3786 2.3521 16.1102C2.55068 14.9522 2.9129 13.8283 3.42798 12.772C4.95374 9.5119 8.08354 7.85258 13.2086 7.85258H34.726C37.5964 7.63058 40.4456 8.49472 42.707 10.2732C42.9674 10.4941 43.2094 10.7356 43.4306 10.9955Z" fill="url(#paint0_linear_728_83)"/>
<path d="M19.1153 20.3384C21.2104 19.5 22.4606 19 23.9998 19C25.539 19 26.7871 19.4993 28.8793 20.3363L28.881 20.337L28.8842 20.3384L32.1992 21.6644L32.2694 21.6924C33.302 22.1058 34.14 22.4414 34.7196 22.746C35.0188 22.9022 35.309 23.0808 35.5334 23.2962C35.7632 23.5172 35.9988 23.852 35.9988 24.302C35.9988 24.7518 35.7644 25.0866 35.5334 25.3076C35.3102 25.523 35.02 25.7004 34.7186 25.8578C34.1358 26.1636 33.29 26.5028 32.246 26.9214L32.1982 26.9406L28.883 28.2654C26.7902 29.1038 25.5402 29.6038 23.9998 29.6038C22.4604 29.6038 21.2119 29.1043 19.1191 28.2671L19.1185 28.2668L19.1153 28.2654L15.8013 26.9394L15.7457 26.9172L15.7395 26.9147C14.7021 26.4997 13.861 26.1632 13.2799 25.8578C12.9847 25.7126 12.7109 25.5276 12.4662 25.3076C12.2362 25.0866 12.0007 24.7518 12.0007 24.302C12.0007 23.852 12.2351 23.5172 12.4662 23.2962C12.6894 23.0808 12.9796 22.9034 13.281 22.746C13.8637 22.4402 14.7095 22.101 15.7535 21.6824L15.8013 21.6632L19.1153 20.3384Z" fill="url(#paint1_linear_728_83)"/>
<path d="M13.3956 28.1416L13.3979 28.145C13.6302 28.3332 13.8735 28.5104 14.1245 28.673C14.8668 29.1474 15.6533 29.5488 16.473 29.8718L19.6084 31.123C21.8676 32.0272 22.8162 32.3932 23.9994 32.3932C25.1826 32.3932 26.1302 32.0272 28.3906 31.123L31.5248 29.8696C32.5784 29.4488 33.361 29.0044 33.8744 28.6708C34.0688 28.5456 34.258 28.4128 34.4414 28.2722L34.5732 28.1674L34.5998 28.1438L34.6022 28.1428L34.6044 28.1406C34.77 27.9926 34.9876 27.9164 35.2094 27.9288C35.4312 27.9412 35.639 28.0414 35.787 28.207C35.935 28.3726 36.0112 28.5902 35.9986 28.812C35.9862 29.0338 35.8862 29.2416 35.7206 29.3896H35.7184L35.7172 29.3918L35.7116 29.3962L35.696 29.4096L35.6458 29.4532C35.37 29.6756 35.0828 29.8836 34.7852 30.076C33.9516 30.6092 33.0682 31.0604 32.1476 31.4232L29.0122 32.679L28.8822 32.7306L28.8815 32.7309C26.7883 33.5687 25.5394 34.0686 23.9994 34.0686C22.4602 34.0686 21.21 33.5686 19.115 32.7302L18.9866 32.679L15.8513 31.4244C14.6871 30.959 13.8086 30.4634 13.2126 30.0772C12.9154 29.8846 12.6285 29.6768 12.3531 29.4542L12.3412 29.4442C12.3252 29.431 12.3119 29.4198 12.3029 29.4108L12.2873 29.3974L12.2817 29.3928L12.2794 29.3906C12.1138 29.2426 12.0138 29.0348 12.0013 28.8132C11.9952 28.7032 12.0107 28.5934 12.047 28.4896C12.0833 28.3858 12.1397 28.29 12.213 28.208C12.2863 28.126 12.3751 28.0592 12.4741 28.0116C12.5732 27.9638 12.6808 27.936 12.7906 27.93C12.9004 27.9238 13.0104 27.9392 13.1142 27.9756C13.218 28.012 13.3136 28.0684 13.3956 28.1416Z" fill="url(#paint2_linear_728_83)"/>
<path d="M13.3945 32.6732C13.2288 32.5268 13.0119 32.4518 12.7911 32.4648C12.5703 32.4778 12.3636 32.5776 12.2161 32.7424C12.0687 32.9072 11.9924 33.1238 12.0041 33.3446C12.0158 33.5656 12.1155 33.7728 12.2795 33.9212L12.2817 33.9234L12.2873 33.9278L12.3029 33.9412C12.3119 33.9502 12.3252 33.9614 12.3412 33.9748L12.3531 33.9848L12.5328 34.13C12.6891 34.2494 12.9157 34.4146 13.2137 34.6076C13.8086 34.9938 14.6871 35.4894 15.8513 35.9548L18.9867 37.2094L19.115 37.2608L19.125 37.2648L19.1254 37.265C21.2142 38.1007 22.4627 38.6002 23.9994 38.6002C25.537 38.6002 26.7842 38.101 28.871 37.2656L28.8828 37.2608L29.0122 37.2094L32.1476 35.9548C33.0684 35.5918 33.9516 35.1402 34.7852 34.6066C35.0828 34.414 35.37 34.2062 35.6458 33.9838C35.6626 33.9694 35.6794 33.9548 35.696 33.9402L35.7116 33.9268L35.7184 33.9212L35.7206 33.919C35.8846 33.7706 35.9832 33.5632 35.9948 33.3424C36.0064 33.1216 35.9302 32.905 35.7828 32.7402C35.6354 32.5752 35.4286 32.4754 35.2078 32.4626C34.987 32.4496 34.77 32.5246 34.6044 32.671L34.6022 32.6732L34.6 32.6744L34.5732 32.6978L34.4414 32.8028C34.258 32.9432 34.0688 33.0762 33.8744 33.2012C33.361 33.535 32.5784 33.9792 31.5248 34.4L28.3906 35.6536C26.1302 36.5576 25.1826 36.9238 23.9994 36.9238C22.8162 36.9238 21.8676 36.5576 19.6084 35.6536L16.473 34.4C15.6534 34.0776 14.8669 33.6764 14.1245 33.2024C13.8832 33.0462 13.65 32.8778 13.4258 32.6978L13.3979 32.6756L13.3945 32.671V32.6732Z" fill="url(#paint3_linear_728_83)"/>
<path d="M25.8999 8C25.8999 8 24.5 8 23.8756 7.33221L21.7655 4.72632C20.7709 3.61577 19.2553 2.9785 17.6614 3.00055H13.1314C7.3999 3.00055 2.00079 5.5 2.00014 14.5113L2.00079 18.7391C1.99069 19.6007 2.03123 13.6521 5 11C5 11 7.06043 8 13 8C17.4533 8 23 8 23 8C24.5 8 23.8999 8 25.8999 8Z" fill="url(#paint4_linear_728_83)"/>
<defs>
<linearGradient id="paint0_linear_728_83" x1="24" y1="45" x2="24" y2="8" gradientUnits="userSpaceOnUse">
<stop stop-color="#DE00FF"/>
<stop offset="1" stop-color="#FF71E6"/>
</linearGradient>
<linearGradient id="paint1_linear_728_83" x1="23.4782" y1="33.864" x2="25.6024" y2="19.31" gradientUnits="userSpaceOnUse">
<stop stop-color="#8D01A2"/>
<stop offset="1" stop-color="#FF00D2"/>
</linearGradient>
<linearGradient id="paint2_linear_728_83" x1="23.4782" y1="33.864" x2="25.6024" y2="19.31" gradientUnits="userSpaceOnUse">
<stop stop-color="#8D01A2"/>
<stop offset="1" stop-color="#FF00D2"/>
</linearGradient>
<linearGradient id="paint3_linear_728_83" x1="23.4782" y1="33.864" x2="25.6024" y2="19.31" gradientUnits="userSpaceOnUse">
<stop stop-color="#8D01A2"/>
<stop offset="1" stop-color="#FF00D2"/>
</linearGradient>
<linearGradient id="paint4_linear_728_83" x1="2.83763" y1="10.9118" x2="23.919" y2="7.34631" gradientUnits="userSpaceOnUse">
<stop stop-color="#8D01A2"/>
<stop offset="1" stop-color="#FF00D2"/>
</linearGradient>
</defs>
</svg>
