<svg width="48" height="48" viewBox="0 0 48 48" fill="none" xmlns="http://www.w3.org/2000/svg">
<path opacity="0.4" fill-rule="evenodd" clip-rule="evenodd" d="M43.4306 10.9955C44.1346 11.8185 44.6784 12.7652 45.0348 13.7871C45.7356 15.8874 46.06 18.0946 45.9932 20.3072V31.864C45.9904 32.8374 45.9184 33.8094 45.778 34.7726C45.5106 36.4726 44.9126 38.104 44.0176 39.575C43.6062 40.2854 43.1066 40.9414 42.5308 41.527C39.9242 43.9194 36.463 45.1646 32.9264 44.9824H15.0473C11.5051 45.1634 8.03816 43.9186 5.42322 41.527C4.85428 40.9402 4.3614 40.2844 3.95612 39.575C3.06646 38.1052 2.48112 36.4722 2.23474 34.7726C2.07808 33.811 1.99958 32.8382 2 31.864V20.3072C1.99962 19.342 2.05186 18.3776 2.1565 17.4181C2.1785 17.2497 2.2115 17.0841 2.24416 16.9203C2.2986 16.647 2.3521 16.3786 2.3521 16.1102C2.55068 14.9522 2.9129 13.8283 3.42798 12.772C4.95376 9.5119 8.08354 7.85258 13.2086 7.85258H34.726C37.5964 7.63058 40.4456 8.49472 42.707 10.2732C42.9674 10.4941 43.2094 10.7356 43.4306 10.9955Z" fill="url(#paint0_linear_728_129)"/>
<path d="M24.3852 25.4444H27.4962H27.4962C28.471 25.4444 28.9626 25.4444 29.2674 25.7472C29.5702 26.0522 29.5702 26.5416 29.5702 27.5186V27.5186V27.5186C29.5702 28.4954 29.5702 28.985 29.2674 29.2898C28.9626 29.5926 28.4732 29.5926 27.4962 29.5926H26.4592C25.4822 29.5926 24.9928 29.5926 24.688 29.2898C24.3852 28.985 24.3852 28.4954 24.3852 27.5186V27.5186V25.4444H21.274C20.2992 25.4444 19.8077 25.4444 19.5027 25.1416C19.2 24.8368 19.2 24.3452 19.2 23.3704C19.2 22.3956 19.2 21.904 19.5027 21.5992C19.8077 21.2962 20.2971 21.2962 21.2739 21.2962H21.274H24.3852V17.1481H21.274H21.2739C20.2991 17.1481 19.8077 17.1481 19.5027 16.8453C19.2 16.5404 19.2 16.051 19.2 15.0741V13.0062L24.3852 13V17.1481H27.4962C28.471 17.1481 28.9626 17.1481 29.2674 17.451C29.5702 17.7559 29.5702 18.2453 29.5702 19.2222V19.2222V19.2222C29.5702 20.1992 29.5702 20.6886 29.2674 20.9934C28.9626 21.2962 28.4732 21.2962 27.4962 21.2962H24.3852V25.4444Z" fill="url(#paint1_linear_728_129)"/>
<path d="M19.2 35.8148V35.5556C19.2 34.5538 20.0129 33.7408 21.0147 33.7408H27.7554C28.7571 33.7408 29.5702 34.5538 29.5702 35.5556V35.8148C29.5702 37.19 29.0239 38.5088 28.0515 39.4812C27.0791 40.4538 25.7604 41 24.3852 41C23.01 41 21.6909 40.4538 20.7185 39.4812C19.7461 38.5088 19.2 37.19 19.2 35.8148Z" fill="url(#paint2_linear_728_129)"/>
<path d="M25.8999 8C25.8999 8 24.5 8 23.8756 7.33221L21.7655 4.72632C20.7709 3.61577 19.2553 2.9785 17.6614 3.00055H13.1314C7.3999 3.00055 2.00079 5.5 2.00014 14.5113L2.00079 18.7391C1.99069 19.6007 2.03123 13.6521 5 11C5 11 7.06043 8 13 8C17.4533 8 23 8 23 8C24.5 8 23.8999 8 25.8999 8Z" fill="url(#paint3_linear_728_129)"/>
<defs>
<linearGradient id="paint0_linear_728_129" x1="24.0009" y1="44.9999" x2="24.0009" y2="7.81836" gradientUnits="userSpaceOnUse">
<stop stop-color="#02AA93"/>
<stop offset="1" stop-color="#67FF80"/>
</linearGradient>
<linearGradient id="paint1_linear_728_129" x1="24.3851" y1="41" x2="24.3851" y2="13" gradientUnits="userSpaceOnUse">
<stop stop-color="#02AA93"/>
<stop offset="1" stop-color="#67FF80"/>
</linearGradient>
<linearGradient id="paint2_linear_728_129" x1="24.3851" y1="41" x2="24.3851" y2="13" gradientUnits="userSpaceOnUse">
<stop stop-color="#02AA93"/>
<stop offset="1" stop-color="#67FF80"/>
</linearGradient>
<linearGradient id="paint3_linear_728_129" x1="14" y1="14.5" x2="14" y2="2.5" gradientUnits="userSpaceOnUse">
<stop stop-color="#02AA93"/>
<stop offset="1" stop-color="#67FF80"/>
</linearGradient>
</defs>
</svg>
