<svg width="48" height="48" viewBox="0 0 48 48" fill="none" xmlns="http://www.w3.org/2000/svg">
<path opacity="0.5" fill-rule="evenodd" clip-rule="evenodd" d="M43.4306 11.1771C44.1346 12.0001 44.6784 12.9468 45.0348 13.9687C45.7356 16.069 46.06 18.2762 45.9932 20.4889V32.0455C45.9904 33.0191 45.9184 33.9911 45.778 34.9543C45.5106 36.6543 44.9124 38.2857 44.0176 39.7565C43.6062 40.4671 43.1066 41.1229 42.5308 41.7087C39.9242 44.1011 36.463 45.3463 32.9264 45.1641H15.0473C11.5051 45.3449 8.03816 44.1003 5.42322 41.7087C4.85428 41.1219 4.3614 40.4659 3.95612 39.7565C3.06644 38.2867 2.48112 36.6537 2.23474 34.9543C2.07808 33.9927 1.99958 33.0199 2 32.0455V20.4889C1.99962 19.5237 2.05186 18.5592 2.1565 17.5997C2.1785 17.4314 2.2115 17.2657 2.24416 17.1019C2.2986 16.8287 2.3521 16.5602 2.3521 16.2918C2.55068 15.1338 2.9129 14.0099 3.42798 12.9536C4.95374 9.69354 8.08354 8.03422 13.2086 8.03422H34.726C37.5964 7.81222 40.4456 8.67636 42.707 10.4548C42.9674 10.6757 43.2094 10.9172 43.4306 11.1771Z" fill="url(#paint0_linear_729_232)"/>
<path fill-rule="evenodd" clip-rule="evenodd" d="M17.7978 21.6432C17.7978 18.0407 20.7766 15.1816 24.4176 15.1816C28.0586 15.1816 31.0374 18.0407 31.0374 21.6432V25.4774C31.0374 25.9088 31.387 26.2586 31.8184 26.2586H32.2064C33.6572 26.2586 34.8352 27.4348 34.8352 28.8858V36.5544C34.8352 38.005 33.6596 39.1816 32.2084 39.1816H16.6271C15.1761 39.1816 14 38.0054 14 36.5544V28.5662C14 27.2916 15.0332 26.2586 16.3077 26.2586H17.0167C17.4481 26.2586 17.7978 25.9088 17.7978 25.4774V21.6432ZM22.2481 19.4769C21.8551 19.8301 21.5427 20.4589 21.5427 21.6433V25.4775C21.5427 25.9089 21.8925 26.2587 22.3239 26.2587H26.5111C26.9425 26.2587 27.2923 25.9089 27.2923 25.4775V21.6433C27.2923 20.4587 26.9799 19.8301 26.5869 19.4769C26.1745 19.106 25.4925 18.874 24.4175 18.874C23.3425 18.874 22.6605 19.106 22.2481 19.4769Z" fill="url(#paint1_linear_729_232)"/>
<path d="M25.8999 8C25.8999 8 24.5 8 23.8756 7.33221L21.7655 4.72632C20.7709 3.61577 19.2553 2.9785 17.6614 3.00055H13.1314C7.3999 3.00055 2.00079 5.5 2.00014 14.5113L2.00079 18.7391C1.99069 19.6007 2.03123 13.6521 5 11C5 11 7.06043 8 13 8C17.4533 8 23 8 23 8C24.5 8 23.8999 8 25.8999 8Z" fill="url(#paint2_linear_729_232)"/>
<defs>
<linearGradient id="paint0_linear_729_232" x1="24" y1="8" x2="24" y2="45" gradientUnits="userSpaceOnUse">
<stop stop-color="#FF50A0"/>
<stop offset="1" stop-color="#CB005D"/>
</linearGradient>
<linearGradient id="paint1_linear_729_232" x1="44.5152" y1="9.06276" x2="31.7614" y2="46.9619" gradientUnits="userSpaceOnUse">
<stop stop-color="#FE0F7C"/>
<stop offset="1" stop-color="#DF0066"/>
</linearGradient>
<linearGradient id="paint2_linear_729_232" x1="25.0925" y1="3.45229" x2="20.6659" y2="20.2407" gradientUnits="userSpaceOnUse">
<stop stop-color="#FE0F7C"/>
<stop offset="1" stop-color="#DF0066"/>
</linearGradient>
</defs>
</svg>
