<svg width="48" height="48" viewBox="0 0 48 48" fill="none" xmlns="http://www.w3.org/2000/svg">
<path opacity="0.5" fill-rule="evenodd" clip-rule="evenodd" d="M43.4306 11.1771C44.1346 12.0001 44.6784 12.9468 45.0348 13.9687C45.7356 16.069 46.06 18.2762 45.9932 20.4888V32.0456C45.9904 33.019 45.9184 33.991 45.778 34.9542C45.5106 36.6542 44.9124 38.2856 44.0176 39.7566C43.6062 40.467 43.1066 41.123 42.5308 41.7086C39.9242 44.101 36.463 45.3462 32.9264 45.164H15.0473C11.5051 45.345 8.03816 44.1002 5.42322 41.7086C4.85428 41.1218 4.3614 40.466 3.95612 39.7566C3.06644 38.2868 2.48112 36.6538 2.23474 34.9542C2.07808 33.9926 1.99958 33.0198 2 32.0456V20.4888C1.99962 19.5236 2.05186 18.5592 2.1565 17.5997C2.1785 17.4313 2.2115 17.2657 2.24416 17.1019C2.2986 16.8286 2.3521 16.5602 2.3521 16.2918C2.55068 15.1338 2.9129 14.0099 3.42798 12.9536C4.95374 9.69354 8.08354 8.03422 13.2086 8.03422H34.726C37.5964 7.81222 40.4456 8.67636 42.707 10.4548C42.9674 10.6757 43.2094 10.9172 43.4306 11.1771Z" fill="url(#paint0_linear_729_244)"/>
<path d="M29.9656 17.7475C29.6532 17.4351 29.1468 17.4351 28.8344 17.7475L27.7656 18.8161C27.4532 19.1285 27.4532 19.635 27.7656 19.9474L31.0344 23.2162C31.3468 23.5286 31.3468 24.035 31.0344 24.3474L27.7656 27.6162C27.4532 27.9286 27.4532 28.435 27.7656 28.7474L28.8344 29.8162C29.1468 30.1286 29.6532 30.1286 29.9656 29.8162L35.4344 24.3474C35.7468 24.035 35.7468 23.5286 35.4344 23.2162L29.9656 17.7475Z" fill="url(#paint1_linear_729_244)"/>
<path d="M20.6 19.3818C20.0166 19.3818 19.4569 19.6136 19.0444 20.0262C18.6318 20.4388 18.4 20.9984 18.4 21.5818C18.4 22.1652 18.6318 22.7248 19.0444 23.1374C19.4569 23.55 20.0166 23.7818 20.6 23.7818C21.1834 23.7818 21.743 23.55 22.1556 23.1374C22.5682 22.7248 22.8 22.1652 22.8 21.5818C22.8 20.9984 22.5682 20.4388 22.1556 20.0262C21.743 19.6136 21.1834 19.3818 20.6 19.3818Z" fill="url(#paint2_linear_729_244)"/>
<path d="M16.2 25.9818C15.6165 25.9818 15.0569 26.2136 14.6444 26.6262C14.2318 27.0388 14 27.5984 14 28.1818C14 28.7652 14.2318 29.3248 14.6444 29.7374C15.0569 30.15 15.6165 30.3818 16.2 30.3818C16.7835 30.3818 17.3431 30.15 17.7556 29.7374C18.1682 29.3248 18.4 28.7652 18.4 28.1818C18.4 27.5984 18.1682 27.0388 17.7556 26.6262C17.3431 26.2136 16.7835 25.9818 16.2 25.9818Z" fill="url(#paint3_linear_729_244)"/>
<path d="M21.81 32.3618C20.9244 32.3614 20.0732 32.7054 19.4368 33.3214C18.8004 33.9372 18.4286 34.7766 18.4 35.6618C18.3853 36.1188 18.4626 36.574 18.6273 37.0006C18.7921 37.427 19.0409 37.816 19.359 38.1444C19.6772 38.4728 20.058 38.734 20.4792 38.9122C20.9002 39.0904 21.3528 39.182 21.81 39.1818C22.695 39.1252 23.5232 38.7258 24.1188 38.0686C24.7144 37.4114 25.0304 36.5482 25 35.6618C24.9744 34.8134 24.6332 34.005 24.0434 33.3948C23.4534 32.7844 22.657 32.4162 21.81 32.3618Z" fill="url(#paint4_linear_729_244)"/>
<path d="M25.8999 8C25.8999 8 24.5 8 23.8756 7.33221L21.7655 4.72632C20.7709 3.61577 19.2553 2.9785 17.6614 3.00055H13.1314C7.3999 3.00055 2.00079 5.5 2.00014 14.5113L2.00079 18.7391C1.99069 19.6007 2.03123 13.6521 5 11C5 11 7.06043 8 13 8C17.4533 8 23 8 23 8C24.5 8 23.8999 8 25.8999 8Z" fill="url(#paint5_linear_729_244)"/>
<defs>
<linearGradient id="paint0_linear_729_244" x1="24.0008" y1="45.1816" x2="24.0008" y2="8" gradientUnits="userSpaceOnUse">
<stop stop-color="#0075FF"/>
<stop offset="1" stop-color="#4DEAFF"/>
</linearGradient>
<linearGradient id="paint1_linear_729_244" x1="24.0008" y1="45.1816" x2="24.0008" y2="8" gradientUnits="userSpaceOnUse">
<stop stop-color="#0075FF"/>
<stop offset="1" stop-color="#4DEAFF"/>
</linearGradient>
<linearGradient id="paint2_linear_729_244" x1="24.0008" y1="45.1816" x2="24.0008" y2="8" gradientUnits="userSpaceOnUse">
<stop stop-color="#0075FF"/>
<stop offset="1" stop-color="#4DEAFF"/>
</linearGradient>
<linearGradient id="paint3_linear_729_244" x1="24.0008" y1="45.1816" x2="24.0008" y2="8" gradientUnits="userSpaceOnUse">
<stop stop-color="#0075FF"/>
<stop offset="1" stop-color="#4DEAFF"/>
</linearGradient>
<linearGradient id="paint4_linear_729_244" x1="24.0008" y1="45.1816" x2="24.0008" y2="8" gradientUnits="userSpaceOnUse">
<stop stop-color="#0075FF"/>
<stop offset="1" stop-color="#4DEAFF"/>
</linearGradient>
<linearGradient id="paint5_linear_729_244" x1="13.95" y1="18.8236" x2="13.95" y2="3.00001" gradientUnits="userSpaceOnUse">
<stop stop-color="#5570FF"/>
<stop offset="1" stop-color="#4DD3FF"/>
</linearGradient>
</defs>
</svg>
