<svg width="48" height="48" viewBox="0 0 48 48" fill="none" xmlns="http://www.w3.org/2000/svg">
<path opacity="0.4" fill-rule="evenodd" clip-rule="evenodd" d="M43.4306 10.9955C44.1346 11.8185 44.6784 12.7652 45.0348 13.7871C45.7356 15.8874 46.06 18.0946 45.9932 20.3073V31.8639C45.9904 32.8375 45.9184 33.8095 45.778 34.7727C45.5106 36.4727 44.9124 38.1041 44.0176 39.5749C43.6062 40.2855 43.1066 40.9413 42.5308 41.5271C39.9242 43.9195 36.463 45.1647 32.9264 44.9825H15.0473C11.5051 45.1633 8.03816 43.9187 5.42322 41.5271C4.85428 40.9403 4.3614 40.2843 3.95612 39.5749C3.06644 38.1051 2.48112 36.4721 2.23474 34.7727C2.07808 33.8111 1.99958 32.8383 2 31.8639V20.3073C1.99962 19.3421 2.05186 18.3776 2.1565 17.4181C2.1785 17.2498 2.2115 17.0841 2.24416 16.9203C2.2986 16.6471 2.3521 16.3786 2.3521 16.1102C2.55068 14.9522 2.9129 13.8283 3.42798 12.772C4.95374 9.5119 8.08354 7.85258 13.2086 7.85258H34.726C37.5964 7.63058 40.4456 8.49472 42.707 10.2732C42.9674 10.4941 43.2094 10.7356 43.4306 10.9955Z" fill="url(#paint0_linear_728_132)"/>
<path d="M24.5714 16C21.1968 16 18.4285 18.6513 18.4285 22V25.4616C18.4285 25.759 18.1875 26 17.8901 26H17.25C16.0073 26 15 27.0074 15 28.25V35.4616C15 36.8634 16.1363 38 17.5384 38H31.6048C33.007 38 34.1428 36.8632 34.1428 35.4616V28.5384C34.1428 27.1364 33.0062 26 31.6044 26H22.6814C22.3838 26 22.1428 25.759 22.1428 25.4616V22C22.1428 20.9592 22.4166 20.4448 22.7244 20.1682C23.0532 19.8726 23.6206 19.6666 24.5714 19.6666C25.398 19.6666 25.939 19.8232 26.2798 20.0588C26.587 20.2712 26.8436 20.6246 26.95 21.3012C27.0838 22.151 27.793 23 28.8572 23C29.8248 23 30.8354 22.1712 30.6254 20.974C30.125 18.122 27.5936 16 24.5714 16Z" fill="url(#paint1_linear_728_132)"/>
<path d="M25.8999 8C25.8999 8 24.5 8 23.8756 7.33221L21.7655 4.72632C20.7709 3.61577 19.2553 2.9785 17.6614 3.00055H13.1314C7.3999 3.00055 2.00079 5.5 2.00014 14.5113L2.00079 18.7391C1.99069 19.6007 2.03123 13.6521 5 11C5 11 7.06043 8 13 8C17.4533 8 23 8 23 8C24.5 8 23.8999 8 25.8999 8Z" fill="url(#paint2_linear_728_132)"/>
<defs>
<linearGradient id="paint0_linear_728_132" x1="24.0008" y1="44.9999" x2="24.0008" y2="7.81836" gradientUnits="userSpaceOnUse">
<stop stop-color="#02AA93"/>
<stop offset="1" stop-color="#67FF80"/>
</linearGradient>
<linearGradient id="paint1_linear_728_132" x1="24.0008" y1="44.9999" x2="24.0008" y2="7.81836" gradientUnits="userSpaceOnUse">
<stop stop-color="#02AA93"/>
<stop offset="1" stop-color="#67FF80"/>
</linearGradient>
<linearGradient id="paint2_linear_728_132" x1="14" y1="14.5" x2="14" y2="2.5" gradientUnits="userSpaceOnUse">
<stop stop-color="#02AA93"/>
<stop offset="1" stop-color="#67FF80"/>
</linearGradient>
</defs>
</svg>
