<svg width="48" height="48" viewBox="0 0 48 48" fill="none" xmlns="http://www.w3.org/2000/svg">
<path opacity="0.5" fill-rule="evenodd" clip-rule="evenodd" d="M43.4306 11.1771C44.1346 12.0001 44.6784 12.9468 45.0348 13.9687C45.7356 16.069 46.06 18.2762 45.9932 20.4889V32.0455C45.9904 33.0191 45.9184 33.9911 45.778 34.9543C45.5106 36.6543 44.9126 38.2857 44.0176 39.7565C43.6062 40.4671 43.1066 41.1229 42.5308 41.7087C39.9242 44.1011 36.463 45.3463 32.9264 45.1641H15.0473C11.5051 45.3449 8.03816 44.1003 5.42322 41.7087C4.85428 41.1219 4.3614 40.4659 3.95612 39.7565C3.06646 38.2867 2.48112 36.6537 2.23474 34.9543C2.07808 33.9927 1.99958 33.0199 2 32.0455V20.4889C1.99962 19.5237 2.05186 18.5592 2.1565 17.5997C2.1785 17.4314 2.2115 17.2657 2.24416 17.1019C2.2986 16.8287 2.3521 16.5602 2.3521 16.2918C2.55068 15.1338 2.9129 14.0099 3.42798 12.9536C4.95376 9.69354 8.08354 8.03422 13.2086 8.03422H34.726C37.5964 7.81222 40.4456 8.67636 42.707 10.4548C42.9674 10.6757 43.2094 10.9172 43.4306 11.1771Z" fill="url(#paint0_linear_728_89)"/>
<path fill-rule="evenodd" clip-rule="evenodd" d="M32.9848 29.1233L32.9966 26.3227V26.3199L32.9966 26.3183C33.0096 23.0525 33.0161 21.4199 32.3674 20.1803C31.8556 19.2009 31.0684 18.397 30.1052 17.8705C28.8871 17.2056 27.2733 17.1989 24.0496 17.1854L24.0488 17.1854H24.0436C20.8128 17.1712 19.1976 17.1648 17.9726 17.8218C17.0061 18.3396 16.2129 19.1357 15.6931 20.1095C15.129 21.1679 15.0429 22.5187 15.0216 24.9367L15.0143 26.2491L15.0038 29.0493C14.9895 32.3183 14.9828 33.9519 15.6318 35.1919C16.1436 36.1709 16.9307 36.9743 17.8935 37.5003C19.1112 38.166 20.7237 38.1733 23.9446 38.1877H23.9448L23.9572 38.1879C26.8668 38.1993 28.4664 38.2055 29.6504 37.7261C29.7798 37.6741 29.905 37.6161 30.0266 37.5505C30.993 37.0322 31.7862 36.2356 32.3058 35.2613C32.9634 34.0287 32.9706 32.3965 32.9848 29.1359V29.1233ZM19.6783 28.178C19.6255 28.3052 19.5981 28.4418 19.5975 28.5796C19.5965 28.858 19.7051 29.1266 19.8987 29.3242C20.0923 29.5218 20.3555 29.6334 20.6303 29.6348L27.5467 29.6634C27.6855 29.6682 27.8237 29.6448 27.9533 29.5946C28.0831 29.5442 28.2013 29.4682 28.3015 29.3708C28.4015 29.2734 28.4813 29.1566 28.5359 29.0274C28.5905 28.8984 28.6191 28.7594 28.6197 28.6188C28.6205 28.4784 28.5933 28.339 28.5397 28.2094C28.4863 28.0798 28.4077 27.9622 28.3085 27.8638C28.2093 27.7656 28.0917 27.6882 27.9625 27.6368C27.8335 27.5852 27.6953 27.5606 27.5565 27.564L20.6399 27.5342C20.5037 27.5336 20.3685 27.56 20.2425 27.6122C20.1163 27.6644 20.0015 27.7412 19.9047 27.8384C19.8079 27.9354 19.731 28.0508 19.6783 28.178ZM19.888 32.0396C19.6928 32.2356 19.5824 32.502 19.5811 32.7802C19.5805 32.9182 19.6067 33.0548 19.6582 33.1826C19.7098 33.3102 19.7857 33.4264 19.8816 33.5244C19.9775 33.6224 20.0915 33.7002 20.2173 33.7536C20.3429 33.807 20.4777 33.8348 20.6139 33.8354L24.7637 33.852C24.9029 33.8574 25.0417 33.8346 25.1719 33.7846C25.3021 33.7346 25.4211 33.6586 25.5217 33.561C25.6223 33.4636 25.7025 33.3464 25.7575 33.217C25.8123 33.0874 25.8411 32.948 25.8415 32.807C25.8421 32.666 25.8147 32.5262 25.7607 32.3962C25.7069 32.2662 25.6277 32.1486 25.5279 32.0502C25.4281 31.9518 25.3097 31.8748 25.1799 31.8238C25.0501 31.7728 24.9115 31.7486 24.7721 31.753L20.6221 31.735C20.3473 31.734 20.0831 31.8436 19.888 32.0396Z" fill="url(#paint1_linear_728_89)"/>
<path d="M26 8C26 8 24.6001 8 23.9757 7.33221L21.8656 4.72632C20.871 3.61577 19.3554 2.9785 17.7615 3.00055H13.2315C7.5 3.00055 2.10089 5.5 2.10024 14.5113L2.10089 18.7391C2.09079 19.6007 2.13132 13.6521 5.1001 11C5.1001 11 7.16053 8 13.1001 8C17.5534 8 23.1001 8 23.1001 8C24.6001 8 24 8 26 8Z" fill="url(#paint2_linear_728_89)"/>
<defs>
<linearGradient id="paint0_linear_728_89" x1="24.0008" y1="45.1815" x2="24.0008" y2="8" gradientUnits="userSpaceOnUse">
<stop stop-color="#5570FF"/>
<stop offset="1" stop-color="#4DD3FF"/>
</linearGradient>
<linearGradient id="paint1_linear_728_89" x1="24.0008" y1="45.1815" x2="24.0008" y2="8" gradientUnits="userSpaceOnUse">
<stop stop-color="#5570FF"/>
<stop offset="1" stop-color="#4DD3FF"/>
</linearGradient>
<linearGradient id="paint2_linear_728_89" x1="14" y1="15.5" x2="14" y2="4" gradientUnits="userSpaceOnUse">
<stop stop-color="#5570FF"/>
<stop offset="1" stop-color="#4CE1FF"/>
</linearGradient>
</defs>
</svg>
