<svg width="48" height="48" viewBox="0 0 48 48" fill="none" xmlns="http://www.w3.org/2000/svg">
<path opacity="0.5" fill-rule="evenodd" clip-rule="evenodd" d="M43.4306 11.1771C44.1346 12.0001 44.6784 12.9468 45.0348 13.9687C45.7356 16.069 46.06 18.2762 45.9932 20.4888V32.0456C45.9904 33.019 45.9184 33.991 45.778 34.9542C45.5106 36.6542 44.9126 38.2856 44.0176 39.7566C43.6062 40.467 43.1066 41.123 42.5308 41.7086C39.9242 44.101 36.463 45.3462 32.9264 45.164H15.0473C11.5051 45.345 8.03816 44.1002 5.42322 41.7086C4.85428 41.1218 4.3614 40.466 3.95612 39.7566C3.06646 38.2868 2.48112 36.6538 2.23474 34.9542C2.07808 33.9926 1.99958 33.0198 2 32.0456V20.4888C1.99962 19.5236 2.05186 18.5592 2.1565 17.5997C2.1785 17.4313 2.2115 17.2657 2.24416 17.1019C2.2986 16.8286 2.3521 16.5602 2.3521 16.2918C2.55068 15.1338 2.9129 14.0099 3.42798 12.9536C4.95376 9.69354 8.08354 8.03422 13.2086 8.03422H34.726C37.5964 7.81222 40.4456 8.67636 42.707 10.4548C42.9674 10.6757 43.2094 10.9172 43.4306 11.1771Z" fill="url(#paint0_linear_729_247)"/>
<path d="M29.1432 36.3816C32.9304 36.3816 36 33.348 36 29.6052C36 27.084 34.607 24.8846 32.5402 23.7174C31.8668 23.3372 31.356 22.7 31.126 21.9616C30.2634 19.1938 27.6544 17.1816 24.5712 17.1816C20.784 17.1816 17.7144 20.2152 17.7144 23.958C17.7144 24.4358 17.7643 24.9014 17.8594 25.351C17.95 25.7802 17.5817 26.2166 17.1432 26.2164C14.3028 26.2176 12 28.4928 12 31.2996C12 34.1064 14.3028 36.3816 17.1432 36.3816H29.1432Z" fill="url(#paint1_linear_729_247)"/>
<path d="M25.8999 8C25.8999 8 24.5 8 23.8756 7.33221L21.7655 4.72632C20.7709 3.61577 19.2553 2.9785 17.6614 3.00055H13.1314C7.3999 3.00055 2.00079 5.5 2.00014 14.5113L2.00079 18.7391C1.99069 19.6007 2.03123 13.6521 5 11C5 11 7.06043 8 13 8C17.4533 8 23 8 23 8C24.5 8 23.8999 8 25.8999 8Z" fill="url(#paint2_linear_729_247)"/>
<defs>
<linearGradient id="paint0_linear_729_247" x1="24.0008" y1="45.1816" x2="24.0008" y2="8" gradientUnits="userSpaceOnUse">
<stop stop-color="#5570FF"/>
<stop offset="1" stop-color="#4DD3FF"/>
</linearGradient>
<linearGradient id="paint1_linear_729_247" x1="24.0008" y1="45.1816" x2="24.0008" y2="8" gradientUnits="userSpaceOnUse">
<stop stop-color="#5570FF"/>
<stop offset="1" stop-color="#4DD3FF"/>
</linearGradient>
<linearGradient id="paint2_linear_729_247" x1="13.95" y1="18.8236" x2="13.95" y2="3.00001" gradientUnits="userSpaceOnUse">
<stop stop-color="#5570FF"/>
<stop offset="1" stop-color="#4DD3FF"/>
</linearGradient>
</defs>
</svg>
