<svg width="48" height="48" viewBox="0 0 48 48" fill="none" xmlns="http://www.w3.org/2000/svg">
<path opacity="0.5" fill-rule="evenodd" clip-rule="evenodd" d="M43.4306 11.1771C44.1346 12.0001 44.6784 12.9468 45.0348 13.9687C45.7356 16.069 46.06 18.2762 45.9932 20.4888V32.0456C45.9904 33.019 45.9184 33.991 45.778 34.9542C45.5106 36.6542 44.9124 38.2856 44.0176 39.7566C43.6062 40.467 43.1066 41.123 42.5308 41.7086C39.9242 44.101 36.463 45.3462 32.9264 45.164H15.0473C11.5051 45.345 8.03816 44.1002 5.42322 41.7086C4.85428 41.1218 4.3614 40.466 3.95612 39.7566C3.06644 38.2868 2.48112 36.6538 2.23474 34.9542C2.07808 33.9926 1.99958 33.0198 2 32.0456V20.4888C1.99962 19.5236 2.05186 18.5592 2.1565 17.5997C2.1785 17.4313 2.2115 17.2657 2.24416 17.1019C2.2986 16.8286 2.3521 16.5602 2.3521 16.2918C2.55068 15.1338 2.9129 14.0099 3.42798 12.9536C4.95374 9.69354 8.08354 8.03422 13.2086 8.03422H34.726C37.5964 7.81222 40.4456 8.67636 42.707 10.4548C42.9674 10.6757 43.2094 10.9172 43.4306 11.1771Z" fill="url(#paint0_linear_729_235)"/>
<path d="M32.833 30.4643C33.665 31.2637 34.2576 32.4987 33.6854 33.5005C33.5126 33.8029 33.3164 34.1193 33.0658 34.5011C32.0538 36.0421 30.625 37.9653 28.8584 37.9785C28.1324 37.9845 27.6552 37.7663 27.1416 37.5311L27.1409 37.5308C26.5431 37.2572 25.8958 36.9611 24.749 36.9703C23.6115 36.9757 22.9544 37.2677 22.3499 37.5364L22.3488 37.5369L22.3484 37.537C21.8204 37.7718 21.3324 37.9887 20.599 37.9813C18.8325 37.9653 17.48 36.2327 16.4671 34.6943C13.6347 30.3793 13.3358 25.3221 15.0863 22.6313C16.3246 20.7233 18.2845 19.6027 20.1246 19.6027C21.1057 19.6027 21.896 19.885 22.6487 20.1539L22.6498 20.1543C23.3346 20.3991 23.9884 20.6327 24.7264 20.6327C25.4096 20.6327 25.9714 20.4195 26.5844 20.1867L26.5847 20.1865C27.3208 19.9072 28.1306 19.5999 29.313 19.5999C30.2652 19.5999 31.2492 19.9013 32.1496 20.4561C33.209 21.1089 32.8674 22.5813 32.1436 23.5935C30.6366 25.7011 30.9794 28.6835 32.833 30.4643Z" fill="url(#paint1_linear_729_235)"/>
<path d="M27.6682 17.8777C28.118 17.3002 28.506 16.5873 28.7158 15.8109C28.9878 14.8043 28.0104 14.0298 27.0734 14.4872C26.3412 14.8445 25.6574 15.3619 25.1678 15.9546C24.6778 16.5509 24.2392 17.3256 24.0344 18.1578C23.81 19.0707 24.6666 19.8079 25.5416 19.4639C26.3808 19.1339 27.1428 18.5541 27.6682 17.8777Z" fill="url(#paint2_linear_729_235)"/>
<path d="M25.8999 8C25.8999 8 24.5 8 23.8756 7.33221L21.7655 4.72632C20.7709 3.61577 19.2553 2.9785 17.6614 3.00055H13.1314C7.3999 3.00055 2.00079 5.5 2.00014 14.5113L2.00079 18.7391C1.99069 19.6007 2.03123 13.6521 5 11C5 11 7.06043 8 13 8C17.4533 8 23 8 23 8C24.5 8 23.8999 8 25.8999 8Z" fill="url(#paint3_linear_729_235)"/>
<defs>
<linearGradient id="paint0_linear_729_235" x1="24" y1="8.84504" x2="21.6036" y2="64.5572" gradientUnits="userSpaceOnUse">
<stop stop-color="#FFC700"/>
<stop offset="0.1987" stop-color="#FF49AB"/>
<stop offset="0.37955" stop-color="#BA49FF"/>
<stop offset="0.53125" stop-color="#5849FF"/>
<stop offset="0.84375" stop-color="#1EFFD6"/>
<stop offset="0.9999" stop-color="#00FFFF"/>
</linearGradient>
<linearGradient id="paint1_linear_729_235" x1="24" y1="8.84504" x2="21.6036" y2="64.5572" gradientUnits="userSpaceOnUse">
<stop stop-color="#FFC700"/>
<stop offset="0.1987" stop-color="#FF49AB"/>
<stop offset="0.37955" stop-color="#BA49FF"/>
<stop offset="0.53125" stop-color="#5849FF"/>
<stop offset="0.84375" stop-color="#1EFFD6"/>
<stop offset="0.9999" stop-color="#00FFFF"/>
</linearGradient>
<linearGradient id="paint2_linear_729_235" x1="24" y1="8.84504" x2="21.6036" y2="64.5572" gradientUnits="userSpaceOnUse">
<stop stop-color="#FFC700"/>
<stop offset="0.1987" stop-color="#FF49AB"/>
<stop offset="0.37955" stop-color="#BA49FF"/>
<stop offset="0.53125" stop-color="#5849FF"/>
<stop offset="0.84375" stop-color="#1EFFD6"/>
<stop offset="0.9999" stop-color="#00FFFF"/>
</linearGradient>
<linearGradient id="paint3_linear_729_235" x1="13.9495" y1="3.35963" x2="13.1498" y2="27.0865" gradientUnits="userSpaceOnUse">
<stop stop-color="#FFC700"/>
<stop offset="0.1987" stop-color="#FF49AB"/>
<stop offset="0.37955" stop-color="#BA49FF"/>
<stop offset="0.53125" stop-color="#5849FF"/>
<stop offset="0.84375" stop-color="#1EFFD6"/>
<stop offset="0.9999" stop-color="#00FFFF"/>
</linearGradient>
</defs>
</svg>
