<svg width="48" height="48" viewBox="0 0 48 48" fill="none" xmlns="http://www.w3.org/2000/svg">
<path opacity="0.5" fill-rule="evenodd" clip-rule="evenodd" d="M45.0348 13.7871C44.6784 12.7652 44.1346 11.8185 43.4306 10.9955C43.2094 10.7356 42.9674 10.4941 42.707 10.2732C40.4456 8.49472 37.5964 7.63058 34.726 7.85258H13.2086C8.08354 7.85258 4.95374 9.5119 3.42798 12.772C2.9129 13.8283 2.55068 14.9522 2.3521 16.1102C2.3521 16.3786 2.2986 16.6471 2.24416 16.9203C2.2115 17.0841 2.1785 17.2498 2.1565 17.4181C2.05186 18.3776 1.99962 19.3421 2 20.3073V31.8639C1.99958 32.8383 2.07808 33.8111 2.23474 34.7727C2.48112 36.4721 3.06644 38.1051 3.95612 39.5749C4.3614 40.2843 4.85428 40.9403 5.42322 41.5271C8.03816 43.9187 11.5051 45.1633 15.0473 44.9825H32.9264C36.463 45.1647 39.9242 43.9195 42.5308 41.5271C43.1066 40.9413 43.6062 40.2855 44.0176 39.5749C44.9124 38.1041 45.5106 36.4727 45.778 34.7727C45.9184 33.8095 45.9904 32.8375 45.9932 31.8639V20.3073C46.06 18.0946 45.7356 15.8874 45.0348 13.7871Z" fill="url(#paint0_linear_728_110)"/>
<path d="M14 33.9192C14 30.6556 18.3664 29.81 23.5414 29.81C28.6882 29.81 33.0828 30.6258 33.0828 33.8908C33.0828 37.1544 28.7164 38 23.5414 38C18.3946 38 14 37.1842 14 33.9192Z" fill="url(#paint1_linear_728_110)"/>
<path d="M23.5414 26.7006C27.0456 26.7006 29.8554 23.8746 29.8554 20.3502C29.8554 16.8246 27.0456 14 23.5414 14C20.0372 14 17.2275 16.8246 17.2275 20.3502C17.2275 23.8746 20.0372 26.7006 23.5414 26.7006Z" fill="url(#paint2_linear_728_110)"/>
<path d="M25.8999 8C25.8999 8 24.5 8 23.8756 7.33221L21.7655 4.72632C20.7709 3.61577 19.2553 2.9785 17.6614 3.00055H13.1314C7.3999 3.00055 2.00079 5.5 2.00014 14.5113L2.00079 18.7391C1.99069 19.6007 2.03123 13.6521 5 11C5 11 7.06043 8 13 8C17.4533 8 23 8 23 8C24.5 8 23.8999 8 25.8999 8Z" fill="url(#paint3_linear_728_110)"/>
<defs>
<linearGradient id="paint0_linear_728_110" x1="24" y1="45" x2="24" y2="8" gradientUnits="userSpaceOnUse">
<stop stop-color="#DE00FF"/>
<stop offset="1" stop-color="#FF71E6"/>
</linearGradient>
<linearGradient id="paint1_linear_728_110" x1="23.1266" y1="32.2006" x2="27.0206" y2="14.8752" gradientUnits="userSpaceOnUse">
<stop stop-color="#8D01A2"/>
<stop offset="1" stop-color="#FF00D2"/>
</linearGradient>
<linearGradient id="paint2_linear_728_110" x1="23.1266" y1="32.2006" x2="27.0206" y2="14.8752" gradientUnits="userSpaceOnUse">
<stop stop-color="#8D01A2"/>
<stop offset="1" stop-color="#FF00D2"/>
</linearGradient>
<linearGradient id="paint3_linear_728_110" x1="13.4304" y1="15" x2="14.8306" y2="3.16568" gradientUnits="userSpaceOnUse">
<stop stop-color="#8D01A2"/>
<stop offset="1" stop-color="#FF00D2"/>
</linearGradient>
</defs>
</svg>
