<svg width="48" height="48" viewBox="0 0 48 48" fill="none" xmlns="http://www.w3.org/2000/svg">
<path opacity="0.5" fill-rule="evenodd" clip-rule="evenodd" d="M43.4306 11.1771C44.1346 12.0001 44.6784 12.9468 45.0348 13.9687C45.7356 16.069 46.06 18.2762 45.9932 20.4889V32.0455C45.9904 33.0191 45.9184 33.9911 45.778 34.9543C45.5106 36.6543 44.9124 38.2857 44.0176 39.7565C43.6062 40.4671 43.1066 41.1229 42.5308 41.7087C39.9242 44.1011 36.463 45.3463 32.9264 45.1641H15.0473C11.5051 45.3449 8.03816 44.1003 5.42322 41.7087C4.85428 41.1219 4.3614 40.4659 3.95612 39.7565C3.06644 38.2867 2.48112 36.6537 2.23474 34.9543C2.07808 33.9927 1.99958 33.0199 2 32.0455V20.4889C1.99962 19.5237 2.05186 18.5592 2.1565 17.5997C2.1785 17.4314 2.2115 17.2657 2.24416 17.1019C2.2986 16.8287 2.3521 16.5602 2.3521 16.2918C2.55068 15.1338 2.9129 14.0099 3.42798 12.9536C4.95374 9.69354 8.08354 8.03422 13.2086 8.03422H34.726C37.5964 7.81222 40.4456 8.67636 42.707 10.4548C42.9674 10.6757 43.2094 10.9172 43.4306 11.1771Z" fill="url(#paint0_linear_729_313)"/>
<path d="M20.6928 37.7203V34.0399C20.6928 33.1075 21.4244 32.3497 22.3308 32.3439H25.6588C26.5692 32.3439 27.3072 33.1033 27.3072 34.0399V37.7095C27.3072 38.5185 27.9414 39.1759 28.7276 39.1817H30.9982C32.0586 39.1845 33.0764 38.7531 33.8272 37.9825C34.578 37.2121 35 36.1659 35 35.0747V24.6207C35 23.7393 34.6202 22.9033 33.9632 22.3379L26.2498 15.9908C24.9014 14.8806 22.9756 14.9165 21.6672 16.0761L14.1197 22.3379C13.4316 22.8867 13.0203 23.7251 13 24.6207V35.0641C13 37.3381 14.7917 39.1817 17.0019 39.1817H19.2205C19.599 39.1845 19.963 39.0317 20.2316 38.7575C20.5002 38.4831 20.6512 38.1097 20.6512 37.7203H20.6928Z" fill="url(#paint1_linear_729_313)"/>
<path d="M25.8999 8C25.8999 8 24.5 8 23.8756 7.33221L21.7655 4.72632C20.7709 3.61577 19.2553 2.9785 17.6614 3.00055H13.1314C7.3999 3.00055 2.00079 5.5 2.00014 14.5113L2.00079 18.7391C1.99069 19.6007 2.03123 13.6521 5 11C5 11 7.06043 8 13 8C17.4533 8 23 8 23 8C24.5 8 23.8999 8 25.8999 8Z" fill="url(#paint2_linear_729_313)"/>
<defs>
<linearGradient id="paint0_linear_729_313" x1="24.0008" y1="45.1815" x2="24.0008" y2="8" gradientUnits="userSpaceOnUse">
<stop stop-color="#02AA93"/>
<stop offset="1" stop-color="#67FF80"/>
</linearGradient>
<linearGradient id="paint1_linear_729_313" x1="24.0008" y1="45.1815" x2="24.0008" y2="8" gradientUnits="userSpaceOnUse">
<stop stop-color="#02AA93"/>
<stop offset="1" stop-color="#67FF80"/>
</linearGradient>
<linearGradient id="paint2_linear_729_313" x1="14" y1="14.5" x2="14" y2="2.5" gradientUnits="userSpaceOnUse">
<stop stop-color="#02AA93"/>
<stop offset="1" stop-color="#67FF80"/>
</linearGradient>
</defs>
</svg>
